<?xml version="1.0" standalone="no"?>
<!DOCTYPE svg PUBLIC "-//W3C//DTD SVG 1.1//EN" "http://www.w3.org/Graphics/SVG/1.1/DTD/svg11.dtd" >
<svg xmlns="http://www.w3.org/2000/svg">
<metadata></metadata>
<defs>
<font id="clarkemedium_-_oblique" horiz-adv-x="962" >
<font-face units-per-em="2048" ascent="1536" descent="-512" />
<missing-glyph horiz-adv-x="716" />
<glyph horiz-adv-x="0" />
<glyph horiz-adv-x="682" />
<glyph unicode=" "  horiz-adv-x="716" />
<glyph unicode="&#x09;" horiz-adv-x="716" />
<glyph unicode="&#xa0;" horiz-adv-x="716" />
<glyph unicode="!" horiz-adv-x="481" d="M127 29l33 184q1 12 11 20.5t22 8.5h178q12 0 19 -8.5t5 -20.5l-33 -184q-2 -12 -11 -20.5t-21 -8.5h-178q-12 0 -19.5 8.5t-5.5 20.5zM186 369l220 1241q7 28 34 28h178q12 0 19 -8t4 -20l-219 -1241q-1 -12 -11 -20.5t-22 -8.5h-178q-12 0 -19.5 8.5t-5.5 20.5z" />
<glyph unicode="&#x22;" horiz-adv-x="552" d="M281 1417l38 221q1 12 11 20.5t22 8.5h168q12 0 19.5 -8.5t5.5 -20.5l-39 -221q-9 -48 -47.5 -81t-85.5 -33t-74 33.5t-18 80.5zM547 1417l39 221q2 12 11 20.5t21 8.5h168q12 0 19.5 -8.5t5.5 -20.5l-39 -221q-9 -48 -47.5 -81t-85.5 -33t-74 33.5t-18 80.5z" />
<glyph unicode="#" horiz-adv-x="1437" d="M199 489l28 166q1 12 11 20.5t22 8.5h193l102 227h-156q-12 0 -19 8.5t-5 20.5l31 166q2 12 11 20.5t21 8.5h215l133 299h226l-135 -299h247l133 299h226l-135 -299h147q12 0 19.5 -8.5t5.5 -20.5l-31 -166q-1 -12 -11 -20.5t-22 -8.5h-209l-102 -227h158q12 0 19 -8.5 t5 -20.5l-29 -166q-7 -28 -34 -28h-217l-115 -256h-219l112 256h-250l-114 -256h-219l112 256h-133q-12 0 -18.5 8t-3.5 20zM674 684h250l102 227h-250z" />
<glyph unicode="$" horiz-adv-x="917" d="M131 229l45 254q3 12 13 20.5t22 8.5h178q12 0 19 -8.5t4 -20.5l-39 -219q-4 -25 10 -42t39 -17h143q25 0 45.5 17t24.5 42l74 416q4 25 -10.5 42t-39.5 17h-198q-99 0 -157.5 70.5t-39.5 169.5l76 430q17 99 99.5 169.5t181.5 70.5h24l17 84q1 12 10.5 20t21.5 8h137 q12 0 19 -8t6 -20l-16 -84h24q99 0 157.5 -70.5t41.5 -169.5l-27 -152q-3 -12 -13 -20t-22 -8h-178q-12 0 -18.5 8t-3.5 20l18 109q4 25 -10 42t-39 17h-133q-25 0 -45.5 -17t-24.5 -42l-61 -352q-5 -25 9.5 -42.5t39.5 -17.5h199q98 0 155.5 -69.5t40.5 -169.5l-86 -486 q-17 -99 -99 -169t-181 -70h-35l-14 -78q-1 -12 -12 -20.5t-23 -8.5h-138q-12 0 -18 8.5t-4 20.5l14 78h-24q-99 0 -157.5 70t-41.5 169z" />
<glyph unicode="%" horiz-adv-x="1880" d="M297 997l74 412q17 100 99.5 170t180.5 70h193q99 0 157 -70.5t41 -169.5l-73 -412q-17 -99 -99.5 -169t-181.5 -70h-192q-99 0 -157.5 70t-41.5 169zM539 1032q-3 -25 11 -42t38 -17h82q25 0 45.5 17.5t23.5 41.5l60 334q4 25 -10 42t-39 17h-82q-25 0 -45.5 -17 t-24.5 -42zM601 8.5q-2 6.5 5 20.5l713 1581q6 13 16.5 20t17.5 8h7h205l5 -2q4 -7 -5 -26l-719 -1581q-5 -13 -15 -20t-17 -8l-7 -1h-199q-2 0 -3.5 1t-3.5 7.5zM1124 229l74 412q17 99 99.5 169.5t181.5 70.5h192q99 0 157.5 -70.5t41.5 -169.5l-74 -412q-17 -99 -99 -169 t-181 -70h-193q-99 0 -157.5 70t-41.5 169zM1366 264q-4 -25 10 -42t39 -17h82q25 0 45.5 17t24.5 42l59 334q4 25 -10 42t-39 17h-82q-25 0 -45.5 -17t-24.5 -42z" />
<glyph unicode="&#x26;" horiz-adv-x="1003" d="M113 240l39 215q7 46 73.5 141.5t190.5 255.5q-104 330 -92 408l26 149q17 99 99.5 169.5t181.5 70.5h147q99 0 157.5 -70.5t41.5 -169.5l-29 -156q-11 -67 -278 -411l59 -197l53 74q2 2 5.5 6.5t5.5 7t5.5 6t6.5 5t6.5 3t7.5 1.5h178q12 0 17 -9t-4 -20l-207 -295 l131 -395q3 -11 -4 -20t-19 -9h-178q-25 0 -35 29q-24 66 -59 164l-135 -193h-193q-99 0 -157 70.5t-41 169.5zM354 274q-4 -25 10 -42t39 -17h15l143 197l-67 198q-106 -146 -111 -180zM563 1278q-7 -41 35 -191q113 143 119 187q1 4 2.5 12t5.5 30.5t10 57.5 q5 25 -9.5 42.5t-39.5 17.5h-37q-25 0 -44.5 -17.5t-24.5 -42.5z" />
<glyph unicode="'" horiz-adv-x="286" d="M281 1417l38 221q1 12 11 20.5t22 8.5h168q12 0 19.5 -8.5t5.5 -20.5l-39 -221q-9 -48 -47.5 -81t-85.5 -33t-74 33.5t-18 80.5z" />
<glyph unicode="(" horiz-adv-x="614" d="M123 4l287 1630q19 100 101.5 170t180.5 70h152q12 0 18.5 -8.5t3.5 -20.5l-28 -166q-1 -12 -11 -20t-22 -8h-96q-25 0 -46 -17.5t-24 -42.5l-274 -1552q-4 -25 10 -42t39 -17h96q12 0 18.5 -8.5t3.5 -20.5l-26 -158q-3 -12 -13 -20.5t-22 -8.5h-152q-99 0 -157 70.5 t-39 169.5z" />
<glyph unicode=")" horiz-adv-x="614" d="M35 -207l26 158q3 12 13 20.5t22 8.5h97q25 0 44.5 17t24.5 42l275 1552q3 25 -11.5 42.5t-38.5 17.5h-96q-12 0 -19 8t-5 20l28 166q3 12 13 20.5t22 8.5h152q99 0 157 -70.5t39 -169.5l-286 -1630q-19 -100 -102 -170t-181 -70h-152q-12 0 -18.5 8.5t-3.5 20.5z" />
<glyph unicode="*" horiz-adv-x="671" d="M355.5 1420q-3.5 12 4.5 24l25 55q17 35 39 21l102 -54q23 -13 13 -34l-9 -19q-9 -21 -36 -18l-121 12q-14 1 -17.5 13zM399 1262l97 94q24 21 41 10l14 -10q14 -9 4 -39l-66 -115q-14 -28 -40 -10l-46 31q-27 16 -4 39zM561 1489v121q0 14 10.5 21t24.5 7h59 q14 0 21.5 -7t1.5 -21l-41 -121q-13 -29 -35 -29h-18q-23 0 -23 29zM584 1317q-6 25 14 41l18 8q22 11 37 -10l64 -92q17 -22 -17 -39l-55 -31q-10 -7 -23 -5.5t-16 15.5zM637 1411v19q-3 18 27 34l118 49q29 12 33 -18l4 -57q2 -13 -5 -24.5t-21 -12.5l-123 -10 q-30 0 -33 20z" />
<glyph unicode="+" horiz-adv-x="937" d="M248 715l28 166q3 12 13 20t22 8h205l35 205q3 12 13 20.5t22 8.5h166q12 0 18.5 -8.5t3.5 -20.5l-35 -205h207q12 0 19 -8t4 -20l-29 -166q-1 -12 -11 -20.5t-22 -8.5h-207l-36 -207q-3 -12 -13 -20t-22 -8h-166q-12 0 -19 8t-4 20l37 207h-205q-12 0 -19 8.5t-5 20.5z " />
<glyph unicode="," horiz-adv-x="342" d="M66 86l22 131q3 12 13 20.5t22 8.5h182q12 0 19 -8.5t4 -20.5l-43 -250q-10 -57 -47 -88t-93 -31q-9 0 -14.5 7t-3.5 16l23 119h-3q-41 0 -65 28.5t-16 67.5z" />
<glyph unicode="-" horiz-adv-x="937" d="M248 715l28 166q3 12 13 20t22 8h635q12 0 19 -8t4 -20l-29 -166q-1 -12 -11 -20.5t-22 -8.5h-635q-12 0 -19 8.5t-5 20.5z" />
<glyph unicode="." horiz-adv-x="342" d="M55 29l33 188q3 12 13 20.5t22 8.5h182q12 0 19 -8.5t4 -20.5l-33 -188q-1 -12 -11 -20.5t-22 -8.5h-182q-12 0 -19.5 8.5t-5.5 20.5z" />
<glyph unicode="/" horiz-adv-x="831" d="M75 8.5q-2 6.5 5 20.5l713 1581q6 13 16.5 20t17.5 8h7h204l5 -2q4 -7 -5 -26l-719 -1581q-5 -13 -14.5 -20t-16.5 -8l-7 -1h-199q-2 0 -3.5 1t-3.5 7.5z" />
<glyph unicode="0" horiz-adv-x="937" d="M141 229l209 1180q17 99 99.5 169.5t181.5 70.5h254q99 0 157 -70.5t41 -169.5l-209 -1180q-17 -99 -99 -169t-181 -70h-254q-99 0 -157.5 70t-41.5 169zM383 264q-4 -25 10 -42t39 -17h143q25 0 45.5 17t24.5 42l195 1102q4 25 -10 42t-39 17h-144q-25 0 -44.5 -17 t-24.5 -42z" />
<glyph unicode="1" horiz-adv-x="634" d="M281 29l237 1349h-125q-12 0 -18.5 8.5t-3.5 20.5l14 88l180 143h207q12 0 19 -8t4 -20l-279 -1581q-1 -12 -11 -20.5t-22 -8.5h-178q-12 0 -19 8.5t-5 20.5z" />
<glyph unicode="2" horiz-adv-x="913" d="M96 29l35 194q27 36 71.5 96t159 220t203.5 289.5t165 254.5t83 166l21 117q4 25 -10.5 42t-39.5 17h-127q-25 0 -44.5 -17t-24.5 -42l-15 -88q-3 -12 -12.5 -20.5t-21.5 -8.5h-179q-12 0 -18.5 8.5t-3.5 20.5l22 131q17 99 99.5 169.5t181.5 70.5h238q99 0 157 -70.5 t41 -169.5l-28 -160q-11 -64 -179 -320.5t-330 -480.5l-163 -225h465q12 0 18.5 -8t3.5 -20l-28 -166q-1 -12 -11 -20.5t-22 -8.5h-682q-12 0 -19.5 8.5t-5.5 20.5z" />
<glyph unicode="3" horiz-adv-x="942" d="M145 229l25 133q1 12 11 20.5t22 8.5h178q12 0 19.5 -8.5t5.5 -20.5l-19 -98q-4 -25 10 -42t39 -17h144q25 0 44.5 17t24.5 42l74 412q4 25 -10 42t-39 17h-99q-22 3 -18 29l31 166q1 12 11 20t22 8h92q25 0 44.5 17.5t24.5 42.5l62 348q4 25 -10 42t-39 17h-148 q-25 0 -44.5 -17t-24.5 -42l-15 -88q-3 -12 -13 -20.5t-22 -8.5h-178q-12 0 -18.5 8.5t-3.5 20.5l22 131q17 99 99.5 169.5t181.5 70.5h258q99 0 157 -70.5t41 -169.5l-75 -426q-12 -71 -64 -133q32 -59 17 -131l-86 -490q-17 -99 -99.5 -169t-181.5 -70h-254 q-99 0 -157.5 70t-41.5 169z" />
<glyph unicode="4" horiz-adv-x="819" d="M68 276l34 195l658 1139q6 13 15 20t15 8h5h178q12 1 18.5 -7.5t3.5 -20.5l-200 -1139h57q12 0 19.5 -8.5t5.5 -20.5l-31 -166q-1 -12 -11 -20t-22 -8h-57l-39 -219q-1 -12 -11 -20.5t-22 -8.5h-178q-12 0 -19.5 8.5t-5.5 20.5l39 219h-428q-12 0 -19 8t-5 20zM344 471 h223l109 612z" />
<glyph unicode="5" horiz-adv-x="937" d="M162 229l45 254q3 12 13 20.5t22 8.5h178q12 0 18.5 -8.5t3.5 -20.5l-39 -219q-4 -25 10.5 -42t39.5 -17h143q25 0 45.5 17t24.5 42l79 451q4 25 -10 42t-39 17h-403q-12 0 -19 8.5t-4 20.5l142 807q7 28 34 28h621q12 0 19 -8t4 -20l-29 -168q-3 -12 -13 -20.5t-22 -8.5 h-414l-73 -424h252q98 0 155.5 -69.5t40.5 -169.5l-92 -521q-17 -99 -99.5 -169t-181.5 -70h-254q-99 0 -157 70t-41 169z" />
<glyph unicode="6" horiz-adv-x="917" d="M141 229l209 1180q17 99 99.5 169.5t181.5 70.5h231q99 0 157.5 -70.5t41.5 -169.5l-27 -152q-3 -12 -13 -20t-22 -8h-178q-12 0 -18.5 8t-3.5 20l18 109q4 25 -10 42t-39 17h-121q-25 0 -44.5 -17t-24.5 -42l-72 -405h258q99 0 157.5 -70.5t41.5 -169.5l-89 -492 q-17 -99 -99 -169t-181 -70h-254q-99 0 -157.5 70t-41.5 169zM383 264q-4 -25 10 -42t39 -17h143q25 0 45.5 17t24.5 42l74 414q4 25 -10 42t-39 17h-203z" />
<glyph unicode="7" horiz-adv-x="815" d="M238.5 8.5q-4.5 6.5 1.5 20.5l540 1386h-442q-12 0 -19 8.5t-4 20.5l29 166q3 12 13 20t22 8h635q12 0 18.5 -8t3.5 -20l-35 -195l-536 -1386q-4 -13 -12 -20t-13 -8l-6 -1h-184q-2 0 -4.5 1t-7 7.5z" />
<glyph unicode="8" horiz-adv-x="942" d="M141 229l86 488q3 14 7.5 27t11 24t14 20.5t15.5 17.5t15 14t14.5 11.5t12 8.5t9.5 6l4 2q-73 36 -56 133l76 428q17 99 99.5 169.5t181.5 70.5h258q99 0 157 -70.5t41 -169.5l-75 -428q-5 -30 -17 -54.5t-25 -38t-28 -23t-23.5 -13t-13.5 -4.5q4 -2 9.5 -6t18 -15 t19.5 -25.5t13.5 -36.5t-0.5 -48l-86 -488q-17 -99 -99.5 -169t-181.5 -70h-258q-99 0 -157.5 70t-41.5 169zM383 264q-4 -25 10 -42t39 -17h148q25 0 44.5 17t24.5 42l74 410q3 25 -11 42t-38 17h-148q-25 0 -45.5 -17.5t-23.5 -41.5zM516 1016q-5 -25 9.5 -42.5 t39.5 -17.5h154q22 1 40 19t23 41l62 350q4 25 -10 42t-39 17h-148q-25 0 -44.5 -17t-24.5 -42z" />
<glyph unicode="9" horiz-adv-x="937" d="M162 229l26 152q3 12 13 20.5t22 8.5h178q12 0 19 -8.5t4 -20.5l-18 -109q-4 -25 10 -42t39 -17h123q25 0 44.5 17t24.5 42l66 369h-258q-99 0 -157.5 70.5t-41.5 169.5l94 528q17 99 99.5 169.5t181.5 70.5h254q99 0 157 -70.5t41 -169.5l-209 -1180q-17 -99 -99 -169 t-181 -70h-234q-99 0 -157 70t-41 169zM500 924q-5 -25 9.5 -42.5t39.5 -17.5h203l90 510q5 25 -9.5 42.5t-39.5 17.5h-144q-25 0 -44.5 -17.5t-24.5 -42.5z" />
<glyph unicode=":" horiz-adv-x="423" d="M96 29l33 188q3 12 13 20.5t22 8.5h182q12 0 19 -8.5t4 -20.5l-33 -188q-1 -12 -11 -20.5t-22 -8.5h-182q-12 0 -19.5 8.5t-5.5 20.5zM256 934l33 188q3 12 13 20.5t22 8.5h182q12 0 18.5 -8.5t3.5 -20.5l-32 -188q-3 -12 -13 -20.5t-22 -8.5h-182q-12 0 -19 8.5t-4 20.5 z" />
<glyph unicode=";" horiz-adv-x="423" d="M106 86l23 131q3 12 13 20.5t22 8.5h182q12 0 19 -8.5t4 -20.5l-43 -250q-10 -57 -47 -88t-93 -31q-9 0 -14.5 7t-3.5 16l22 119h-2q-41 0 -65.5 29t-16.5 67zM256 934l33 188q3 12 13 20.5t22 8.5h182q12 0 18.5 -8.5t3.5 -20.5l-32 -188q-3 -12 -13 -20.5t-22 -8.5 h-182q-12 0 -19 8.5t-4 20.5z" />
<glyph unicode="&#x3c;" horiz-adv-x="628" d="M195 772q-10 29 10 57l358 471q10 13 21 20t16 8l6 1h193l7 -3q6 -7 -9 -26l-367 -499l191 -500q5 -14 3 -20.5t-7 -7.5l-5 -1h-192q-21 0 -33 29z" />
<glyph unicode="=" horiz-adv-x="937" d="M219 551l29 166q3 12 13 20t22 8h635q12 0 18.5 -8t3.5 -20l-29 -166q-1 -12 -11.5 -20.5t-22.5 -8.5h-635q-12 0 -18.5 8.5t-4.5 20.5zM276 879l29 165q3 12 13 20.5t22 8.5h635q12 0 18.5 -8.5t3.5 -20.5l-28 -165q-1 -12 -11 -20.5t-22 -8.5h-635q-12 0 -19.5 8.5 t-5.5 20.5z" />
<glyph unicode="&#x3e;" horiz-adv-x="628" d="M102.5 281q-0.5 7 8.5 20l366 500l-190 499q-4 14 -2 20.5t7 7.5l5 1h192q21 0 31 -29l195 -471q10 -32 -10 -57l-361 -471q-9 -13 -19 -20t-16 -8l-6 -1h-192q-2 0 -5 1t-3.5 8z" />
<glyph unicode="?" horiz-adv-x="907" d="M276 29l33 184q1 12 11 20.5t22 8.5h178q12 0 19.5 -8.5t5.5 -20.5l-33 -184q-1 -12 -11 -20.5t-22 -8.5h-178q-12 0 -19.5 8.5t-5.5 20.5zM303 1257l27 152q17 100 99.5 170t180.5 70h244q99 0 157.5 -70.5t41.5 -169.5l-84 -479q-19 -100 -102 -170t-181 -70 q-25 0 -45.5 -17t-24.5 -42l-47 -262q-2 -12 -11 -20.5t-21 -8.5h-179q-12 0 -19 8.5t-5 20.5l53 297q17 99 99.5 169t181.5 70q25 0 46 17.5t25 42.5l70 401q4 25 -10 42t-39 17h-133q-25 0 -45.5 -17t-24.5 -42l-18 -109q-3 -12 -13 -20t-22 -8h-178q-12 0 -19 8t-4 20z " />
<glyph unicode="@" horiz-adv-x="1681" d="M164 240l205 1159q17 99 100 169t182 70h957q98 0 155.5 -69.5t40.5 -169.5l-145 -821q-17 -99 -99.5 -169.5t-181.5 -70.5h-110q-72 0 -119 33q-56 -33 -125 -33h-254q-99 0 -157.5 70.5t-41.5 169.5l72 409q19 100 102 170t181 70h254q99 0 157 -70.5t39 -169.5 l-65 -375q-4 -25 10 -42t39 -17t45.5 17t24.5 42l131 744q4 25 -10.5 42t-39.5 17h-845q-25 0 -45.5 -17t-24.5 -42l-190 -1082q-4 -25 10 -42t39 -17h1097q12 0 19.5 -8.5t5.5 -20.5l-29 -157q-2 -12 -11 -20.5t-21 -8.5h-1154q-99 0 -157 70.5t-41 169.5zM813 612 q-4 -25 10 -42t39 -17h144q23 0 42 14.5t27 36.5l60 340q4 25 -10.5 42.5t-39.5 17.5h-143q-25 0 -45 -17.5t-25 -42.5z" />
<glyph unicode="A" d="M88 8q-2 3 -3 8q0 5 3 13l551 1581q4 13 13.5 20t16.5 8h7h188q3 0 7.5 -0.5t11.5 -7.5t6 -20l-6 -1581q0 -13 -5.5 -20t-10.5 -8l-5 -1h-194q-2 0 -5.5 1t-9.5 8t-6 20l2 219h-250l-75 -219q-4 -13 -11 -20t-13 -8l-5 -1h-195q-2 0 -5 1t-7 7zM475 471h176l27 647z" />
<glyph unicode="B" horiz-adv-x="972" d="M127 29l279 1581q7 28 34 28h428q98 0 156 -70q44 -54 45 -125q0 -21 -4 -44l-78 -441q-8 -51 -41 -102q40 -52 40 -116q0 -22 -5 -46l-80 -454q-17 -100 -99.5 -170t-180.5 -70h-469q-12 0 -19.5 8.5t-5.5 20.5zM395 215h207q25 0 45.5 17t24.5 42l69 390q3 23 -9 39.5 t-34 19.5h-213zM522 930h172q23 3 41.5 19.5t22.5 39.5l63 367q1 6 1 11q0 18 -11 31q-14 17 -39 17h-166z" />
<glyph unicode="C" horiz-adv-x="952" d="M162 229l209 1180q17 100 99.5 170t180.5 70h248q99 -1 157 -71q45 -55 46 -126q0 -21 -4 -43l-27 -152q-3 -12 -13 -20t-22 -8h-178q-12 0 -18.5 8t-3.5 20l18 109q4 25 -10 42t-39 17h-137q-25 0 -45.5 -17t-24.5 -42l-195 -1102q-4 -25 10.5 -42t39.5 -17h147 q25 0 45.5 17t24.5 42l39 219q3 12 12.5 20.5t21.5 8.5h179q12 0 18.5 -8.5t3.5 -20.5l-45 -254q-17 -99 -99.5 -169t-181.5 -70h-258q-99 0 -157 70q-45 54 -45 126q0 21 4 43z" />
<glyph unicode="D" horiz-adv-x="983" d="M127 29l279 1581q7 28 34 28h469q99 0 157 -70q44 -54 44 -125q0 -21 -4 -44l-205 -1159q-17 -100 -99.5 -170t-180.5 -70h-469q-12 0 -19.5 8.5t-5.5 20.5zM397 223h207q25 0 45 17.5t25 42.5l188 1073q1 6 1 11q0 18 -11 31q-14 17 -39 17h-207z" />
<glyph unicode="E" horiz-adv-x="907" d="M127 29l279 1581q7 28 34 28h623q13 0 19 -8q4 -5 4 -13q0 -3 -1 -7l-28 -168q-3 -12 -13 -20.5t-22 -8.5h-416l-78 -438h334q12 0 19.5 -8.5t5.5 -20.5l-29 -166q-3 -12 -13 -20t-22 -8h-334l-92 -529h428q12 0 19 -8t4 -20l-29 -166q-1 -12 -11 -20.5t-22 -8.5h-634 q-12 0 -19.5 8.5t-5.5 20.5z" />
<glyph unicode="F" horiz-adv-x="874" d="M127 29l279 1581q7 28 34 28h623q13 0 19 -8q4 -5 4 -13q0 -3 -1 -7l-28 -168q-3 -12 -13 -20.5t-22 -8.5h-416l-78 -438h334q12 0 19.5 -8.5t5.5 -20.5l-29 -166q-3 -12 -13 -20t-22 -8h-334l-127 -723q-2 -12 -11 -20.5t-21 -8.5h-178q-12 0 -19.5 8.5t-5.5 20.5z" />
<glyph unicode="G" horiz-adv-x="952" d="M162 229l209 1180q17 100 99.5 170t180.5 70h248q99 0 157 -71q46 -54 46 -126q0 -21 -4 -43l-27 -152q-3 -12 -13 -20t-22 -8h-178q-12 0 -18.5 8t-3.5 20l18 109q4 25 -10 42t-39 17h-137q-25 0 -45.5 -17t-24.5 -42l-195 -1102q-4 -25 10.5 -42t39.5 -17h147 q25 0 45.5 17t24.5 42l55 309h-109q-12 0 -19 8.5t-5 20.5l31 166q2 12 11 20.5t21 8.5h316q12 0 19 -8.5t5 -20.5l-96 -539q-17 -99 -99.5 -169t-181.5 -70h-258q-99 0 -157 70q-45 54 -45 126q0 21 4 43z" />
<glyph unicode="H" horiz-adv-x="999" d="M127 29l279 1581q7 28 34 28h178q12 0 19 -8t4 -20l-113 -635h283l113 635q7 28 34 28h179q13 0 19 -8q4 -5 4 -13q0 -3 -1 -7l-278 -1581q-1 -12 -11 -20.5t-22 -8.5h-178q-12 0 -19.5 8.5t-5.5 20.5l127 723h-283l-127 -723q-2 -12 -11 -20.5t-21 -8.5h-178 q-12 0 -19.5 8.5t-5.5 20.5z" />
<glyph unicode="I" horiz-adv-x="481" d="M127 29l279 1581q7 28 34 28h178q12 0 19 -8q5 -6 5 -13q0 -3 -1 -7l-279 -1581q-2 -12 -11 -20.5t-21 -8.5h-178q-12 0 -19.5 8.5t-5.5 20.5z" />
<glyph unicode="J" horiz-adv-x="917" d="M100 229l45 254q3 12 13 20.5t22 8.5h174q12 0 19 -8.5t4 -20.5l-39 -219q-4 -25 10 -42t39 -17h148q25 0 44.5 17t24.5 42l238 1346q3 12 13 20t22 8h178q12 0 19 -8q4 -5 4 -13q0 -3 -1 -7l-243 -1381q-17 -99 -99.5 -169t-181.5 -70h-254q-99 0 -157 70 q-46 54 -46 126q0 21 4 43z" />
<glyph unicode="K" horiz-adv-x="944" d="M127 29l279 1581q7 28 34 28h178q12 0 19 -8t4 -20l-119 -676l393 676q8 13 17.5 20t14.5 8h5h195l9 -3q2 -2 2 -6q0 -7 -7 -19l-395 -680l116 -901q2 -13 -2 -20t-9 -8l-5 -1h-194q-2 0 -5.5 1t-10 8t-9.5 20l-90 567l-123 -213l-62 -354q-2 -12 -11 -20.5t-21 -8.5 h-178q-12 0 -19.5 8.5t-5.5 20.5z" />
<glyph unicode="L" horiz-adv-x="886" d="M127 29l279 1581q7 28 34 28h178q12 0 19 -8t4 -20l-244 -1387h428q12 0 19 -8q5 -6 5 -13q0 -3 -1 -7l-29 -166q-1 -12 -11 -20.5t-22 -8.5h-634q-12 0 -19.5 8.5t-5.5 20.5z" />
<glyph unicode="M" horiz-adv-x="1282" d="M127 29l279 1581q7 28 34 28h170h2q23 0 27 -28l147 -785l422 785q7 13 17.5 20t16.5 8h7h170q12 0 19 -8q5 -6 5 -13q0 -3 -1 -7l-279 -1581q-1 -12 -11 -20.5t-22 -8.5h-178q-12 0 -19 8.5t-5 20.5l159 905l-421 -791l-144 791l-160 -905q-2 -12 -11 -20.5t-21 -8.5 h-178q-12 0 -19.5 8.5t-5.5 20.5z" />
<glyph unicode="N" horiz-adv-x="999" d="M127 29l279 1581q7 28 34 28h176q3 0 6.5 -0.5t10.5 -7.5t8 -20l127 -881l156 881q7 28 34 28h179q13 0 19 -8q4 -5 4 -13q0 -3 -1 -7l-278 -1581q-1 -12 -11 -20.5t-22 -8.5h-166q-3 0 -6.5 1t-11 8t-9.5 20l-153 794l-140 -794q-2 -12 -11 -20.5t-21 -8.5h-178 q-12 0 -19.5 8.5t-5.5 20.5z" />
<glyph unicode="O" horiz-adv-x="987" d="M162 229l209 1180q17 100 99.5 170t180.5 70h262q99 -1 157 -71q45 -55 46 -126q0 -21 -4 -43l-209 -1180q-17 -99 -99 -169t-181 -70h-263q-99 0 -157 70q-45 54 -45 126q0 21 4 43zM403 264q-1 -5 -1 -10q0 -18 12 -32q14 -17 39 -17h151q25 0 45.5 17t24.5 42 l194 1102q1 6 1 11q0 18 -11 31q-14 17 -39 17h-151q-25 0 -45.5 -17t-24.5 -42z" />
<glyph unicode="P" d="M127 29l279 1581q7 28 34 28h469q99 0 157 -70q44 -54 44 -125q0 -21 -4 -44l-88 -502q-19 -100 -102 -170t-181 -70h-262l-111 -628q-2 -12 -11 -20.5t-21 -8.5h-178q-12 0 -19.5 8.5t-5.5 20.5zM512 872h207q25 0 44.5 17.5t24.5 42.5l74 424q1 6 1 11q0 18 -11 31 q-14 17 -39 17h-207z" />
<glyph unicode="Q" horiz-adv-x="987" d="M162 229l209 1180q17 100 99.5 170t180.5 70h262q99 0 157 -71q46 -54 46 -126q0 -21 -4 -43l-209 -1180q-17 -99 -99 -169t-181 -70h-13l-26 -146q-1 -12 -11 -20t-22 -8h-180q-12 0 -19 8t-6 20l27 146h-13q-99 0 -157 70q-45 54 -45 126q0 21 4 43zM403 264 q-1 -5 -1 -10q0 -19 12 -32q14 -17 39 -17h151q25 0 45.5 17t24.5 42l194 1102q1 6 1 11q0 18 -11 31q-14 17 -39 17h-151q-25 0 -45.5 -17t-24.5 -42z" />
<glyph unicode="R" horiz-adv-x="978" d="M127 29l279 1581q7 28 34 28h469q99 0 157 -70q44 -54 44 -125q0 -21 -4 -44l-88 -502q-13 -74 -65.5 -134t-123.5 -89l50 -645q2 -13 -3 -20t-10 -8l-6 -1h-194q-3 0 -6.5 1t-10.5 8t-8 20l-49 628h-119l-111 -628q-2 -12 -11 -20.5t-21 -8.5h-178q-12 0 -19.5 8.5 t-5.5 20.5zM512 872h207q25 0 44.5 17.5t24.5 42.5l74 424q1 6 1 11q0 18 -11 31q-14 17 -39 17h-207z" />
<glyph unicode="S" horiz-adv-x="921" d="M131 229l45 254q3 12 13 20.5t22 8.5h178q12 0 19 -8.5t4 -20.5l-39 -219q-4 -25 10 -42t39 -17h147q25 0 45.5 17t24.5 42l74 416q4 25 -10 42t-39 17h-203q-99 1 -157 71q-44 53 -45 122q0 23 5 47l76 430q17 99 99.5 169.5t181.5 70.5h247q100 -1 158 -71 q45 -55 45 -126q0 -21 -4 -43l-27 -152q-7 -28 -34 -28h-179q-12 0 -18.5 8t-3.5 20l18 109q4 25 -10 42t-39 17h-137q-25 0 -45.5 -17t-24.5 -42l-61 -352q-5 -25 9.5 -42.5t39.5 -17.5h203q98 0 156 -70q44 -54 44 -125q0 -21 -4 -44l-86 -486q-17 -99 -99 -169t-181 -70 h-258q-100 0 -158 70q-45 54 -45 126q0 21 4 43z" />
<glyph unicode="T" horiz-adv-x="937" d="M346 1444l29 166q3 12 13 20t22 8h696q12 0 18 -8q4 -5 5 -13q0 -3 -1 -7l-28 -166q-3 -12 -13 -20.5t-22 -8.5h-231l-244 -1386q-1 -12 -11 -20.5t-22 -8.5h-178q-12 0 -19.5 8.5t-5.5 20.5l244 1386h-229q-12 1 -19 9q-5 6 -5 13q0 3 1 7z" />
<glyph unicode="U" horiz-adv-x="983" d="M162 229l244 1381q7 28 34 28h178q12 0 19 -8t4 -20l-238 -1346q-4 -25 10.5 -42t39.5 -17h147q25 0 45.5 17t24.5 42l237 1346q3 12 13 20t22 8h178q12 0 19 -8q5 -6 5 -13q0 -3 -1 -7l-244 -1381q-17 -99 -99.5 -169t-181.5 -70h-258q-99 0 -157 70q-45 54 -45 126 q0 21 4 43z" />
<glyph unicode="V" horiz-adv-x="942" d="M350 29l6 1581q1 13 6.5 20t11.5 8h5h194q2 0 5.5 -0.5t9 -7.5t4.5 -20l-27 -1069l350 1069q4 13 12 20t13 8h6h195h2t4 -1.5t5 -4t2 -8.5t-3 -14l-551 -1581q-4 -13 -12.5 -20t-15.5 -8l-7 -1h-188q-3 0 -7.5 1t-12 8t-7.5 20z" />
<glyph unicode="W" horiz-adv-x="1509" d="M350 29l6 1581q1 13 6.5 20t11.5 8h5h194q2 0 5.5 -0.5t9 -7.5t4.5 -20l-27 -1069l350 1069q4 13 12 20t13 8h6h195h2q16 -8 16 -28l-26 -1069l350 1069q4 13 11.5 20t13.5 8h5h195h2t4 -1.5t5 -4t2 -8.5t-3 -14l-551 -1581q-4 -13 -12.5 -20t-14.5 -8l-7 -1h-189 q-3 0 -7.5 1t-11.5 8t-7 20l2 921l-320 -921q-4 -13 -12.5 -20t-15.5 -8l-7 -1h-188q-3 0 -7.5 1t-12 8t-7.5 20z" />
<glyph unicode="X" horiz-adv-x="892" d="M65 12q0 6 5 17l397 827l-98 754q-1 13 2 20t7 8h3h205q3 0 7.5 -0.5t12 -7.5t8.5 -20l35 -449l195 449q6 13 16.5 20t17.5 8h7h205l5 -2q1 -2 1 -5q0 -7 -6 -21l-367 -754l108 -827q2 -13 -0.5 -20t-6.5 -8l-3 -1h-198q-27 0 -31 29l-49 526l-234 -526q-5 -13 -15 -20 t-17 -8l-7 -1h-198q-2 0 -4 1q-4 3 -3 11z" />
<glyph unicode="Y" horiz-adv-x="909" d="M342 29l86 483l-82 1098q-1 13 4 20t10 8h5h194q2 0 5.5 -0.5t9.5 -7.5t6 -20l41 -662l274 662q5 13 13.5 20t13.5 8h6h194h2t4 -1.5t4 -4.5q1 -1 1 -4q0 -9 -5 -18l-466 -1098l-87 -483q-2 -12 -11 -20.5t-21 -8.5h-176q-12 0 -19.5 8.5t-5.5 20.5z" />
<glyph unicode="Z" horiz-adv-x="897" d="M106 29l35 194l670 1192h-432q-12 0 -19 8.5t-4 20.5l29 166q3 12 13 20t22 8h635q13 0 19 -8q4 -5 4 -13q0 -3 -1 -7l-35 -195l-665 -1192h428q12 0 18.5 -8t3.5 -20l-28 -166q-1 -12 -11 -20.5t-22 -8.5h-635q-12 0 -19.5 8.5t-5.5 20.5z" />
<glyph unicode="[" horiz-adv-x="614" d="M86 -207l360 2052q3 12 13 20.5t22 8.5h363q12 0 18.5 -8.5t3.5 -20.5l-28 -166q-1 -12 -11 -20t-22 -8h-156l-295 -1671h156q12 0 18.5 -8.5t3.5 -20.5l-26 -158q-3 -12 -13 -20.5t-22 -8.5h-362q-12 0 -19 8.5t-4 20.5z" />
<glyph unicode="\" horiz-adv-x="831" d="M358 1610q-1 13 2.5 20t7.5 8h3h204q3 0 7.5 -0.5t12.5 -7.5t9 -20l156 -1581q2 -13 -0.5 -20t-5.5 -8l-4 -1h-199q-27 0 -31 29z" />
<glyph unicode="]" horiz-adv-x="614" d="M35 -207l26 158q3 12 13 20.5t22 8.5h156l295 1671h-156q-12 0 -19 8t-5 20l28 166q3 12 13 20.5t22 8.5h363q12 0 18.5 -8.5t3.5 -20.5l-360 -2052q-3 -12 -13 -20.5t-22 -8.5h-363q-12 0 -18.5 8.5t-3.5 20.5z" />
<glyph unicode="^" horiz-adv-x="677" d="M381 1638.5q-3 6.5 6 20.5l188 276q8 13 17.5 20t15.5 8l6 1h142q2 0 5 -1t10 -8t11 -20l90 -276q3 -14 0.5 -20.5t-7.5 -7.5l-5 -1h-102l-99 205l-167 -205h-101q-2 0 -4.5 1t-5.5 7.5z" />
<glyph unicode="_" horiz-adv-x="1142" d="M127 29l29 166q7 28 34 28h840q12 0 19 -8t4 -20l-29 -166q-1 -12 -11 -20.5t-22 -8.5h-839q-12 0 -19.5 8.5t-5.5 20.5z" />
<glyph unicode="`" horiz-adv-x="512" d="M468.5 1955.5q1.5 6.5 5.5 7.5l5 1h142q2 0 5.5 -1t10.5 -8t10 -20l47 -174q3 -14 0.5 -20t-7.5 -7l-5 -1h-100l-109 202q-6 14 -4.5 20.5z" />
<glyph unicode="a" d="M88 8q-2 3 -3 8q0 5 3 13l551 1581q4 13 13.5 20t16.5 8h7h188q3 0 7.5 -0.5t11.5 -7.5t6 -20l-6 -1581q0 -13 -5.5 -20t-10.5 -8l-5 -1h-194q-2 0 -5.5 1t-9.5 8t-6 20l2 219h-250l-75 -219q-4 -13 -11 -20t-13 -8l-5 -1h-195q-2 0 -5 1t-7 7zM475 471h176l27 647z" />
<glyph unicode="b" horiz-adv-x="972" d="M127 29l279 1581q7 28 34 28h428q98 0 156 -70q44 -54 45 -125q0 -21 -4 -44l-78 -441q-8 -51 -41 -102q40 -52 40 -116q0 -22 -5 -46l-80 -454q-17 -100 -99.5 -170t-180.5 -70h-469q-12 0 -19.5 8.5t-5.5 20.5zM395 215h207q25 0 45.5 17t24.5 42l69 390q3 23 -9 39.5 t-34 19.5h-213zM522 930h172q23 3 41.5 19.5t22.5 39.5l63 367q1 6 1 11q0 18 -11 31q-14 17 -39 17h-166z" />
<glyph unicode="c" horiz-adv-x="952" d="M162 229l209 1180q17 100 99.5 170t180.5 70h248q99 -1 157 -71q45 -55 46 -126q0 -21 -4 -43l-27 -152q-3 -12 -13 -20t-22 -8h-178q-12 0 -18.5 8t-3.5 20l18 109q4 25 -10 42t-39 17h-137q-25 0 -45.5 -17t-24.5 -42l-195 -1102q-4 -25 10.5 -42t39.5 -17h147 q25 0 45.5 17t24.5 42l39 219q3 12 12.5 20.5t21.5 8.5h179q12 0 18.5 -8.5t3.5 -20.5l-45 -254q-17 -99 -99.5 -169t-181.5 -70h-258q-99 0 -157 70q-45 54 -45 126q0 21 4 43z" />
<glyph unicode="d" horiz-adv-x="983" d="M127 29l279 1581q7 28 34 28h469q99 0 157 -70q44 -54 44 -125q0 -21 -4 -44l-205 -1159q-17 -100 -99.5 -170t-180.5 -70h-469q-12 0 -19.5 8.5t-5.5 20.5zM397 223h207q25 0 45 17.5t25 42.5l188 1073q1 6 1 11q0 18 -11 31q-14 17 -39 17h-207z" />
<glyph unicode="e" horiz-adv-x="907" d="M127 29l279 1581q7 28 34 28h623q13 0 19 -8q4 -5 4 -13q0 -3 -1 -7l-28 -168q-3 -12 -13 -20.5t-22 -8.5h-416l-78 -438h334q12 0 19.5 -8.5t5.5 -20.5l-29 -166q-3 -12 -13 -20t-22 -8h-334l-92 -529h428q12 0 19 -8t4 -20l-29 -166q-1 -12 -11 -20.5t-22 -8.5h-634 q-12 0 -19.5 8.5t-5.5 20.5z" />
<glyph unicode="f" horiz-adv-x="874" d="M127 29l279 1581q7 28 34 28h623q12 0 19 -8q4 -5 4 -13q0 -3 -1 -7l-28 -168q-3 -12 -13 -20.5t-22 -8.5h-416l-78 -438h334q12 0 19.5 -8.5t5.5 -20.5l-29 -166q-3 -12 -13 -20t-22 -8h-334l-127 -723q-2 -12 -11 -20.5t-21 -8.5h-178q-12 0 -19.5 8.5t-5.5 20.5z" />
<glyph unicode="g" horiz-adv-x="952" d="M162 229l209 1180q17 100 99.5 170t180.5 70h248q99 0 157 -71q46 -54 46 -126q0 -21 -4 -43l-27 -152q-3 -12 -13 -20t-22 -8h-178q-12 0 -18.5 8t-3.5 20l18 109q4 25 -10 42t-39 17h-137q-25 0 -45.5 -17t-24.5 -42l-195 -1102q-4 -25 10.5 -42t39.5 -17h147 q25 0 45.5 17t24.5 42l55 309h-109q-12 0 -19 8.5t-5 20.5l31 166q2 12 11 20.5t21 8.5h316q12 0 19 -8.5t5 -20.5l-96 -539q-17 -99 -99.5 -169t-181.5 -70h-258q-99 0 -157 70q-45 54 -45 126q0 21 4 43z" />
<glyph unicode="h" horiz-adv-x="999" d="M127 29l279 1581q7 28 34 28h178q12 0 19 -8t4 -20l-113 -635h283l113 635q7 28 34 28h179q13 0 19 -8q4 -5 4 -13q0 -3 -1 -7l-278 -1581q-1 -12 -11 -20.5t-22 -8.5h-178q-12 0 -19.5 8.5t-5.5 20.5l127 723h-283l-127 -723q-2 -12 -11 -20.5t-21 -8.5h-178 q-12 0 -19.5 8.5t-5.5 20.5z" />
<glyph unicode="i" horiz-adv-x="481" d="M127 29l279 1581q7 28 34 28h178q12 0 19 -8q5 -6 5 -13q0 -3 -1 -7l-279 -1581q-2 -12 -11 -20.5t-21 -8.5h-178q-12 0 -19.5 8.5t-5.5 20.5z" />
<glyph unicode="j" horiz-adv-x="917" d="M100 229l45 254q3 12 13 20.5t22 8.5h174q12 0 19 -8.5t4 -20.5l-39 -219q-4 -25 10 -42t39 -17h148q25 0 44.5 17t24.5 42l238 1346q3 12 13 20t22 8h178q12 0 19 -8q4 -5 4 -13q0 -3 -1 -7l-243 -1381q-17 -99 -99.5 -169t-181.5 -70h-254q-99 0 -157 70 q-46 54 -46 126q0 21 4 43z" />
<glyph unicode="k" horiz-adv-x="944" d="M127 29l279 1581q7 28 34 28h178q12 0 19 -8t4 -20l-119 -676l393 676q8 13 17.5 20t14.5 8h5h195l9 -3q2 -2 2 -6q0 -7 -7 -19l-406 -701l127 -880q2 -13 -2 -20t-9 -8l-5 -1h-205q-2 0 -5 1t-9.5 8t-9.5 20l-80 567l-123 -213l-62 -354q-2 -12 -11 -20.5t-21 -8.5h-178 q-12 0 -19.5 8.5t-5.5 20.5z" />
<glyph unicode="l" horiz-adv-x="886" d="M127 29l279 1581q7 28 34 28h178q12 0 19 -8t4 -20l-244 -1387h428q12 0 19 -8q5 -6 5 -13q0 -3 -1 -7l-29 -166q-1 -12 -11 -20.5t-22 -8.5h-634q-12 0 -19.5 8.5t-5.5 20.5z" />
<glyph unicode="m" horiz-adv-x="1282" d="M127 29l279 1581q7 28 34 28h170h2q23 0 27 -28l147 -785l422 785q7 13 17.5 20t16.5 8h7h170q12 0 19 -8q5 -6 5 -13q0 -3 -1 -7l-279 -1581q-1 -12 -11 -20.5t-22 -8.5h-178q-12 0 -19 8.5t-5 20.5l159 905l-421 -791l-144 791l-160 -905q-2 -12 -11 -20.5t-21 -8.5 h-178q-12 0 -19.5 8.5t-5.5 20.5z" />
<glyph unicode="n" horiz-adv-x="999" d="M127 29l279 1581q7 28 34 28h176q3 0 6.5 -0.5t10.5 -7.5t8 -20l127 -881l156 881q7 28 34 28h179q13 0 19 -8q4 -5 4 -13q0 -3 -1 -7l-278 -1581q-1 -12 -11 -20.5t-22 -8.5h-166q-3 0 -6.5 1t-11 8t-9.5 20l-153 794l-140 -794q-2 -12 -11 -20.5t-21 -8.5h-178 q-12 0 -19.5 8.5t-5.5 20.5z" />
<glyph unicode="o" horiz-adv-x="987" d="M162 229l209 1180q17 100 99.5 170t180.5 70h262q99 -1 157 -71q45 -55 46 -126q0 -21 -4 -43l-209 -1180q-17 -99 -99 -169t-181 -70h-263q-99 0 -157 70q-45 54 -45 126q0 21 4 43zM403 264q-1 -5 -1 -10q0 -18 12 -32q14 -17 39 -17h151q25 0 45.5 17t24.5 42 l194 1102q1 6 1 11q0 18 -11 31q-14 17 -39 17h-151q-25 0 -45.5 -17t-24.5 -42z" />
<glyph unicode="p" d="M127 29l279 1581q7 28 34 28h469q99 0 157 -70q44 -54 44 -125q0 -21 -4 -44l-88 -502q-19 -100 -102 -170t-181 -70h-262l-111 -628q-2 -12 -11 -20.5t-21 -8.5h-178q-12 0 -19.5 8.5t-5.5 20.5zM512 872h207q25 0 44.5 17.5t24.5 42.5l74 424q1 6 1 11q0 18 -11 31 q-14 17 -39 17h-207z" />
<glyph unicode="q" horiz-adv-x="987" d="M162 229l209 1180q17 100 99.5 170t180.5 70h262q99 0 157 -71q46 -54 46 -126q0 -21 -4 -43l-209 -1180q-17 -99 -99 -169t-181 -70h-13l-26 -146q-1 -12 -11 -20t-22 -8h-180q-12 0 -19 8t-6 20l27 146h-13q-99 0 -157 70q-45 54 -45 126q0 21 4 43zM403 264 q-1 -5 -1 -10q0 -19 12 -32q14 -17 39 -17h151q25 0 45.5 17t24.5 42l194 1102q1 6 1 11q0 18 -11 31q-14 17 -39 17h-151q-25 0 -45.5 -17t-24.5 -42z" />
<glyph unicode="r" horiz-adv-x="978" d="M127 29l279 1581q7 28 34 28h469q99 0 157 -70q44 -54 44 -125q0 -21 -4 -44l-88 -502q-13 -74 -65.5 -134t-123.5 -89l50 -645q2 -13 -3 -20t-10 -8l-6 -1h-194q-3 0 -6.5 1t-10.5 8t-8 20l-49 628h-119l-111 -628q-2 -12 -11 -20.5t-21 -8.5h-178q-12 0 -19.5 8.5 t-5.5 20.5zM512 872h207q25 0 44.5 17.5t24.5 42.5l74 424q1 6 1 11q0 18 -11 31q-14 17 -39 17h-207z" />
<glyph unicode="s" horiz-adv-x="921" d="M131 229l45 254q3 12 13 20.5t22 8.5h178q12 0 19 -8.5t4 -20.5l-39 -219q-4 -25 10 -42t39 -17h147q25 0 45.5 17t24.5 42l74 416q4 25 -10 42t-39 17h-203q-99 1 -157 71q-44 53 -45 122q0 23 5 47l76 430q17 99 99.5 169.5t181.5 70.5h247q100 -1 158 -71 q45 -55 45 -126q0 -21 -4 -43l-27 -152q-7 -28 -34 -28h-179q-12 0 -18.5 8t-3.5 20l18 109q4 25 -10 42t-39 17h-137q-25 0 -45.5 -17t-24.5 -42l-61 -352q-5 -25 9.5 -42.5t39.5 -17.5h203q98 0 156 -70q44 -54 44 -125q0 -21 -4 -44l-86 -486q-17 -99 -99 -169t-181 -70 h-258q-100 0 -158 70q-45 54 -45 126q0 21 4 43z" />
<glyph unicode="t" horiz-adv-x="937" d="M346 1444l29 166q3 12 13 20t22 8h696q12 0 18 -8q4 -5 5 -13q0 -3 -1 -7l-28 -166q-3 -12 -13 -20.5t-22 -8.5h-231l-244 -1386q-1 -12 -11 -20.5t-22 -8.5h-178q-12 0 -19.5 8.5t-5.5 20.5l244 1386h-229q-12 1 -19 9q-5 6 -5 13q0 3 1 7z" />
<glyph unicode="u" horiz-adv-x="983" d="M162 229l244 1381q7 28 34 28h178q12 0 19 -8t4 -20l-238 -1346q-4 -25 10.5 -42t39.5 -17h147q25 0 45.5 17t24.5 42l237 1346q3 12 13 20t22 8h178q12 0 19 -8q5 -6 5 -13q0 -3 -1 -7l-244 -1381q-17 -99 -99.5 -169t-181.5 -70h-258q-99 0 -157 70q-45 54 -45 126 q0 21 4 43z" />
<glyph unicode="v" horiz-adv-x="942" d="M350 29l6 1581q1 13 6.5 20t11.5 8h5h194q2 0 5.5 -0.5t9 -7.5t4.5 -20l-27 -1069l350 1069q4 13 12 20t13 8h6h195h2t4 -1.5t5 -4t2 -8.5t-3 -14l-551 -1581q-4 -13 -12.5 -20t-15.5 -8l-7 -1h-188q-3 0 -7.5 1t-12 8t-7.5 20z" />
<glyph unicode="w" horiz-adv-x="1509" d="M350 29l6 1581q1 13 6.5 20t11.5 8h5h194q2 0 5.5 -0.5t9 -7.5t4.5 -20l-27 -1069l350 1069q4 13 12 20t13 8h6h195h2q16 -8 16 -28l-26 -1069l350 1069q4 13 11.5 20t13.5 8h5h195h2t4 -1.5t5 -4t2 -8.5t-3 -14l-551 -1581q-4 -13 -12.5 -20t-14.5 -8l-7 -1h-189 q-3 0 -7.5 1t-11.5 8t-7 20l2 921l-320 -921q-4 -13 -12.5 -20t-15.5 -8l-7 -1h-188q-3 0 -7.5 1t-12 8t-7.5 20z" />
<glyph unicode="x" horiz-adv-x="892" d="M65 12q0 6 5 17l397 827l-98 754q-1 13 2 20t7 8h3h205q3 0 7.5 -0.5t12 -7.5t8.5 -20l35 -449l195 449q6 13 16.5 20t17.5 8h7h205l5 -2q1 -2 1 -5q0 -7 -6 -21l-367 -754l108 -827q2 -13 -0.5 -20t-6.5 -8l-3 -1h-198q-27 0 -31 29l-49 526l-234 -526q-5 -13 -15 -20 t-17 -8l-7 -1h-198q-2 0 -4 1q-4 3 -3 11z" />
<glyph unicode="y" horiz-adv-x="909" d="M342 29l86 483l-82 1098q-1 13 4 20t10 8h5h194q2 0 5.5 -0.5t9.5 -7.5t6 -20l41 -662l274 662q5 13 13.5 20t13.5 8h6h194h2t4 -1.5t4 -4.5q1 -1 1 -4q0 -9 -5 -18l-466 -1098l-87 -483q-2 -12 -11 -20.5t-21 -8.5h-176q-12 0 -19.5 8.5t-5.5 20.5z" />
<glyph unicode="z" horiz-adv-x="897" d="M106 29l35 194l670 1192h-432q-12 0 -19 8.5t-4 20.5l29 166q3 12 13 20t22 8h635q13 0 19 -8q4 -5 4 -13q0 -3 -1 -7l-35 -195l-665 -1192h428q12 0 18.5 -8t3.5 -20l-28 -166q-1 -12 -11 -20.5t-22 -8.5h-635q-12 0 -19.5 8.5t-5.5 20.5z" />
<glyph unicode="{" horiz-adv-x="727" d="M252 801l242 319l90 514q19 100 101.5 170t180.5 70h90q12 0 19 -8.5t4 -20.5l-29 -166q-1 -12 -10.5 -20t-21.5 -8h-35q-25 0 -46 -17.5t-24 -42.5l-84 -471l-227 -319l114 -318l-77 -444q-4 -25 10 -42t39 -17h35q12 0 18.5 -8.5t3.5 -20.5l-27 -158 q-3 -12 -12.5 -20.5t-21.5 -8.5h-90q-99 0 -157.5 70.5t-39.5 169.5l84 479z" />
<glyph unicode="|" horiz-adv-x="481" d="M86 -207l360 2052q3 12 13 20.5t22 8.5h178q12 0 19 -8.5t4 -20.5l-360 -2052q-3 -12 -13 -20.5t-22 -8.5h-178q-12 0 -19 8.5t-4 20.5z" />
<glyph unicode="}" horiz-adv-x="727" d="M35 -207l26 158q3 12 13 20.5t22 8.5h35q25 0 45.5 17t24.5 42l78 444l225 318l-113 319l84 471q3 25 -11 42.5t-38 17.5h-35q-12 0 -19 8t-5 20l28 166q3 12 13 20.5t22 8.5h90q99 0 157.5 -70.5t39.5 -169.5l-90 -514l127 -319l-240 -318l-84 -479q-19 -100 -102 -170 t-181 -70h-90q-12 0 -18.5 8.5t-3.5 20.5z" />
<glyph unicode="~" horiz-adv-x="985" d="M231 815q-5 11 0 23t17 18l158 82q12 6 22.5 3t13.5 -13l17 -41q7 -22 30 -28.5t48 5.5l159 84q95 49 187 23t127 -111l26 -67q4 -10 -1 -21.5t-17 -17.5l-160 -84q-11 -6 -21.5 -2.5t-15.5 14.5l-10 29q-9 22 -32 28t-46 -6l-162 -84q-94 -49 -185.5 -23t-125.5 111z " />
<glyph unicode="&#xa1;" horiz-adv-x="481" d="M127 29l219 1241q1 12 11 20t22 8h178q12 0 19 -8t6 -20l-220 -1241q-2 -12 -11 -20.5t-21 -8.5h-178q-12 0 -19.5 8.5t-5.5 20.5zM373 1425l33 185q7 28 34 28h178q12 0 19 -8t4 -20l-33 -185q-1 -12 -11 -20t-22 -8h-178q-12 0 -19 8t-5 20z" />
<glyph unicode="&#xa2;" horiz-adv-x="948" d="M182 346l164 928q19 99 101.5 169t181.5 70h24l17 97q3 12 13 20t22 8h137q12 0 18.5 -8t3.5 -20l-16 -97h24q99 0 157.5 -70t39.5 -169l-27 -152q-1 -12 -10.5 -20t-21.5 -8h-179q-12 0 -19 8t-5 20l18 109q5 25 -8.5 42t-38.5 17h-133q-25 0 -46.5 -17t-25.5 -42 l-149 -850q-4 -25 10 -42t39 -17h143q25 0 45.5 17t24.5 42l39 219q3 12 13 20.5t22 8.5h178q12 0 19 -8.5t4 -20.5l-46 -254q-17 -100 -99.5 -170t-180.5 -70h-37l-14 -77q-1 -12 -11 -20.5t-22 -8.5h-137q-12 0 -19.5 8.5t-5.5 20.5l14 77h-22q-99 0 -157.5 70.5 t-41.5 169.5z" />
<glyph unicode="&#xa3;" horiz-adv-x="970" d="M61 0l37 215h15q25 0 44.5 17t24.5 42l74 412h-45q-12 0 -19.5 8.5t-5.5 20.5l29 166q3 12 13 20t22 8h45l88 500q17 99 99.5 169.5t181.5 70.5h243q99 0 157.5 -70.5t41.5 -169.5l-27 -152q-3 -12 -13 -20t-22 -8h-178q-12 0 -18.5 8t-3.5 20l18 109q4 25 -10 42t-39 17 h-133q-25 0 -45.5 -17t-24.5 -42l-80 -457h355q12 0 18.5 -8t3.5 -20l-28 -166q-1 -12 -11 -20.5t-22 -8.5h-354l-84 -471h243q24 0 44 15t24 36q11 29 35 29h178q12 0 18.5 -8.5t3.5 -20.5l-4 -26q-17 -100 -99.5 -170t-180.5 -70h-609z" />
<glyph unicode="&#xa5;" horiz-adv-x="950" d="M168 244l31 166q1 12 10.5 20t21.5 8h203l15 74l-5 31h-194q-12 0 -19 8t-4 20l29 166q1 12 11 20.5t22 8.5h139l-61 844q-1 13 3.5 20t9.5 8h5h195q2 0 5.5 -0.5t9 -7.5t5.5 -20l41 -662l274 662q5 13 13.5 20t13.5 8h6h195h2t4 -1.5t4 -4t0.5 -8.5t-4.5 -14l-361 -844 h136q12 0 19 -8.5t5 -20.5l-28 -166q-3 -12 -13 -20t-22 -8h-193l-10 -31l-14 -74h198q12 0 19 -8t6 -20l-31 -166q-1 -12 -11 -20.5t-22 -8.5h-198l-33 -186q-1 -12 -11 -20.5t-22 -8.5h-176q-12 0 -19.5 8.5t-5.5 20.5l33 186h-202q-12 0 -19.5 8.5t-5.5 20.5z" />
<glyph unicode="&#xa6;" horiz-adv-x="481" d="M86 -207l152 864q3 12 12.5 20.5t21.5 8.5h179q12 0 18.5 -8.5t3.5 -20.5l-151 -864q-3 -12 -13 -20.5t-22 -8.5h-178q-12 0 -19 8.5t-4 20.5zM287 938l159 907q3 12 13 20.5t22 8.5h178q12 0 19 -8.5t4 -20.5l-160 -907q-1 -12 -11 -20.5t-22 -8.5h-178q-12 0 -19 8.5 t-5 20.5z" />
<glyph unicode="&#xa7;" horiz-adv-x="948" d="M156 188l26 152q1 12 11 20.5t22 8.5h178q12 0 19.5 -8.5t5.5 -20.5l-21 -109q-3 -25 11 -42t38 -17h175q25 0 45.5 17.5t23.5 41.5l33 187q4 20 -5 35.5t-28 21.5h-248q-98 0 -155.5 70t-40.5 170l37 207q8 51 41 102q-51 67 -33 162l45 264q19 100 101.5 170t180.5 70 h285q99 0 157.5 -70.5t39.5 -169.5l-27 -152q-1 -12 -11 -20t-22 -8h-178q-12 0 -19 8t-5 20l20 109q3 25 -11 42t-38 17h-174q-25 0 -46 -17.5t-24 -41.5l-33 -186q-4 -23 7 -40t32 -20h238q99 0 157.5 -70t41.5 -169l-37 -207q-8 -50 -41 -101q53 -69 35 -161l-45 -265 q-19 -99 -101.5 -169t-181.5 -70h-285q-99 0 -157 70t-39 169zM487 750q-4 -25 10.5 -42.5t39.5 -17.5h151q23 0 36 18t17 42l23 129q4 25 -10 42t-39 17h-135q-25 0 -45.5 -17t-24.5 -42z" />
<glyph unicode="&#xa8;" horiz-adv-x="911" d="M449 1849q9 52 51.5 88.5t95.5 36.5t83 -36.5t21 -88.5q-9 -53 -52 -90t-95 -37t-82.5 37t-21.5 90zM862 1849q9 52 52 88.5t96 36.5t83 -36.5t21 -88.5q-9 -53 -52 -90t-95 -37t-83 37t-22 90z" />
<glyph unicode="&#xa9;" horiz-adv-x="1738" d="M205 819q30 170 119.5 323t216 264.5t288.5 177t330 65.5t307 -65.5t226.5 -177t123 -264.5t5.5 -323t-119 -322.5t-215.5 -263.5t-288.5 -176t-330 -65t-307 65t-226.5 176t-123.5 263.5t-6 322.5zM424 819q-29 -166 22.5 -306t172.5 -222t286 -82t315.5 82t252.5 222 t131 306t-23 306t-173 222.5t-286 82.5t-315.5 -82.5t-252 -222.5t-130.5 -306zM762 496l112 632q9 53 53.5 90t98.5 37h129q54 0 85 -37t22 -90l-13 -69q-3 -12 -13 -20.5t-22 -8.5h-69q-12 0 -19 8.5t-4 20.5l8 45q2 14 -6.5 23.5t-21.5 9.5h-70q-12 0 -23 -10t-12 -23 l-104 -590q-3 -12 5 -21.5t20 -9.5h75q13 0 24.5 9.5t14.5 21.5l19 104q2 12 11 20.5t21 8.5h68q12 0 19.5 -8.5t5.5 -20.5l-23 -122q-9 -52 -52.5 -89.5t-96.5 -37.5h-136q-54 0 -84.5 37t-21.5 90z" />
<glyph unicode="&#xaa;" horiz-adv-x="548" d="M201.5 772.5q-4.5 6.5 1.5 20.5l286 817q4 13 12 20t13 8h6h86q2 0 5.5 -0.5t9 -7.5t4.5 -20v-817q-1 -13 -6.5 -20t-10.5 -8l-6 -1h-86q-2 0 -5.5 1t-8.5 8t-4 20l2 102h-135l-35 -102q-4 -13 -12 -20t-14 -8l-5 -1h-86q-2 0 -4.5 1t-7 7.5zM406 1016h94l14 352z" />
<glyph unicode="&#xab;" horiz-adv-x="827" d="M197 772q-14 30 10 57l211 283q10 13 21 20t17 8l5 1h203l7 -3q6 -7 -9 -26l-230 -311l121 -312q3 -8 3 -14t-2 -8.5t-4.5 -4t-4.5 -1.5h-2h-203q-21 -1 -31 28zM498 772q-14 30 10 57l211 283q10 13 21 20t16 8l6 1h203l7 -3q6 -7 -9 -26l-230 -311l121 -312q3 -8 3 -14 t-2 -8.5t-4.5 -4t-4.5 -1.5h-2h-203q-21 -1 -31 28z" />
<glyph unicode="&#xac;" horiz-adv-x="1161" d="M248 715l28 166q3 12 13 20t22 8h858q12 0 19 -8t4 -20l-70 -402q-3 -12 -13 -20t-22 -8h-165q-12 0 -19 8t-4 20l37 207h-664q-12 0 -19 8.5t-5 20.5z" />
<glyph unicode="&#xad;" horiz-adv-x="937" d="M248 715l28 166q3 12 13 20t22 8h635q12 0 19 -8t4 -20l-29 -166q-1 -12 -11 -20.5t-22 -8.5h-635q-12 0 -19 8.5t-5 20.5z" />
<glyph unicode="&#xae;" horiz-adv-x="1738" d="M205 819q30 170 119.5 323t216 264.5t288.5 177t330 65.5t307 -65.5t226.5 -177t123 -264.5t5.5 -323t-119 -322.5t-215.5 -263.5t-288.5 -176t-330 -65t-307 65t-226.5 176t-123.5 263.5t-6 322.5zM424 819q-29 -166 22.5 -306t172.5 -222t286 -82t315.5 82t252.5 222 t131 306t-23 306t-173 222.5t-286 82.5t-315.5 -82.5t-252 -222.5t-130.5 -306zM752 403l145 818q1 12 11 20t22 8h237q52 0 83 -37t22 -90l-47 -270q-7 -39 -36 -71t-67 -46l25 -332q2 -13 -2.5 -20t-9.5 -7l-5 -1h-83q-2 0 -6 0.5t-10.5 7.5t-8.5 20l-25 322h-63l-57 -322 q-1 -12 -11 -20t-22 -8h-68q-12 0 -19 8t-5 20zM954 840h111q13 0 24.5 9t14.5 23l39 228q3 12 -5 21t-22 9h-110z" />
<glyph unicode="&#xaf;" horiz-adv-x="937" d="M432 1761l12 72q3 12 13 20.5t22 8.5h635q12 0 19 -8.5t4 -20.5l-13 -72q-1 -12 -10.5 -20t-21.5 -8h-635q-12 0 -19 8t-6 20z" />
<glyph unicode="&#xb0;" horiz-adv-x="659" d="M397 1561q15 86 86.5 146t157.5 60t135.5 -60t34.5 -146t-86.5 -146.5t-157.5 -60.5t-135.5 60.5t-34.5 146.5zM526 1561q-6 -32 13 -55t51 -23t59 23t33 55t-13 54.5t-51 22.5t-59 -22.5t-33 -54.5z" />
<glyph unicode="&#xb1;" horiz-adv-x="937" d="M172 281l29 165q2 12 11 20.5t21 8.5h635q12 0 19.5 -8.5t5.5 -20.5l-29 -165q-3 -12 -13 -20.5t-22 -8.5h-634q-12 0 -19 8.5t-4 20.5zM276 879l29 165q3 12 13 20.5t22 8.5h205l37 205q2 12 11 20.5t21 8.5h166q12 0 19.5 -8.5t5.5 -20.5l-37 -205h207q12 0 18.5 -8.5 t3.5 -20.5l-28 -165q-1 -12 -11 -20.5t-22 -8.5h-207l-37 -207q-3 -12 -13 -20.5t-22 -8.5h-165q-12 0 -19 8.5t-4 20.5l37 207h-205q-12 0 -19.5 8.5t-5.5 20.5z" />
<glyph unicode="&#xb2;" horiz-adv-x="638" d="M260 784l19 105q14 19 38 51.5t85 117.5t108 154.5t87.5 136t43.5 87.5l10 61q3 13 -4.5 23t-21.5 10h-66q-12 0 -23 -10t-14 -23l-8 -47q0 -6 -6 -10t-12 -4h-95q-14 0 -14 14l12 70q11 54 54.5 91.5t97.5 37.5h125q53 0 83.5 -37.5t20.5 -91.5l-14 -84 q-5 -34 -94 -170.5t-176 -256.5l-86 -120h247q13 0 13 -15l-17 -90q-3 -14 -16 -14h-365q-6 0 -9.5 4t-2.5 10z" />
<glyph unicode="&#xb3;" horiz-adv-x="641" d="M281 887l12 71q4 17 18 17h95q6 0 10 -5.5t2 -11.5l-10 -53q-2 -14 6.5 -23.5t21.5 -9.5h78q14 0 25 10t12 23l39 221q3 12 -5.5 22.5t-21.5 10.5h-53q-12 0 -8 15l14 90q4 16 21 16h49q13 0 24 9.5t13 21.5l32 186q3 13 -4.5 23t-21.5 10h-80q-13 0 -24.5 -9.5 t-14.5 -23.5l-8 -47q0 -6 -5.5 -11t-11.5 -5h-94q-14 0 -14 16l14 72q9 52 53 89.5t95 37.5h141q51 0 83 -37.5t23 -89.5l-41 -230q-9 -39 -34 -71q17 -33 8 -72l-45 -262q-9 -52 -54 -90.5t-96 -38.5h-139q-51 0 -82 38.5t-22 90.5z" />
<glyph unicode="&#xb4;" horiz-adv-x="512" d="M432 1736q-6 7 4 25l109 174q8 13 17.5 20t15.5 8l6 1h141l6 -3q6 -6 -12 -26l-178 -202h-101z" />
<glyph unicode="&#xb6;" horiz-adv-x="1296" d="M281 897l88 502q17 99 100 169t182 70h824q12 0 18.5 -8t3.5 -20l-29 -166q-3 -12 -12.5 -20.5t-21.5 -8.5h-27l-244 -1386q-1 -12 -11 -20.5t-22 -8.5h-178q-12 0 -19 8.5t-5 20.5l243 1386h-67l-244 -1386q-1 -12 -11 -20.5t-22 -8.5h-178q-12 0 -19 8.5t-5 20.5 l110 628h-258q-99 0 -157 70.5t-39 169.5z" />
<glyph unicode="&#xb7;" horiz-adv-x="342" d="M174 705l33 188q3 12 13 20.5t22 8.5h182q12 0 18.5 -8.5t3.5 -20.5l-32 -188q-1 -12 -11 -20.5t-22 -8.5h-182q-12 0 -19.5 8.5t-5.5 20.5z" />
<glyph unicode="&#xb8;" horiz-adv-x="454" d="M72 -281l6 29q1 12 11 20.5t22 8.5h16q12 0 19.5 -8.5t5.5 -20.5q-1 -6 2.5 -10t9.5 -4h31q13 0 16 14l18 102q0 15 -12 15h-31q-6 0 -11 -4.5t-5 -10.5l-2 -12h-74l6 43l90 129h97l-51 -73h26q23 0 37 -16.5t10 -39.5l-28 -162q-3 -23 -22.5 -39t-43.5 -16h-96 q-23 0 -36.5 16t-10.5 39z" />
<glyph unicode="&#xb9;" horiz-adv-x="452" d="M342 778l127 723h-68q-6 0 -9.5 4.5t-2.5 10.5l8 47l97 75h108q16 0 12 -14l-147 -846q-3 -14 -21 -14h-94q-14 0 -10 14z" />
<glyph unicode="&#xba;" horiz-adv-x="516" d="M217 885l111 633q9 52 53.5 89.5t95.5 37.5h139q51 0 82.5 -37.5t22.5 -89.5l-111 -633q-9 -52 -53.5 -89.5t-95.5 -37.5h-139q-51 0 -82.5 37.5t-22.5 89.5zM346 903q-2 -12 6 -21.5t21 -9.5h78q13 0 23.5 9.5t12.5 21.5l105 590q3 13 -5 23t-22 10h-78q-13 0 -23 -9.5 t-13 -23.5z" />
<glyph unicode="&#xbb;" horiz-adv-x="827" d="M136 463q-6 7 9 26l228 312l-119 311q-4 14 -2 20.5t7 7.5l5 1h203q21 0 31 -29l112 -283q14 -30 -10 -57l-211 -283q-10 -13 -21 -20t-16 -7l-6 -1h-203zM437 463q-6 7 9 26l228 312l-119 311q-4 14 -2 20.5t7 7.5l5 1h203q21 0 31 -29l112 -283q14 -30 -10 -57 l-211 -283q-10 -13 -21 -20t-17 -7l-5 -1h-203z" />
<glyph unicode="&#xbc;" horiz-adv-x="1325" d="M218.5 111q-0.5 7 8.5 20l908 1356q8 13 17.5 20t15.5 8l6 1h163q2 0 4.5 -1t5 -7.5t-7.5 -20.5l-913 -1356q-9 -13 -19 -20t-16 -8l-6 -1h-158q-2 0 -5 1t-3.5 8zM342 778l127 723h-68q-6 0 -9.5 4.5t-2.5 10.5l8 47l97 75h108q16 0 12 -14l-147 -846q-3 -14 -21 -14 h-94q-14 0 -10 14zM809 147l18 105l353 610q4 6 8.5 10t7.5 4l2 1h96q6 1 9.5 -3.5t3.5 -11.5l-109 -610h31q6 0 10.5 -4t3.5 -10l-16 -91q-3 -14 -19 -14h-30l-21 -119q-3 -14 -16 -14h-97q-6 0 -10.5 4t-3.5 10l21 119h-230q-15 0 -12 14zM956 252h121l66 369z" />
<glyph unicode="&#xbd;" horiz-adv-x="1392" d="M220.5 111q-0.5 7 8.5 20l908 1356q8 13 17.5 20t15.5 8l6 1h163q2 0 4.5 -1t5 -7.5t-7.5 -20.5l-913 -1356q-9 -13 -19 -20t-16 -8l-6 -1h-158q-2 0 -5 1t-3.5 8zM342 778l127 723h-68q-6 0 -9.5 4.5t-2.5 10.5l8 47l97 75h108q16 0 12 -14l-147 -846q-3 -14 -21 -14 h-94q-14 0 -10 14zM879 14l18 105q14 19 37.5 51.5t84.5 117.5t108.5 154.5t88 136t44.5 87.5l10 61q3 13 -5 23t-22 10h-65q-12 0 -23 -10t-14 -23l-8 -47q-3 -14 -19 -14h-94q-8 0 -12 4t-2 10l12 70q9 54 53 91.5t98 37.5h125q53 0 83.5 -37.5t21.5 -91.5l-15 -84 q-6 -34 -95 -170.5t-175 -256.5l-86 -120h248q14 0 10 -15l-14 -90q-4 -14 -17 -14h-364q-15 0 -12 14z" />
<glyph unicode="&#xbe;" horiz-adv-x="1409" d="M281 887l12 71q4 17 18 17h95q6 0 10 -5.5t2 -11.5l-10 -53q-2 -14 6.5 -23.5t21.5 -9.5h78q14 0 25 10t12 23l39 221q3 12 -5.5 22.5t-21.5 10.5h-53q-12 0 -8 15l14 90q4 16 21 16h49q13 0 24 9.5t13 21.5l32 186q3 13 -4.5 23t-21.5 10h-80q-13 0 -24.5 -9.5 t-14.5 -23.5l-8 -47q0 -6 -5.5 -11t-11.5 -5h-94q-14 0 -14 16l14 72q9 52 53 89.5t95 37.5h141q51 0 83 -37.5t23 -89.5l-41 -230q-9 -39 -34 -71q17 -33 8 -72l-45 -262q-9 -52 -54 -90.5t-96 -38.5h-139q-51 0 -82 38.5t-22 90.5zM325.5 111q-0.5 7 8.5 20l907 1356 q8 13 17.5 20t15.5 8l6 1h164q2 0 4.5 -1t5 -7.5t-7.5 -20.5l-914 -1356q-9 -13 -19 -20t-15 -8l-6 -1h-158q-2 0 -5 1t-3.5 8zM893 147l18 105l353 610q4 6 8.5 10t7.5 4l2 1h96q6 1 9.5 -3.5t3.5 -11.5l-109 -610h31q6 0 10.5 -4t3.5 -10l-16 -91q-3 -14 -19 -14h-30 l-21 -119q-3 -14 -16 -14h-97q-6 0 -10.5 4t-3.5 10l21 119h-230q-15 0 -12 14zM1040 252h121l66 369z" />
<glyph unicode="&#xbf;" horiz-adv-x="907" d="M141 229l86 480q17 99 99.5 169t181.5 70q25 0 45 17.5t25 42.5l47 262q1 12 10.5 20t21.5 8h179q12 0 19 -8t5 -20l-53 -297q-17 -99 -99.5 -169.5t-181.5 -70.5q-25 0 -45.5 -17.5t-23.5 -41.5l-72 -402q-4 -25 10 -42t39 -17h133q25 0 45.5 17t24.5 42l18 109 q3 12 13 20.5t22 8.5h178q12 0 19 -8.5t4 -20.5l-27 -152q-17 -99 -99 -169t-181 -70h-244q-99 0 -157.5 70t-41.5 169zM649 1425l33 185q3 12 13 20t22 8h178q12 0 19 -8t4 -20l-33 -185q-1 -12 -11 -20t-22 -8h-178q-12 0 -19 8t-6 20z" />
<glyph unicode="&#xc0;" d="M87.5 8.5q-4.5 6.5 0.5 20.5l551 1581q4 13 13.5 20t16.5 8h7h188q3 0 7.5 -0.5t11.5 -7.5t6 -20l-6 -1581q0 -13 -5.5 -20t-10.5 -8l-5 -1h-194q-2 0 -5.5 1t-9.5 8t-6 20l2 219h-250l-75 -219q-4 -13 -11 -20t-13 -8l-5 -1h-195q-2 0 -5 1t-7.5 7.5zM475 471h176 l27 647zM607.5 1955.5q1.5 6.5 6.5 7.5l4 1h142q2 0 5.5 -1t10.5 -8t10 -20l48 -174q3 -14 0 -20t-8 -7l-5 -1h-100l-109 202q-6 14 -4.5 20.5z" />
<glyph unicode="&#xc1;" d="M87.5 8.5q-4.5 6.5 0.5 20.5l551 1581q4 13 13.5 20t16.5 8h7h188q3 0 7.5 -0.5t11.5 -7.5t6 -20l-6 -1581q0 -13 -5.5 -20t-10.5 -8l-5 -1h-194q-2 0 -5.5 1t-9.5 8t-6 20l2 219h-250l-75 -219q-4 -13 -11 -20t-13 -8l-5 -1h-195q-2 0 -5 1t-7.5 7.5zM475 471h176 l27 647zM737.5 1738.5q-1.5 2.5 0 8.5t5.5 14l109 174q8 13 18 20t16 8l5 1h141l6 -3q6 -6 -12 -26l-178 -202h-100h-2t-4 1.5t-4.5 4z" />
<glyph unicode="&#xc2;" d="M87.5 8.5q-4.5 6.5 0.5 20.5l551 1581q4 13 13.5 20t16.5 8h7h188q3 0 7.5 -0.5t11.5 -7.5t6 -20l-6 -1581q0 -13 -5.5 -20t-10.5 -8l-5 -1h-194q-2 0 -5.5 1t-9.5 8t-6 20l2 219h-250l-75 -219q-4 -13 -11 -20t-13 -8l-5 -1h-195q-2 0 -5 1t-7.5 7.5zM475 471h176 l27 647zM606 1736q-6 7 4 25l109 174q8 13 17.5 20t15.5 8l6 1h141q2 0 6 -1t11 -8t10 -20l47 -174q3 -14 0.5 -20t-7.5 -7l-5 -1h-103l-55 102l-88 -102h-101z" />
<glyph unicode="&#xc3;" d="M87.5 8.5q-4.5 6.5 0.5 20.5l551 1581q4 13 13.5 20t16.5 8h7h188q3 0 7.5 -0.5t11.5 -7.5t6 -20l-6 -1581q0 -13 -5.5 -20t-10.5 -8l-5 -1h-194q-2 0 -5.5 1t-9.5 8t-6 20l2 219h-250l-75 -219q-4 -13 -11 -20t-13 -8l-5 -1h-195q-2 0 -5 1t-7.5 7.5zM475 471h176 l27 647zM563 1736q-6 7 4 25l109 174q8 13 18 20t16 8l5 1h90q21 0 33 -29l32 -67l86 96h101q2 0 4.5 -1t5 -7.5t-7.5 -20.5l-109 -174q-7 -13 -16.5 -20t-15.5 -7l-5 -1h-102l-55 102l-84 -102h-101z" />
<glyph unicode="&#xc4;" d="M87.5 8.5q-4.5 6.5 0.5 20.5l551 1581q4 13 13.5 20t16.5 8h7h188q3 0 7.5 -0.5t11.5 -7.5t6 -20l-6 -1581q0 -13 -5.5 -20t-10.5 -8l-5 -1h-194q-2 0 -5.5 1t-9.5 8t-6 20l2 219h-250l-75 -219q-4 -13 -11 -20t-13 -8l-5 -1h-195q-2 0 -5 1t-7.5 7.5zM475 471h176 l27 647zM475 1849q9 52 52 88.5t96 36.5t83 -36.5t21 -88.5q-9 -53 -52 -90t-95 -37t-83 37t-22 90zM889 1849q9 52 51.5 88.5t95.5 36.5t83.5 -36.5t21.5 -88.5q-9 -53 -52.5 -90t-95.5 -37t-82.5 37t-21.5 90z" />
<glyph unicode="&#xc5;" d="M87.5 8.5q-4.5 6.5 0.5 20.5l535 1530q-63 63 -48 159q15 86 86.5 146.5t157.5 60.5t135.5 -60.5t34.5 -146.5q-15 -94 -100 -159l-6 -1530q0 -13 -5.5 -20t-10.5 -8l-5 -1h-194q-2 0 -5.5 1t-9.5 8t-6 20l2 219h-250l-75 -219q-4 -13 -11 -20t-13 -8l-5 -1h-195 q-2 0 -5 1t-7.5 7.5zM475 471h176l27 647zM705 1718q-5 -32 14 -55t51 -23t59 23t31 55q6 32 -12.5 55t-50.5 23t-59 -23t-33 -55z" />
<glyph unicode="&#xc6;" horiz-adv-x="1245" d="M87.5 8.5q-4.5 6.5 0.5 20.5l551 1581q4 13 13.5 20t16.5 8h7h725q12 0 18.5 -8t3.5 -20l-28 -168q-3 -12 -13 -20.5t-22 -8.5h-473l-2 -438h315q12 0 19.5 -8.5t5.5 -20.5l-29 -166q-3 -12 -13 -20t-22 -8h-276l-2 -529h280q12 0 19 -8t4 -20l-29 -166q-1 -12 -11 -20.5 t-22 -8.5h-456q-2 0 -5.5 1t-9.5 8t-6 20l2 219h-250l-75 -219q-4 -13 -11 -20t-13 -8l-5 -1h-195q-2 0 -5 1t-7.5 7.5zM475 471h176l27 647z" />
<glyph unicode="&#xc7;" horiz-adv-x="952" d="M162 229l209 1180q17 100 99.5 170t180.5 70h248q99 0 157.5 -70.5t41.5 -169.5l-27 -152q-3 -12 -13 -20t-22 -8h-178q-12 0 -18.5 8t-3.5 20l18 109q4 25 -10 42t-39 17h-137q-25 0 -45.5 -17t-24.5 -42l-195 -1102q-4 -25 10.5 -42t39.5 -17h147q25 0 45.5 17t24.5 42 l39 219q3 12 12.5 20.5t21.5 8.5h179q12 0 18.5 -8.5t3.5 -20.5l-45 -254q-17 -99 -99.5 -169t-181.5 -70h-100l-24 -35h26q24 0 37.5 -16t9.5 -39l-28 -162q-4 -23 -24.5 -39t-43.5 -16h-96q-23 0 -36 16t-9 39l4 29q3 12 13 20t22 8h16q12 0 19 -8t4 -20q0 -15 12 -15h31 q6 0 11 4.5t5 10.5l18 102q3 14 -12 14h-31q-12 0 -16 -14l-2 -12h-74l8 43l64 90h-62q-99 0 -157 70t-41 169z" />
<glyph unicode="&#xc8;" horiz-adv-x="907" d="M127 29l279 1581q7 28 34 28h623q12 0 18.5 -8t3.5 -20l-28 -168q-3 -12 -13 -20.5t-22 -8.5h-416l-78 -438h334q12 0 19.5 -8.5t5.5 -20.5l-29 -166q-3 -12 -13 -20t-22 -8h-334l-92 -529h428q12 0 19 -8t4 -20l-29 -166q-1 -12 -11 -20.5t-22 -8.5h-634 q-12 0 -19.5 8.5t-5.5 20.5zM597.5 1955.5q1.5 6.5 6.5 7.5l4 1h142q2 0 5.5 -1t10.5 -8t10 -20l47 -174q3 -14 0.5 -20t-7.5 -7l-5 -1h-100l-109 202q-6 14 -4.5 20.5z" />
<glyph unicode="&#xc9;" horiz-adv-x="907" d="M127 29l279 1581q7 28 34 28h623q12 0 18.5 -8t3.5 -20l-28 -168q-3 -12 -13 -20.5t-22 -8.5h-416l-78 -438h334q12 0 19.5 -8.5t5.5 -20.5l-29 -166q-3 -12 -13 -20t-22 -8h-334l-92 -529h428q12 0 19 -8t4 -20l-29 -166q-1 -12 -11 -20.5t-22 -8.5h-634 q-12 0 -19.5 8.5t-5.5 20.5zM711 1736q-6 7 4 25l108 174q8 13 17.5 20t15.5 8l6 1h142l6 -3q5 -6 -13 -26l-178 -202h-100z" />
<glyph unicode="&#xca;" horiz-adv-x="907" d="M127 29l279 1581q7 28 34 28h623q12 0 18.5 -8t3.5 -20l-28 -168q-3 -12 -13 -20.5t-22 -8.5h-416l-78 -438h334q12 0 19.5 -8.5t5.5 -20.5l-29 -166q-3 -12 -13 -20t-22 -8h-334l-92 -529h428q12 0 19 -8t4 -20l-29 -166q-1 -12 -11 -20.5t-22 -8.5h-634 q-12 0 -19.5 8.5t-5.5 20.5zM582 1736q-6 7 4 25l108 174q8 13 18 20t16 8l5 1h141q2 0 6 -1t11 -8t10 -20l47 -174q3 -14 0.5 -20t-7.5 -7l-5 -1h-102l-56 102l-88 -102h-100z" />
<glyph unicode="&#xcb;" horiz-adv-x="907" d="M127 29l279 1581q7 28 34 28h623q12 0 18.5 -8t3.5 -20l-28 -168q-3 -12 -13 -20.5t-22 -8.5h-416l-78 -438h334q12 0 19.5 -8.5t5.5 -20.5l-29 -166q-3 -12 -13 -20t-22 -8h-334l-92 -529h428q12 0 19 -8t4 -20l-29 -166q-1 -12 -11 -20.5t-22 -8.5h-634 q-12 0 -19.5 8.5t-5.5 20.5zM455 1849q9 52 51.5 88.5t95.5 36.5t83.5 -36.5t21.5 -88.5q-9 -53 -52.5 -90t-95.5 -37t-82.5 37t-21.5 90zM868 1849q9 52 52 88.5t96 36.5t83 -36.5t21 -88.5q-9 -53 -52 -90t-95 -37t-83 37t-22 90z" />
<glyph unicode="&#xcc;" horiz-adv-x="479" d="M125 29l278 1581q3 12 13 20t22 8h178q12 0 19 -8t4 -20l-279 -1581q-2 -12 -11 -20.5t-21 -8.5h-178q-12 0 -19.5 8.5t-5.5 20.5zM366.5 1955.5q1.5 6.5 5.5 7.5l5 1h141q2 0 6 -1t11 -8t10 -20l47 -174q3 -14 0.5 -20t-7.5 -7l-5 -1h-101l-108 202q-6 14 -4.5 20.5z " />
<glyph unicode="&#xcd;" horiz-adv-x="475" d="M127 29l279 1581q7 28 34 28h178q12 0 19 -8t4 -20l-279 -1581q-2 -12 -11 -20.5t-21 -8.5h-178q-12 0 -19.5 8.5t-5.5 20.5zM498 1736q-6 7 4 25l108 174q8 13 18 20t16 8l5 1h142l6 -3q5 -6 -13 -26l-178 -202h-100z" />
<glyph unicode="&#xce;" horiz-adv-x="473" d="M123 29l278 1581q3 12 13 20t22 8h178q12 0 19 -8t4 -20l-279 -1581q-2 -12 -11 -20.5t-21 -8.5h-179q-12 0 -19 8.5t-5 20.5zM361 1736q-6 7 4 25l108 174q8 13 17.5 20t15.5 8l6 1h141q2 0 6 -1t11 -8t10 -20l47 -174q3 -14 0.5 -20t-7.5 -7l-5 -1h-103l-55 102 l-88 -102h-100z" />
<glyph unicode="&#xcf;" horiz-adv-x="481" d="M127 29l279 1581q7 28 34 28h178q12 0 19 -8t4 -20l-279 -1581q-2 -12 -11 -20.5t-21 -8.5h-178q-12 0 -19.5 8.5t-5.5 20.5zM244 1849q9 52 51.5 88.5t95.5 36.5t83.5 -36.5t21.5 -88.5q-9 -53 -52.5 -90t-95.5 -37t-82.5 37t-21.5 90zM637 1849q9 52 51.5 88.5 t95.5 36.5t83.5 -36.5t21.5 -88.5q-9 -53 -52.5 -90t-95.5 -37t-82.5 37t-21.5 90z" />
<glyph unicode="&#xd0;" horiz-adv-x="983" d="M127 29l117 657h-74q-12 0 -19.5 8.5t-5.5 20.5l29 166q3 12 13 20t22 8h74l123 701q7 28 34 28h469q99 0 156.5 -70t40.5 -169l-205 -1159q-17 -100 -99.5 -170t-180.5 -70h-469q-12 0 -19.5 8.5t-5.5 20.5zM397 223h207q25 0 45 17.5t25 42.5l188 1073q4 25 -10 42 t-39 17h-207l-88 -506h94q12 0 19 -8t4 -20l-29 -166q-1 -12 -11 -20.5t-22 -8.5h-94z" />
<glyph unicode="&#xd1;" horiz-adv-x="999" d="M127 29l279 1581q7 28 34 28h176q3 0 6.5 -0.5t10.5 -7.5t8 -20l127 -881l156 881q7 28 34 28h179q12 0 18.5 -8t3.5 -20l-278 -1581q-1 -12 -11 -20.5t-22 -8.5h-166q-3 0 -6.5 1t-11 8t-9.5 20l-153 794l-140 -794q-2 -12 -11 -20.5t-21 -8.5h-178q-12 0 -19.5 8.5 t-5.5 20.5zM584 1736q-6 7 4 25l108 174q8 13 18 20t16 8l5 1h90q21 0 33 -29l33 -67l86 96h100q2 0 4.5 -1t5 -7.5t-7.5 -20.5l-108 -174q-7 -13 -16.5 -20t-14.5 -7l-6 -1h-103l-55 102l-84 -102h-100z" />
<glyph unicode="&#xd2;" horiz-adv-x="987" d="M162 229l209 1180q17 100 99.5 170t180.5 70h262q99 0 157.5 -70.5t41.5 -169.5l-209 -1180q-17 -99 -99 -169t-181 -70h-263q-99 0 -157 70t-41 169zM403 264q-4 -25 10.5 -42t39.5 -17h151q25 0 45.5 17t24.5 42l194 1102q4 25 -10 42t-39 17h-151q-25 0 -45.5 -17 t-24.5 -42zM618.5 1955.5q1.5 6.5 5.5 7.5l5 1h141q2 0 6 -1t11 -8t10 -20l47 -174q3 -14 0 -20t-8 -7l-5 -1h-100l-108 202q-6 14 -4.5 20.5z" />
<glyph unicode="&#xd3;" horiz-adv-x="987" d="M162 229l209 1180q17 100 99.5 170t180.5 70h262q99 0 157.5 -70.5t41.5 -169.5l-209 -1180q-17 -99 -99 -169t-181 -70h-263q-99 0 -157 70t-41 169zM403 264q-4 -25 10.5 -42t39.5 -17h151q25 0 45.5 17t24.5 42l194 1102q4 25 -10 42t-39 17h-151q-25 0 -45.5 -17 t-24.5 -42zM754 1736q-6 7 4 25l108 174q8 13 18 20t16 8l5 1h142l6 -3q5 -6 -13 -26l-178 -202h-100z" />
<glyph unicode="&#xd4;" horiz-adv-x="987" d="M162 229l209 1180q17 100 99.5 170t180.5 70h262q99 0 157.5 -70.5t41.5 -169.5l-209 -1180q-17 -99 -99 -169t-181 -70h-263q-99 0 -157 70t-41 169zM403 264q-4 -25 10.5 -42t39.5 -17h151q25 0 45.5 17t24.5 42l194 1102q4 25 -10 42t-39 17h-151q-25 0 -45.5 -17 t-24.5 -42zM610.5 1738.5q-1.5 2.5 0 8.5t5.5 14l109 174q8 13 17.5 20t15.5 8l6 1h141q2 0 6 -1t11 -8t10 -20l47 -174q3 -14 0.5 -20t-7.5 -7l-5 -1h-103l-55 102l-88 -102h-100h-2t-4 1.5t-4.5 4z" />
<glyph unicode="&#xd5;" horiz-adv-x="987" d="M162 229l209 1180q17 100 99.5 170t180.5 70h262q99 0 157.5 -70.5t41.5 -169.5l-209 -1180q-17 -99 -99 -169t-181 -70h-263q-99 0 -157 70t-41 169zM403 264q-4 -25 10.5 -42t39.5 -17h151q25 0 45.5 17t24.5 42l194 1102q4 25 -10 42t-39 17h-151q-25 0 -45.5 -17 t-24.5 -42zM580 1736q-6 7 4 25l108 174q8 13 18 20t16 8l5 1h90q21 0 33 -29l33 -67l86 96h100q2 0 4.5 -1t5 -7.5t-7.5 -20.5l-108 -174q-7 -13 -16.5 -20t-14.5 -7l-6 -1h-103l-55 102l-84 -102h-100z" />
<glyph unicode="&#xd6;" horiz-adv-x="987" d="M162 229l209 1180q17 100 99.5 170t180.5 70h262q99 0 157.5 -70.5t41.5 -169.5l-209 -1180q-17 -99 -99 -169t-181 -70h-263q-99 0 -157 70t-41 169zM403 264q-4 -25 10.5 -42t39.5 -17h151q25 0 45.5 17t24.5 42l194 1102q4 25 -10 42t-39 17h-151q-25 0 -45.5 -17 t-24.5 -42zM485 1849q9 52 52 88.5t96 36.5t83 -36.5t21 -88.5q-9 -53 -52 -90t-95 -37t-83 37t-22 90zM899 1849q9 52 52 88.5t96 36.5t83 -36.5t21 -88.5q-9 -53 -52 -90t-95 -37t-83 37t-22 90z" />
<glyph unicode="&#xd7;" horiz-adv-x="886" d="M158 412q-7 7 6 26l293 375l-160 367q-5 14 -2.5 20t8.5 7l6 1h221q21 1 29 -28l64 -152l118 152q9 13 19 20t16 8h6h222l9 -2q8 -7 -9 -26l-289 -367l159 -375q5 -14 3 -20t-7 -7l-6 -1h-215q-17 -1 -31 28l-71 162l-127 -162q-10 -13 -20 -20t-14 -8h-5h-215z" />
<glyph unicode="&#xd8;" horiz-adv-x="978" d="M114 -99q-4 7 3 25l71 156q-41 63 -26 147l209 1180q17 100 99.5 170t180.5 70h242l31 63q5 13 15 20t17 8l7 1h184q2 0 3.5 -1t3.5 -7.5t-5 -20.5l-70 -156q39 -70 25 -147l-209 -1180q-17 -99 -99.5 -169t-181.5 -70h-249l-29 -64q-5 -13 -15 -20t-17 -8h-7h-178z M463 205h133q25 0 45.5 17t24.5 42l114 651zM485 731l308 694h-125q-25 0 -45.5 -17t-24.5 -42z" />
<glyph unicode="&#xd9;" horiz-adv-x="983" d="M162 229l244 1381q7 28 34 28h178q12 0 19 -8t4 -20l-238 -1346q-4 -25 10.5 -42t39.5 -17h147q25 0 45.5 17t24.5 42l237 1346q3 12 13 20t22 8h178q12 0 19 -8t4 -20l-244 -1381q-17 -99 -99.5 -169t-181.5 -70h-258q-99 0 -157 70t-41 169zM620.5 1955.5 q1.5 6.5 5.5 7.5l5 1h141q2 0 6 -1t11 -8t10 -20l47 -174q3 -14 0.5 -20t-7.5 -7l-5 -1h-101l-108 202q-6 14 -4.5 20.5z" />
<glyph unicode="&#xda;" horiz-adv-x="983" d="M162 229l244 1381q7 28 34 28h178q12 0 19 -8t4 -20l-238 -1346q-4 -25 10.5 -42t39.5 -17h147q25 0 45.5 17t24.5 42l237 1346q3 12 13 20t22 8h178q12 0 19 -8t4 -20l-244 -1381q-17 -99 -99.5 -169t-181.5 -70h-258q-99 0 -157 70t-41 169zM748 1736q-6 7 4 25 l108 174q8 13 18 20t16 8l5 1h141l6 -3q6 -6 -12 -26l-178 -202h-100z" />
<glyph unicode="&#xdb;" horiz-adv-x="983" d="M162 229l244 1381q7 28 34 28h178q12 0 19 -8t4 -20l-238 -1346q-4 -25 10.5 -42t39.5 -17h147q25 0 45.5 17t24.5 42l237 1346q3 12 13 20t22 8h178q12 0 19 -8t4 -20l-244 -1381q-17 -99 -99.5 -169t-181.5 -70h-258q-99 0 -157 70t-41 169zM612.5 1738.5 q-1.5 2.5 0 8.5t5.5 14l109 174q8 13 17.5 20t15.5 8l6 1h141q2 0 6 -1t11 -8t10 -20l47 -174q3 -14 0.5 -20t-7.5 -7l-5 -1h-103l-55 102l-88 -102h-100h-2t-4 1.5t-4.5 4z" />
<glyph unicode="&#xdc;" horiz-adv-x="983" d="M162 229l244 1381q7 28 34 28h178q12 0 19 -8t4 -20l-238 -1346q-4 -25 10.5 -42t39.5 -17h147q25 0 45.5 17t24.5 42l237 1346q3 12 13 20t22 8h178q12 0 19 -8t4 -20l-244 -1381q-17 -99 -99.5 -169t-181.5 -70h-258q-99 0 -157 70t-41 169zM483 1849q9 52 52 88.5 t96 36.5t83 -36.5t21 -88.5q-9 -53 -52 -90t-95 -37t-83 37t-22 90zM897 1849q9 52 51.5 88.5t95.5 36.5t83.5 -36.5t21.5 -88.5q-9 -53 -52.5 -90t-95.5 -37t-82.5 37t-21.5 90z" />
<glyph unicode="&#xdd;" horiz-adv-x="909" d="M342 29l86 483l-82 1098q-1 13 4 20t10 8h5h194q2 0 5.5 -0.5t9.5 -7.5t6 -20l41 -662l274 662q5 13 13.5 20t13.5 8h6h194h2t4 -1.5t4 -4t0.5 -8.5t-4.5 -14l-466 -1098l-87 -483q-2 -12 -11 -20.5t-21 -8.5h-176q-12 0 -19.5 8.5t-5.5 20.5zM715 1736q-6 7 4 25 l108 174q8 13 17.5 20t15.5 8l6 1h142l6 -3q5 -6 -13 -26l-178 -202h-100z" />
<glyph unicode="&#xde;" d="M127 29l279 1581q7 28 34 28h178q12 0 19 -8t4 -20l-53 -299h262q99 0 157.5 -70.5t41.5 -169.5l-88 -502q-19 -99 -101.5 -169t-181.5 -70h-262l-54 -301q-2 -12 -11 -20.5t-21 -8.5h-178q-12 0 -19.5 8.5t-5.5 20.5zM453 545h206q25 0 46.5 17t25.5 42l74 424 q4 25 -10 42t-39 17h-207z" />
<glyph unicode="&#xdf;" horiz-adv-x="958" d="M127 29l242 1370q17 99 100 169t182 70h424q12 0 19 -8t4 -20l-31 -174l-236 -533q76 -19 116.5 -83t25.5 -148l-78 -443q-17 -99 -99.5 -169t-181.5 -70h-26q-12 0 -19 8t-6 20l33 187q25 0 45.5 17t24.5 42l65 365q3 25 -11 42t-38 17h-88q-12 0 -19.5 8.5t-5.5 20.5 l31 174l231 524h-165q-25 0 -45.5 -17t-24.5 -42l-234 -1327q-2 -12 -11 -20.5t-21 -8.5h-178q-12 0 -19.5 8.5t-5.5 20.5z" />
<glyph unicode="&#xe0;" d="M87.5 8.5q-4.5 6.5 0.5 20.5l551 1581q4 13 13.5 20t16.5 8h7h188q3 0 7.5 -0.5t11.5 -7.5t6 -20l-6 -1581q0 -13 -5.5 -20t-10.5 -8l-5 -1h-194q-2 0 -5.5 1t-9.5 8t-6 20l2 219h-250l-75 -219q-4 -13 -11 -20t-13 -8l-5 -1h-195q-2 0 -5 1t-7.5 7.5zM475 471h176 l27 647zM607.5 1955.5q1.5 6.5 6.5 7.5l4 1h142q2 0 5.5 -1t10.5 -8t10 -20l48 -174q3 -14 0 -20t-8 -7l-5 -1h-100l-109 202q-6 14 -4.5 20.5z" />
<glyph unicode="&#xe1;" d="M87.5 8.5q-4.5 6.5 0.5 20.5l551 1581q4 13 13.5 20t16.5 8h7h188q3 0 7.5 -0.5t11.5 -7.5t6 -20l-6 -1581q0 -13 -5.5 -20t-10.5 -8l-5 -1h-194q-2 0 -5.5 1t-9.5 8t-6 20l2 219h-250l-75 -219q-4 -13 -11 -20t-13 -8l-5 -1h-195q-2 0 -5 1t-7.5 7.5zM475 471h176 l27 647zM737.5 1738.5q-1.5 2.5 0 8.5t5.5 14l109 174q8 13 18 20t16 8l5 1h141l6 -3q6 -6 -12 -26l-178 -202h-100h-2t-4 1.5t-4.5 4z" />
<glyph unicode="&#xe2;" d="M87.5 8.5q-4.5 6.5 0.5 20.5l551 1581q4 13 13.5 20t16.5 8h7h188q3 0 7.5 -0.5t11.5 -7.5t6 -20l-6 -1581q0 -13 -5.5 -20t-10.5 -8l-5 -1h-194q-2 0 -5.5 1t-9.5 8t-6 20l2 219h-250l-75 -219q-4 -13 -11 -20t-13 -8l-5 -1h-195q-2 0 -5 1t-7.5 7.5zM475 471h176 l27 647zM606 1736q-6 7 4 25l109 174q8 13 17.5 20t15.5 8l6 1h141q2 0 6 -1t11 -8t10 -20l47 -174q3 -14 0.5 -20t-7.5 -7l-5 -1h-103l-55 102l-88 -102h-101z" />
<glyph unicode="&#xe3;" d="M87.5 8.5q-4.5 6.5 0.5 20.5l551 1581q4 13 13.5 20t16.5 8h7h188q3 0 7.5 -0.5t11.5 -7.5t6 -20l-6 -1581q0 -13 -5.5 -20t-10.5 -8l-5 -1h-194q-2 0 -5.5 1t-9.5 8t-6 20l2 219h-250l-75 -219q-4 -13 -11 -20t-13 -8l-5 -1h-195q-2 0 -5 1t-7.5 7.5zM475 471h176 l27 647zM563 1736q-6 7 4 25l109 174q8 13 18 20t16 8l5 1h90q21 0 33 -29l32 -67l86 96h101q2 0 4.5 -1t5 -7.5t-7.5 -20.5l-109 -174q-7 -13 -16.5 -20t-15.5 -7l-5 -1h-102l-55 102l-84 -102h-101z" />
<glyph unicode="&#xe4;" d="M87.5 8.5q-4.5 6.5 0.5 20.5l551 1581q4 13 13.5 20t16.5 8h7h188q3 0 7.5 -0.5t11.5 -7.5t6 -20l-6 -1581q0 -13 -5.5 -20t-10.5 -8l-5 -1h-194q-2 0 -5.5 1t-9.5 8t-6 20l2 219h-250l-75 -219q-4 -13 -11 -20t-13 -8l-5 -1h-195q-2 0 -5 1t-7.5 7.5zM475 471h176 l27 647zM475 1849q9 52 52 88.5t96 36.5t83 -36.5t21 -88.5q-9 -53 -52 -90t-95 -37t-83 37t-22 90zM889 1849q9 52 51.5 88.5t95.5 36.5t83.5 -36.5t21.5 -88.5q-9 -53 -52.5 -90t-95.5 -37t-82.5 37t-21.5 90z" />
<glyph unicode="&#xe5;" d="M87.5 8.5q-4.5 6.5 0.5 20.5l535 1530q-63 63 -48 159q15 86 86.5 146.5t157.5 60.5t135.5 -60.5t34.5 -146.5q-15 -94 -100 -159l-6 -1530q0 -13 -5.5 -20t-10.5 -8l-5 -1h-194q-2 0 -5.5 1t-9.5 8t-6 20l2 219h-250l-75 -219q-4 -13 -11 -20t-13 -8l-5 -1h-195 q-2 0 -5 1t-7.5 7.5zM475 471h176l27 647zM705 1718q-5 -32 14 -55t51 -23t59 23t31 55q6 32 -12.5 55t-50.5 23t-59 -23t-33 -55z" />
<glyph unicode="&#xe6;" horiz-adv-x="1245" d="M87.5 8.5q-4.5 6.5 0.5 20.5l551 1581q4 13 13.5 20t16.5 8h7h725q12 0 18.5 -8t3.5 -20l-28 -168q-3 -12 -13 -20.5t-22 -8.5h-473l-2 -438h315q12 0 19.5 -8.5t5.5 -20.5l-29 -166q-3 -12 -13 -20t-22 -8h-276l-2 -529h280q12 0 19 -8t4 -20l-29 -166q-1 -12 -11 -20.5 t-22 -8.5h-456q-2 0 -5.5 1t-9.5 8t-6 20l2 219h-250l-75 -219q-4 -13 -11 -20t-13 -8l-5 -1h-195q-2 0 -5 1t-7.5 7.5zM475 471h176l27 647z" />
<glyph unicode="&#xe7;" horiz-adv-x="952" d="M162 229l209 1180q17 100 99.5 170t180.5 70h248q99 0 157.5 -70.5t41.5 -169.5l-27 -152q-3 -12 -13 -20t-22 -8h-178q-12 0 -18.5 8t-3.5 20l18 109q4 25 -10 42t-39 17h-137q-25 0 -45.5 -17t-24.5 -42l-195 -1102q-4 -25 10.5 -42t39.5 -17h147q25 0 45.5 17t24.5 42 l39 219q3 12 12.5 20.5t21.5 8.5h179q12 0 18.5 -8.5t3.5 -20.5l-45 -254q-17 -99 -99.5 -169t-181.5 -70h-100l-24 -35h26q24 0 37.5 -16t9.5 -39l-28 -162q-4 -23 -24.5 -39t-43.5 -16h-96q-23 0 -36 16t-9 39l4 29q3 12 13 20t22 8h16q12 0 19 -8t4 -20q0 -15 12 -15h31 q6 0 11 4.5t5 10.5l18 102q3 14 -12 14h-31q-12 0 -16 -14l-2 -12h-74l8 43l64 90h-62q-99 0 -157 70t-41 169z" />
<glyph unicode="&#xe8;" horiz-adv-x="907" d="M127 29l279 1581q7 28 34 28h623q12 0 18.5 -8t3.5 -20l-28 -168q-3 -12 -13 -20.5t-22 -8.5h-416l-78 -438h334q12 0 19.5 -8.5t5.5 -20.5l-29 -166q-3 -12 -13 -20t-22 -8h-334l-92 -529h428q12 0 19 -8t4 -20l-29 -166q-1 -12 -11 -20.5t-22 -8.5h-634 q-12 0 -19.5 8.5t-5.5 20.5zM597.5 1955.5q1.5 6.5 6.5 7.5l4 1h142q2 0 5.5 -1t10.5 -8t10 -20l47 -174q3 -14 0.5 -20t-7.5 -7l-5 -1h-100l-109 202q-6 14 -4.5 20.5z" />
<glyph unicode="&#xe9;" horiz-adv-x="907" d="M127 29l279 1581q7 28 34 28h623q12 0 18.5 -8t3.5 -20l-28 -168q-3 -12 -13 -20.5t-22 -8.5h-416l-78 -438h334q12 0 19.5 -8.5t5.5 -20.5l-29 -166q-3 -12 -13 -20t-22 -8h-334l-92 -529h428q12 0 19 -8t4 -20l-29 -166q-1 -12 -11 -20.5t-22 -8.5h-634 q-12 0 -19.5 8.5t-5.5 20.5zM711 1736q-6 7 4 25l108 174q8 13 17.5 20t15.5 8l6 1h142l6 -3q5 -6 -13 -26l-178 -202h-100z" />
<glyph unicode="&#xea;" horiz-adv-x="907" d="M127 29l279 1581q7 28 34 28h623q12 0 18.5 -8t3.5 -20l-28 -168q-3 -12 -13 -20.5t-22 -8.5h-416l-78 -438h334q12 0 19.5 -8.5t5.5 -20.5l-29 -166q-3 -12 -13 -20t-22 -8h-334l-92 -529h428q12 0 19 -8t4 -20l-29 -166q-1 -12 -11 -20.5t-22 -8.5h-634 q-12 0 -19.5 8.5t-5.5 20.5zM582 1736q-6 7 4 25l108 174q8 13 18 20t16 8l5 1h141q2 0 6 -1t11 -8t10 -20l47 -174q3 -14 0.5 -20t-7.5 -7l-5 -1h-102l-56 102l-88 -102h-100z" />
<glyph unicode="&#xeb;" horiz-adv-x="907" d="M127 29l279 1581q7 28 34 28h623q12 0 18.5 -8t3.5 -20l-28 -168q-3 -12 -13 -20.5t-22 -8.5h-416l-78 -438h334q12 0 19.5 -8.5t5.5 -20.5l-29 -166q-3 -12 -13 -20t-22 -8h-334l-92 -529h428q12 0 19 -8t4 -20l-29 -166q-1 -12 -11 -20.5t-22 -8.5h-634 q-12 0 -19.5 8.5t-5.5 20.5zM455 1849q9 52 51.5 88.5t95.5 36.5t83.5 -36.5t21.5 -88.5q-9 -53 -52.5 -90t-95.5 -37t-82.5 37t-21.5 90zM868 1849q9 52 52 88.5t96 36.5t83 -36.5t21 -88.5q-9 -53 -52 -90t-95 -37t-83 37t-22 90z" />
<glyph unicode="&#xec;" horiz-adv-x="479" d="M125 29l278 1581q3 12 13 20t22 8h178q12 0 19 -8t4 -20l-279 -1581q-2 -12 -11 -20.5t-21 -8.5h-178q-12 0 -19.5 8.5t-5.5 20.5zM366.5 1955.5q1.5 6.5 5.5 7.5l5 1h141q2 0 6 -1t11 -8t10 -20l47 -174q3 -14 0.5 -20t-7.5 -7l-5 -1h-101l-108 202q-6 14 -4.5 20.5z " />
<glyph unicode="&#xed;" horiz-adv-x="475" d="M127 29l279 1581q7 28 34 28h178q12 0 19 -8t4 -20l-279 -1581q-2 -12 -11 -20.5t-21 -8.5h-178q-12 0 -19.5 8.5t-5.5 20.5zM498 1736q-6 7 4 25l108 174q8 13 18 20t16 8l5 1h142l6 -3q5 -6 -13 -26l-178 -202h-100z" />
<glyph unicode="&#xee;" horiz-adv-x="473" d="M123 29l278 1581q3 12 13 20t22 8h178q12 0 19 -8t4 -20l-279 -1581q-2 -12 -11 -20.5t-21 -8.5h-179q-12 0 -19 8.5t-5 20.5zM361 1736q-6 7 4 25l108 174q8 13 17.5 20t15.5 8l6 1h141q2 0 6 -1t11 -8t10 -20l47 -174q3 -14 0.5 -20t-7.5 -7l-5 -1h-103l-55 102 l-88 -102h-100z" />
<glyph unicode="&#xef;" horiz-adv-x="481" d="M127 29l279 1581q7 28 34 28h178q12 0 19 -8t4 -20l-279 -1581q-2 -12 -11 -20.5t-21 -8.5h-178q-12 0 -19.5 8.5t-5.5 20.5zM244 1849q9 52 51.5 88.5t95.5 36.5t83.5 -36.5t21.5 -88.5q-9 -53 -52.5 -90t-95.5 -37t-82.5 37t-21.5 90zM637 1849q9 52 51.5 88.5 t95.5 36.5t83.5 -36.5t21.5 -88.5q-9 -53 -52.5 -90t-95.5 -37t-82.5 37t-21.5 90z" />
<glyph unicode="&#xf0;" horiz-adv-x="983" d="M127 29l117 657h-74q-12 0 -19.5 8.5t-5.5 20.5l29 166q3 12 13 20t22 8h74l123 701q7 28 34 28h469q99 0 156.5 -70t40.5 -169l-205 -1159q-17 -100 -99.5 -170t-180.5 -70h-469q-12 0 -19.5 8.5t-5.5 20.5zM397 223h207q25 0 45 17.5t25 42.5l188 1073q4 25 -10 42 t-39 17h-207l-88 -506h94q12 0 19 -8t4 -20l-29 -166q-1 -12 -11 -20.5t-22 -8.5h-94z" />
<glyph unicode="&#xf1;" horiz-adv-x="999" d="M127 29l279 1581q7 28 34 28h176q3 0 6.5 -0.5t10.5 -7.5t8 -20l127 -881l156 881q7 28 34 28h179q12 0 18.5 -8t3.5 -20l-278 -1581q-1 -12 -11 -20.5t-22 -8.5h-166q-3 0 -6.5 1t-11 8t-9.5 20l-153 794l-140 -794q-2 -12 -11 -20.5t-21 -8.5h-178q-12 0 -19.5 8.5 t-5.5 20.5zM584 1736q-6 7 4 25l108 174q8 13 18 20t16 8l5 1h90q21 0 33 -29l33 -67l86 96h100q2 0 4.5 -1t5 -7.5t-7.5 -20.5l-108 -174q-7 -13 -16.5 -20t-14.5 -7l-6 -1h-103l-55 102l-84 -102h-100z" />
<glyph unicode="&#xf2;" horiz-adv-x="987" d="M162 229l209 1180q17 100 99.5 170t180.5 70h262q99 0 157.5 -70.5t41.5 -169.5l-209 -1180q-17 -99 -99 -169t-181 -70h-263q-99 0 -157 70t-41 169zM403 264q-4 -25 10.5 -42t39.5 -17h151q25 0 45.5 17t24.5 42l194 1102q4 25 -10 42t-39 17h-151q-25 0 -45.5 -17 t-24.5 -42zM618.5 1955.5q1.5 6.5 5.5 7.5l5 1h141q2 0 6 -1t11 -8t10 -20l47 -174q3 -14 0 -20t-8 -7l-5 -1h-100l-108 202q-6 14 -4.5 20.5z" />
<glyph unicode="&#xf3;" horiz-adv-x="987" d="M162 229l209 1180q17 100 99.5 170t180.5 70h262q99 0 157.5 -70.5t41.5 -169.5l-209 -1180q-17 -99 -99 -169t-181 -70h-263q-99 0 -157 70t-41 169zM403 264q-4 -25 10.5 -42t39.5 -17h151q25 0 45.5 17t24.5 42l194 1102q4 25 -10 42t-39 17h-151q-25 0 -45.5 -17 t-24.5 -42zM754 1736q-6 7 4 25l108 174q8 13 18 20t16 8l5 1h142l6 -3q5 -6 -13 -26l-178 -202h-100z" />
<glyph unicode="&#xf4;" horiz-adv-x="987" d="M162 229l209 1180q17 100 99.5 170t180.5 70h262q99 0 157.5 -70.5t41.5 -169.5l-209 -1180q-17 -99 -99 -169t-181 -70h-263q-99 0 -157 70t-41 169zM403 264q-4 -25 10.5 -42t39.5 -17h151q25 0 45.5 17t24.5 42l194 1102q4 25 -10 42t-39 17h-151q-25 0 -45.5 -17 t-24.5 -42zM610.5 1738.5q-1.5 2.5 0 8.5t5.5 14l109 174q8 13 17.5 20t15.5 8l6 1h141q2 0 6 -1t11 -8t10 -20l47 -174q3 -14 0.5 -20t-7.5 -7l-5 -1h-103l-55 102l-88 -102h-100h-2t-4 1.5t-4.5 4z" />
<glyph unicode="&#xf5;" horiz-adv-x="987" d="M162 229l209 1180q17 100 99.5 170t180.5 70h262q99 0 157.5 -70.5t41.5 -169.5l-209 -1180q-17 -99 -99 -169t-181 -70h-263q-99 0 -157 70t-41 169zM403 264q-4 -25 10.5 -42t39.5 -17h151q25 0 45.5 17t24.5 42l194 1102q4 25 -10 42t-39 17h-151q-25 0 -45.5 -17 t-24.5 -42zM580 1736q-6 7 4 25l108 174q8 13 18 20t16 8l5 1h90q21 0 33 -29l33 -67l86 96h100q2 0 4.5 -1t5 -7.5t-7.5 -20.5l-108 -174q-7 -13 -16.5 -20t-14.5 -7l-6 -1h-103l-55 102l-84 -102h-100z" />
<glyph unicode="&#xf6;" horiz-adv-x="987" d="M162 229l209 1180q17 100 99.5 170t180.5 70h262q99 0 157.5 -70.5t41.5 -169.5l-209 -1180q-17 -99 -99 -169t-181 -70h-263q-99 0 -157 70t-41 169zM403 264q-4 -25 10.5 -42t39.5 -17h151q25 0 45.5 17t24.5 42l194 1102q4 25 -10 42t-39 17h-151q-25 0 -45.5 -17 t-24.5 -42zM485 1849q9 52 52 88.5t96 36.5t83 -36.5t21 -88.5q-9 -53 -52 -90t-95 -37t-83 37t-22 90zM899 1849q9 52 52 88.5t96 36.5t83 -36.5t21 -88.5q-9 -53 -52 -90t-95 -37t-83 37t-22 90z" />
<glyph unicode="&#xf7;" horiz-adv-x="1097" d="M248 715l28 166q3 12 13 20t22 8h795q12 0 18.5 -8t3.5 -20l-28 -166q-1 -12 -11 -20.5t-22 -8.5h-795q-12 0 -19 8.5t-5 20.5zM485 479q11 62 61 105t111 43q62 0 97.5 -43.5t25.5 -104.5t-61 -104t-113 -43q-61 0 -96.5 42.5t-24.5 104.5zM598 1118q11 62 61 105 t111 43q62 0 97.5 -43.5t25.5 -104.5t-61 -104t-113 -43q-61 0 -96.5 42.5t-24.5 104.5z" />
<glyph unicode="&#xf8;" horiz-adv-x="978" d="M114 -99q-4 7 3 25l71 156q-41 63 -26 147l209 1180q17 100 99.5 170t180.5 70h242l31 63q5 13 15 20t17 8l7 1h184q2 0 3.5 -1t3.5 -7.5t-5 -20.5l-70 -156q39 -70 25 -147l-209 -1180q-17 -99 -99.5 -169t-181.5 -70h-249l-29 -64q-5 -13 -15 -20t-17 -8h-7h-178z M463 205h133q25 0 45.5 17t24.5 42l114 651zM485 731l308 694h-125q-25 0 -45.5 -17t-24.5 -42z" />
<glyph unicode="&#xf9;" horiz-adv-x="983" d="M162 229l244 1381q7 28 34 28h178q12 0 19 -8t4 -20l-238 -1346q-4 -25 10.5 -42t39.5 -17h147q25 0 45.5 17t24.5 42l237 1346q3 12 13 20t22 8h178q12 0 19 -8t4 -20l-244 -1381q-17 -99 -99.5 -169t-181.5 -70h-258q-99 0 -157 70t-41 169zM620.5 1955.5 q1.5 6.5 5.5 7.5l5 1h141q2 0 6 -1t11 -8t10 -20l47 -174q3 -14 0.5 -20t-7.5 -7l-5 -1h-101l-108 202q-6 14 -4.5 20.5z" />
<glyph unicode="&#xfa;" horiz-adv-x="983" d="M162 229l244 1381q7 28 34 28h178q12 0 19 -8t4 -20l-238 -1346q-4 -25 10.5 -42t39.5 -17h147q25 0 45.5 17t24.5 42l237 1346q3 12 13 20t22 8h178q12 0 19 -8t4 -20l-244 -1381q-17 -99 -99.5 -169t-181.5 -70h-258q-99 0 -157 70t-41 169zM748 1736q-6 7 4 25 l108 174q8 13 18 20t16 8l5 1h141l6 -3q6 -6 -12 -26l-178 -202h-100z" />
<glyph unicode="&#xfb;" horiz-adv-x="983" d="M162 229l244 1381q7 28 34 28h178q12 0 19 -8t4 -20l-238 -1346q-4 -25 10.5 -42t39.5 -17h147q25 0 45.5 17t24.5 42l237 1346q3 12 13 20t22 8h178q12 0 19 -8t4 -20l-244 -1381q-17 -99 -99.5 -169t-181.5 -70h-258q-99 0 -157 70t-41 169zM612.5 1738.5 q-1.5 2.5 0 8.5t5.5 14l109 174q8 13 17.5 20t15.5 8l6 1h141q2 0 6 -1t11 -8t10 -20l47 -174q3 -14 0.5 -20t-7.5 -7l-5 -1h-103l-55 102l-88 -102h-100h-2t-4 1.5t-4.5 4z" />
<glyph unicode="&#xfc;" horiz-adv-x="983" d="M162 229l244 1381q7 28 34 28h178q12 0 19 -8t4 -20l-238 -1346q-4 -25 10.5 -42t39.5 -17h147q25 0 45.5 17t24.5 42l237 1346q3 12 13 20t22 8h178q12 0 19 -8t4 -20l-244 -1381q-17 -99 -99.5 -169t-181.5 -70h-258q-99 0 -157 70t-41 169zM483 1849q9 52 52 88.5 t96 36.5t83 -36.5t21 -88.5q-9 -53 -52 -90t-95 -37t-83 37t-22 90zM897 1849q9 52 51.5 88.5t95.5 36.5t83.5 -36.5t21.5 -88.5q-9 -53 -52.5 -90t-95.5 -37t-82.5 37t-21.5 90z" />
<glyph unicode="&#xfd;" horiz-adv-x="909" d="M342 29l86 483l-82 1098q-1 13 4 20t10 8h5h194q2 0 5.5 -0.5t9.5 -7.5t6 -20l41 -662l274 662q5 13 13.5 20t13.5 8h6h194h2t4 -1.5t4 -4t0.5 -8.5t-4.5 -14l-466 -1098l-87 -483q-2 -12 -11 -20.5t-21 -8.5h-176q-12 0 -19.5 8.5t-5.5 20.5zM715 1736q-6 7 4 25 l108 174q8 13 17.5 20t15.5 8l6 1h142l6 -3q5 -6 -13 -26l-178 -202h-100z" />
<glyph unicode="&#xfe;" d="M127 29l279 1581q7 28 34 28h178q12 0 19 -8t4 -20l-53 -299h262q99 0 157.5 -70.5t41.5 -169.5l-88 -502q-19 -99 -101.5 -169t-181.5 -70h-262l-54 -301q-2 -12 -11 -20.5t-21 -8.5h-178q-12 0 -19.5 8.5t-5.5 20.5zM453 545h206q25 0 46.5 17t25.5 42l74 424 q4 25 -10 42t-39 17h-207z" />
<glyph unicode="&#xff;" horiz-adv-x="909" d="M342 29l86 483l-82 1098q-1 13 4 20t10 8h5h194q2 0 5.5 -0.5t9.5 -7.5t6 -20l41 -662l274 662q5 13 13.5 20t13.5 8h6h194h2t4 -1.5t4 -4t0.5 -8.5t-4.5 -14l-466 -1098l-87 -483q-2 -12 -11 -20.5t-21 -8.5h-176q-12 0 -19.5 8.5t-5.5 20.5zM449 1849q9 52 51.5 88.5 t95.5 36.5t83 -36.5t21 -88.5q-9 -53 -52 -90t-95 -37t-82.5 37t-21.5 90zM862 1849q9 52 52 88.5t96 36.5t83 -36.5t21 -88.5q-9 -53 -52 -90t-95 -37t-83 37t-22 90z" />
<glyph unicode="&#x152;" horiz-adv-x="1404" d="M164 240l205 1159q17 99 100 169t182 70h910q12 0 18.5 -8t3.5 -20l-29 -168q-3 -12 -12.5 -20.5t-21.5 -8.5h-416l-78 -438h334q12 0 19 -8.5t5 -20.5l-28 -166q-3 -12 -13 -20t-22 -8h-334l-92 -529h428q12 0 19 -8t4 -20l-29 -166q-1 -12 -11 -20.5t-22 -8.5h-922 q-99 0 -157 70.5t-41 169.5zM406 272q-4 -25 10 -42t39 -17h143q25 0 45.5 17t24.5 42l190 1086q5 25 -8.5 42t-38.5 17h-143q-25 0 -46.5 -17t-25.5 -42z" />
<glyph unicode="&#x153;" horiz-adv-x="1404" d="M164 240l205 1159q17 99 100 169t182 70h910q12 0 18.5 -8t3.5 -20l-29 -168q-3 -12 -12.5 -20.5t-21.5 -8.5h-416l-78 -438h334q12 0 19 -8.5t5 -20.5l-28 -166q-3 -12 -13 -20t-22 -8h-334l-92 -529h428q12 0 19 -8t4 -20l-29 -166q-1 -12 -11 -20.5t-22 -8.5h-922 q-99 0 -157 70.5t-41 169.5zM406 272q-4 -25 10 -42t39 -17h143q25 0 45.5 17t24.5 42l190 1086q5 25 -8.5 42t-38.5 17h-143q-25 0 -46.5 -17t-25.5 -42z" />
<glyph unicode="&#x178;" horiz-adv-x="909" d="M342 29l86 483l-82 1098q-1 13 4 20t10 8h5h194q2 0 5.5 -0.5t9.5 -7.5t6 -20l41 -662l274 662q5 13 13.5 20t13.5 8h6h194h2t4 -1.5t4 -4t0.5 -8.5t-4.5 -14l-466 -1098l-87 -483q-2 -12 -11 -20.5t-21 -8.5h-176q-12 0 -19.5 8.5t-5.5 20.5zM449 1849q9 52 51.5 88.5 t95.5 36.5t83 -36.5t21 -88.5q-9 -53 -52 -90t-95 -37t-82.5 37t-21.5 90zM862 1849q9 52 52 88.5t96 36.5t83 -36.5t21 -88.5q-9 -53 -52 -90t-95 -37t-83 37t-22 90z" />
<glyph unicode="&#x2c6;" horiz-adv-x="616" d="M432 1736q-6 7 4 25l109 174q8 13 17.5 20t15.5 8l6 1h141q2 0 6 -1t11 -8t10 -20l47 -174q3 -14 0 -20t-8 -7l-5 -1h-102l-55 102l-88 -102h-101z" />
<glyph unicode="&#x2dc;" horiz-adv-x="714" d="M432 1736q-6 7 4 25l109 174q8 13 17.5 20t15.5 8l6 1h90q21 0 33 -29l32 -67l86 96h101q2 0 4.5 -1t5 -7.5t-7.5 -20.5l-109 -174q-7 -13 -16.5 -20t-14.5 -7l-6 -1h-102l-55 102l-84 -102h-101z" />
<glyph unicode="&#x2000;" horiz-adv-x="987" />
<glyph unicode="&#x2001;" horiz-adv-x="1974" />
<glyph unicode="&#x2002;" horiz-adv-x="987" />
<glyph unicode="&#x2003;" horiz-adv-x="1974" />
<glyph unicode="&#x2004;" horiz-adv-x="658" />
<glyph unicode="&#x2005;" horiz-adv-x="493" />
<glyph unicode="&#x2006;" horiz-adv-x="329" />
<glyph unicode="&#x2007;" horiz-adv-x="329" />
<glyph unicode="&#x2008;" horiz-adv-x="246" />
<glyph unicode="&#x2009;" horiz-adv-x="394" />
<glyph unicode="&#x200a;" horiz-adv-x="109" />
<glyph unicode="&#x2010;" horiz-adv-x="937" d="M248 715l28 166q3 12 13 20t22 8h635q12 0 19 -8t4 -20l-29 -166q-1 -12 -11 -20.5t-22 -8.5h-635q-12 0 -19 8.5t-5 20.5z" />
<glyph unicode="&#x2011;" horiz-adv-x="937" d="M248 715l28 166q3 12 13 20t22 8h635q12 0 19 -8t4 -20l-29 -166q-1 -12 -11 -20.5t-22 -8.5h-635q-12 0 -19 8.5t-5 20.5z" />
<glyph unicode="&#x2012;" horiz-adv-x="937" d="M248 715l28 166q3 12 13 20t22 8h635q12 0 19 -8t4 -20l-29 -166q-1 -12 -11 -20.5t-22 -8.5h-635q-12 0 -19 8.5t-5 20.5z" />
<glyph unicode="&#x2013;" horiz-adv-x="1040" d="M248 715l28 166q3 12 13 20t22 8h738q12 0 18.5 -8t3.5 -20l-29 -166q-2 -12 -11 -20.5t-21 -8.5h-738q-12 0 -19 8.5t-5 20.5z" />
<glyph unicode="&#x2014;" horiz-adv-x="1142" d="M248 715l28 166q3 12 13 20t22 8h840q12 0 19 -8t4 -20l-29 -166q-1 -12 -11 -20.5t-22 -8.5h-840q-12 0 -19 8.5t-5 20.5z" />
<glyph unicode="&#x2018;" horiz-adv-x="307" d="M264 1331l37 209q9 53 52.5 90t95.5 37h71q12 0 19.5 -8.5t5.5 -20.5l-56 -307q-1 -12 -10.5 -20t-21.5 -8h-168q-12 0 -19 8t-6 20z" />
<glyph unicode="&#x2019;" horiz-adv-x="307" d="M285 1331l55 307q1 12 11 20.5t22 8.5h168q12 0 19 -8.5t5 -20.5l-37 -208q-9 -53 -52 -90t-95 -37h-72q-12 0 -19 8t-5 20z" />
<glyph unicode="&#x201a;" horiz-adv-x="307" d="M33 -98l53 307q3 12 13 20.5t22 8.5h168q12 0 18.5 -8.5t3.5 -20.5l-35 -209q-9 -53 -52 -90t-95 -37h-72q-12 0 -19 8.5t-5 20.5z" />
<glyph unicode="&#x201c;" horiz-adv-x="573" d="M264 1331l37 209q9 53 52.5 90t95.5 37h71q12 0 19.5 -8.5t5.5 -20.5l-56 -307q-1 -12 -10.5 -20t-21.5 -8h-168q-12 0 -19 8t-6 20zM530 1331l37 209q9 53 52.5 90t95.5 37h71q12 0 19.5 -8.5t5.5 -20.5l-55 -307q-1 -12 -11 -20t-22 -8h-168q-12 0 -19 8t-6 20z" />
<glyph unicode="&#x201d;" horiz-adv-x="573" d="M285 1331l55 307q1 12 11 20.5t22 8.5h168q12 0 19 -8.5t5 -20.5l-37 -208q-9 -53 -52 -90t-95 -37h-72q-12 0 -19 8t-5 20zM551 1331l55 307q1 12 11 20.5t22 8.5h168q12 0 19 -8.5t5 -20.5l-36 -208q-9 -53 -52.5 -90t-95.5 -37h-72q-12 0 -19 8t-5 20z" />
<glyph unicode="&#x201e;" horiz-adv-x="573" d="M33 -98l53 307q3 12 13 20.5t22 8.5h168q12 0 18.5 -8.5t3.5 -20.5l-35 -209q-9 -53 -52 -90t-95 -37h-72q-12 0 -19 8.5t-5 20.5zM299 -98l53 307q3 12 13 20.5t22 8.5h168q12 0 19 -8.5t4 -20.5l-35 -209q-9 -53 -52.5 -90t-95.5 -37h-71q-12 0 -19.5 8.5t-5.5 20.5z " />
<glyph unicode="&#x2022;" horiz-adv-x="507" d="M252 735l29 160q3 24 23.5 41.5t45.5 17.5h144q24 0 38 -17t11 -42l-29 -160q-4 -25 -24.5 -42t-45.5 -17h-143q-25 0 -39 17t-10 42z" />
<glyph unicode="&#x2026;" horiz-adv-x="1218" d="M55 29l33 188q3 12 13 20.5t22 8.5h182q12 0 19 -8.5t4 -20.5l-33 -188q-1 -12 -11 -20.5t-22 -8.5h-182q-12 0 -19.5 8.5t-5.5 20.5zM494 29l32 188q3 12 13 20.5t22 8.5h182q12 0 19 -8.5t4 -20.5l-33 -188q-1 -12 -11 -20.5t-22 -8.5h-182q-12 0 -19 8.5t-5 20.5z M932 29l33 188q3 12 12.5 20.5t21.5 8.5h183q12 0 18.5 -8.5t3.5 -20.5l-33 -188q-2 -12 -11 -20.5t-21 -8.5h-183q-12 0 -19 8.5t-5 20.5z" />
<glyph unicode="&#x202f;" horiz-adv-x="394" />
<glyph unicode="&#x2039;" horiz-adv-x="526" d="M197 772q-14 30 10 57l211 283q10 13 21 20t17 8l5 1h203l7 -3q6 -7 -9 -26l-230 -311l121 -312q3 -8 3 -14t-2 -8.5t-4.5 -4t-4.5 -1.5h-2h-203q-21 -1 -31 28z" />
<glyph unicode="&#x203a;" horiz-adv-x="526" d="M136 463q-6 7 9 26l228 312l-119 311q-4 14 -2 20.5t7 7.5l5 1h203q21 0 31 -29l112 -283q14 -30 -10 -57l-211 -283q-10 -13 -21 -20t-16 -7l-6 -1h-203z" />
<glyph unicode="&#x205f;" horiz-adv-x="493" />
<glyph unicode="&#x20ac;" horiz-adv-x="948" d="M121 571l29 166q2 12 11 20.5t21 8.5h74l18 104h-73q-12 0 -19 8.5t-4 20.5l29 166q3 12 13 20.5t22 8.5h73l56 315q17 100 99.5 170t180.5 70h244q99 0 157.5 -70.5t41.5 -169.5l-11 -59q-3 -12 -12.5 -20.5t-21.5 -8.5h-179q-12 0 -18.5 8.5t-3.5 20.5l2 16 q4 25 -10 42t-39 17h-133q-25 0 -45.5 -17t-24.5 -42l-47 -272h326q12 0 18.5 -8.5t3.5 -20.5l-29 -166q-3 -12 -12.5 -20.5t-21.5 -8.5h-326l-18 -104h325q12 0 19.5 -8.5t5.5 -20.5l-29 -166q-3 -12 -13 -20t-22 -8h-325l-50 -279q-4 -25 10.5 -42t39.5 -17h143 q25 0 45.5 17t24.5 42l6 35q3 12 13 20.5t22 8.5h178q12 0 18.5 -8.5t3.5 -20.5l-12 -70q-17 -99 -99.5 -169t-181.5 -70h-254q-99 0 -157 70t-41 169l55 314h-74q-12 0 -18.5 8t-3.5 20z" />
<glyph unicode="&#x2122;" horiz-adv-x="1302" d="M395 1548l11 62q7 28 34 28h346q12 0 19 -8t4 -20l-10 -62q-3 -12 -13 -20t-22 -8h-111l-127 -727q-3 -12 -12.5 -20.5t-21.5 -8.5h-70q-12 0 -19 8.5t-4 20.5l127 727h-108q-12 0 -19 8t-4 20zM766 793l137 780l6 37q3 12 13 20t22 8h70q2 0 5.5 -0.5t10 -7.5t8.5 -20 l76 -404l217 404q7 13 16.5 20t14.5 8h6h72q12 0 18.5 -8t3.5 -20l-6 -37l-137 -780q-3 -12 -13 -20.5t-22 -8.5h-70q-12 0 -18.5 8.5t-3.5 20.5l82 469l-223 -420l-78 420l-82 -469q-3 -12 -13 -20.5t-22 -8.5h-68q-12 0 -18.5 8.5t-3.5 20.5z" />
<glyph unicode="&#x25fc;" horiz-adv-x="1638" d="M0 0v1638h1638v-1638h-1638z" />
<glyph unicode="&#xfb01;" horiz-adv-x="1222" d="M127 29l279 1581q7 28 34 28h920q12 0 18.5 -8t3.5 -20l-28 -168q-3 -12 -13 -20.5t-22 -8.5h-713l-78 -438h334q12 0 19.5 -8.5t5.5 -20.5l-29 -166q-3 -12 -13 -20t-22 -8h-334l-127 -723q-2 -12 -11 -20.5t-21 -8.5h-178q-12 0 -19.5 8.5t-5.5 20.5zM868 29l215 1214 q1 12 11 20.5t22 8.5h178q12 0 19.5 -8.5t5.5 -20.5l-215 -1214q-1 -12 -11 -20.5t-22 -8.5h-178q-12 0 -19.5 8.5t-5.5 20.5z" />
<glyph unicode="&#xfb02;" horiz-adv-x="1423" d="M127 29l279 1581q7 28 34 28h817q12 0 19 -8t4 -20l-29 -168q-3 -12 -12.5 -20.5t-21.5 -8.5h-611l-78 -438h232q12 0 19 -8.5t5 -20.5l-28 -166q-3 -12 -13 -20t-22 -8h-232l-127 -723q-2 -12 -11 -20.5t-21 -8.5h-178q-12 0 -19.5 8.5t-5.5 20.5zM766 29l215 1214 q1 12 11 20.5t22 8.5h178q12 0 19.5 -8.5t5.5 -20.5l-181 -1020h326q12 0 18.5 -8t3.5 -20l-28 -166q-1 -12 -11 -20.5t-22 -8.5h-532q-12 0 -19.5 8.5t-5.5 20.5z" />
<glyph horiz-adv-x="1497" d="M162 229l209 1180q17 100 99.5 170t180.5 70h254q99 0 157.5 -70.5t41.5 -169.5l-21 -111q-1 -12 -10.5 -20t-21.5 -8h-179q-12 0 -19 8t-5 20l12 68q4 25 -10 42t-39 17h-143q-25 0 -45.5 -17t-24.5 -42l-195 -1102q-4 -25 10.5 -42t39.5 -17h143q25 0 45.5 17t24.5 42 l32 178q1 12 11 20.5t22 8.5h178q12 0 19.5 -8.5t5.5 -20.5l-39 -213q-17 -99 -99.5 -169t-181.5 -70h-254q-99 0 -157 70t-41 169zM737 664l72 413q3 12 13 20.5t22 8.5h178q12 0 18.5 -8.5t3.5 -20.5l-18 -102h283l112 635q3 12 13 20t22 8h178q12 0 19 -8t4 -20 l-279 -1581q-2 -12 -11 -20.5t-21 -8.5h-179q-12 0 -19 8.5t-5 20.5l127 723h-283l-14 -88q-3 -12 -13 -20.5t-22 -8.5h-178q-12 0 -19 8.5t-4 20.5z" />
<glyph horiz-adv-x="1234" d="M127 29l279 1581q7 28 34 28h178q12 0 19 -8t4 -20l-244 -1387h725q12 0 19 -8t4 -20l-29 -166q-1 -12 -11 -20.5t-22 -8.5h-931q-12 0 -19.5 8.5t-5.5 20.5zM571 395l213 1215q3 12 13 20t22 8h178q12 0 19 -8t4 -20l-180 -1020h346q12 0 19 -8.5t5 -20.5l-28 -166 q-3 -12 -13 -20t-22 -8h-553q-12 0 -19 8t-4 20z" />
<glyph horiz-adv-x="1441" d="M162 229l209 1180q17 100 99.5 170t180.5 70h254q99 0 157.5 -70.5t41.5 -169.5l-21 -111q-1 -12 -10.5 -20t-21.5 -8h-179q-12 0 -19 8t-5 20l12 68q4 25 -10 42t-39 17h-143q-25 0 -45.5 -17t-24.5 -42l-195 -1102q-4 -25 10.5 -42t39.5 -17h143q25 0 45.5 17t24.5 42 l32 178q1 12 11 20.5t22 8.5h178q12 0 19.5 -8.5t5.5 -20.5l-39 -213q-17 -99 -99.5 -169t-181.5 -70h-254q-99 0 -157 70t-41 169zM733 643l80 455q1 12 11 20t22 8h178q12 0 19 -8t6 -20l-29 -164l393 676q8 13 17.5 20t14.5 8h5h195l9 -3q6 -7 -5 -25l-396 -680l117 -901 q2 -13 -2 -20t-9 -8l-5 -1h-195q-2 0 -5.5 1t-10 8t-8.5 20l-117 895l-49 -281q-3 -12 -13 -20.5t-22 -8.5h-178q-12 0 -19 8.5t-4 20.5z" />
<glyph horiz-adv-x="2082" d="M127 29l279 1581q7 28 34 28h170q25 1 29 -28l147 -785l422 785q7 13 17.5 20t16.5 8h7h162q25 1 29 -28l147 -785l422 785q7 13 17.5 20t17.5 8h6h170q12 0 19 -8t4 -20l-279 -1581q-1 -12 -11 -20.5t-22 -8.5h-178q-12 0 -19 8.5t-5 20.5l159 905l-422 -791l-143 791 l-160 -905v-4q-4 -4 -4 -7q0 -2 -2 -4q-11 -14 -22 -14h-5h-178h-4q-8 0 -14 6q-9 6 -6 19v4l159 905l-421 -791l-144 791l-160 -905q-2 -12 -11 -20.5t-21 -8.5h-178q-12 0 -19.5 8.5t-5.5 20.5z" />
<glyph horiz-adv-x="1466" d="M106 29l35 194l670 1192h-432q-12 0 -19 8.5t-4 20.5l29 166q3 12 13 20t22 8h635q12 0 18.5 -8t3.5 -20l-35 -195l-665 -1192h182q12 0 19 -8t4 -20l-29 -166q-1 -12 -11 -20.5t-22 -8.5h-389q-12 0 -19.5 8.5t-5.5 20.5zM676 29l35 194l669 1192h-166q-12 0 -18.5 8.5 t-3.5 20.5l29 166q7 28 34 28h369q12 0 19 -8t4 -20l-35 -195l-666 -1192h428q12 0 19 -8t4 -20l-29 -166q-1 -12 -11 -20.5t-22 -8.5h-635q-12 0 -19 8.5t-5 20.5z" />
<glyph horiz-adv-x="1357" d="M127 29l279 1581q7 28 34 28h178q12 0 19 -8t4 -20l-244 -1387h848q12 0 19 -8t4 -20l-29 -166q-1 -12 -11 -20.5t-22 -8.5h-1054q-12 0 -19.5 8.5t-5.5 20.5zM602 580l148 829q17 100 99.5 170t180.5 70h254q99 0 157.5 -70.5t41.5 -169.5l-148 -829 q-17 -100 -99.5 -170t-180.5 -70h-254q-99 0 -157.5 70.5t-41.5 169.5zM844 614q-3 -25 11 -42t38 -17h143q25 0 46 17.5t24 41.5l133 752q4 25 -10 42t-39 17h-143q-25 0 -45.5 -17t-24.5 -42z" />
<glyph horiz-adv-x="1282" d="M164 29l201 1581q7 28 34 28h179q12 0 18.5 -8t3.5 -20l-141 -1149l352 514l172 -514l264 1149q3 12 13 20t22 8h178q12 0 19 -8t4 -20l-357 -1581q-2 -12 -11 -20.5t-21 -8.5h-174q-21 2 -31 29l-166 440l-322 -440q-8 -12 -17.5 -19t-15.5 -8l-6 -2h-174q-12 0 -19 8.5 t-5 20.5z" />
<glyph horiz-adv-x="974" d="M162 229l86 488l2 10l121 682q17 100 99.5 170t180.5 70h254q99 0 157.5 -70.5t41.5 -169.5l-209 -1180q-15 -83 -76 -147l29 -197q1 -13 -2 -20t-6 -7l-4 -1h-179q-3 0 -7.5 0.5t-12 7.5t-8.5 20l-19 105h-250q-99 0 -157 70t-41 169zM403 264q-4 -25 10.5 -42t39.5 -17 h143q25 0 45.5 17t24.5 42l194 1102q4 25 -10 42t-39 17h-143q-25 0 -45.5 -17t-24.5 -42z" />
<glyph horiz-adv-x="897" d="M106 29l35 194l260 463h-108q-12 0 -19.5 8.5t-5.5 20.5l29 166q3 12 13 20t22 8h194l285 506h-432q-12 0 -19 8.5t-4 20.5l29 166q3 12 13 20t22 8h635q12 0 18.5 -8t3.5 -20l-35 -195l-282 -506h125q12 0 18.5 -8t3.5 -20l-28 -166q-1 -12 -11 -20.5t-22 -8.5h-211 l-258 -463h428q12 0 18.5 -8t3.5 -20l-28 -166q-1 -12 -11 -20.5t-22 -8.5h-635q-12 0 -19.5 8.5t-5.5 20.5z" />
<glyph horiz-adv-x="612" d="M66 29l28 157q1 12 11 20.5t22 8.5h104q25 0 45.5 17t24.5 42l236 1336q7 28 34 28h179q12 0 18.5 -8t3.5 -20l-242 -1370q-17 -100 -99.5 -170t-180.5 -70h-160q-12 0 -19 8.5t-5 20.5z" />
<glyph horiz-adv-x="1468" d="M106.5 8.5q-4.5 6.5 2.5 20.5l278 645q-62 29 -93 88.5t-18 134.5l89 502q17 99 100 169t182 70h752q98 0 155.5 -69.5t40.5 -169.5l-88 -502q-13 -75 -65 -134.5t-123 -88.5l49 -645q2 -13 -2.5 -20t-9.5 -8l-6 -1h-195q-3 0 -6.5 1t-10.5 8t-8 20l-49 628h-114 l-111 -628q-1 -12 -11 -20.5t-22 -8.5h-178q-12 0 -19 8.5t-5 20.5l110 628h-115l-270 -628q-4 -13 -12.5 -20t-14.5 -8l-6 -1h-194q-2 0 -5 1t-7.5 7.5zM518 932q-5 -25 9.5 -42.5t39.5 -17.5h203l94 543h-202q-25 0 -45.5 -17t-24.5 -42zM1006 872h202q25 0 45 17.5 t25 42.5l74 424q4 25 -10 42t-39 17h-203z" />
<glyph horiz-adv-x="1517" d="M127 29l279 1581q7 28 34 28h176q3 0 6.5 -0.5t10.5 -7.5t8 -20l127 -881l156 881q7 28 34 28h177q2 0 6 -0.5t10.5 -7.5t7.5 -20l127 -881l156 881q3 12 13 20t22 8h178q12 0 18.5 -8t3.5 -20l-278 -1581q-1 -12 -11 -20.5t-22 -8.5h-166q-2 0 -6 1t-11 8t-9 20 l-154 794l-139 -794q-1 -12 -11 -20.5t-22 -8.5h-166q-3 0 -6.5 1t-11 8t-9.5 20l-153 794l-140 -794q-2 -12 -11 -20.5t-21 -8.5h-178q-12 0 -19.5 8.5t-5.5 20.5z" />
<glyph horiz-adv-x="1286" d="M127 29l279 1581q7 28 34 28h178q12 0 19 -8t4 -20l-244 -1387h807q12 0 19 -8t4 -20l-29 -166q-1 -12 -11 -20.5t-22 -8.5h-1013q-12 0 -19.5 8.5t-5.5 20.5zM565 369l219 1241q3 12 13 20t22 8h623q12 0 18.5 -8t3.5 -20l-28 -168q-3 -12 -13 -20.5t-22 -8.5h-416 l-53 -303h334q12 0 19 -8.5t5 -20.5l-30 -166q-1 -12 -11 -20t-22 -8h-334l-57 -324h428q12 0 19 -8t5 -20l-31 -166q-2 -12 -11 -20.5t-21 -8.5h-635q-12 0 -19.5 8.5t-5.5 20.5z" />
<glyph horiz-adv-x="1605" d="M346 1444l29 166q3 12 13 20t22 8h1333q12 0 18.5 -8t3.5 -20l-28 -166q-3 -12 -13 -20.5t-22 -8.5h-868l-244 -1386q-1 -12 -11 -20.5t-22 -8.5h-178q-12 0 -19.5 8.5t-5.5 20.5l244 1386h-229q-12 0 -19 8.5t-4 20.5zM733 29l215 1214q1 12 11 20.5t22 8.5h178 q12 0 19.5 -8.5t5.5 -20.5l-80 -452h282l80 452q1 12 11 20.5t22 8.5h178q12 0 19.5 -8.5t5.5 -20.5l-215 -1214q-1 -12 -11 -20.5t-22 -8.5h-178q-12 0 -19.5 8.5t-5.5 20.5l95 538h-283l-94 -538q-1 -12 -11 -20.5t-22 -8.5h-178q-12 0 -19.5 8.5t-5.5 20.5z" />
<glyph horiz-adv-x="2410" d="M346 1444l29 166q3 12 13 20t22 8h2156q12 0 19 -8t4 -20l-29 -166q-3 -12 -13 -20.5t-22 -8.5h-1691l-244 -1386q-1 -12 -11 -20.5t-22 -8.5h-178q-12 0 -19.5 8.5t-5.5 20.5l244 1386h-229q-12 0 -19 8.5t-4 20.5zM733 29l215 1214q1 12 11 20.5t22 8.5h178 q12 0 19.5 -8.5t5.5 -20.5l-80 -452h282l80 452q1 12 11 20.5t22 8.5h178q12 0 19.5 -8.5t5.5 -20.5l-215 -1214q-1 -12 -11 -20.5t-22 -8.5h-178q-12 0 -19.5 8.5t-5.5 20.5l95 538h-283l-94 -538q-1 -12 -11 -20.5t-22 -8.5h-178q-12 0 -19.5 8.5t-5.5 20.5zM1630 29 l215 1214q1 12 11 20.5t22 8.5h623q12 0 19 -8.5t5 -20.5l-31 -168q-1 -12 -10.5 -20t-21.5 -8h-416l-45 -256h334q12 0 18.5 -8.5t3.5 -20.5l-28 -166q-3 -12 -13 -20.5t-22 -8.5h-334l-59 -344h428q12 0 18.5 -8t3.5 -20l-29 -166q-2 -12 -11 -20.5t-21 -8.5h-635 q-12 0 -19.5 8.5t-5.5 20.5z" />
<glyph horiz-adv-x="1517" d="M127 29l279 1581q7 28 34 28h178q12 0 19 -8t4 -20l-113 -635h283l113 635q7 28 34 28h179q12 0 18.5 -8t3.5 -20l-112 -635h282l113 635q3 12 13 20t22 8h178q12 0 18.5 -8t3.5 -20l-278 -1581q-1 -12 -11 -20.5t-22 -8.5h-178q-12 0 -19.5 8.5t-5.5 20.5l127 723h-282 l-127 -723q-1 -12 -11 -20.5t-22 -8.5h-178q-12 0 -19.5 8.5t-5.5 20.5l127 723h-283l-127 -723q-2 -12 -11 -20.5t-21 -8.5h-178q-12 0 -19.5 8.5t-5.5 20.5z" />
<glyph horiz-adv-x="1456" d="M154 240l79 454q18 90 93 162q-13 49 -4 102l77 441q17 99 100.5 169t182.5 70h670q98 0 155.5 -69.5t40.5 -169.5l-78 -441q-9 -53 -40 -102q52 -68 34 -162l-80 -454q-17 -100 -99.5 -170t-180.5 -70h-752q-99 0 -157 70.5t-41 169.5zM395 274q-4 -25 10 -42t39 -17 h203l90 508h-209q-25 -3 -42.5 -19.5t-20.5 -39.5zM563 989q-4 -23 8 -39.5t35 -19.5h168l84 485h-162q-25 0 -44.5 -17t-24.5 -42zM883 215h202q25 0 45.5 17t24.5 42l70 390q3 23 -9 39.5t-34 19.5h-209zM1010 930h168q23 3 41 19.5t22 39.5l64 367q4 25 -10.5 42 t-39.5 17h-161z" />
<glyph horiz-adv-x="1476" d="M162 229l209 1180q17 100 99.5 170t180.5 70h254q68 0 115 -35q62 35 129 35h254q99 0 157.5 -70.5t41.5 -169.5l-209 -1180q-17 -99 -99.5 -169t-181.5 -70h-254q-69 0 -119 33q-53 -33 -125 -33h-254q-99 0 -157 70t-41 169zM403 264q-4 -25 10.5 -42t39.5 -17h143 q25 0 45.5 17t24.5 42l194 1102q4 25 -10 42t-39 17h-143q-25 0 -45.5 -17t-24.5 -42zM901 264q-4 -25 10 -42t39 -17h144q25 0 44.5 17t24.5 42l195 1102q4 25 -10 42t-39 17h-144q-23 0 -42 -15t-25 -38z" />
<glyph d="M87.5 8.5q-4.5 6.5 0.5 20.5l551 1581q4 13 13.5 20t16.5 8h7h188q3 0 7.5 -0.5t11.5 -7.5t6 -20l-6 -1581q0 -13 -5.5 -20t-10.5 -8l-5 -1h-194q-2 0 -5.5 1t-9.5 8t-6 20l2 219h-250l-75 -219q-4 -13 -11 -20t-13 -8l-5 -1h-195q-2 0 -5 1t-7.5 7.5zM475 471h176 l27 647zM504 1749l28 158q1 12 10.5 19t20.5 7h154q11 0 17 -7t5 -19l-28 -158q-1 -10 -10.5 -18.5t-20.5 -8.5h-154q-10 0 -17 8t-5 19zM858 1749l29 158q1 12 10.5 19t20.5 7h153q11 0 17.5 -7t5.5 -19l-29 -158q-1 -10 -10.5 -18.5t-20.5 -8.5h-153q-10 0 -17.5 8 t-5.5 19z" />
<glyph horiz-adv-x="806" d="M430 1749l29 158q1 12 10 19t20 7h154q11 0 17.5 -7t5.5 -19l-29 -158q-1 -10 -10.5 -18.5t-20.5 -8.5h-153q-10 0 -17.5 8t-5.5 19zM784 1749l29 158q1 12 10.5 19t20.5 7h153q11 0 17.5 -7t5.5 -19l-29 -158q-2 -11 -11 -19t-19 -8h-154q-10 0 -17.5 8t-5.5 19z" />
<glyph horiz-adv-x="987" d="M162 229l209 1180q17 100 99.5 170t180.5 70h262q99 0 157.5 -70.5t41.5 -169.5l-209 -1180q-17 -99 -99 -169t-181 -70h-263q-99 0 -157 70t-41 169zM403 264q-4 -25 10.5 -42t39.5 -17h151q25 0 45.5 17t24.5 42l194 1102q4 25 -10 42t-39 17h-151q-25 0 -45.5 -17 t-24.5 -42zM520 1749l29 158q1 12 10.5 19t20.5 7h153q11 0 17.5 -7t5.5 -19l-29 -158q-1 -10 -10.5 -18.5t-20.5 -8.5h-153q-10 0 -17.5 8t-5.5 19zM874 1749l29 158q1 12 10.5 19t20.5 7h153q11 0 17.5 -7t5.5 -19l-29 -158q-2 -11 -11 -19t-19 -8h-154q-10 0 -17.5 8 t-5.5 19z" />
<glyph horiz-adv-x="983" d="M162 229l244 1381q7 28 34 28h178q12 0 19 -8t4 -20l-238 -1346q-4 -25 10.5 -42t39.5 -17h147q25 0 45.5 17t24.5 42l237 1346q3 12 13 20t22 8h178q12 0 19 -8t4 -20l-244 -1381q-17 -99 -99.5 -169t-181.5 -70h-258q-99 0 -157 70t-41 169zM518 1749l29 158 q1 12 10.5 19t20.5 7h153q11 0 17.5 -7t5.5 -19l-29 -158q-1 -10 -10.5 -18.5t-20.5 -8.5h-153q-10 0 -17.5 8t-5.5 19zM872 1749l29 158q1 12 10.5 19t20.5 7h153q11 0 17.5 -7t5.5 -19l-29 -158q-2 -11 -11 -19t-19 -8h-154q-10 0 -17.5 8t-5.5 19z" />
<glyph horiz-adv-x="907" d="M127 29l279 1581q7 28 34 28h623q12 0 18.5 -8t3.5 -20l-28 -168q-3 -12 -13 -20.5t-22 -8.5h-416l-78 -438h334q12 0 19.5 -8.5t5.5 -20.5l-29 -166q-3 -12 -13 -20t-22 -8h-334l-92 -529h428q12 0 19 -8t4 -20l-29 -166q-1 -12 -11 -20.5t-22 -8.5h-634 q-12 0 -19.5 8.5t-5.5 20.5zM489 1749l29 158q1 12 10.5 19t20.5 7h153q11 0 17.5 -7t5.5 -19l-29 -158q-2 -11 -11 -19t-19 -8h-154q-10 0 -17.5 8t-5.5 19zM844 1749l28 158q1 12 10.5 19t20.5 7h154q11 0 17 -7t5 -19l-28 -158q-1 -10 -10.5 -18.5t-20.5 -8.5h-154 q-10 0 -17 8t-5 19z" />
<glyph horiz-adv-x="479" d="M129 29l279 1581q7 28 34 28h179q12 0 18.5 -8t3.5 -20l-278 -1581q-1 -12 -11 -20.5t-22 -8.5h-178q-12 0 -19.5 8.5t-5.5 20.5zM266 1749l29 158q1 12 10.5 19t20.5 7h153q11 0 17.5 -7t5.5 -19l-29 -158q-1 -10 -10.5 -18.5t-20.5 -8.5h-153q-10 0 -17.5 8t-5.5 19z M621 1749l28 158q1 12 10.5 19t20.5 7h154q11 0 17 -7t5 -19l-29 -158q-2 -11 -11 -19t-19 -8h-154q-10 0 -17 8t-5 19z" />
<glyph horiz-adv-x="909" d="M342 29l86 483l-82 1098q-1 13 4 20t10 8h5h194q2 0 5.5 -0.5t9.5 -7.5t6 -20l41 -662l274 662q5 13 13.5 20t13.5 8h6h194h2t4 -1.5t4 -4t0.5 -8.5t-4.5 -14l-466 -1098l-87 -483q-2 -12 -11 -20.5t-21 -8.5h-176q-12 0 -19.5 8.5t-5.5 20.5zM481 1749l29 158 q1 12 10.5 19t20.5 7h153q11 0 17.5 -7t5.5 -19l-29 -158q-1 -10 -10.5 -18.5t-20.5 -8.5h-153q-10 0 -17.5 8t-5.5 19zM836 1749l28 158q1 12 10.5 19t20.5 7h154q11 0 17 -7t5 -19l-29 -158q-2 -11 -11 -19t-19 -8h-154q-10 0 -17 8t-5 19z" />
</font>
</defs>
</svg>
