<?xml version="1.0" standalone="no"?>
<!DOCTYPE svg PUBLIC "-//W3C//DTD SVG 1.1//EN" "http://www.w3.org/Graphics/SVG/1.1/DTD/svg11.dtd" >
<svg xmlns="http://www.w3.org/2000/svg">
<metadata></metadata>
<defs>
<font id="clarkeoblique" horiz-adv-x="1003" >
<font-face units-per-em="2048" ascent="1536" descent="-512" />
<missing-glyph horiz-adv-x="716" />
<glyph horiz-adv-x="0" />
<glyph horiz-adv-x="682" />
<glyph unicode=" "  horiz-adv-x="716" />
<glyph unicode="&#x09;" horiz-adv-x="716" />
<glyph unicode="&#xa0;" horiz-adv-x="716" />
<glyph unicode="!" horiz-adv-x="481" d="M147 29l25 143q3 12 13 20.5t22 8.5h137q12 0 19 -8.5t4 -20.5l-25 -143q-1 -12 -11 -20.5t-22 -8.5h-137q-12 0 -19.5 8.5t-5.5 20.5zM201 328l225 1282q3 12 13 20t22 8h137q12 0 19 -8t4 -20l-226 -1282q-3 -12 -13 -20.5t-22 -8.5h-137q-12 0 -18.5 8.5t-3.5 20.5z " />
<glyph unicode="&#x22;" horiz-adv-x="532" d="M301 1417l39 221q1 12 11 20.5t22 8.5h127q12 0 19 -8.5t5 -20.5l-39 -221q-11 -58 -43 -86t-69 -28t-60 28t-12 86zM547 1417l39 221q2 12 11 20.5t21 8.5h127q12 0 19.5 -8.5t5.5 -20.5l-39 -221q-11 -58 -43.5 -86t-69.5 -28t-59.5 28t-11.5 86z" />
<glyph unicode="#" horiz-adv-x="1478" d="M221 510l23 125q3 12 13 20.5t22 8.5h202l129 268h-186q-12 0 -19.5 8.5t-5.5 20.5l23 124q1 12 11 20.5t22 8.5h235l137 320h185l-140 -320h289l137 320h185l-140 -320h168q12 0 19.5 -8.5t5.5 -20.5l-23 -124q-2 -12 -11 -20.5t-21 -8.5h-219l-129 -268h188 q12 0 18.5 -8.5t3.5 -20.5l-22 -125q-1 -12 -11 -20.5t-22 -8.5h-237l-119 -276h-178l116 276h-290l-119 -276h-178l116 276h-153q-12 0 -19.5 8.5t-5.5 20.5zM662 664h290l129 268h-290z" />
<glyph unicode="$" horiz-adv-x="958" d="M152 229l45 254q3 12 12.5 20.5t21.5 8.5h138q12 0 18.5 -8.5t3.5 -20.5l-45 -260q-4 -25 10 -42t39 -17h226q25 0 44.5 17t24.5 42l80 457q4 25 -10 42t-39 17h-240q-99 0 -157 70.5t-39 169.5l75 430q17 99 99.5 169.5t181.5 70.5h45l16 84q1 12 11 20t22 8h96 q12 0 19 -8t6 -20l-16 -84h45q99 0 157 -70.5t41 -169.5l-26 -152q-3 -12 -13 -20t-22 -8h-137q-12 0 -19 8t-4 20l27 150q3 25 -11 42t-38 17h-215q-25 0 -46 -17.5t-24 -41.5l-70 -393q-4 -25 10.5 -42.5t39.5 -17.5h239q99 0 156.5 -70t40.5 -169l-86 -486 q-17 -99 -99.5 -169t-181.5 -70h-55l-14 -78q-1 -12 -12 -20.5t-23 -8.5h-97q-12 0 -18 8.5t-4 20.5l14 78h-45q-99 0 -157 70t-41 169z" />
<glyph unicode="%" horiz-adv-x="1921" d="M317 997l74 412q17 99 99.5 169.5t181.5 70.5h192q99 0 157.5 -70.5t41.5 -169.5l-74 -412q-17 -99 -99 -169t-181 -70h-193q-99 0 -157.5 70t-41.5 169zM512 991q-4 -25 10 -42t39 -17h164q25 0 45.5 17t24.5 42l73 416q3 25 -11 42t-38 17h-164q-25 0 -45.5 -17.5 t-23.5 -41.5zM642 8.5q-2 6.5 5 20.5l713 1581q6 13 16.5 20t17.5 8h7h164l5 -2q4 -7 -5 -26l-719 -1581q-5 -13 -15 -20t-17 -8l-7 -1h-158q-2 0 -3.5 1t-3.5 7.5zM1145 229l74 412q17 100 99.5 170t180.5 70h193q99 0 157 -70.5t41 -169.5l-73 -412q-17 -99 -99.5 -169 t-181.5 -70h-193q-99 0 -157 70t-41 169zM1339 223q-4 -25 10.5 -42t39.5 -17h163q25 0 45.5 17t24.5 42l74 416q3 25 -11 42t-38 17h-164q-25 0 -46 -17.5t-24 -41.5z" />
<glyph unicode="&#x26;" horiz-adv-x="1044" d="M133 240l41 235q11 58 82.5 152t196.5 233q-111 335 -95 420l23 129q17 99 99.5 169.5t181.5 70.5h137q99 0 157 -70.5t41 -169.5l-24 -135q-5 -28 -26 -65.5t-72 -101.5t-77.5 -95t-102.5 -118q-22 -25 -33 -38l88 -266l94 129q2 2 5.5 6.5t5.5 7t5.5 6t6.5 5t6.5 3 t7.5 1.5h137q12 0 16.5 -9t-4.5 -20l-217 -307l141 -383q3 -11 -3.5 -20t-18.5 -9h-144q-16 0 -28 29q-33 77 -78 194l-158 -223h-192q-99 0 -157.5 70.5t-41.5 169.5zM328 233q-5 -25 8.5 -42t38.5 -17h74l165 227q-10 27 -102 279q-135 -166 -147 -229zM555 1298 q-8 -51 53 -262q162 191 174 258q9 47 21 121q5 25 -9.5 42.5t-39.5 17.5h-109q-25 0 -45 -17.5t-25 -42.5z" />
<glyph unicode="'" horiz-adv-x="286" d="M301 1417l39 221q1 12 11 20.5t22 8.5h127q12 0 19 -8.5t5 -20.5l-39 -221q-11 -58 -43 -86t-69 -28t-60 28t-12 86z" />
<glyph unicode="(" horiz-adv-x="655" d="M143 4l287 1630q19 100 102 170t181 70h151q12 0 19 -8.5t4 -20.5l-21 -125q-3 -12 -13 -20t-22 -8h-137q-25 0 -44.5 -17.5t-24.5 -42.5l-289 -1634q-3 -25 11 -42t38 -17h137q12 0 19.5 -8.5t5.5 -20.5l-21 -117q-3 -12 -12.5 -20.5t-21.5 -8.5h-152q-99 0 -157.5 70.5 t-39.5 169.5z" />
<glyph unicode=")" horiz-adv-x="655" d="M55 -207l21 117q1 12 11 20.5t22 8.5h137q25 0 45.5 17.5t23.5 41.5l289 1634q5 25 -9.5 42.5t-39.5 17.5h-137q-12 0 -19 8t-4 20l21 125q3 12 13 20.5t22 8.5h151q99 0 157.5 -70.5t39.5 -169.5l-287 -1630q-19 -100 -102 -170t-181 -70h-151q-12 0 -19 8.5t-4 20.5z " />
<glyph unicode="*" horiz-adv-x="708" d="M379 1446l16 39q17 34 39 20l105 -49q22 -16 14 -35q-12 -23 -39 -20l-121 10q-27 0 -14 35zM420.5 1236q-1.5 10 9.5 21l94 95q24 21 41 10q16 -11 4 -39l-61 -115q-8 -13 -21.5 -15t-21.5 5l-33 21q-10 7 -11.5 17zM588 1489v121q0 14 10.5 21t24.5 7h41q14 0 21 -7 t1 -21l-41 -121q-13 -29 -35 -29t-22 29zM602 1323q0 29 21 39q17 12 36 -10l62 -95q7 -11 1 -21t-20 -17l-38 -21q-10 -7 -22 -5t-15 15zM655 1421q-3 22 27 35l119 51q14 7 22.5 0.5t10.5 -20.5l4 -39q2 -13 -5.5 -24t-21.5 -11l-125 -12q-31 0 -31 20z" />
<glyph unicode="+" horiz-adv-x="978" d="M272 735l23 125q1 12 11 20.5t22 8.5h225l39 225q3 12 13 20.5t22 8.5h125q12 0 18.5 -8.5t3.5 -20.5l-39 -225h228q12 0 19 -8.5t5 -20.5l-22 -125q-3 -12 -13 -20t-22 -8h-228l-38 -228q-3 -12 -13 -20t-22 -8h-125q-12 0 -19 8t-4 20l39 228h-225q-12 0 -19 8t-4 20z " />
<glyph unicode="," horiz-adv-x="342" d="M84 72l18 104q1 12 11 20.5t22 8.5h141q12 0 19.5 -8.5t5.5 -20.5l-41 -223q-9 -55 -39 -80t-61 -25q-9 0 -15 7t-4 16l23 119h-17q-77 0 -63 82z" />
<glyph unicode="-" horiz-adv-x="978" d="M272 735l23 125q1 12 11 20.5t22 8.5h635q12 0 19 -8.5t5 -20.5l-22 -125q-3 -12 -13 -20t-22 -8h-635q-12 0 -19 8t-4 20z" />
<glyph unicode="." horiz-adv-x="342" d="M76 29l26 147q1 12 11 20.5t22 8.5h141q12 0 19.5 -8.5t5.5 -20.5l-27 -147q-2 -12 -11 -20.5t-21 -8.5h-142q-12 0 -19 8.5t-5 20.5z" />
<glyph unicode="/" horiz-adv-x="831" d="M95 8.5q-2 6.5 5 20.5l713 1581q6 13 16.5 20t17.5 8h7h164l5 -2q4 -7 -5 -26l-719 -1581q-5 -13 -15 -20t-17 -8l-7 -1h-158q-2 0 -3.5 1t-3.5 7.5z" />
<glyph unicode="0" horiz-adv-x="978" d="M162 229l209 1180q17 100 99.5 170t180.5 70h254q99 0 157.5 -70.5t41.5 -169.5l-209 -1180q-17 -99 -99.5 -169t-181.5 -70h-254q-99 0 -157 70t-41 169zM356 223q-4 -25 10.5 -42t39.5 -17h225q25 0 44.5 17t24.5 42l209 1184q3 25 -11 42t-38 17h-225q-25 0 -46 -17.5 t-24 -41.5z" />
<glyph unicode="1" horiz-adv-x="675" d="M342 29l246 1390h-166q-12 0 -19.5 8.5t-5.5 20.5l9 47l180 143h207q12 0 18.5 -8t3.5 -20l-278 -1581q-1 -12 -11 -20.5t-22 -8.5h-137q-12 0 -19.5 8.5t-5.5 20.5z" />
<glyph unicode="2" horiz-adv-x="954" d="M117 29l26 153q29 38 77 102.5t171.5 235t219.5 308.5t178 269.5t90 172.5l24 137q3 25 -11 42t-38 17h-209q-25 0 -46 -17.5t-24 -41.5l-22 -129q-3 -12 -13 -20.5t-22 -8.5h-137q-12 0 -19 8.5t-4 20.5l23 131q17 99 99.5 169.5t181.5 70.5h237q99 0 157.5 -70.5 t41.5 -169.5l-25 -139q-12 -64 -193 -336t-356 -512l-176 -240h506q12 0 19 -8t6 -20l-23 -125q-1 -12 -11 -20.5t-22 -8.5h-682q-12 0 -19 8.5t-5 20.5z" />
<glyph unicode="3" horiz-adv-x="983" d="M166 229l24 133q1 12 11 20.5t22 8.5h137q12 0 19.5 -8.5t5.5 -20.5l-25 -139q-4 -25 10.5 -42t39.5 -17h225q25 0 45.5 17t24.5 42l81 469q5 25 -9.5 42.5t-39.5 17.5h-98q-23 3 -16 28l20 125q3 12 13 20.5t22 8.5h92q25 0 45.5 17t24.5 42l73 414q3 25 -11 42t-38 17 h-229q-25 0 -46 -17.5t-24 -41.5l-22 -129q-3 -12 -13 -20.5t-22 -8.5h-137q-12 0 -19 8.5t-4 20.5l23 131q17 100 99.5 170t180.5 70h258q99 0 157.5 -70.5t41.5 -169.5l-76 -430q-12 -74 -65 -133q30 -56 18 -131l-86 -486q-17 -99 -99.5 -169t-181.5 -70h-253 q-99 0 -157.5 70t-41.5 169z" />
<glyph unicode="4" horiz-adv-x="860" d="M96 317l27 154l657 1139q6 13 15 20t15 8h5h137q12 1 19 -7.5t4 -20.5l-201 -1139h98q12 0 19.5 -8.5t5.5 -20.5l-23 -125q-7 -28 -34 -28h-99l-45 -260q-2 -12 -11 -20.5t-21 -8.5h-138q-12 0 -19 8.5t-5 20.5l45 260h-428q-12 0 -19 8t-4 20zM324 471h264l119 676z" />
<glyph unicode="5" horiz-adv-x="978" d="M182 229l45 254q3 12 13 20.5t22 8.5h137q12 0 19 -8.5t4 -20.5l-45 -260q-4 -25 10 -42t39 -17h225q25 0 45.5 17t24.5 42l90 512q5 25 -9.5 42.5t-39.5 17.5h-445q-12 0 -19 8t-5 20l139 787q3 12 13 20t22 8h620q12 0 19 -8t4 -20l-23 -127q-2 -12 -11 -20.5t-21 -8.5 h-455l-86 -485h293q99 0 157.5 -70.5t39.5 -169.5l-89 -500q-17 -99 -99 -169t-181 -70h-254q-99 0 -157.5 70t-41.5 169z" />
<glyph unicode="6" horiz-adv-x="958" d="M162 229l209 1180q17 100 99.5 170t180.5 70h232q99 0 157 -70.5t41 -169.5l-26 -152q-3 -12 -13 -20t-22 -8h-137q-12 0 -19 8t-4 20l27 150q3 25 -11 42t-38 17h-203q-25 0 -46 -17.5t-24 -41.5l-84 -467h299q99 0 157.5 -70.5t41.5 -169.5l-84 -471 q-17 -99 -99.5 -169t-181.5 -70h-254q-99 0 -157 70t-41 169zM356 223q-4 -25 10.5 -42t39.5 -17h225q25 0 44.5 17t24.5 42l84 475q3 25 -11 42.5t-38 17.5h-284z" />
<glyph unicode="7" horiz-adv-x="856" d="M299.5 8.5q-4.5 6.5 1.5 20.5l549 1427h-483q-12 0 -19.5 8.5t-5.5 20.5l23 125q7 28 34 28h635q12 0 19 -8t4 -20l-27 -154l-545 -1427q-4 -13 -11.5 -20t-13.5 -8l-5 -1h-144q-2 0 -4.5 1t-7 7.5z" />
<glyph unicode="8" horiz-adv-x="983" d="M162 229l86 488q3 14 7.5 27t11 24t13.5 20.5t15 17.5t15 14t14.5 11.5t12 8.5t9.5 6l4 2q-72 36 -55 133l76 428q17 100 99.5 170t180.5 70h258q99 0 157.5 -70.5t41.5 -169.5l-76 -428q-6 -37 -22 -65t-34.5 -41.5t-30.5 -19.5t-19 -7q4 -2 9.5 -6t17.5 -15t19 -25.5 t13.5 -36.5t-0.5 -48l-86 -488q-17 -99 -99.5 -169t-181.5 -70h-258q-99 0 -157 70t-41 169zM356 223q-4 -25 10.5 -42t39.5 -17h229q25 0 45.5 17t24.5 42l81 471q5 25 -9.5 42.5t-39.5 17.5h-229q-25 0 -45 -17.5t-25 -42.5zM492 995q-4 -25 10 -42t39 -17h235 q22 2 41.5 19t22.5 40l73 412q3 25 -11 42t-38 17h-229q-25 0 -46 -17.5t-24 -41.5z" />
<glyph unicode="9" horiz-adv-x="978" d="M182 229l27 152q3 12 13 20.5t22 8.5h137q12 0 18.5 -8.5t3.5 -20.5l-26 -150q-3 -25 11 -42t38 -17h205q25 0 45.5 17.5t23.5 41.5l76 431h-299q-98 0 -155.5 69.5t-40.5 169.5l90 508q17 100 99.5 170t180.5 70h254q99 0 157.5 -70.5t41.5 -169.5l-209 -1180 q-17 -99 -99.5 -169t-181.5 -70h-233q-99 0 -157.5 70t-41.5 169zM475 903q-4 -25 10 -42t39 -17h285l100 571q5 25 -9.5 42.5t-39.5 17.5h-225q-25 0 -45 -17.5t-25 -42.5z" />
<glyph unicode=":" horiz-adv-x="423" d="M117 29l26 147q1 12 11 20.5t22 8.5h141q12 0 19.5 -8.5t5.5 -20.5l-27 -147q-2 -12 -11 -20.5t-21 -8.5h-142q-12 0 -19 8.5t-5 20.5zM283 975l26 147q3 12 13 20.5t22 8.5h141q12 0 19 -8.5t4 -20.5l-27 -147q-2 -12 -11 -20.5t-21 -8.5h-142q-12 0 -19 8.5t-5 20.5z " />
<glyph unicode=";" horiz-adv-x="423" d="M125 72l18 104q1 12 11 20.5t22 8.5h141q12 0 19.5 -8.5t5.5 -20.5l-41 -223q-9 -55 -39 -80t-61 -25q-9 0 -15 7t-4 16l23 119h-17q-77 0 -63 82zM283 975l26 147q3 12 13 20.5t22 8.5h141q12 0 19 -8.5t4 -20.5l-27 -147q-2 -12 -11 -20.5t-21 -8.5h-142q-12 0 -19 8.5 t-5 20.5z" />
<glyph unicode="&#x3c;" horiz-adv-x="628" d="M215 772q-10 29 10 57l359 471q10 13 21 20t17 8l5 1h151l7 -3q6 -7 -9 -26l-366 -499l190 -500q5 -14 3 -20.5t-7 -7.5l-4 -1h-152q-20 0 -32 29z" />
<glyph unicode="=" horiz-adv-x="978" d="M246 592l22 125q3 12 13 20t22 8h635q12 0 19 -8t4 -20l-23 -125q-1 -12 -11 -20.5t-22 -8.5h-635q-12 0 -19 8.5t-5 20.5zM297 879l22 125q1 12 11 20t22 8h635q12 0 19 -8t6 -20l-23 -125q-1 -12 -11 -20.5t-22 -8.5h-634q-12 0 -19.5 8.5t-5.5 20.5z" />
<glyph unicode="&#x3e;" horiz-adv-x="628" d="M122.5 281q-0.5 7 8.5 20l367 500l-191 499q-4 14 -2 20.5t7 7.5l5 1h152q21 0 31 -29l194 -471q10 -32 -10 -57l-360 -471q-9 -13 -19 -20t-16 -8l-6 -1h-152q-2 0 -5 1t-3.5 8z" />
<glyph unicode="?" horiz-adv-x="948" d="M324 1257l26 152q17 99 99.5 169.5t181.5 70.5h243q99 0 157.5 -70.5t41.5 -169.5l-88 -500q-19 -108 -105.5 -173.5t-177.5 -65.5q-25 0 -44.5 -17.5t-24.5 -42.5l-49 -282q-3 -12 -13 -20.5t-22 -8.5h-137q-12 0 -19 8.5t-4 20.5l55 317q19 100 102 170t181 70 q25 0 45.5 17t24.5 42l82 463q3 25 -11 42t-39 17h-215q-25 0 -45.5 -17.5t-23.5 -41.5l-27 -150q-3 -12 -13 -20t-22 -8h-137q-12 0 -18.5 8t-3.5 20zM336 29l24 143q3 12 13 20.5t22 8.5h137q12 0 19 -8.5t4 -20.5l-25 -143q-2 -12 -11 -20.5t-21 -8.5h-138q-12 0 -19 8.5 t-5 20.5z" />
<glyph unicode="@" horiz-adv-x="1722" d="M184 240l205 1159q17 99 100.5 169t182.5 70h956q99 0 156.5 -70t40.5 -169l-150 -842q-17 -100 -99.5 -170t-180.5 -70h-111q-70 0 -117 33q-56 -33 -127 -33h-254q-99 0 -157 70.5t-41 169.5l74 410q17 99 99 169t181 70h254q99 0 157.5 -70t41.5 -169l-74 -416 q-5 -26 13.5 -42.5t56.5 -16.5t61.5 16.5t28.5 42.5l149 846q4 25 -10 42t-39 17h-928q-25 0 -44.5 -17t-24.5 -42l-205 -1164q-5 -25 8.5 -42t38.5 -17h1139q12 0 19 -8.5t5 -20.5l-20 -116q-1 -12 -11 -20.5t-22 -8.5h-1153q-99 0 -157.5 70.5t-41.5 169.5zM782 551 q-4 -25 10 -42t39 -17h226q23 0 42 14.5t25 36.5l76 422q3 25 -11 42t-38 17h-225q-25 0 -46 -17.5t-24 -41.5z" />
<glyph unicode="A" d="M108 8q-2 3 -2 8t3 13l550 1581q4 13 13.5 20t16.5 8h7h189q3 0 7 -0.5t11 -7.5t6 -20l-6 -1581q0 -13 -5 -20t-10 -8l-5 -1h-154q-2 0 -5.5 1t-9 8t-5.5 20l6 239h-332l-80 -239q-4 -13 -11 -20t-12 -8l-6 -1h-153q-2 0 -5.5 1t-7.5 7zM440 451h279l18 892z" />
<glyph unicode="B" horiz-adv-x="1013" d="M147 29l279 1581q3 12 13 20t22 8h428q97 0 155 -70q44 -54 45 -125q0 -21 -4 -44l-77 -441q-8 -51 -41 -102q39 -51 39 -115q0 -22 -5 -47l-79 -454q-17 -99 -99.5 -169.5t-181.5 -70.5h-469q-12 0 -19.5 8.5t-5.5 20.5zM367 174h288q25 0 46.5 17t25.5 42l78 451 q4 23 -7.5 39.5t-33.5 19.5h-295zM498 909h254q23 3 40.5 20t22.5 40l76 428q1 6 1 11q0 18 -11 31q-14 17 -39 17h-248z" />
<glyph unicode="C" horiz-adv-x="993" d="M182 229l209 1180q17 99 99.5 169.5t181.5 70.5h248q99 -1 157 -71q45 -55 45 -126q0 -21 -4 -43l-26 -152q-3 -12 -13 -20t-22 -8h-137q-12 0 -19 8t-4 20l27 150q3 25 -11 42t-39 17h-219q-25 0 -45.5 -17.5t-23.5 -41.5l-209 -1184q-4 -25 10 -42t39 -17h229 q25 0 45.5 17t24.5 42l45 260q3 12 13 20.5t22 8.5h137q12 0 19 -8.5t4 -20.5l-45 -254q-17 -99 -99.5 -169t-181.5 -70h-258q-99 0 -157 70q-45 54 -46 126q0 21 4 43z" />
<glyph unicode="D" horiz-adv-x="1024" d="M147 29l279 1581q3 12 13 20t22 8h469q98 0 156 -70q44 -54 44 -125q0 -21 -4 -44l-204 -1159q-17 -99 -99.5 -169.5t-181.5 -70.5h-469q-12 0 -19.5 8.5t-5.5 20.5zM369 182h288q25 0 45 17.5t25 42.5l205 1155q1 6 1 11q0 18 -11 31q-14 17 -39 17h-289z" />
<glyph unicode="E" horiz-adv-x="948" d="M147 29l279 1581q3 12 13 20t22 8h622q12 0 19 -8q5 -6 5 -13q0 -3 -1 -7l-23 -127q-2 -12 -11 -20.5t-21 -8.5h-457l-88 -500h375q12 0 18.5 -8t3.5 -20l-22 -125q-1 -12 -11 -20.5t-22 -8.5h-375l-104 -590h469q12 0 19 -8t5 -20l-22 -125q-1 -12 -11 -20.5t-22 -8.5 h-635q-12 0 -19.5 8.5t-5.5 20.5z" />
<glyph unicode="F" horiz-adv-x="915" d="M147 29l279 1581q3 12 13 20t22 8h622q12 0 19 -8q5 -6 5 -13q0 -3 -1 -7l-23 -127q-2 -12 -11 -20.5t-21 -8.5h-457l-88 -500h375q12 0 18.5 -8t3.5 -20l-22 -125q-1 -12 -11 -20.5t-22 -8.5h-375l-131 -743q-1 -12 -11 -20.5t-22 -8.5h-137q-12 0 -19.5 8.5t-5.5 20.5z " />
<glyph unicode="G" horiz-adv-x="993" d="M182 229l209 1180q17 99 99.5 169.5t181.5 70.5h246q99 0 157 -71q45 -54 45 -126q0 -21 -4 -43l-26 -152q-3 -12 -13 -20t-22 -8h-137q-12 0 -19 8t-4 20l27 150q3 25 -11 42t-39 17h-217q-25 0 -45.5 -17.5t-23.5 -41.5l-209 -1184q-4 -25 10 -42t39 -17h229 q25 0 45.5 17t24.5 42l68 391h-175q-12 0 -18.5 8.5t-3.5 20.5l22 125q1 12 11 20.5t22 8.5h340q12 0 19.5 -8.5t5.5 -20.5l-96 -539q-17 -99 -99.5 -169t-181.5 -70h-258q-99 0 -157 70q-46 54 -46 126q0 21 4 43z" />
<glyph unicode="H" horiz-adv-x="1040" d="M147 29l279 1581q3 12 13 20t22 8h137q12 0 19 -8t4 -20l-115 -656h364l115 656q3 12 13 20t22 8h137q12 0 19 -8q5 -6 5 -13q0 -3 -1 -7l-279 -1581q-1 -12 -11 -20.5t-22 -8.5h-137q-12 0 -19 8.5t-5 20.5l131 743h-365l-131 -743q-1 -12 -11 -20.5t-22 -8.5h-137 q-12 0 -19.5 8.5t-5.5 20.5z" />
<glyph unicode="I" horiz-adv-x="481" d="M147 29l279 1581q3 12 13 20t22 8h137q12 0 19 -8q5 -6 5 -13q0 -3 -1 -7l-279 -1581q-1 -12 -11 -20.5t-22 -8.5h-137q-12 0 -19.5 8.5t-5.5 20.5z" />
<glyph unicode="J" horiz-adv-x="958" d="M121 229l45 254q3 12 13 20.5t22 8.5h133q12 0 18.5 -8.5t3.5 -20.5l-45 -260q-4 -25 10 -42t39 -17h230q25 0 44.5 17t24.5 42l244 1387q3 12 13 20t22 8h137q12 0 19 -8q5 -6 5 -13q0 -3 -1 -7l-244 -1381q-17 -99 -99.5 -169t-181.5 -70h-254q-99 0 -157 70 q-45 54 -45 126q0 21 4 43z" />
<glyph unicode="K" horiz-adv-x="987" d="M147 29l279 1581q3 12 13 20t22 8h137q12 0 19 -8t4 -20l-119 -676l475 676q8 13 17 20t14 8h6h153h2.5t4.5 -2l4 -4q1 -1 1 -3q-1 -2 -1 -5q-2 -6 -7 -14l-458 -686l180 -895q3 -13 -1 -20t-10 -8l-5 -1h-158q-2 0 -5.5 1t-10 8t-9.5 20l-147 698l-109 -152l-96 -546 q-1 -12 -11 -20.5t-22 -8.5h-137q-12 0 -19.5 8.5t-5.5 20.5z" />
<glyph unicode="L" horiz-adv-x="927" d="M147 29l279 1581q3 12 13 20t22 8h137q12 0 19 -8t4 -20l-252 -1428h469q12 0 19 -8q5 -6 5 -15v-5l-22 -125q-1 -12 -11 -20.5t-22 -8.5h-635q-12 0 -19.5 8.5t-5.5 20.5z" />
<glyph unicode="M" horiz-adv-x="1323" d="M147 29l279 1581q3 12 13 20t22 8h129q3 0 7 -0.5t11.5 -7.5t9.5 -20l189 -785l463 785q7 13 17.5 20t16.5 8h7h129q12 0 18 -8q4 -5 5 -13q0 -3 -1 -7l-278 -1581q-1 -12 -11 -20.5t-22 -8.5h-137q-12 0 -19.5 8.5t-5.5 20.5l185 1048l-453 -729l-195 729l-184 -1048 q-1 -12 -11 -20.5t-22 -8.5h-137q-12 0 -19.5 8.5t-5.5 20.5z" />
<glyph unicode="N" horiz-adv-x="1040" d="M147 29l279 1581q3 12 13 20t22 8h135q3 0 6.5 -0.5t10.5 -7.5t8 -20l188 -1004l176 1004q3 12 13 20t22 8h137q12 0 19 -8q5 -6 5 -13q0 -3 -1 -7l-279 -1581q-1 -12 -11 -20.5t-22 -8.5h-125q-2 0 -6 1t-11 8t-9 20l-199 999l-176 -999q-1 -12 -11 -20.5t-22 -8.5h-137 q-12 0 -19.5 8.5t-5.5 20.5z" />
<glyph unicode="O" horiz-adv-x="1028" d="M182 229l209 1180q17 99 99.5 169.5t181.5 70.5h262q100 -1 158 -71q45 -55 45 -126q0 -21 -4 -43l-209 -1180q-17 -99 -99.5 -169t-181.5 -70h-262q-99 0 -157 70q-45 54 -46 126q0 21 4 43zM377 223q-1 -6 -1 -11q0 -18 11 -31q14 -17 39 -17h233q25 0 45.5 17t24.5 42 l209 1184q1 4 1 9q0 19 -12 33q-14 17 -38 17h-234q-25 0 -45.5 -17.5t-23.5 -41.5z" />
<glyph unicode="P" d="M147 29l279 1581q3 12 13 20t22 8h469q98 0 156 -70q44 -54 44 -125q0 -21 -4 -44l-86 -481q-17 -100 -99.5 -170t-180.5 -70h-303l-115 -649q-1 -12 -11 -20.5t-22 -8.5h-137q-12 0 -19.5 8.5t-5.5 20.5zM487 852h289q25 0 45.5 17t24.5 42l86 486q1 6 1 11q0 18 -11 31 q-14 17 -39 17h-289z" />
<glyph unicode="Q" horiz-adv-x="1028" d="M182 229l209 1180q17 99 99.5 169.5t181.5 70.5h262q99 0 158 -71q45 -54 45 -126q0 -21 -4 -43l-209 -1180q-17 -99 -99.5 -169t-181.5 -70h-33l-26 -146q-1 -12 -11 -20t-22 -8h-139q-12 0 -19 8t-6 20l27 146h-33q-99 0 -157 70q-46 54 -46 126q0 21 4 43zM377 223 q-1 -6 -1 -11q0 -18 11 -31q14 -17 39 -17h233q25 0 45.5 17t24.5 42l209 1184q1 4 1 9q0 19 -12 33q-14 17 -38 17h-234q-25 0 -45.5 -17.5t-23.5 -41.5z" />
<glyph unicode="R" horiz-adv-x="1019" d="M147 29l279 1581q3 12 13 20t22 8h469q98 0 156 -70q44 -54 44 -125q0 -21 -4 -44l-86 -481q-12 -74 -64.5 -134.5t-123.5 -89.5l47 -665q2 -13 -2.5 -20t-10.5 -8l-5 -1h-154q-3 0 -6.5 1t-10.5 8t-8 20l-45 649h-200l-115 -649q-1 -12 -11 -20.5t-22 -8.5h-137 q-12 0 -19.5 8.5t-5.5 20.5zM487 852h289q25 0 45.5 17t24.5 42l86 486q1 6 1 11q0 18 -11 31q-14 17 -39 17h-289z" />
<glyph unicode="S" horiz-adv-x="962" d="M152 229l45 254q3 12 12.5 20.5t21.5 8.5h138q12 0 18.5 -8.5t3.5 -20.5l-45 -260q-4 -25 10 -42t39 -17h230q25 0 44.5 17t24.5 42l84 477q5 25 -9.5 42.5t-39.5 17.5h-244q-99 0 -157 70q-44 53 -44 122q0 23 5 47l71 410q17 99 99.5 169.5t181.5 70.5h248 q99 -1 157 -71q45 -55 45 -126q0 -21 -4 -43l-26 -152q-3 -12 -13 -20t-22 -8h-137q-12 0 -19 8t-4 20l27 150q3 25 -11 42t-38 17h-219q-25 0 -46 -17.5t-24 -41.5l-74 -414q-4 -25 10 -42t39 -17h244q100 0 158 -70q44 -53 44 -123q0 -23 -5 -47l-82 -465 q-17 -99 -99.5 -169t-181.5 -70h-258q-99 0 -157 70q-45 54 -45 126q0 21 4 43z" />
<glyph unicode="T" horiz-adv-x="978" d="M373 1485l22 125q3 12 13 20t22 8h696q12 0 19 -8q5 -6 5 -13q0 -3 -1 -7l-23 -125q-2 -12 -11 -20.5t-21 -8.5h-252l-252 -1427q-1 -12 -11 -20.5t-22 -8.5h-137q-12 0 -19.5 8.5t-5.5 20.5l252 1427h-250q-12 0 -19 8q-5 7 -5 16v5z" />
<glyph unicode="U" horiz-adv-x="1024" d="M182 229l244 1381q3 12 13 20t22 8h137q12 0 19 -8t4 -20l-244 -1387q-4 -25 10 -42t39 -17h229q25 0 45.5 17t24.5 42l244 1387q3 12 13 20t22 8h137q13 0 19 -8q4 -5 4 -13q0 -3 -1 -7l-243 -1381q-17 -99 -99.5 -169t-181.5 -70h-258q-99 0 -157 70q-45 54 -46 126 q0 21 4 43z" />
<glyph unicode="V" horiz-adv-x="983" d="M371 29l6 1581q1 13 6.5 20t10.5 8h5h154q2 0 5.5 -0.5t8.5 -7.5t4 -20l-14 -1233l420 1233q4 13 12 20t13 8h6h153h2t4 -1.5t5 -4t2 -8.5t-3 -14l-550 -1581q-4 -13 -12.5 -20t-15.5 -8l-7 -1h-189q-3 0 -7.5 1t-11.5 8t-7 20z" />
<glyph unicode="W" horiz-adv-x="1550" d="M371 29l6 1581q1 13 6.5 20t10.5 8h5h154q2 0 5.5 -0.5t8.5 -7.5t4 -20l-14 -1233l399 1233q4 13 12 20t14 8h5h154q2 0 5.5 -0.5t8.5 -7.5t4 -20l-35 -1233l420 1233q4 13 12 20t14 8h5h154h2t4 -1.5t5 -4t2 -8.5t-3 -14l-551 -1581q-4 -13 -12.5 -20t-15.5 -8l-7 -1 h-188q-3 0 -7.5 1t-12 8t-7.5 20l27 1061l-344 -1061q-4 -13 -12.5 -20t-15.5 -8l-7 -1h-189q-3 0 -7.5 1t-11.5 8t-7 20z" />
<glyph unicode="X" horiz-adv-x="933" d="M85 12q0 6 5 17l397 827l-98 754q-1 13 2 20t7 8h3h164q3 0 7.5 -0.5t12.5 -7.5t9 -20l61 -531l250 531q6 13 16.5 20t17.5 8h7h164l5 -2q1 -2 1 -5q0 -7 -6 -21l-367 -754l109 -827q2 -13 -0.5 -20t-5.5 -8l-4 -1h-158q-27 0 -31 29l-75 608l-289 -608q-5 -13 -15 -20 t-17 -8l-7 -1h-158q-2 0 -4 1q-4 3 -3 11z" />
<glyph unicode="Y" horiz-adv-x="950" d="M367 1610q-1 13 3.5 20t9.5 8h5h154q2 0 5.5 -0.5t9 -7.5t5.5 -20l72 -723l325 723q5 13 13.5 20t14.5 8h5h154h2t4 -1.5t4 -4.5q1 -1 1 -4q0 -9 -5 -18l-487 -1098l-87 -483q-2 -12 -11 -20.5t-21 -8.5h-135q-12 0 -19.5 8.5t-5.5 20.5l86 483z" />
<glyph unicode="Z" horiz-adv-x="937" d="M127 29l27 153l727 1274h-473q-12 0 -19.5 8.5t-5.5 20.5l23 125q7 28 34 28h635q12 0 19 -8q5 -6 5 -13q0 -3 -1 -7l-27 -154l-723 -1274h469q12 0 19 -8t6 -20l-23 -125q-1 -12 -11 -20.5t-22 -8.5h-634q-12 0 -19.5 8.5t-5.5 20.5z" />
<glyph unicode="[" horiz-adv-x="655" d="M106 -207l361 2052q3 12 13 20.5t22 8.5h362q12 0 19 -8.5t4 -20.5l-21 -125q-3 -12 -13 -20t-22 -8h-196l-309 -1753h196q12 0 19.5 -8.5t5.5 -20.5l-21 -117q-3 -12 -12.5 -20.5t-21.5 -8.5h-363q-12 0 -19 8.5t-4 20.5z" />
<glyph unicode="\" horiz-adv-x="872" d="M379 1610q-1 13 2 20t7 8h3h164q3 0 7.5 -0.5t12.5 -7.5t9 -20l155 -1581q2 -13 -0.5 -20t-6.5 -8l-3 -1h-158q-26 0 -30 29z" />
<glyph unicode="]" horiz-adv-x="655" d="M55 -207l21 117q1 12 11 20.5t22 8.5h196l309 1753h-196q-12 0 -19 8t-4 20l21 125q3 12 13 20.5t22 8.5h362q12 0 19 -8.5t4 -20.5l-361 -2052q-3 -12 -13 -20.5t-22 -8.5h-362q-12 0 -19 8.5t-4 20.5z" />
<glyph unicode="^" horiz-adv-x="677" d="M402 1638.5q-3 6.5 6 20.5l188 276q8 13 18 20t16 8l5 1h100q2 0 5.5 -1t10.5 -8t11 -20l90 -276q3 -14 0.5 -20.5t-7.5 -7.5l-5 -1h-82l-99 205l-167 -205h-80q-2 0 -4.5 1t-5.5 7.5z" />
<glyph unicode="_" horiz-adv-x="1183" d="M147 29l23 125q1 12 11 20t22 8h839q12 0 19 -8t6 -20l-23 -125q-2 -12 -11 -20.5t-21 -8.5h-840q-12 0 -19.5 8.5t-5.5 20.5z" />
<glyph unicode="`" horiz-adv-x="532" d="M489.5 1955.5q1.5 6.5 6.5 7.5l4 1h121q2 0 5.5 -1t10.5 -8t10 -20l47 -174q3 -14 0.5 -20t-7.5 -7l-5 -1h-80l-108 202q-6 14 -4.5 20.5z" />
<glyph unicode="a" d="M108 8q-2 3 -2 8t3 13l550 1581q4 13 13.5 20t16.5 8h7h189q3 0 7 -0.5t11 -7.5t6 -20l-6 -1581q0 -13 -5 -20t-10 -8l-5 -1h-154q-2 0 -5.5 1t-9 8t-5.5 20l6 239h-332l-80 -239q-4 -13 -11 -20t-12 -8l-6 -1h-153q-2 0 -5.5 1t-7.5 7zM440 451h279l18 892z" />
<glyph unicode="b" horiz-adv-x="1013" d="M147 29l279 1581q3 12 13 20t22 8h428q97 0 155 -70q44 -54 45 -125q0 -21 -4 -44l-77 -441q-8 -51 -41 -102q39 -51 39 -115q0 -22 -5 -47l-79 -454q-17 -99 -99.5 -169.5t-181.5 -70.5h-469q-12 0 -19.5 8.5t-5.5 20.5zM367 174h288q25 0 46.5 17t25.5 42l78 451 q4 23 -7.5 39.5t-33.5 19.5h-295zM498 909h254q23 3 40.5 20t22.5 40l76 428q1 6 1 11q0 18 -11 31q-14 17 -39 17h-248z" />
<glyph unicode="c" horiz-adv-x="993" d="M182 229l209 1180q17 99 99.5 169.5t181.5 70.5h248q99 -1 157 -71q45 -55 45 -126q0 -21 -4 -43l-26 -152q-3 -12 -13 -20t-22 -8h-137q-12 0 -19 8t-4 20l27 150q3 25 -11 42t-39 17h-219q-25 0 -45.5 -17.5t-23.5 -41.5l-209 -1184q-4 -25 10 -42t39 -17h229 q25 0 45.5 17t24.5 42l45 260q3 12 13 20.5t22 8.5h137q12 0 19 -8.5t4 -20.5l-45 -254q-17 -99 -99.5 -169t-181.5 -70h-258q-99 0 -157 70q-45 54 -46 126q0 21 4 43z" />
<glyph unicode="d" horiz-adv-x="1024" d="M147 29l279 1581q3 12 13 20t22 8h469q98 0 156 -70q44 -54 44 -125q0 -21 -4 -44l-204 -1159q-17 -99 -99.5 -169.5t-181.5 -70.5h-469q-12 0 -19.5 8.5t-5.5 20.5zM369 182h288q25 0 45 17.5t25 42.5l205 1155q1 6 1 11q0 18 -11 31q-14 17 -39 17h-289z" />
<glyph unicode="e" horiz-adv-x="948" d="M147 29l279 1581q3 12 13 20t22 8h622q12 0 19 -8q5 -6 5 -13q0 -3 -1 -7l-23 -127q-2 -12 -11 -20.5t-21 -8.5h-457l-88 -500h375q12 0 18.5 -8t3.5 -20l-22 -125q-1 -12 -11 -20.5t-22 -8.5h-375l-104 -590h469q12 0 19 -8t5 -20l-22 -125q-1 -12 -11 -20.5t-22 -8.5 h-635q-12 0 -19.5 8.5t-5.5 20.5z" />
<glyph unicode="f" horiz-adv-x="915" d="M147 29l279 1581q3 12 13 20t22 8h622q12 0 19 -8q5 -6 5 -13q0 -3 -1 -7l-23 -127q-2 -12 -11 -20.5t-21 -8.5h-457l-88 -500h375q12 0 18.5 -8t3.5 -20l-22 -125q-1 -12 -11 -20.5t-22 -8.5h-375l-131 -743q-1 -12 -11 -20.5t-22 -8.5h-137q-12 0 -19.5 8.5t-5.5 20.5z " />
<glyph unicode="g" horiz-adv-x="989" d="M182 229l209 1180q17 99 99.5 169.5t181.5 70.5h241q99 0 157 -71q46 -54 46 -126q0 -21 -4 -43l-27 -152q-7 -28 -34 -28h-138q-12 0 -18.5 8t-3.5 20l27 150q3 25 -11 42t-39 17h-213q-25 0 -45.5 -17.5t-23.5 -41.5l-209 -1184q-4 -25 10 -42t39 -17h225q25 0 45.5 17 t24.5 42l67 391h-170q-12 0 -18.5 8.5t-3.5 20.5l22 125q1 12 11 20.5t22 8.5h336q12 0 19.5 -8.5t5.5 -20.5l-97 -539q-17 -99 -99 -169t-181 -70h-254q-99 0 -157 70q-46 54 -46 126q0 21 4 43z" />
<glyph unicode="h" horiz-adv-x="1040" d="M147 29l279 1581q3 12 13 20t22 8h137q12 0 19 -8t4 -20l-115 -656h364l115 656q3 12 13 20t22 8h137q12 0 19 -8q5 -6 5 -13q0 -3 -1 -7l-279 -1581q-1 -12 -11 -20.5t-22 -8.5h-137q-12 0 -19 8.5t-5 20.5l131 743h-365l-131 -743q-1 -12 -11 -20.5t-22 -8.5h-137 q-12 0 -19.5 8.5t-5.5 20.5z" />
<glyph unicode="i" horiz-adv-x="481" d="M147 29l279 1581q3 12 13 20t22 8h137q12 0 19 -8q5 -6 5 -13q0 -3 -1 -7l-279 -1581q-1 -12 -11 -20.5t-22 -8.5h-137q-12 0 -19.5 8.5t-5.5 20.5z" />
<glyph unicode="j" horiz-adv-x="958" d="M121 229l45 254q3 12 13 20.5t22 8.5h133q12 0 18.5 -8.5t3.5 -20.5l-45 -260q-4 -25 10 -42t39 -17h230q25 0 44.5 17t24.5 42l244 1387q3 12 13 20t22 8h137q12 0 19 -8q5 -6 5 -13q0 -3 -1 -7l-244 -1381q-17 -99 -99.5 -169t-181.5 -70h-254q-99 0 -157 70 q-45 54 -45 126q0 21 4 43z" />
<glyph unicode="k" horiz-adv-x="987" d="M147 29l279 1581q3 12 13 20t22 8h137q12 0 19 -8t4 -20l-119 -676l475 676q8 13 17 20t14 8h6h153h2.5t4.5 -2l4 -4q1 -1 1 -3q-1 -2 -1 -5q-2 -6 -7 -14l-458 -686l180 -895q3 -13 -1 -20t-10 -8l-5 -1h-158q-2 0 -5.5 1t-10 8t-9.5 20l-147 698l-109 -152l-96 -546 q-1 -12 -11 -20.5t-22 -8.5h-137q-12 0 -19.5 8.5t-5.5 20.5z" />
<glyph unicode="l" horiz-adv-x="927" d="M147 29l279 1581q3 12 13 20t22 8h137q12 0 19 -8t4 -20l-252 -1428h469q12 0 19 -8q5 -6 5 -15v-5l-22 -125q-1 -12 -11 -20.5t-22 -8.5h-635q-12 0 -19.5 8.5t-5.5 20.5z" />
<glyph unicode="m" horiz-adv-x="1323" d="M147 29l279 1581q3 12 13 20t22 8h129q3 0 7 -0.5t11.5 -7.5t9.5 -20l189 -785l463 785q7 13 17.5 20t16.5 8h7h129q12 0 18 -8q4 -5 5 -13q0 -3 -1 -7l-278 -1581q-1 -12 -11 -20.5t-22 -8.5h-137q-12 0 -19.5 8.5t-5.5 20.5l185 1048l-453 -729l-195 729l-184 -1048 q-1 -12 -11 -20.5t-22 -8.5h-137q-12 0 -19.5 8.5t-5.5 20.5z" />
<glyph unicode="n" horiz-adv-x="1040" d="M147 29l279 1581q3 12 13 20t22 8h135q3 0 6.5 -0.5t10.5 -7.5t8 -20l188 -1004l176 1004q3 12 13 20t22 8h137q12 0 19 -8q5 -6 5 -13q0 -3 -1 -7l-279 -1581q-1 -12 -11 -20.5t-22 -8.5h-125q-2 0 -6 1t-11 8t-9 20l-199 999l-176 -999q-1 -12 -11 -20.5t-22 -8.5h-137 q-12 0 -19.5 8.5t-5.5 20.5z" />
<glyph unicode="o" horiz-adv-x="1028" d="M182 229l209 1180q17 99 99.5 169.5t181.5 70.5h262q100 -1 158 -71q45 -55 45 -126q0 -21 -4 -43l-209 -1180q-17 -99 -99.5 -169t-181.5 -70h-262q-99 0 -157 70q-45 54 -46 126q0 21 4 43zM377 223q-1 -6 -1 -11q0 -18 11 -31q14 -17 39 -17h233q25 0 45.5 17t24.5 42 l209 1184q1 4 1 9q0 19 -12 33q-14 17 -38 17h-234q-25 0 -45.5 -17.5t-23.5 -41.5z" />
<glyph unicode="p" d="M147 29l279 1581q3 12 13 20t22 8h469q98 0 156 -70q44 -53 44 -125q0 -21 -4 -44l-86 -481q-17 -100 -99.5 -170t-180.5 -70h-303l-115 -649q-1 -12 -11 -20.5t-22 -8.5h-137q-12 0 -19.5 8.5t-5.5 20.5zM487 852h289q25 0 45.5 17t24.5 42l86 486q1 6 1 11q0 18 -11 31 q-14 17 -39 17h-289z" />
<glyph unicode="q" horiz-adv-x="1028" d="M182 229l209 1180q17 99 99.5 169.5t181.5 70.5h262q99 0 158 -71q45 -54 45 -126q0 -21 -4 -43l-209 -1180q-17 -99 -99.5 -169t-181.5 -70h-33l-26 -146q-1 -12 -11 -20t-22 -8h-139q-12 0 -19 8t-6 20l27 146h-33q-99 0 -157 70q-46 54 -46 126q0 21 4 43zM377 223 q-1 -6 -1 -11q0 -18 11 -31q14 -17 39 -17h233q25 0 45.5 17t24.5 42l209 1184q1 4 1 9q0 19 -12 33q-14 17 -38 17h-234q-25 0 -45.5 -17.5t-23.5 -41.5z" />
<glyph unicode="r" horiz-adv-x="1015" d="M147 29l279 1581q3 12 13 20t22 8h469q98 0 156 -70q44 -54 44 -125q0 -21 -4 -44l-86 -481q-12 -74 -64.5 -134.5t-123.5 -89.5l47 -665q2 -13 -2.5 -20t-10.5 -8l-5 -1h-154q-3 0 -6.5 1t-10.5 8t-8 20l-45 649h-200l-115 -649q-1 -12 -11 -20.5t-22 -8.5h-137 q-12 0 -19.5 8.5t-5.5 20.5zM487 852h289q25 0 45.5 17t24.5 42l86 486q1 6 1 11q0 18 -11 31q-14 17 -39 17h-289z" />
<glyph unicode="s" horiz-adv-x="958" d="M152 229l45 254q3 12 12.5 20.5t21.5 8.5h138q12 0 18.5 -8.5t3.5 -20.5l-45 -260q-4 -25 10 -42t39 -17h230q25 0 44.5 17t24.5 42l84 477q5 25 -9.5 42.5t-39.5 17.5h-244q-99 0 -157 70q-44 53 -44 122q0 23 5 47l71 410q17 99 99.5 169.5t181.5 70.5h248 q99 -1 157 -71q45 -55 45 -126q0 -21 -4 -43l-26 -152q-3 -12 -13 -20t-22 -8h-137q-12 0 -19 8t-4 20l27 150q3 25 -11 42t-38 17h-219q-25 0 -46 -17.5t-24 -41.5l-74 -414q-4 -25 10 -42t39 -17h244q100 0 158 -70q44 -53 44 -123q0 -23 -5 -47l-82 -465 q-17 -99 -99.5 -169t-181.5 -70h-258q-99 0 -157 70q-45 54 -45 126q0 21 4 43z" />
<glyph unicode="t" horiz-adv-x="978" d="M373 1485l22 125q3 12 13 20t22 8h696q12 0 19 -8q5 -6 5 -13q0 -3 -1 -7l-23 -125q-2 -12 -11 -20.5t-21 -8.5h-252l-252 -1427q-1 -12 -11 -20.5t-22 -8.5h-137q-12 0 -19.5 8.5t-5.5 20.5l252 1427h-250q-12 0 -19 8q-5 7 -5 16v5z" />
<glyph unicode="u" horiz-adv-x="1024" d="M182 229l244 1381q3 12 13 20t22 8h137q12 0 19 -8t4 -20l-244 -1387q-4 -25 10 -42t39 -17h229q25 0 45.5 17t24.5 42l244 1387q3 12 13 20t22 8h137q13 0 19 -8q4 -5 4 -13q0 -3 -1 -7l-243 -1381q-17 -99 -99.5 -169t-181.5 -70h-258q-99 0 -157 70q-45 54 -46 126 q0 21 4 43z" />
<glyph unicode="v" horiz-adv-x="983" d="M371 29l6 1581q1 13 6.5 20t10.5 8h5h154q2 0 5.5 -0.5t8.5 -7.5t4 -20l-14 -1233l420 1233q4 13 12 20t13 8h6h153h2t4 -1.5t5 -4t2 -8.5t-3 -14l-550 -1581q-4 -13 -12.5 -20t-15.5 -8l-7 -1h-189q-3 0 -7.5 1t-11.5 8t-7 20z" />
<glyph unicode="w" horiz-adv-x="1550" d="M371 29l6 1581q1 13 6.5 20t10.5 8h5h154q2 0 5.5 -0.5t8.5 -7.5t4 -20l-14 -1233l399 1233q4 13 12 20t14 8h5h154q2 0 5.5 -0.5t8.5 -7.5t4 -20l-35 -1233l420 1233q4 13 12 20t14 8h5h154h2t4 -1.5t5 -4t2 -8.5t-3 -14l-551 -1581q-4 -13 -12.5 -20t-15.5 -8l-7 -1 h-188q-3 0 -7.5 1t-12 8t-7.5 20l27 1061l-344 -1061q-4 -13 -12.5 -20t-15.5 -8l-7 -1h-189q-3 0 -7.5 1t-11.5 8t-7 20z" />
<glyph unicode="x" horiz-adv-x="933" d="M85 12q0 6 5 17l397 827l-98 754q-1 13 2 20t7 8h3h164q3 0 7.5 -0.5t12.5 -7.5t9 -20l61 -531l250 531q6 13 16.5 20t17.5 8h7h164l5 -2q1 -2 1 -5q0 -7 -6 -21l-367 -754l109 -827q2 -13 -0.5 -20t-5.5 -8l-4 -1h-158q-27 0 -31 29l-75 608l-289 -608q-5 -13 -15 -20 t-17 -8l-7 -1h-158q-2 0 -4 1q-4 3 -3 11z" />
<glyph unicode="y" horiz-adv-x="950" d="M367 1610q-1 13 3.5 20t9.5 8h5h154q2 0 5.5 -0.5t9 -7.5t5.5 -20l72 -723l325 723q5 13 13.5 20t14.5 8h5h154h2t4 -1.5t4 -4.5q1 -1 1 -4q0 -9 -5 -18l-487 -1098l-87 -483q-2 -12 -11 -20.5t-21 -8.5h-135q-12 0 -19.5 8.5t-5.5 20.5l86 483z" />
<glyph unicode="z" horiz-adv-x="937" d="M127 29l27 153l727 1274h-473q-12 0 -19.5 8.5t-5.5 20.5l23 125q7 28 34 28h635q12 0 19 -8q5 -6 5 -13q0 -3 -1 -7l-27 -154l-723 -1274h469q12 0 19 -8t6 -20l-23 -125q-1 -12 -11 -20.5t-22 -8.5h-634q-12 0 -19.5 8.5t-5.5 20.5z" />
<glyph unicode="{" horiz-adv-x="706" d="M256 4l84 479l-68 318l181 319l90 514q19 100 101.5 170t180.5 70h90q12 0 19 -8.5t4 -20.5l-20 -125q-3 -12 -13 -20t-22 -8h-76q-25 0 -45 -17.5t-25 -42.5l-90 -512l-170 -319l58 -318l-86 -485q-3 -25 11 -42t38 -17h75q12 0 19.5 -8.5t5.5 -20.5l-20 -117 q-3 -12 -13 -20.5t-22 -8.5h-90q-99 0 -157.5 70.5t-39.5 169.5z" />
<glyph unicode="|" horiz-adv-x="481" d="M106 -207l361 2052q3 12 13 20.5t22 8.5h137q12 0 19 -8.5t4 -20.5l-361 -2052q-3 -12 -13 -20.5t-22 -8.5h-137q-12 0 -19 8.5t-4 20.5z" />
<glyph unicode="}" horiz-adv-x="706" d="M55 -207l21 117q1 12 11 20.5t22 8.5h75q25 0 46 17.5t24 41.5l86 485l168 318l-55 319l90 512q5 25 -9.5 42.5t-39.5 17.5h-76q-12 0 -19 8t-4 20l21 125q3 12 13 20.5t22 8.5h90q99 0 157 -70.5t39 -169.5l-90 -514l66 -319l-178 -318l-84 -479q-19 -100 -102 -170 t-181 -70h-90q-12 0 -19 8.5t-4 20.5z" />
<glyph unicode="~" horiz-adv-x="1026" d="M251.5 835.5q4.5 12.5 16.5 18.5l117 64q12 6 24 2t15 -15l22 -57q9 -22 32 -28.5t48 5.5l199 105q92 50 184.5 24.5t126.5 -110.5l21 -51q10 -23 -19 -39l-120 -64q-9 -6 -19.5 -2.5t-15.5 14.5l-19 46q-9 23 -32 29.5t-46 -5.5l-200 -104q-96 -50 -186.5 -24.5 t-127.5 110.5l-20 59q-5 10 -0.5 22.5z" />
<glyph unicode="&#xa1;" horiz-adv-x="481" d="M147 29l226 1282q3 12 13 20t22 8h137q12 0 18.5 -8t3.5 -20l-225 -1282q-1 -12 -11 -20.5t-22 -8.5h-137q-12 0 -19.5 8.5t-5.5 20.5zM401 1466l25 144q3 12 13 20t22 8h137q12 0 19 -8t4 -20l-25 -144q-3 -12 -13 -20t-22 -8h-137q-12 0 -19 8t-4 20z" />
<glyph unicode="&#xa2;" horiz-adv-x="989" d="M203 346l164 928q19 100 101.5 169.5t180.5 69.5h45l17 97q7 28 34 28h97q12 0 18.5 -8t3.5 -20l-16 -97h45q99 0 157.5 -70t39.5 -169l-27 -152q-1 -12 -11 -20t-22 -8h-137q-12 0 -19 8t-6 20l27 150q4 25 -10 42t-39 17h-215q-25 0 -45.5 -17t-24.5 -42l-164 -932 q-4 -25 10 -42t39 -17h226q25 0 44.5 17t24.5 42l45 260q3 12 13 20.5t22 8.5h137q12 0 19 -8.5t4 -20.5l-45 -254q-17 -99 -99.5 -169.5t-181.5 -70.5h-57l-14 -77q-1 -12 -11 -20.5t-22 -8.5h-96q-12 0 -19.5 8.5t-5.5 20.5l14 77h-43q-99 0 -157 70.5t-41 169.5z" />
<glyph unicode="&#xa3;" horiz-adv-x="1011" d="M82 0l29 174h14q25 0 46.5 17t25.5 42l82 474h-46q-12 0 -18.5 8t-3.5 20l22 125q1 12 11 20.5t22 8.5h45l92 520q17 99 99.5 169.5t181.5 70.5h244q99 0 157 -70.5t41 -169.5l-26 -152q-3 -12 -13 -20t-22 -8h-137q-12 0 -19 8t-4 20l29 170q5 25 -8.5 42.5t-38.5 17.5 h-215q-25 0 -46.5 -17.5t-25.5 -42.5l-94 -538h395q12 0 19.5 -8.5t5.5 -20.5l-23 -125q-3 -12 -13 -20t-22 -8h-395l-94 -533h326q23 0 43 14.5t26 36.5q3 12 12 20.5t21 8.5h137q12 0 19.5 -8.5t5.5 -20.5l-4 -26q-18 -96 -95 -147.5t-180 -51.5h-608z" />
<glyph unicode="&#xa5;" horiz-adv-x="991" d="M197 285l22 125q1 12 11 20t22 8h223l14 74l-4 31h-215q-12 0 -18.5 8t-3.5 20l20 125q3 12 13 20.5t22 8.5h166l-82 885q-1 13 4 20t10 8h5h153q2 0 5.5 -0.5t9.5 -7.5t6 -20l71 -723l326 723q5 13 13.5 20t13.5 8h6h153h2t4 -1.5t4 -4t0.5 -8.5t-4.5 -14l-393 -885h162 q12 0 19 -8.5t4 -20.5l-21 -125q-3 -12 -13 -20t-22 -8h-211l-12 -31l-14 -74h219q12 0 19 -8t5 -20l-22 -125q-1 -12 -11 -20.5t-22 -8.5h-219l-41 -227q-1 -12 -11 -20.5t-22 -8.5h-135q-12 0 -19.5 8.5t-5.5 20.5l41 227h-223q-12 0 -19 8.5t-5 20.5z" />
<glyph unicode="&#xa6;" horiz-adv-x="481" d="M106 -207l152 864q3 12 13 20.5t22 8.5h137q12 0 19 -8.5t4 -20.5l-152 -864q-3 -12 -13 -20.5t-22 -8.5h-137q-12 0 -19 8.5t-4 20.5zM307 938l160 907q3 12 13 20.5t22 8.5h137q12 0 19 -8.5t4 -20.5l-160 -907q-1 -12 -11 -20.5t-22 -8.5h-137q-12 0 -19.5 8.5 t-5.5 20.5z" />
<glyph unicode="&#xa7;" horiz-adv-x="989" d="M176 188l27 152q1 12 11 20.5t22 8.5h137q12 0 19 -8.5t5 -20.5l-26 -150q-4 -25 10 -42t39 -17h256q25 0 44.5 17t24.5 42l39 228q4 20 -4.5 35.5t-27.5 21.5h-289q-98 0 -156 70t-41 170l37 207q8 51 41 102q-51 67 -33 162l45 264q19 100 102 170t181 70h285 q99 0 157 -70.5t39 -169.5l-26 -152q-1 -12 -11 -20t-22 -8h-137q-12 0 -19 8t-6 20l27 150q4 25 -10 42t-39 17h-256q-25 0 -45.5 -17t-24.5 -42l-39 -227q-4 -23 7 -40t32 -20h278q99 0 157.5 -70t41.5 -169l-37 -207q-8 -50 -41 -101q53 -69 35 -161l-45 -265 q-19 -99 -101.5 -169t-181.5 -70h-284q-99 0 -157.5 70t-39.5 169zM459 707q-3 -25 10.5 -41.5t38.5 -16.5h233q45 0 54 58l39 213q3 25 -11 42t-39 17h-217q-25 0 -45.5 -17.5t-23.5 -41.5z" />
<glyph unicode="&#xa8;" horiz-adv-x="919" d="M465 1833q7 44 46.5 76.5t84.5 32.5q44 0 70 -32.5t18 -76.5q-8 -45 -45.5 -78t-81.5 -33t-72 33.5t-20 77.5zM879 1833q7 44 46.5 76.5t84.5 32.5q44 0 70 -32.5t18 -76.5q-8 -45 -45.5 -78t-81.5 -33t-72 33.5t-20 77.5z" />
<glyph unicode="&#xa9;" horiz-adv-x="1779" d="M225 819q30 170 120 323t216.5 264.5t288.5 177t330 65.5t307 -65.5t226.5 -177t122.5 -264.5t5 -323t-119 -322.5t-215.5 -263.5t-288 -176t-329.5 -65q-224 0 -391 110.5t-239.5 300t-33.5 416.5zM403 819q-24 -139 3.5 -260.5t96.5 -207t177 -134.5t240 -49 q176 0 335 83.5t268.5 233t141.5 334.5t-24.5 334.5t-186 233t-305.5 83.5t-335 -83.5t-269 -233t-142 -334.5zM782 496l113 632q9 53 53.5 90t98.5 37h129q54 0 84.5 -37t21.5 -90l-12 -69q-3 -12 -13 -20.5t-22 -8.5h-70q-12 0 -18.5 8.5t-3.5 20.5l8 45q2 14 -7 23.5 t-22 9.5h-69q-12 0 -23 -10t-12 -23l-105 -590q-3 -12 5 -21.5t20 -9.5h76q13 0 24.5 9.5t14.5 21.5l18 104q1 12 11 20.5t22 8.5h67q12 0 19.5 -8.5t5.5 -20.5l-22 -122q-9 -52 -53 -89.5t-97 -37.5h-135q-54 0 -85 37t-22 90z" />
<glyph unicode="&#xaa;" horiz-adv-x="589" d="M221.5 772.5q-4.5 6.5 1.5 20.5l287 817q4 13 12 20t14 8h5h86q2 0 5.5 -0.5t8.5 -7.5t4 -20v-817q-1 -13 -6.5 -20t-10.5 -8l-5 -1h-86q-2 0 -5.5 1t-9 8t-4.5 20l2 102h-135l-35 -102q-4 -13 -12 -20t-14 -8l-5 -1h-86q-2 0 -4.5 1t-7 7.5zM426 1016h94l15 352z" />
<glyph unicode="&#xab;" horiz-adv-x="786" d="M217 772q-14 30 10 57l211 283q10 13 21 20t17 8l5 1h162l7 -3q6 -7 -9 -26l-229 -311l120 -312q3 -8 3 -14t-2 -8.5t-4.5 -4t-4.5 -1.5h-2h-162q-20 -1 -30 28zM477 772q-14 30 10 57l211 283q10 13 21 20t17 8l5 1h162l7 -3q6 -7 -9 -26l-229 -311l121 -312 q4 -14 1.5 -20t-7.5 -7l-5 -1h-161q-21 -1 -31 28z" />
<glyph unicode="&#xac;" horiz-adv-x="1202" d="M276 756l21 125q3 12 13 20t22 8h858q12 0 18.5 -8t3.5 -20l-69 -402q-3 -12 -13 -20t-22 -8h-125q-12 0 -18.5 8t-3.5 20l43 248h-705q-12 0 -19 8.5t-4 20.5z" />
<glyph unicode="&#xad;" horiz-adv-x="978" d="M272 735l23 125q1 12 11 20.5t22 8.5h635q12 0 19 -8.5t5 -20.5l-22 -125q-3 -12 -13 -20t-22 -8h-635q-12 0 -19 8t-4 20z" />
<glyph unicode="&#xae;" horiz-adv-x="1779" d="M225 819q30 170 120 323t216.5 264.5t288.5 177t330 65.5t307 -65.5t226.5 -177t122.5 -264.5t5 -323t-119 -322.5t-215.5 -263.5t-288 -176t-329.5 -65q-224 0 -391 110.5t-239.5 300t-33.5 416.5zM403 819q-24 -139 3.5 -260.5t96.5 -207t177 -134.5t240 -49 q176 0 335 83.5t268.5 233t141.5 334.5t-24.5 334.5t-186 233t-305.5 83.5t-335 -83.5t-269 -233t-142 -334.5zM762 403l145 818q1 12 11 20t22 8h238q52 0 82.5 -37t21.5 -90l-47 -270q-7 -39 -35.5 -71t-66.5 -46l24 -332q2 -13 -2 -20t-9 -7l-5 -1h-84q-2 0 -6 0.5 t-10.5 7.5t-8.5 20l-24 322h-64l-57 -322q-1 -12 -11 -20t-22 -8h-68q-12 0 -19 8t-5 20zM965 840h110q13 0 24.5 9t14.5 23l39 228q3 12 -5 21t-22 9h-110z" />
<glyph unicode="&#xaf;" horiz-adv-x="978" d="M453 1761l10 51q1 12 11 20.5t22 8.5h634q12 0 19.5 -8.5t5.5 -20.5l-10 -51q-1 -12 -11 -20t-22 -8h-635q-12 0 -19 8t-5 20z" />
<glyph unicode="&#xb0;" horiz-adv-x="700" d="M418 1561q15 86 86.5 146t157.5 60t135 -60t34 -146t-86 -146.5t-157 -60.5t-135.5 60.5t-34.5 146.5zM506 1561q-9 -47 21 -83t77 -36t88.5 36t50.5 83q8 47 -21.5 82.5t-76.5 35.5t-89.5 -35.5t-49.5 -82.5z" />
<glyph unicode="&#xb1;" horiz-adv-x="978" d="M195 301l22 125q3 12 13 20.5t22 8.5h635q12 0 18.5 -8.5t3.5 -20.5l-22 -125q-1 -12 -11 -20.5t-22 -8.5h-635q-12 0 -19 8.5t-5 20.5zM301 899l23 125q2 12 11 20.5t21 8.5h226l41 225q2 12 11 20.5t21 8.5h125q12 0 19.5 -8.5t5.5 -20.5l-41 -225h227q12 0 19.5 -8.5 t5.5 -20.5l-23 -125q-3 -12 -13 -20.5t-22 -8.5h-227l-39 -227q-3 -12 -13 -20.5t-22 -8.5h-125q-12 0 -18.5 8.5t-3.5 20.5l39 227h-225q-12 0 -19 8.5t-4 20.5z" />
<glyph unicode="&#xb2;" horiz-adv-x="684" d="M287 784l14 82q15 20 41 54.5t92 126t117 165t95 144t48 92.5l13 72q3 13 -5 22.5t-22 9.5h-113q-12 0 -23 -9.5t-14 -22.5l-10 -68q-4 -14 -20 -14h-72q-16 0 -12 14l12 70q9 54 51.5 90.5t95.5 36.5h130q53 0 84 -36.5t22 -90.5l-14 -74q-6 -35 -103 -180.5 t-190 -273.5l-94 -128h270q6 0 10.5 -4t3.5 -10l-12 -68q-4 -14 -18 -14h-365q-15 0 -12 14z" />
<glyph unicode="&#xb3;" horiz-adv-x="681" d="M301 887l12 71q4 15 19 15h74q6 0 10.5 -4.5t3.5 -10.5l-14 -75q-2 -12 5 -21.5t19 -9.5h123q12 0 24 9.5t13 21.5l45 252q3 13 -5.5 22.5t-21.5 9.5h-53q-10 0 -10 15l12 67q3 17 16 17h52q13 0 25.5 9.5t13.5 22.5l38 222q3 13 -5 21.5t-21 8.5h-125q-30 0 -37 -30 l-12 -70q0 -6 -5.5 -11t-11.5 -5h-73q-15 0 -15 16l15 72q9 52 52.5 89.5t94.5 37.5h141q52 0 84 -37.5t23 -89.5l-41 -232q-9 -40 -37 -71q19 -32 10 -72l-45 -260q-9 -53 -53 -91t-96 -38h-139q-51 0 -82.5 37.5t-22.5 91.5z" />
<glyph unicode="&#xb4;" horiz-adv-x="532" d="M453 1736q-6 7 4 25l108 174q8 13 17.5 20t15.5 8l6 1h121l6 -3q6 -6 -12 -26l-178 -202h-80z" />
<glyph unicode="&#xb6;" horiz-adv-x="1255" d="M307 938l82 461q17 99 100.5 169t182.5 70h741q12 0 19 -8t4 -20l-23 -125q-1 -12 -11 -20.5t-22 -8.5h-26l-252 -1427q-1 -12 -11 -20.5t-22 -8.5h-137q-12 0 -19.5 8.5t-5.5 20.5l252 1427h-67l-252 -1427q-1 -12 -11 -20.5t-22 -8.5h-137q-12 0 -19.5 8.5t-5.5 20.5 l119 669h-258q-99 0 -157.5 70.5t-41.5 169.5z" />
<glyph unicode="&#xb7;" horiz-adv-x="342" d="M199 723l24 147q3 12 13 20.5t22 8.5h141q12 0 19 -8.5t4 -20.5l-25 -147q-3 -12 -13 -20.5t-22 -8.5h-141q-12 0 -18.5 8.5t-3.5 20.5z" />
<glyph unicode="&#xb8;" horiz-adv-x="495" d="M96 -260l6 29q1 12 11 20t22 8h6q28 0 23 -39q-4 -14 10 -14h51q15 0 19 14l20 123q4 15 -10 15h-51q-15 0 -19 -15l-4 -22h-63l8 43l90 129h76l-51 -74h47q24 0 37.5 -16t9.5 -39l-29 -162q-4 -23 -24 -39t-43 -16h-97q-23 0 -36 16t-9 39z" />
<glyph unicode="&#xb9;" horiz-adv-x="495" d="M385 780l131 742h-90q-6 0 -9.5 4t-2.5 10l4 27l96 75h111q15 0 12 -14l-148 -844q-1 -6 -7.5 -11t-12.5 -5h-74q-6 0 -9 5t-1 11z" />
<glyph unicode="&#xba;" horiz-adv-x="557" d="M238 885l110 633q9 52 54 89.5t96 37.5h139q51 0 82 -37.5t22 -89.5l-110 -633q-9 -52 -54 -89.5t-96 -37.5h-139q-51 0 -82 37.5t-22 89.5zM367 903q-2 -12 5.5 -21.5t20.5 -9.5h78q13 0 24 9.5t13 21.5l104 590q3 13 -4.5 23t-21.5 10h-78q-13 0 -23.5 -9.5 t-13.5 -23.5z" />
<glyph unicode="&#xbb;" horiz-adv-x="786" d="M157 463q-6 7 9 26l227 312l-119 311q-4 14 -1.5 20.5t7.5 7.5l5 1h161q21 0 31 -29l113 -283q14 -30 -10 -57l-211 -283q-10 -13 -21 -20t-16 -7l-6 -1h-162zM417 463q-6 7 9 26l227 312l-118 311q-4 14 -2 20.5t7 7.5l5 1h162q20 0 30 -29l113 -283q14 -30 -10 -57 l-211 -283q-10 -13 -21 -20t-16 -7l-6 -1h-162z" />
<glyph unicode="&#xbc;" horiz-adv-x="1337" d="M241.5 111q-0.5 7 8.5 20l907 1356q8 13 17.5 20t15.5 8l6 1h123q2 0 4.5 -1t5 -7.5t-7.5 -20.5l-913 -1356q-9 -13 -19 -20t-16 -8l-6 -1h-117q-2 0 -5 1t-3.5 8zM385 780l131 742h-90q-6 0 -9.5 4t-2.5 10l4 27l96 75h111q15 0 12 -14l-148 -844q-1 -6 -7.5 -11 t-12.5 -5h-74q-6 0 -9 5t-1 11zM807 168l14 84l350 606q4 6 9 9.5t8 4.5h4h72q6 1 10 -3.5t2 -10.5l-107 -606h52q6 0 10.5 -4t3.5 -10l-12 -70q-3 -14 -19 -14h-51l-25 -140q-4 -14 -18 -14h-72q-8 0 -12 4t-2 10l25 140h-230q-15 0 -12 14zM928 252h141l64 358z" />
<glyph unicode="&#xbd;" horiz-adv-x="1413" d="M241.5 111q-0.5 7 8.5 20l907 1356q8 13 17.5 20t15.5 8l6 1h123q2 0 4.5 -1t5 -7.5t-7.5 -20.5l-913 -1356q-9 -13 -19 -20t-16 -8l-6 -1h-117q-2 0 -5 1t-3.5 8zM385 780l131 742h-90q-6 0 -9.5 4t-2.5 10l4 27l96 75h111q15 0 12 -14l-148 -844q-1 -6 -7.5 -11 t-12.5 -5h-74q-6 0 -9 5t-1 11zM877 14l14 82q15 20 41 54.5t92 126t117 165t95 144t48 92.5l12 72q3 13 -4.5 22.5t-21.5 9.5h-113q-12 0 -23 -9.5t-14 -22.5l-12 -68q0 -14 -18 -14h-72q-14 0 -14 14l12 70q9 54 52.5 90.5t96.5 36.5h129q53 0 83.5 -36.5t21.5 -90.5 l-13 -74q-6 -35 -103 -180.5t-191 -273.5l-93 -128h271q14 0 14 -14l-12 -68q-4 -14 -19 -14h-364q-15 0 -12 14z" />
<glyph unicode="&#xbe;" horiz-adv-x="1439" d="M301 887l12 71q4 15 19 15h74q6 0 10.5 -4.5t3.5 -10.5l-14 -75q-2 -12 5 -21.5t19 -9.5h123q12 0 24 9.5t13 21.5l45 252q3 13 -5.5 22.5t-21.5 9.5h-53q-10 0 -10 15l12 67q3 17 16 17h52q13 0 25.5 9.5t13.5 22.5l38 222q3 13 -5 21.5t-21 8.5h-125q-30 0 -37 -30 l-12 -70q0 -6 -5.5 -11t-11.5 -5h-73q-15 0 -15 16l15 72q9 52 52.5 89.5t94.5 37.5h141q52 0 84 -37.5t23 -89.5l-41 -232q-9 -40 -37 -71q19 -32 10 -72l-45 -260q-9 -53 -53 -91t-96 -38h-139q-51 0 -82.5 37.5t-22.5 91.5zM366.5 111q-0.5 7 8.5 20l907 1356 q8 13 17.5 20t15.5 8l6 1h123q2 0 4.5 -1t5 -7.5t-7.5 -20.5l-914 -1356q-9 -13 -19 -20t-15 -8l-6 -1h-117q-2 0 -5 1t-3.5 8zM909 168l15 84l350 606q4 6 9 9.5t8 4.5h3h72q6 1 10 -3.5t2 -10.5l-106 -606h51q6 0 10.5 -4t3.5 -10l-12 -70q-3 -14 -18 -14h-52l-24 -140 q-3 -14 -19 -14h-71q-8 0 -12 4t-3 10l25 140h-229q-6 0 -10 4t-3 10zM1030 252h141l64 358z" />
<glyph unicode="&#xbf;" horiz-adv-x="948" d="M162 229l88 500q13 73 60 129.5t105.5 83.5t116.5 27q25 0 45.5 17t24.5 42l49 283q3 12 13 20t22 8h137q12 0 19 -8t4 -20l-55 -318q-17 -99 -100.5 -169t-182.5 -70q-25 0 -45 -17.5t-25 -42.5l-82 -463q-3 -25 11 -42t39 -17h215q25 0 45.5 17.5t23.5 41.5l27 150 q3 12 13 20.5t22 8.5h137q12 0 18.5 -8.5t3.5 -20.5l-26 -152q-17 -99 -99.5 -169t-181.5 -70h-244q-99 0 -157 70t-41 169zM680 1466l25 144q7 28 34 28h138q12 0 18.5 -8t3.5 -20l-25 -144q-7 -28 -34 -28h-138q-12 0 -18.5 8t-3.5 20z" />
<glyph unicode="&#xc0;" d="M108.5 8.5q-4.5 6.5 0.5 20.5l550 1581q4 13 13.5 20t16.5 8h7h189q3 0 7 -0.5t11 -7.5t6 -20l-6 -1581q0 -13 -5 -20t-10 -8l-5 -1h-154q-2 0 -5.5 1t-9 8t-5.5 20l6 239h-332l-80 -239q-4 -13 -11 -20t-12 -8l-6 -1h-153q-2 0 -5 1t-7.5 7.5zM440 451h279l18 892z M638.5 1955.5q1.5 6.5 5.5 7.5l5 1h121q2 0 6 -1t11 -8t10 -20l47 -174q3 -14 0 -20t-8 -7l-5 -1h-79l-109 202q-6 14 -4.5 20.5z" />
<glyph unicode="&#xc1;" d="M108.5 8.5q-4.5 6.5 0.5 20.5l550 1581q4 13 13.5 20t16.5 8h7h189q3 0 7 -0.5t11 -7.5t6 -20l-6 -1581q0 -13 -5 -20t-10 -8l-5 -1h-154q-2 0 -5.5 1t-9 8t-5.5 20l6 239h-332l-80 -239q-4 -13 -11 -20t-12 -8l-6 -1h-153q-2 0 -5 1t-7.5 7.5zM440 451h279l18 892z M770 1736q-6 7 4 25l109 174q8 13 17.5 20t15.5 8l6 1h120l6 -3q6 -6 -12 -26l-178 -202h-80z" />
<glyph unicode="&#xc2;" d="M108.5 8.5q-4.5 6.5 0.5 20.5l550 1581q4 13 13.5 20t16.5 8h7h189q3 0 7 -0.5t11 -7.5t6 -20l-6 -1581q0 -13 -5 -20t-10 -8l-5 -1h-154q-2 0 -5.5 1t-9 8t-5.5 20l6 239h-332l-80 -239q-4 -13 -11 -20t-12 -8l-6 -1h-153q-2 0 -5 1t-7.5 7.5zM440 451h279l18 892z M647 1736q-6 7 4 25l109 174q8 13 18 20t16 8l5 1h100q2 0 6 -1t11 -8t10 -20l47 -174q3 -14 0.5 -20t-7.5 -7l-5 -1h-82l-56 102l-88 -102h-80z" />
<glyph unicode="&#xc3;" d="M108.5 8.5q-4.5 6.5 0.5 20.5l550 1581q4 13 13.5 20t16.5 8h7h189q3 0 7 -0.5t11 -7.5t6 -20l-6 -1581q0 -13 -5 -20t-10 -8l-5 -1h-154q-2 0 -5.5 1t-9 8t-5.5 20l6 239h-332l-80 -239q-4 -13 -11 -20t-12 -8l-6 -1h-153q-2 0 -5 1t-7.5 7.5zM440 451h279l18 892z M594 1736q-6 7 4 25l129 174q8 13 17.5 20t15.5 8l6 1h49q21 0 33 -29l33 -67l106 96h80q2 0 4.5 -1t5 -7.5t-7.5 -20.5l-129 -174q-7 -13 -16.5 -20t-15.5 -7l-5 -1h-61l-56 102l-104 -102h-80z" />
<glyph unicode="&#xc4;" d="M108.5 8.5q-4.5 6.5 0.5 20.5l550 1581q4 13 13.5 20t16.5 8h7h189q3 0 7 -0.5t11 -7.5t6 -20l-6 -1581q0 -13 -5 -20t-10 -8l-5 -1h-154q-2 0 -5.5 1t-9 8t-5.5 20l6 239h-332l-80 -239q-4 -13 -11 -20t-12 -8l-6 -1h-153q-2 0 -5 1t-7.5 7.5zM440 451h279l18 892z M508 1833q7 44 46.5 76.5t84.5 32.5q44 0 70 -32.5t18 -76.5q-8 -45 -45.5 -78t-81.5 -33t-72 33.5t-20 77.5zM922 1833q7 44 46.5 76.5t84.5 32.5q44 0 70 -32.5t18 -76.5q-8 -45 -45.5 -78t-81.5 -33t-72 33.5t-20 77.5z" />
<glyph unicode="&#xc5;" d="M108.5 8.5q-4.5 6.5 0.5 20.5l532 1530q-61 61 -45 159q15 86 86.5 146.5t157.5 60.5t135.5 -60.5t34.5 -146.5q-15 -93 -101 -159l-6 -1530q0 -13 -5 -20t-10 -8l-5 -1h-154q-2 0 -5.5 1t-9 8t-5.5 20l6 239h-332l-80 -239q-4 -13 -11 -20t-12 -8l-6 -1h-153q-2 0 -5 1 t-7.5 7.5zM440 451h279l18 892zM705 1718q-7 -44 19 -71t62 -27t72 27t43 71q8 44 -18 71.5t-62 27.5t-72 -27.5t-44 -71.5z" />
<glyph unicode="&#xc6;" horiz-adv-x="1288" d="M108.5 8.5q-4.5 6.5 0.5 20.5l550 1581q4 13 13.5 20t16.5 8h7h727q12 0 19 -8t4 -20l-23 -127q-2 -12 -11 -20.5t-21 -8.5h-482l-2 -500h314q12 0 18.5 -8t3.5 -20l-22 -125q-1 -12 -11 -20.5t-22 -8.5h-283l-2 -590h275q12 0 19 -8t5 -20l-22 -125q-1 -12 -11 -20.5 t-22 -8.5h-418q-2 0 -5.5 1t-9 8t-5.5 20l6 239h-332l-80 -239q-4 -13 -11 -20t-12 -8l-6 -1h-153q-2 0 -5 1t-7.5 7.5zM440 451h279l18 892z" />
<glyph unicode="&#xc7;" horiz-adv-x="993" d="M182 229l209 1180q17 99 99.5 169.5t181.5 70.5h248q99 0 157 -70.5t41 -169.5l-26 -152q-3 -12 -13 -20t-22 -8h-137q-12 0 -19 8t-4 20l27 150q3 25 -11 42t-39 17h-219q-25 0 -45.5 -17.5t-23.5 -41.5l-209 -1184q-4 -25 10 -42t39 -17h229q25 0 45.5 17t24.5 42 l45 260q3 12 13 20.5t22 8.5h137q12 0 19 -8.5t4 -20.5l-45 -254q-17 -99 -99.5 -169t-181.5 -70h-121l-22 -33h47q24 0 37.5 -16t9.5 -39l-29 -162q-4 -23 -24 -39t-43 -16h-97q-23 0 -36 16t-9 39l6 29q1 12 11 20t22 8h6q28 0 23 -39q-4 -14 10 -14h51q15 0 19 14l20 123 q4 15 -10 15h-51q-15 0 -19 -15l-4 -22h-63l8 43l61 88h-61q-99 0 -157.5 70t-41.5 169z" />
<glyph unicode="&#xc8;" horiz-adv-x="948" d="M147 29l279 1581q3 12 13 20t22 8h622q12 0 19 -8t4 -20l-23 -127q-2 -12 -11 -20.5t-21 -8.5h-457l-88 -500h375q12 0 18.5 -8t3.5 -20l-22 -125q-1 -12 -11 -20.5t-22 -8.5h-375l-104 -590h469q12 0 19 -8t5 -20l-22 -125q-1 -12 -11 -20.5t-22 -8.5h-635 q-12 0 -19.5 8.5t-5.5 20.5zM628.5 1955.5q1.5 6.5 5.5 7.5l5 1h121q2 0 5.5 -1t10.5 -8t10 -20l48 -174q3 -14 0 -20t-8 -7l-5 -1h-80l-108 202q-6 14 -4.5 20.5z" />
<glyph unicode="&#xc9;" horiz-adv-x="948" d="M147 29l279 1581q3 12 13 20t22 8h622q12 0 19 -8t4 -20l-23 -127q-2 -12 -11 -20.5t-21 -8.5h-457l-88 -500h375q12 0 18.5 -8t3.5 -20l-22 -125q-1 -12 -11 -20.5t-22 -8.5h-375l-104 -590h469q12 0 19 -8t5 -20l-22 -125q-1 -12 -11 -20.5t-22 -8.5h-635 q-12 0 -19.5 8.5t-5.5 20.5zM739.5 1738.5q-1.5 2.5 0 8.5t5.5 14l109 174q8 13 18 20t16 8l5 1h121l6 -3q6 -6 -12 -26l-179 -202h-79h-2t-4 1.5t-4.5 4z" />
<glyph unicode="&#xca;" horiz-adv-x="948" d="M147 29l279 1581q3 12 13 20t22 8h622q12 0 19 -8t4 -20l-23 -127q-2 -12 -11 -20.5t-21 -8.5h-457l-88 -500h375q12 0 18.5 -8t3.5 -20l-22 -125q-1 -12 -11 -20.5t-22 -8.5h-375l-104 -590h469q12 0 19 -8t5 -20l-22 -125q-1 -12 -11 -20.5t-22 -8.5h-635 q-12 0 -19.5 8.5t-5.5 20.5zM623 1736q-6 7 4 25l108 174q8 13 17.5 20t15.5 8l6 1h100q2 0 6 -1t11 -8t10 -20l47 -174q3 -14 0.5 -20t-7.5 -7l-5 -1h-82l-55 102l-88 -102h-80z" />
<glyph unicode="&#xcb;" horiz-adv-x="948" d="M147 29l279 1581q3 12 13 20t22 8h622q12 0 19 -8t4 -20l-23 -127q-2 -12 -11 -20.5t-21 -8.5h-457l-88 -500h375q12 0 18.5 -8t3.5 -20l-22 -125q-1 -12 -11 -20.5t-22 -8.5h-375l-104 -590h469q12 0 19 -8t5 -20l-22 -125q-1 -12 -11 -20.5t-22 -8.5h-635 q-12 0 -19.5 8.5t-5.5 20.5zM487 1833q7 44 46.5 76.5t84.5 32.5q44 0 70.5 -32.5t18.5 -76.5q-8 -45 -45.5 -78t-81.5 -33t-72 33.5t-21 77.5zM901 1833q7 44 46.5 76.5t84.5 32.5q44 0 70 -32.5t18 -76.5q-8 -45 -45.5 -78t-81.5 -33t-72 33.5t-20 77.5z" />
<glyph unicode="&#xcc;" horiz-adv-x="489" d="M156 29l278 1581q3 12 13 20t22 8h137q12 0 19 -8t4 -20l-279 -1581q-1 -12 -11 -20.5t-22 -8.5h-137q-12 0 -19 8.5t-5 20.5zM386.5 1955.5q1.5 6.5 5.5 7.5l5 1h121q2 0 6 -1t11 -8t10 -20l47 -174q3 -14 0.5 -20t-7.5 -7l-5 -1h-80l-109 202q-6 14 -4.5 20.5z" />
<glyph unicode="&#xcd;" horiz-adv-x="485" d="M147 29l279 1581q3 12 13 20t22 8h137q12 0 19 -8t4 -20l-279 -1581q-1 -12 -11 -20.5t-22 -8.5h-137q-12 0 -19.5 8.5t-5.5 20.5zM508 1736q-6 7 4 25l109 174q8 13 17.5 20t15.5 8l5 1h121l6 -3q6 -6 -12 -26l-178 -202h-80z" />
<glyph unicode="&#xce;" horiz-adv-x="473" d="M143 29l279 1581q3 12 13 20t22 8h137q12 0 18.5 -8t3.5 -20l-278 -1581q-1 -12 -11 -20.5t-22 -8.5h-137q-12 0 -19.5 8.5t-5.5 20.5zM381 1736q-6 7 4 25l109 174q8 13 17.5 20t14.5 8l6 1h101q2 0 5.5 -1t10.5 -8t10 -20l48 -174q3 -14 0 -20t-8 -7l-5 -1h-82l-55 102 l-88 -102h-80z" />
<glyph unicode="&#xcf;" horiz-adv-x="489" d="M152 29l278 1581q3 12 13 20t22 8h137q12 0 19 -8t4 -20l-279 -1581q-1 -12 -11 -20.5t-22 -8.5h-137q-12 0 -19 8.5t-5 20.5zM260 1833q7 44 46.5 76.5t84.5 32.5q44 0 70 -32.5t18 -76.5q-8 -45 -45.5 -78t-81.5 -33t-72 33.5t-20 77.5zM653 1833q7 44 46.5 76.5 t84.5 32.5q44 0 70 -32.5t18 -76.5q-8 -45 -45.5 -78t-81.5 -33t-72 33.5t-20 77.5z" />
<glyph unicode="&#xd0;" horiz-adv-x="1024" d="M147 29l119 678h-73q-12 0 -19 8t-4 20l23 125q2 12 11 20.5t21 8.5h74l127 721q3 12 13 20t22 8h469q98 0 155.5 -69.5t40.5 -169.5l-204 -1159q-17 -99 -99.5 -169.5t-181.5 -70.5h-469q-12 0 -19.5 8.5t-5.5 20.5zM369 182h288q25 0 45 17.5t25 42.5l205 1155 q4 25 -10 42t-39 17h-289l-100 -567h94q12 0 19 -8.5t5 -20.5l-22 -125q-3 -12 -13 -20t-22 -8h-94z" />
<glyph unicode="&#xd1;" horiz-adv-x="1040" d="M147 29l279 1581q3 12 13 20t22 8h135q3 0 6.5 -0.5t10.5 -7.5t8 -20l188 -1004l176 1004q3 12 13 20t22 8h137q12 0 19 -8t4 -20l-279 -1581q-1 -12 -11 -20.5t-22 -8.5h-125q-2 0 -6 1t-11 8t-9 20l-199 999l-176 -999q-1 -12 -11 -20.5t-22 -8.5h-137q-12 0 -19.5 8.5 t-5.5 20.5zM612.5 1738.5q-1.5 2.5 0 8.5t5.5 14l130 174q8 13 17.5 20t14.5 8l6 1h50q20 0 32 -29l33 -67l107 96h79q2 0 4.5 -1t5.5 -7.5t-7 -20.5l-129 -174q-7 -13 -16.5 -20t-14.5 -7l-6 -1h-62l-55 102l-105 -102h-79h-2t-4 1.5t-4.5 4z" />
<glyph unicode="&#xd2;" horiz-adv-x="1028" d="M182 229l209 1180q17 99 99.5 169.5t181.5 70.5h262q99 0 157.5 -70.5t41.5 -169.5l-209 -1180q-17 -99 -99.5 -169t-181.5 -70h-262q-99 0 -157.5 70t-41.5 169zM377 223q-4 -25 10 -42t39 -17h233q25 0 45.5 17t24.5 42l209 1184q3 25 -11 42t-38 17h-234 q-25 0 -45.5 -17.5t-23.5 -41.5zM648.5 1955.5q1.5 6.5 5.5 7.5l5 1h121q2 0 6 -1t11 -8t10 -20l47 -174q3 -14 0.5 -20t-7.5 -7l-5 -1h-80l-109 202q-6 14 -4.5 20.5z" />
<glyph unicode="&#xd3;" horiz-adv-x="1028" d="M182 229l209 1180q17 99 99.5 169.5t181.5 70.5h262q99 0 157.5 -70.5t41.5 -169.5l-209 -1180q-17 -99 -99.5 -169t-181.5 -70h-262q-99 0 -157.5 70t-41.5 169zM377 223q-4 -25 10 -42t39 -17h233q25 0 45.5 17t24.5 42l209 1184q3 25 -11 42t-38 17h-234 q-25 0 -45.5 -17.5t-23.5 -41.5zM782.5 1738.5q-1.5 2.5 0 8.5t5.5 14l109 174q8 13 17.5 20t15.5 8l6 1h121l6 -3q6 -6 -12 -26l-179 -202h-79h-2t-4 1.5t-4.5 4z" />
<glyph unicode="&#xd4;" horiz-adv-x="1028" d="M182 229l209 1180q17 99 99.5 169.5t181.5 70.5h262q99 0 157.5 -70.5t41.5 -169.5l-209 -1180q-17 -99 -99.5 -169t-181.5 -70h-262q-99 0 -157.5 70t-41.5 169zM377 223q-4 -25 10 -42t39 -17h233q25 0 45.5 17t24.5 42l209 1184q3 25 -11 42t-38 17h-234 q-25 0 -45.5 -17.5t-23.5 -41.5zM651.5 1738.5q-1.5 2.5 0 8.5t5.5 14l109 174q8 13 18 20t16 8l5 1h100q2 0 6 -1t11 -8t10 -20l47 -174q3 -14 0.5 -20t-7.5 -7l-5 -1h-82l-56 102l-88 -102h-79h-2t-4 1.5t-4.5 4z" />
<glyph unicode="&#xd5;" horiz-adv-x="1028" d="M182 229l209 1180q17 99 99.5 169.5t181.5 70.5h262q99 0 157.5 -70.5t41.5 -169.5l-209 -1180q-17 -99 -99.5 -169t-181.5 -70h-262q-99 0 -157.5 70t-41.5 169zM377 223q-4 -25 10 -42t39 -17h233q25 0 45.5 17t24.5 42l209 1184q3 25 -11 42t-38 17h-234 q-25 0 -45.5 -17.5t-23.5 -41.5zM610 1736q-6 7 4 25l129 174q8 13 18 20t15 8l6 1h49q21 0 33 -29l33 -67l107 96h79q2 0 4.5 -1t5 -7.5t-7.5 -20.5l-129 -174q-7 -13 -16 -20t-14 -7l-6 -1h-62l-55 102l-105 -102h-80z" />
<glyph unicode="&#xd6;" horiz-adv-x="1028" d="M182 229l209 1180q17 99 99.5 169.5t181.5 70.5h262q99 0 157.5 -70.5t41.5 -169.5l-209 -1180q-17 -99 -99.5 -169t-181.5 -70h-262q-99 0 -157.5 70t-41.5 169zM377 223q-4 -25 10 -42t39 -17h233q25 0 45.5 17t24.5 42l209 1184q3 25 -11 42t-38 17h-234 q-25 0 -45.5 -17.5t-23.5 -41.5zM518 1833q7 44 46.5 76.5t84.5 32.5q44 0 70 -32.5t18 -76.5q-8 -45 -45.5 -78t-81.5 -33t-72 33.5t-20 77.5zM932 1833q7 44 46.5 76.5t84.5 32.5q44 0 70 -32.5t18 -76.5q-8 -45 -45.5 -78t-81.5 -33t-72 33.5t-20 77.5z" />
<glyph unicode="&#xd7;" horiz-adv-x="927" d="M178 412q-7 7 6 26l293 375l-160 367q-5 14 -2 20t9 7l6 1h180q21 1 29 -28l92 -224l172 224q9 13 19 20t16 8h6h180l9 -2q8 -7 -9 -26l-289 -367l160 -375q5 -14 3 -20t-8 -7l-5 -1h-174q-17 -1 -31 28l-100 234l-181 -234q-10 -13 -20 -20t-15 -8h-4h-174z" />
<glyph unicode="&#xd8;" horiz-adv-x="1019" d="M155 -100q-7 7 5 26l61 135q-54 67 -39 168l209 1180q17 99 99.5 169.5t181.5 70.5h254q4 0 13 -1t13 -1l31 65q8 13 17.5 20t15.5 8l6 1h123q2 0 4.5 -1t5 -7.5t-7.5 -20.5l-64 -135q57 -66 41 -168l-209 -1180q-17 -99 -99 -169t-181 -70h-254q-5 0 -16.5 1t-16.5 1 l-31 -66q-8 -13 -17.5 -20t-15.5 -8h-5h-117zM426 504l444 962h-215q-25 0 -45.5 -17.5t-23.5 -41.5zM428 164h223q25 0 45.5 17t24.5 42l162 920z" />
<glyph unicode="&#xd9;" horiz-adv-x="1024" d="M182 229l244 1381q3 12 13 20t22 8h137q12 0 19 -8t4 -20l-244 -1387q-4 -25 10 -42t39 -17h229q25 0 45.5 17t24.5 42l244 1387q3 12 13 20t22 8h137q12 0 18.5 -8t3.5 -20l-243 -1381q-17 -99 -99.5 -169t-181.5 -70h-258q-99 0 -157.5 70t-41.5 169zM650.5 1955.5 q1.5 6.5 6.5 7.5l5 1h120q2 0 6 -1t11 -8t10 -20l47 -174q3 -14 0.5 -20t-7.5 -7l-5 -1h-80l-109 202q-6 14 -4.5 20.5z" />
<glyph unicode="&#xda;" horiz-adv-x="1024" d="M182 229l244 1381q3 12 13 20t22 8h137q12 0 19 -8t4 -20l-244 -1387q-4 -25 10 -42t39 -17h229q25 0 45.5 17t24.5 42l244 1387q3 12 13 20t22 8h137q12 0 18.5 -8t3.5 -20l-243 -1381q-17 -99 -99.5 -169t-181.5 -70h-258q-99 0 -157.5 70t-41.5 169zM778 1736 q-6 7 4 25l109 174q8 13 17.5 20t15.5 8l6 1h121l6 -3q5 -6 -13 -26l-178 -202h-80z" />
<glyph unicode="&#xdb;" horiz-adv-x="1024" d="M182 229l244 1381q3 12 13 20t22 8h137q12 0 19 -8t4 -20l-244 -1387q-4 -25 10 -42t39 -17h229q25 0 45.5 17t24.5 42l244 1387q3 12 13 20t22 8h137q12 0 18.5 -8t3.5 -20l-243 -1381q-17 -99 -99.5 -169t-181.5 -70h-258q-99 0 -157.5 70t-41.5 169zM653.5 1738.5 q-1.5 2.5 0 8.5t5.5 14l109 174q8 13 18 20t16 8l5 1h100q2 0 6 -1t11 -8t10 -20l47 -174q3 -14 0.5 -20t-7.5 -7l-5 -1h-82l-56 102l-88 -102h-79h-2t-4 1.5t-4.5 4z" />
<glyph unicode="&#xdc;" horiz-adv-x="1024" d="M182 229l244 1381q3 12 13 20t22 8h137q12 0 19 -8t4 -20l-244 -1387q-4 -25 10 -42t39 -17h229q25 0 45.5 17t24.5 42l244 1387q3 12 13 20t22 8h137q12 0 18.5 -8t3.5 -20l-243 -1381q-17 -99 -99.5 -169t-181.5 -70h-258q-99 0 -157.5 70t-41.5 169zM516 1833 q7 44 46.5 76.5t84.5 32.5q44 0 70 -32.5t18 -76.5q-8 -45 -45.5 -78t-81.5 -33t-72 33.5t-20 77.5zM930 1833q7 44 46.5 76.5t84.5 32.5q44 0 70 -32.5t18 -76.5q-8 -45 -45.5 -78t-81.5 -33t-72 33.5t-20 77.5z" />
<glyph unicode="&#xdd;" horiz-adv-x="950" d="M367 1610q-1 13 3.5 20t9.5 8h5h154q2 0 5.5 -0.5t9 -7.5t5.5 -20l72 -723l325 723q5 13 13.5 20t14.5 8h5h154h2t4 -1.5t4 -4t0.5 -8.5t-4.5 -14l-487 -1098l-87 -483q-2 -12 -11 -20.5t-21 -8.5h-135q-12 0 -19.5 8.5t-5.5 20.5l86 483zM752 1736q-6 7 4 25l108 174 q8 13 18 20t16 8l5 1h121l6 -3q6 -6 -12 -26l-178 -202h-80z" />
<glyph unicode="&#xde;" d="M147 29l279 1581q3 12 13 20t22 8h137q12 0 19 -8t4 -20l-54 -299h303q99 0 157.5 -70.5t41.5 -169.5l-88 -502q-19 -99 -101.5 -169t-181.5 -70h-303l-53 -301q-1 -12 -11 -20.5t-22 -8.5h-137q-12 0 -19.5 8.5t-5.5 20.5zM426 504h289q25 0 44.5 17t24.5 42l90 506 q3 25 -11 42t-38 17h-288z" />
<glyph unicode="&#xdf;" horiz-adv-x="999" d="M147 29l242 1370q17 99 100.5 169t182.5 70h424q12 0 18.5 -8t3.5 -20l-24 -144l-242 -563q76 -19 116 -83t25 -148l-78 -443q-17 -99 -99 -169t-181 -70h-41q-12 0 -19 8t-6 20l21 117q3 12 13 20.5t22 8.5h26q25 0 45.5 17t24.5 42l78 447q4 25 -10 42t-39 17h-88 q-12 0 -19 8.5t-4 20.5l23 133l239 565h-248q-25 0 -44.5 -17t-24.5 -42l-242 -1368q-1 -12 -11 -20.5t-22 -8.5h-137q-12 0 -19.5 8.5t-5.5 20.5z" />
<glyph unicode="&#xe0;" d="M108.5 8.5q-4.5 6.5 0.5 20.5l550 1581q4 13 13.5 20t16.5 8h7h189q3 0 7 -0.5t11 -7.5t6 -20l-6 -1581q0 -13 -5 -20t-10 -8l-5 -1h-154q-2 0 -5.5 1t-9 8t-5.5 20l6 239h-332l-80 -239q-4 -13 -11 -20t-12 -8l-6 -1h-153q-2 0 -5 1t-7.5 7.5zM440 451h279l18 892z M638.5 1955.5q1.5 6.5 5.5 7.5l5 1h121q2 0 6 -1t11 -8t10 -20l47 -174q3 -14 0 -20t-8 -7l-5 -1h-79l-109 202q-6 14 -4.5 20.5z" />
<glyph unicode="&#xe1;" d="M108.5 8.5q-4.5 6.5 0.5 20.5l550 1581q4 13 13.5 20t16.5 8h7h189q3 0 7 -0.5t11 -7.5t6 -20l-6 -1581q0 -13 -5 -20t-10 -8l-5 -1h-154q-2 0 -5.5 1t-9 8t-5.5 20l6 239h-332l-80 -239q-4 -13 -11 -20t-12 -8l-6 -1h-153q-2 0 -5 1t-7.5 7.5zM440 451h279l18 892z M770 1736q-6 7 4 25l109 174q8 13 17.5 20t15.5 8l6 1h120l6 -3q6 -6 -12 -26l-178 -202h-80z" />
<glyph unicode="&#xe2;" d="M108.5 8.5q-4.5 6.5 0.5 20.5l550 1581q4 13 13.5 20t16.5 8h7h189q3 0 7 -0.5t11 -7.5t6 -20l-6 -1581q0 -13 -5 -20t-10 -8l-5 -1h-154q-2 0 -5.5 1t-9 8t-5.5 20l6 239h-332l-80 -239q-4 -13 -11 -20t-12 -8l-6 -1h-153q-2 0 -5 1t-7.5 7.5zM440 451h279l18 892z M647 1736q-6 7 4 25l109 174q8 13 18 20t16 8l5 1h100q2 0 6 -1t11 -8t10 -20l47 -174q3 -14 0.5 -20t-7.5 -7l-5 -1h-82l-56 102l-88 -102h-80z" />
<glyph unicode="&#xe3;" d="M108.5 8.5q-4.5 6.5 0.5 20.5l550 1581q4 13 13.5 20t16.5 8h7h189q3 0 7 -0.5t11 -7.5t6 -20l-6 -1581q0 -13 -5 -20t-10 -8l-5 -1h-154q-2 0 -5.5 1t-9 8t-5.5 20l6 239h-332l-80 -239q-4 -13 -11 -20t-12 -8l-6 -1h-153q-2 0 -5 1t-7.5 7.5zM440 451h279l18 892z M594 1736q-6 7 4 25l129 174q8 13 17.5 20t15.5 8l6 1h49q21 0 33 -29l33 -67l106 96h80q2 0 4.5 -1t5 -7.5t-7.5 -20.5l-129 -174q-7 -13 -16.5 -20t-15.5 -7l-5 -1h-61l-56 102l-104 -102h-80z" />
<glyph unicode="&#xe4;" d="M108.5 8.5q-4.5 6.5 0.5 20.5l550 1581q4 13 13.5 20t16.5 8h7h189q3 0 7 -0.5t11 -7.5t6 -20l-6 -1581q0 -13 -5 -20t-10 -8l-5 -1h-154q-2 0 -5.5 1t-9 8t-5.5 20l6 239h-332l-80 -239q-4 -13 -11 -20t-12 -8l-6 -1h-153q-2 0 -5 1t-7.5 7.5zM440 451h279l18 892z M508 1833q7 44 46.5 76.5t84.5 32.5q44 0 70 -32.5t18 -76.5q-8 -45 -45.5 -78t-81.5 -33t-72 33.5t-20 77.5zM922 1833q7 44 46.5 76.5t84.5 32.5q44 0 70 -32.5t18 -76.5q-8 -45 -45.5 -78t-81.5 -33t-72 33.5t-20 77.5z" />
<glyph unicode="&#xe5;" d="M108.5 8.5q-4.5 6.5 0.5 20.5l532 1530q-61 61 -45 159q15 86 86.5 146.5t157.5 60.5t135.5 -60.5t34.5 -146.5q-15 -93 -101 -159l-6 -1530q0 -13 -5 -20t-10 -8l-5 -1h-154q-2 0 -5.5 1t-9 8t-5.5 20l6 239h-332l-80 -239q-4 -13 -11 -20t-12 -8l-6 -1h-153q-2 0 -5 1 t-7.5 7.5zM440 451h279l18 892zM705 1718q-7 -44 19 -71t62 -27t72 27t43 71q8 44 -18 71.5t-62 27.5t-72 -27.5t-44 -71.5z" />
<glyph unicode="&#xe6;" horiz-adv-x="1288" d="M108.5 8.5q-4.5 6.5 0.5 20.5l550 1581q4 13 13.5 20t16.5 8h7h727q12 0 19 -8t4 -20l-23 -127q-2 -12 -11 -20.5t-21 -8.5h-482l-2 -500h314q12 0 18.5 -8t3.5 -20l-22 -125q-1 -12 -11 -20.5t-22 -8.5h-283l-2 -590h275q12 0 19 -8t5 -20l-22 -125q-1 -12 -11 -20.5 t-22 -8.5h-418q-2 0 -5.5 1t-9 8t-5.5 20l6 239h-332l-80 -239q-4 -13 -11 -20t-12 -8l-6 -1h-153q-2 0 -5 1t-7.5 7.5zM440 451h279l18 892z" />
<glyph unicode="&#xe7;" horiz-adv-x="993" d="M182 229l209 1180q17 99 99.5 169.5t181.5 70.5h248q99 0 157 -70.5t41 -169.5l-26 -152q-3 -12 -13 -20t-22 -8h-137q-12 0 -19 8t-4 20l27 150q3 25 -11 42t-39 17h-219q-25 0 -45.5 -17.5t-23.5 -41.5l-209 -1184q-4 -25 10 -42t39 -17h229q25 0 45.5 17t24.5 42 l45 260q3 12 13 20.5t22 8.5h137q12 0 19 -8.5t4 -20.5l-45 -254q-17 -99 -99.5 -169t-181.5 -70h-121l-22 -33h47q24 0 37.5 -16t9.5 -39l-29 -162q-4 -23 -24 -39t-43 -16h-97q-23 0 -36 16t-9 39l6 29q1 12 11 20t22 8h6q28 0 23 -39q-4 -14 10 -14h51q15 0 19 14l20 123 q4 15 -10 15h-51q-15 0 -19 -15l-4 -22h-63l8 43l61 88h-61q-99 0 -157.5 70t-41.5 169z" />
<glyph unicode="&#xe8;" horiz-adv-x="948" d="M147 29l279 1581q3 12 13 20t22 8h622q12 0 19 -8t4 -20l-23 -127q-2 -12 -11 -20.5t-21 -8.5h-457l-88 -500h375q12 0 18.5 -8t3.5 -20l-22 -125q-1 -12 -11 -20.5t-22 -8.5h-375l-104 -590h469q12 0 19 -8t5 -20l-22 -125q-1 -12 -11 -20.5t-22 -8.5h-635 q-12 0 -19.5 8.5t-5.5 20.5zM628.5 1955.5q1.5 6.5 5.5 7.5l5 1h121q2 0 5.5 -1t10.5 -8t10 -20l48 -174q3 -14 0 -20t-8 -7l-5 -1h-80l-108 202q-6 14 -4.5 20.5z" />
<glyph unicode="&#xe9;" horiz-adv-x="948" d="M147 29l279 1581q3 12 13 20t22 8h622q12 0 19 -8t4 -20l-23 -127q-2 -12 -11 -20.5t-21 -8.5h-457l-88 -500h375q12 0 18.5 -8t3.5 -20l-22 -125q-1 -12 -11 -20.5t-22 -8.5h-375l-104 -590h469q12 0 19 -8t5 -20l-22 -125q-1 -12 -11 -20.5t-22 -8.5h-635 q-12 0 -19.5 8.5t-5.5 20.5zM739.5 1738.5q-1.5 2.5 0 8.5t5.5 14l109 174q8 13 18 20t16 8l5 1h121l6 -3q6 -6 -12 -26l-179 -202h-79h-2t-4 1.5t-4.5 4z" />
<glyph unicode="&#xea;" horiz-adv-x="948" d="M147 29l279 1581q3 12 13 20t22 8h622q12 0 19 -8t4 -20l-23 -127q-2 -12 -11 -20.5t-21 -8.5h-457l-88 -500h375q12 0 18.5 -8t3.5 -20l-22 -125q-1 -12 -11 -20.5t-22 -8.5h-375l-104 -590h469q12 0 19 -8t5 -20l-22 -125q-1 -12 -11 -20.5t-22 -8.5h-635 q-12 0 -19.5 8.5t-5.5 20.5zM623 1736q-6 7 4 25l108 174q8 13 17.5 20t15.5 8l6 1h100q2 0 6 -1t11 -8t10 -20l47 -174q3 -14 0.5 -20t-7.5 -7l-5 -1h-82l-55 102l-88 -102h-80z" />
<glyph unicode="&#xeb;" horiz-adv-x="948" d="M147 29l279 1581q3 12 13 20t22 8h622q12 0 19 -8t4 -20l-23 -127q-2 -12 -11 -20.5t-21 -8.5h-457l-88 -500h375q12 0 18.5 -8t3.5 -20l-22 -125q-1 -12 -11 -20.5t-22 -8.5h-375l-104 -590h469q12 0 19 -8t5 -20l-22 -125q-1 -12 -11 -20.5t-22 -8.5h-635 q-12 0 -19.5 8.5t-5.5 20.5zM487 1833q7 44 46.5 76.5t84.5 32.5q44 0 70.5 -32.5t18.5 -76.5q-8 -45 -45.5 -78t-81.5 -33t-72 33.5t-21 77.5zM901 1833q7 44 46.5 76.5t84.5 32.5q44 0 70 -32.5t18 -76.5q-8 -45 -45.5 -78t-81.5 -33t-72 33.5t-20 77.5z" />
<glyph unicode="&#xec;" horiz-adv-x="489" d="M156 29l278 1581q3 12 13 20t22 8h137q12 0 19 -8t4 -20l-279 -1581q-1 -12 -11 -20.5t-22 -8.5h-137q-12 0 -19 8.5t-5 20.5zM386.5 1955.5q1.5 6.5 5.5 7.5l5 1h121q2 0 6 -1t11 -8t10 -20l47 -174q3 -14 0.5 -20t-7.5 -7l-5 -1h-80l-109 202q-6 14 -4.5 20.5z" />
<glyph unicode="&#xed;" horiz-adv-x="485" d="M147 29l279 1581q3 12 13 20t22 8h137q12 0 19 -8t4 -20l-279 -1581q-1 -12 -11 -20.5t-22 -8.5h-137q-12 0 -19.5 8.5t-5.5 20.5zM508 1736q-6 7 4 25l109 174q8 13 17.5 20t15.5 8l5 1h121l6 -3q6 -6 -12 -26l-178 -202h-80z" />
<glyph unicode="&#xee;" horiz-adv-x="473" d="M143 29l279 1581q3 12 13 20t22 8h137q12 0 18.5 -8t3.5 -20l-278 -1581q-1 -12 -11 -20.5t-22 -8.5h-137q-12 0 -19.5 8.5t-5.5 20.5zM381 1736q-6 7 4 25l109 174q8 13 17.5 20t14.5 8l6 1h101q2 0 5.5 -1t10.5 -8t10 -20l48 -174q3 -14 0 -20t-8 -7l-5 -1h-82l-55 102 l-88 -102h-80z" />
<glyph unicode="&#xef;" horiz-adv-x="489" d="M152 29l278 1581q3 12 13 20t22 8h137q12 0 19 -8t4 -20l-279 -1581q-1 -12 -11 -20.5t-22 -8.5h-137q-12 0 -19 8.5t-5 20.5zM260 1833q7 44 46.5 76.5t84.5 32.5q44 0 70 -32.5t18 -76.5q-8 -45 -45.5 -78t-81.5 -33t-72 33.5t-20 77.5zM653 1833q7 44 46.5 76.5 t84.5 32.5q44 0 70 -32.5t18 -76.5q-8 -45 -45.5 -78t-81.5 -33t-72 33.5t-20 77.5z" />
<glyph unicode="&#xf0;" horiz-adv-x="1024" d="M147 29l119 678h-73q-12 0 -19 8t-4 20l23 125q2 12 11 20.5t21 8.5h74l127 721q3 12 13 20t22 8h469q98 0 155.5 -69.5t40.5 -169.5l-204 -1159q-17 -99 -99.5 -169.5t-181.5 -70.5h-469q-12 0 -19.5 8.5t-5.5 20.5zM369 182h288q25 0 45 17.5t25 42.5l205 1155 q4 25 -10 42t-39 17h-289l-100 -567h94q12 0 19 -8.5t5 -20.5l-22 -125q-3 -12 -13 -20t-22 -8h-94z" />
<glyph unicode="&#xf1;" horiz-adv-x="1040" d="M147 29l279 1581q3 12 13 20t22 8h135q3 0 6.5 -0.5t10.5 -7.5t8 -20l188 -1004l176 1004q3 12 13 20t22 8h137q12 0 19 -8t4 -20l-279 -1581q-1 -12 -11 -20.5t-22 -8.5h-125q-2 0 -6 1t-11 8t-9 20l-199 999l-176 -999q-1 -12 -11 -20.5t-22 -8.5h-137q-12 0 -19.5 8.5 t-5.5 20.5zM612.5 1738.5q-1.5 2.5 0 8.5t5.5 14l130 174q8 13 17.5 20t14.5 8l6 1h50q20 0 32 -29l33 -67l107 96h79q2 0 4.5 -1t5.5 -7.5t-7 -20.5l-129 -174q-7 -13 -16.5 -20t-14.5 -7l-6 -1h-62l-55 102l-105 -102h-79h-2t-4 1.5t-4.5 4z" />
<glyph unicode="&#xf2;" horiz-adv-x="1028" d="M182 229l209 1180q17 99 99.5 169.5t181.5 70.5h262q99 0 157.5 -70.5t41.5 -169.5l-209 -1180q-17 -99 -99.5 -169t-181.5 -70h-262q-99 0 -157.5 70t-41.5 169zM377 223q-4 -25 10 -42t39 -17h233q25 0 45.5 17t24.5 42l209 1184q3 25 -11 42t-38 17h-234 q-25 0 -45.5 -17.5t-23.5 -41.5zM648.5 1955.5q1.5 6.5 5.5 7.5l5 1h121q2 0 6 -1t11 -8t10 -20l47 -174q3 -14 0.5 -20t-7.5 -7l-5 -1h-80l-109 202q-6 14 -4.5 20.5z" />
<glyph unicode="&#xf3;" horiz-adv-x="1028" d="M182 229l209 1180q17 99 99.5 169.5t181.5 70.5h262q99 0 157.5 -70.5t41.5 -169.5l-209 -1180q-17 -99 -99.5 -169t-181.5 -70h-262q-99 0 -157.5 70t-41.5 169zM377 223q-4 -25 10 -42t39 -17h233q25 0 45.5 17t24.5 42l209 1184q3 25 -11 42t-38 17h-234 q-25 0 -45.5 -17.5t-23.5 -41.5zM782.5 1738.5q-1.5 2.5 0 8.5t5.5 14l109 174q8 13 17.5 20t15.5 8l6 1h121l6 -3q6 -6 -12 -26l-179 -202h-79h-2t-4 1.5t-4.5 4z" />
<glyph unicode="&#xf4;" horiz-adv-x="1028" d="M182 229l209 1180q17 99 99.5 169.5t181.5 70.5h262q99 0 157.5 -70.5t41.5 -169.5l-209 -1180q-17 -99 -99.5 -169t-181.5 -70h-262q-99 0 -157.5 70t-41.5 169zM377 223q-4 -25 10 -42t39 -17h233q25 0 45.5 17t24.5 42l209 1184q3 25 -11 42t-38 17h-234 q-25 0 -45.5 -17.5t-23.5 -41.5zM651.5 1738.5q-1.5 2.5 0 8.5t5.5 14l109 174q8 13 18 20t16 8l5 1h100q2 0 6 -1t11 -8t10 -20l47 -174q3 -14 0.5 -20t-7.5 -7l-5 -1h-82l-56 102l-88 -102h-79h-2t-4 1.5t-4.5 4z" />
<glyph unicode="&#xf5;" horiz-adv-x="1028" d="M182 229l209 1180q17 99 99.5 169.5t181.5 70.5h262q99 0 157.5 -70.5t41.5 -169.5l-209 -1180q-17 -99 -99.5 -169t-181.5 -70h-262q-99 0 -157.5 70t-41.5 169zM377 223q-4 -25 10 -42t39 -17h233q25 0 45.5 17t24.5 42l209 1184q3 25 -11 42t-38 17h-234 q-25 0 -45.5 -17.5t-23.5 -41.5zM610 1736q-6 7 4 25l129 174q8 13 18 20t15 8l6 1h49q21 0 33 -29l33 -67l107 96h79q2 0 4.5 -1t5 -7.5t-7.5 -20.5l-129 -174q-7 -13 -16 -20t-14 -7l-6 -1h-62l-55 102l-105 -102h-80z" />
<glyph unicode="&#xf6;" horiz-adv-x="1028" d="M182 229l209 1180q17 99 99.5 169.5t181.5 70.5h262q99 0 157.5 -70.5t41.5 -169.5l-209 -1180q-17 -99 -99.5 -169t-181.5 -70h-262q-99 0 -157.5 70t-41.5 169zM377 223q-4 -25 10 -42t39 -17h233q25 0 45.5 17t24.5 42l209 1184q3 25 -11 42t-38 17h-234 q-25 0 -45.5 -17.5t-23.5 -41.5zM518 1833q7 44 46.5 76.5t84.5 32.5q44 0 70 -32.5t18 -76.5q-8 -45 -45.5 -78t-81.5 -33t-72 33.5t-20 77.5zM932 1833q7 44 46.5 76.5t84.5 32.5q44 0 70 -32.5t18 -76.5q-8 -45 -45.5 -78t-81.5 -33t-72 33.5t-20 77.5z" />
<glyph unicode="&#xf7;" horiz-adv-x="1138" d="M272 735l23 125q1 12 11 20.5t22 8.5h794q12 0 19.5 -8.5t5.5 -20.5l-23 -125q-7 -28 -34 -28h-795q-12 0 -19 8t-4 20zM537 508q9 49 50 84t91 35t78.5 -35t19.5 -84q-8 -50 -49 -85.5t-90 -35.5t-78.5 35.5t-21.5 85.5zM639 1092q9 49 51 83.5t92 34.5t78 -34.5 t19 -83.5q-7 -49 -48.5 -85t-91.5 -36q-49 0 -78.5 35.5t-21.5 85.5z" />
<glyph unicode="&#xf8;" horiz-adv-x="1019" d="M155 -100q-7 7 5 26l61 135q-54 67 -39 168l209 1180q17 99 99.5 169.5t181.5 70.5h254q4 0 13 -1t13 -1l31 65q8 13 17.5 20t15.5 8l6 1h123q2 0 4.5 -1t5 -7.5t-7.5 -20.5l-64 -135q57 -66 41 -168l-209 -1180q-17 -99 -99 -169t-181 -70h-254q-5 0 -16.5 1t-16.5 1 l-31 -66q-8 -13 -17.5 -20t-15.5 -8h-5h-117zM426 504l444 962h-215q-25 0 -45.5 -17.5t-23.5 -41.5zM428 164h223q25 0 45.5 17t24.5 42l162 920z" />
<glyph unicode="&#xf9;" horiz-adv-x="1024" d="M182 229l244 1381q3 12 13 20t22 8h137q12 0 19 -8t4 -20l-244 -1387q-4 -25 10 -42t39 -17h229q25 0 45.5 17t24.5 42l244 1387q3 12 13 20t22 8h137q12 0 18.5 -8t3.5 -20l-243 -1381q-17 -99 -99.5 -169t-181.5 -70h-258q-99 0 -157.5 70t-41.5 169zM650.5 1955.5 q1.5 6.5 6.5 7.5l5 1h120q2 0 6 -1t11 -8t10 -20l47 -174q3 -14 0.5 -20t-7.5 -7l-5 -1h-80l-109 202q-6 14 -4.5 20.5z" />
<glyph unicode="&#xfa;" horiz-adv-x="1024" d="M182 229l244 1381q3 12 13 20t22 8h137q12 0 19 -8t4 -20l-244 -1387q-4 -25 10 -42t39 -17h229q25 0 45.5 17t24.5 42l244 1387q3 12 13 20t22 8h137q12 0 18.5 -8t3.5 -20l-243 -1381q-17 -99 -99.5 -169t-181.5 -70h-258q-99 0 -157.5 70t-41.5 169zM778 1736 q-6 7 4 25l109 174q8 13 17.5 20t15.5 8l6 1h121l6 -3q5 -6 -13 -26l-178 -202h-80z" />
<glyph unicode="&#xfb;" horiz-adv-x="1024" d="M182 229l244 1381q3 12 13 20t22 8h137q12 0 19 -8t4 -20l-244 -1387q-4 -25 10 -42t39 -17h229q25 0 45.5 17t24.5 42l244 1387q3 12 13 20t22 8h137q12 0 18.5 -8t3.5 -20l-243 -1381q-17 -99 -99.5 -169t-181.5 -70h-258q-99 0 -157.5 70t-41.5 169zM653.5 1738.5 q-1.5 2.5 0 8.5t5.5 14l109 174q8 13 18 20t16 8l5 1h100q2 0 6 -1t11 -8t10 -20l47 -174q3 -14 0.5 -20t-7.5 -7l-5 -1h-82l-56 102l-88 -102h-79h-2t-4 1.5t-4.5 4z" />
<glyph unicode="&#xfc;" horiz-adv-x="1024" d="M182 229l244 1381q3 12 13 20t22 8h137q12 0 19 -8t4 -20l-244 -1387q-4 -25 10 -42t39 -17h229q25 0 45.5 17t24.5 42l244 1387q3 12 13 20t22 8h137q12 0 18.5 -8t3.5 -20l-243 -1381q-17 -99 -99.5 -169t-181.5 -70h-258q-99 0 -157.5 70t-41.5 169zM516 1833 q7 44 46.5 76.5t84.5 32.5q44 0 70 -32.5t18 -76.5q-8 -45 -45.5 -78t-81.5 -33t-72 33.5t-20 77.5zM930 1833q7 44 46.5 76.5t84.5 32.5q44 0 70 -32.5t18 -76.5q-8 -45 -45.5 -78t-81.5 -33t-72 33.5t-20 77.5z" />
<glyph unicode="&#xfd;" horiz-adv-x="950" d="M367 1610q-1 13 3.5 20t9.5 8h5h154q2 0 5.5 -0.5t9 -7.5t5.5 -20l72 -723l325 723q5 13 13.5 20t14.5 8h5h154h2t4 -1.5t4 -4t0.5 -8.5t-4.5 -14l-487 -1098l-87 -483q-2 -12 -11 -20.5t-21 -8.5h-135q-12 0 -19.5 8.5t-5.5 20.5l86 483zM752 1736q-6 7 4 25l108 174 q8 13 18 20t16 8l5 1h121l6 -3q6 -6 -12 -26l-178 -202h-80z" />
<glyph unicode="&#xfe;" d="M147 29l279 1581q3 12 13 20t22 8h137q12 0 19 -8t4 -20l-54 -299h303q99 0 157.5 -70.5t41.5 -169.5l-88 -502q-19 -99 -101.5 -169t-181.5 -70h-303l-53 -301q-1 -12 -11 -20.5t-22 -8.5h-137q-12 0 -19.5 8.5t-5.5 20.5zM426 504h289q25 0 44.5 17t24.5 42l90 506 q3 25 -11 42t-38 17h-288z" />
<glyph unicode="&#xff;" horiz-adv-x="950" d="M367 1610q-1 13 3.5 20t9.5 8h5h154q2 0 5.5 -0.5t9 -7.5t5.5 -20l72 -723l325 723q5 13 13.5 20t14.5 8h5h154h2t4 -1.5t4 -4t0.5 -8.5t-4.5 -14l-487 -1098l-87 -483q-2 -12 -11 -20.5t-21 -8.5h-135q-12 0 -19.5 8.5t-5.5 20.5l86 483zM481 1833q7 44 46.5 76.5 t84.5 32.5q44 0 70 -32.5t18 -76.5q-8 -45 -45.5 -78t-81.5 -33t-72 33.5t-20 77.5zM895 1833q7 44 46.5 76.5t84.5 32.5q44 0 70 -32.5t18 -76.5q-8 -45 -45.5 -78t-81.5 -33t-72 33.5t-20 77.5z" />
<glyph unicode="&#x152;" horiz-adv-x="1445" d="M184 240l205 1159q17 99 100.5 169t182.5 70h909q12 0 19 -8t4 -20l-23 -127q-1 -12 -11 -20.5t-22 -8.5h-415l-89 -500h334q12 0 19 -8t4 -20l-23 -125q-2 -12 -11 -20.5t-21 -8.5h-334l-105 -590h428q12 0 19 -8t6 -20l-23 -125q-2 -12 -11 -20.5t-21 -8.5h-922 q-99 0 -157.5 70.5t-41.5 169.5zM379 244q-3 -25 11 -42.5t38 -17.5h225q25 0 46 17.5t24 42.5l203 1142q5 25 -9.5 42.5t-39.5 17.5h-226q-25 0 -44.5 -17.5t-24.5 -42.5z" />
<glyph unicode="&#x153;" horiz-adv-x="1445" d="M184 240l205 1159q17 99 100.5 169t182.5 70h909q12 0 19 -8t4 -20l-23 -127q-1 -12 -11 -20.5t-22 -8.5h-415l-89 -500h334q12 0 19 -8t4 -20l-23 -125q-2 -12 -11 -20.5t-21 -8.5h-334l-105 -590h428q12 0 19 -8t6 -20l-23 -125q-2 -12 -11 -20.5t-21 -8.5h-922 q-99 0 -157.5 70.5t-41.5 169.5zM379 244q-3 -25 11 -42.5t38 -17.5h225q25 0 46 17.5t24 42.5l203 1142q5 25 -9.5 42.5t-39.5 17.5h-226q-25 0 -44.5 -17.5t-24.5 -42.5z" />
<glyph unicode="&#x178;" horiz-adv-x="950" d="M367 1610q-1 13 3.5 20t9.5 8h5h154q2 0 5.5 -0.5t9 -7.5t5.5 -20l72 -723l325 723q5 13 13.5 20t14.5 8h5h154h2t4 -1.5t4 -4t0.5 -8.5t-4.5 -14l-487 -1098l-87 -483q-2 -12 -11 -20.5t-21 -8.5h-135q-12 0 -19.5 8.5t-5.5 20.5l86 483zM481 1833q7 44 46.5 76.5 t84.5 32.5q44 0 70 -32.5t18 -76.5q-8 -45 -45.5 -78t-81.5 -33t-72 33.5t-20 77.5zM895 1833q7 44 46.5 76.5t84.5 32.5q44 0 70 -32.5t18 -76.5q-8 -45 -45.5 -78t-81.5 -33t-72 33.5t-20 77.5z" />
<glyph unicode="&#x2c6;" horiz-adv-x="616" d="M453 1736q-6 7 4 25l108 174q8 13 17.5 20t15.5 8l6 1h101q2 0 5.5 -1t10.5 -8t10 -20l47 -174q3 -14 0.5 -20t-7.5 -7l-5 -1h-82l-55 102l-88 -102h-80z" />
<glyph unicode="&#x2dc;" horiz-adv-x="735" d="M453 1736q-6 7 4 25l129 174q8 13 18 20t16 8l5 1h49q21 0 33 -29l32 -67l107 96h80q2 0 4.5 -1t5 -7.5t-7.5 -20.5l-129 -174q-7 -13 -16.5 -20t-14.5 -7l-6 -1h-62l-55 102l-104 -102h-80z" />
<glyph unicode="&#x2000;" horiz-adv-x="982" />
<glyph unicode="&#x2001;" horiz-adv-x="1964" />
<glyph unicode="&#x2002;" horiz-adv-x="982" />
<glyph unicode="&#x2003;" horiz-adv-x="1964" />
<glyph unicode="&#x2004;" horiz-adv-x="654" />
<glyph unicode="&#x2005;" horiz-adv-x="491" />
<glyph unicode="&#x2006;" horiz-adv-x="327" />
<glyph unicode="&#x2007;" horiz-adv-x="327" />
<glyph unicode="&#x2008;" horiz-adv-x="245" />
<glyph unicode="&#x2009;" horiz-adv-x="392" />
<glyph unicode="&#x200a;" horiz-adv-x="109" />
<glyph unicode="&#x2010;" horiz-adv-x="978" d="M272 735l23 125q1 12 11 20.5t22 8.5h635q12 0 19 -8.5t5 -20.5l-22 -125q-3 -12 -13 -20t-22 -8h-635q-12 0 -19 8t-4 20z" />
<glyph unicode="&#x2011;" horiz-adv-x="978" d="M272 735l23 125q1 12 11 20.5t22 8.5h635q12 0 19 -8.5t5 -20.5l-22 -125q-3 -12 -13 -20t-22 -8h-635q-12 0 -19 8t-4 20z" />
<glyph unicode="&#x2012;" horiz-adv-x="978" d="M272 735l23 125q1 12 11 20.5t22 8.5h635q12 0 19 -8.5t5 -20.5l-22 -125q-3 -12 -13 -20t-22 -8h-635q-12 0 -19 8t-4 20z" />
<glyph unicode="&#x2013;" horiz-adv-x="1081" d="M272 735l23 125q1 12 11 20.5t22 8.5h737q12 0 19.5 -8.5t5.5 -20.5l-23 -125q-3 -12 -13 -20t-22 -8h-737q-12 0 -19 8t-4 20z" />
<glyph unicode="&#x2014;" horiz-adv-x="1183" d="M272 735l23 125q1 12 11 20.5t22 8.5h839q12 0 19.5 -8.5t5.5 -20.5l-23 -125q-7 -28 -34 -28h-840q-12 0 -19 8t-4 20z" />
<glyph unicode="&#x2018;" horiz-adv-x="307" d="M285 1331l37 209q9 53 52 90t95 37h31q12 0 19 -8.5t5 -20.5l-55 -307q-1 -12 -11 -20t-22 -8h-127q-12 0 -19 8t-5 20z" />
<glyph unicode="&#x2019;" horiz-adv-x="307" d="M305 1331l55 307q1 12 11 20.5t22 8.5h127q12 0 19.5 -8.5t5.5 -20.5l-37 -208q-9 -53 -52.5 -90t-95.5 -37h-30q-12 0 -19 8t-6 20z" />
<glyph unicode="&#x201a;" horiz-adv-x="327" d="M53 -98l53 307q3 12 13 20.5t22 8.5h127q12 0 19 -8.5t4 -20.5l-35 -209q-9 -53 -52 -90t-95 -37h-31q-12 0 -19.5 8.5t-5.5 20.5z" />
<glyph unicode="&#x201c;" horiz-adv-x="532" d="M285 1331l37 209q9 53 52 90t95 37h31q12 0 19 -8.5t5 -20.5l-55 -307q-1 -12 -11 -20t-22 -8h-127q-12 0 -19 8t-5 20zM510 1331l37 209q9 53 52 90t95 37h31q12 0 19.5 -8.5t5.5 -20.5l-56 -307q-1 -12 -10.5 -20t-21.5 -8h-127q-12 0 -19 8t-6 20z" />
<glyph unicode="&#x201d;" horiz-adv-x="532" d="M305 1331l55 307q1 12 11 20.5t22 8.5h127q12 0 19.5 -8.5t5.5 -20.5l-37 -208q-9 -53 -52.5 -90t-95.5 -37h-30q-12 0 -19 8t-6 20zM530 1331l56 307q2 12 11 20.5t21 8.5h127q12 0 19.5 -8.5t5.5 -20.5l-37 -208q-9 -53 -52 -90t-95 -37h-31q-12 0 -19 8t-6 20z" />
<glyph unicode="&#x201e;" horiz-adv-x="532" d="M53 -98l53 307q3 12 13 20.5t22 8.5h127q12 0 19 -8.5t4 -20.5l-35 -209q-9 -53 -52 -90t-95 -37h-31q-12 0 -19.5 8.5t-5.5 20.5zM279 -98l53 307q3 12 13 20.5t22 8.5h127q12 0 18.5 -8.5t3.5 -20.5l-35 -209q-9 -53 -52 -90t-95 -37h-31q-12 0 -19 8.5t-5 20.5z" />
<glyph unicode="&#x2022;" horiz-adv-x="507" d="M276 756l21 118q5 25 25 42.5t45 17.5h102q25 0 39.5 -17.5t9.5 -42.5l-20 -118q-4 -25 -25.5 -42.5t-46.5 -17.5h-102q-25 0 -39 17.5t-9 42.5z" />
<glyph unicode="&#x2026;" horiz-adv-x="1013" d="M76 29l26 147q1 12 11 20.5t22 8.5h141q12 0 19.5 -8.5t5.5 -20.5l-27 -147q-2 -12 -11 -20.5t-21 -8.5h-142q-12 0 -19 8.5t-5 20.5zM412 29l26 147q1 12 11 20.5t22 8.5h141q12 0 19.5 -8.5t5.5 -20.5l-27 -147q-2 -12 -11 -20.5t-21 -8.5h-142q-12 0 -19 8.5t-5 20.5z M748 29l26 147q1 12 11 20.5t22 8.5h141q12 0 19.5 -8.5t5.5 -20.5l-27 -147q-1 -12 -11 -20.5t-22 -8.5h-141q-12 0 -19 8.5t-5 20.5z" />
<glyph unicode="&#x202f;" horiz-adv-x="392" />
<glyph unicode="&#x2039;" horiz-adv-x="526" d="M217 772q-14 30 10 57l211 283q10 13 21 20t17 8l5 1h162l7 -3q6 -7 -9 -26l-229 -311l120 -312q3 -8 3 -14t-2 -8.5t-4.5 -4t-4.5 -1.5h-2h-162q-20 -1 -30 28z" />
<glyph unicode="&#x203a;" horiz-adv-x="526" d="M157 463q-6 7 9 26l227 312l-119 311q-4 14 -1.5 20.5t7.5 7.5l5 1h161q21 0 31 -29l113 -283q14 -30 -10 -57l-211 -283q-10 -13 -21 -20t-16 -7l-6 -1h-162z" />
<glyph unicode="&#x205f;" horiz-adv-x="491" />
<glyph unicode="&#x20ac;" horiz-adv-x="989" d="M147 612l23 125q1 12 11 20.5t22 8.5h73l19 104h-74q-12 0 -18.5 8.5t-3.5 20.5l22 125q1 12 11 20.5t22 8.5h74l63 356q17 99 99.5 169.5t181.5 70.5h243q99 0 157.5 -70.5t41.5 -169.5l-10 -59q-3 -12 -13 -20.5t-22 -8.5h-137q-12 0 -19 8.5t-4 20.5l11 57 q3 25 -11 42t-39 17h-215q-25 0 -45.5 -17.5t-23.5 -41.5l-64 -354h367q12 0 19 -8.5t5 -20.5l-22 -125q-3 -12 -13 -20.5t-22 -8.5h-367l-18 -104h367q12 0 19 -8.5t5 -20.5l-22 -125q-1 -12 -11 -20t-22 -8h-367l-63 -361q-4 -25 10 -42t39 -17h225q25 0 45.5 17t24.5 42 l12 76q3 12 13 20.5t22 8.5h137q12 0 19 -8.5t4 -20.5l-13 -70q-17 -99 -99 -169t-181 -70h-254q-99 0 -157.5 70t-41.5 169l64 355h-74q-12 0 -19 8t-6 20z" />
<glyph unicode="&#x2122;" horiz-adv-x="1343" d="M416 1548l10 62q3 12 13 20t22 8h346q12 0 18.5 -8t3.5 -20l-10 -62q-3 -12 -13 -20t-22 -8h-110l-127 -727q-3 -12 -13 -20.5t-22 -8.5h-70q-12 0 -18.5 8.5t-3.5 20.5l127 727h-109q-12 0 -18.5 8t-3.5 20zM786 793l138 780l6 37q3 12 13 20t22 8h69q2 0 6 -0.5 t10.5 -7.5t8.5 -20l76 -404l217 404q7 13 16.5 20t15.5 8h5h71q12 0 19 -8t4 -20l-6 -37l-138 -780q-3 -12 -12.5 -20.5t-21.5 -8.5h-70q-12 0 -19 8.5t-4 20.5l82 469l-223 -420l-78 420l-82 -469q-3 -12 -12.5 -20.5t-21.5 -8.5h-68q-12 0 -19 8.5t-4 20.5z" />
<glyph unicode="&#x25fc;" horiz-adv-x="1638" d="M0 0v1638h1638v-1638h-1638z" />
<glyph unicode="&#xfb01;" horiz-adv-x="1263" d="M147 29l279 1581q3 12 13 20t22 8h878q12 0 19 -8t4 -20l-23 -127q-2 -12 -11 -20.5t-21 -8.5h-713l-88 -500h375q12 0 18.5 -8t3.5 -20l-22 -125q-1 -12 -11 -20.5t-22 -8.5h-375l-131 -743q-1 -12 -11 -20.5t-22 -8.5h-137q-12 0 -19.5 8.5t-5.5 20.5zM889 29l215 1214 q1 12 11 20.5t22 8.5h137q12 0 19 -8.5t5 -20.5l-215 -1214q-2 -12 -11 -20.5t-21 -8.5h-138q-12 0 -19 8.5t-5 20.5z" />
<glyph unicode="&#xfb02;" horiz-adv-x="1423" d="M147 29l279 1581q3 12 13 20t22 8h817q12 0 18.5 -8t3.5 -20l-22 -127q-1 -12 -11 -20.5t-22 -8.5h-651l-88 -500h272q12 0 19 -8t4 -20l-23 -125q-1 -12 -11 -20.5t-22 -8.5h-272l-131 -743q-1 -12 -11 -20.5t-22 -8.5h-137q-12 0 -19.5 8.5t-5.5 20.5zM786 29l215 1214 q1 12 11 20.5t22 8.5h137q12 0 19.5 -8.5t5.5 -20.5l-188 -1061h325q12 0 19 -8t6 -20l-23 -125q-2 -12 -11 -20.5t-21 -8.5h-492q-12 0 -19.5 8.5t-5.5 20.5z" />
<glyph horiz-adv-x="1497" d="M182 229l209 1180q17 99 99.5 169.5t181.5 70.5h254q99 0 157 -70.5t41 -169.5l-20 -111q-1 -12 -11 -20t-22 -8h-137q-12 0 -19 8t-6 20l21 109q3 25 -11 42t-38 17h-226q-25 0 -45.5 -17.5t-23.5 -41.5l-209 -1184q-4 -25 10 -42t39 -17h225q25 0 45.5 17t24.5 42 l39 219q1 12 11 20.5t22 8.5h137q12 0 19 -8.5t5 -20.5l-39 -213q-17 -99 -99 -169t-181 -70h-254q-99 0 -157.5 70t-41.5 169zM799 664l71 413q3 12 13 20.5t22 8.5h137q12 0 19 -8.5t4 -20.5l-21 -123h283l115 656q3 12 13 20t22 8h137q12 0 18.5 -8t3.5 -20l-278 -1581 q-1 -12 -11 -20.5t-22 -8.5h-137q-12 0 -19.5 8.5t-5.5 20.5l131 743h-282l-19 -108q-3 -12 -13 -20.5t-22 -8.5h-137q-12 0 -18.5 8.5t-3.5 20.5z" />
<glyph horiz-adv-x="1275" d="M147 29l279 1581q3 12 13 20t22 8h137q12 0 19 -8t4 -20l-252 -1428h766q12 0 19 -8t5 -20l-22 -125q-1 -12 -11 -20.5t-22 -8.5h-932q-12 0 -19.5 8.5t-5.5 20.5zM592 395l213 1215q3 12 13 20t22 8h137q12 0 18.5 -8t3.5 -20l-186 -1061h387q12 0 19 -8.5t4 -20.5 l-21 -125q-3 -12 -13 -20t-22 -8h-553q-12 0 -18.5 8t-3.5 20z" />
<glyph horiz-adv-x="1441" d="M182 229l209 1180q17 99 99.5 169.5t181.5 70.5h254q99 0 157 -70.5t41 -169.5l-20 -111q-1 -12 -11 -20t-22 -8h-137q-12 0 -19 8t-6 20l21 109q3 25 -11 42t-38 17h-226q-25 0 -45.5 -17.5t-23.5 -41.5l-209 -1184q-4 -25 10 -42t39 -17h225q25 0 45.5 17t24.5 42 l39 219q1 12 11 20.5t22 8.5h137q12 0 19 -8.5t5 -20.5l-39 -213q-17 -99 -99 -169t-181 -70h-254q-99 0 -157.5 70t-41.5 169zM795 643l79 455q1 12 11 20t22 8h137q12 0 19 -8t6 -20l-29 -164l394 676q8 13 17 20t14 8h5h154l9 -3q6 -7 -5 -25l-395 -680l117 -901 q2 -13 -2.5 -20t-9.5 -8l-5 -1h-153q-2 0 -6 1t-10.5 8t-8.5 20l-117 895l-49 -281q-3 -12 -13 -20.5t-22 -8.5h-137q-12 0 -18.5 8.5t-3.5 20.5z" />
<glyph horiz-adv-x="2164" d="M147 29l279 1581q3 12 13 20t22 8h129q3 0 7 -0.5t11.5 -7.5t9.5 -20l189 -785l463 785q7 13 17.5 20t16.5 8h7h121q3 0 7 -0.5t11.5 -7.5t9.5 -20l189 -785l462 785q7 13 17.5 20t17.5 8h6h129q12 0 19 -8t4 -20l-279 -1581q-2 -12 -11 -20.5t-21 -8.5h-138 q-12 0 -19 8.5t-5 20.5l184 1048l-452 -729l-195 729l-184 -1048q-1 -12 -11 -20.5t-22 -8.5h-137q-12 0 -19.5 8.5t-5.5 20.5l185 1048l-453 -729l-195 729l-184 -1048q-1 -12 -11 -20.5t-22 -8.5h-137q-12 0 -19.5 8.5t-5.5 20.5z" />
<glyph horiz-adv-x="1507" d="M127 29l27 153l727 1274h-473q-12 0 -19.5 8.5t-5.5 20.5l23 125q7 28 34 28h635q12 0 19 -8t4 -20l-27 -154l-723 -1274h223q12 0 19 -8t6 -20l-23 -125q-2 -12 -11 -20.5t-21 -8.5h-389q-12 0 -19.5 8.5t-5.5 20.5zM696 29l27 153l727 1274h-207q-12 0 -19 8.5t-5 20.5 l22 125q3 12 13 20t22 8h369q12 0 18.5 -8t3.5 -20l-27 -154l-722 -1274h468q12 0 19 -8t6 -20l-22 -125q-1 -12 -11 -20.5t-22 -8.5h-635q-12 0 -19.5 8.5t-5.5 20.5z" />
<glyph horiz-adv-x="1398" d="M147 29l279 1581q3 12 13 20t22 8h137q12 0 19 -8t4 -20l-252 -1428h888q12 0 19 -8t6 -20l-22 -125q-1 -12 -11 -20.5t-22 -8.5h-1055q-12 0 -19.5 8.5t-5.5 20.5zM623 580l147 829q17 99 99.5 169.5t181.5 70.5h254q99 0 157 -70.5t41 -169.5l-147 -829 q-17 -99 -99.5 -169.5t-181.5 -70.5h-254q-99 0 -157 70.5t-41 169.5zM817 573q-4 -25 10 -42t39 -17h226q25 0 44.5 17t24.5 42l148 834q3 25 -11 42t-38 17h-226q-25 0 -45.5 -17.5t-23.5 -41.5z" />
<glyph horiz-adv-x="1323" d="M184 29l201 1581q3 12 13 20t22 8h131q12 0 18.5 -8t3.5 -20l-151 -1272l385 493l223 -493l285 1272q3 12 13 20t22 8h131q12 0 18.5 -8t3.5 -20l-356 -1581q-1 -12 -11 -20.5t-22 -8.5h-133q-21 2 -31 29l-207 440l-362 -440q-8 -12 -17.5 -19t-15.5 -8l-6 -2h-133 q-12 0 -19.5 8.5t-5.5 20.5z" />
<glyph horiz-adv-x="1015" d="M182 229l209 1180q17 99 99.5 169.5t181.5 70.5h254q99 0 157 -70.5t41 -169.5l-209 -1180q-15 -84 -75 -147l28 -197q1 -13 -2 -20t-6 -7l-4 -1h-137q-3 0 -7.5 0.5t-12.5 7.5t-9 20l-18 105h-291q-99 0 -157.5 70t-41.5 169zM377 223q-4 -25 10 -42t39 -17h225 q25 0 45.5 17t24.5 42l209 1184q3 25 -11 42t-38 17h-226q-25 0 -45.5 -17.5t-23.5 -41.5z" />
<glyph horiz-adv-x="937" d="M127 29l27 153l299 525h-138q-12 0 -18.5 8t-3.5 20l22 125q1 12 11 20.5t22 8.5h209l324 567h-473q-12 0 -19.5 8.5t-5.5 20.5l23 125q7 28 34 28h635q12 0 19 -8t4 -20l-27 -154l-321 -567h151q12 0 19.5 -8.5t5.5 -20.5l-23 -125q-3 -12 -13 -20t-22 -8h-223 l-297 -525h469q12 0 19 -8t6 -20l-23 -125q-1 -12 -11 -20.5t-22 -8.5h-634q-12 0 -19.5 8.5t-5.5 20.5z" />
<glyph horiz-adv-x="653" d="M86 29l20 116q1 12 11 20.5t22 8.5h125q25 0 46.5 17t25.5 42l242 1377q7 28 34 28h138q12 0 18.5 -8t3.5 -20l-242 -1370q-17 -100 -99.5 -170t-180.5 -70h-139q-12 0 -19.5 8.5t-5.5 20.5z" />
<glyph horiz-adv-x="1509" d="M126.5 8.5q-4.5 6.5 2.5 20.5l281 665q-61 28 -92 88.5t-19 135.5l86 481q17 99 100.5 169t182.5 70h792q99 0 156.5 -70t40.5 -169l-86 -481q-12 -74 -64.5 -134.5t-124.5 -89.5l48 -665q2 -13 -3 -20t-11 -8l-5 -1h-154q-2 0 -6 1t-10.5 8t-7.5 20l-45 649h-197 l-114 -649q-1 -12 -11 -20.5t-22 -8.5h-137q-12 0 -19.5 8.5t-5.5 20.5l115 649h-197l-274 -649q-4 -13 -12.5 -20t-14.5 -8l-6 -1h-154q-2 0 -5 1t-7.5 7.5zM494 911q-4 -25 10 -42t39 -17h284l107 604h-285q-25 0 -44.5 -17t-24.5 -42zM1022 852h285q25 0 44.5 17t24.5 42 l86 486q4 25 -10 42t-39 17h-285z" />
<glyph horiz-adv-x="1558" d="M147 29l279 1581q3 12 13 20t22 8h135q3 0 6.5 -0.5t10.5 -7.5t8 -20l188 -1004l176 1004q3 12 13 20t22 8h135q3 0 6.5 -0.5t10.5 -7.5t8 -20l188 -1004l176 1004q3 12 13 20t22 8h137q12 0 19 -8t4 -20l-279 -1581q-1 -12 -11 -20.5t-22 -8.5h-124q-3 0 -6.5 1t-11 8 t-9.5 20l-199 999l-176 -999q-1 -12 -11 -20.5t-22 -8.5h-125q-2 0 -6 1t-11 8t-9 20l-199 999l-176 -999q-1 -12 -11 -20.5t-22 -8.5h-137q-12 0 -19.5 8.5t-5.5 20.5z" />
<glyph horiz-adv-x="1327" d="M147 29l279 1581q3 12 13 20t22 8h137q12 0 19 -8t4 -20l-252 -1428h848q12 0 19 -8t5 -20l-22 -125q-1 -12 -11 -20.5t-22 -8.5h-1014q-12 0 -19.5 8.5t-5.5 20.5zM586 369l219 1241q3 12 13 20t22 8h622q12 0 19 -8t4 -20l-23 -127q-2 -12 -11 -20.5t-21 -8.5h-457 l-66 -364h375q12 0 19.5 -8.5t5.5 -20.5l-23 -125q-1 -12 -11 -20.5t-22 -8.5h-374l-70 -385h469q12 0 19 -8t5 -20l-22 -125q-1 -12 -11 -20.5t-22 -8.5h-635q-12 0 -19 8.5t-5 20.5z" />
<glyph horiz-adv-x="1646" d="M373 1485l22 125q3 12 13 20t22 8h1333q12 0 19 -8t4 -20l-23 -125q-2 -12 -11 -20.5t-21 -8.5h-889l-252 -1427q-1 -12 -11 -20.5t-22 -8.5h-137q-12 0 -19.5 8.5t-5.5 20.5l252 1427h-250q-12 0 -19 8.5t-5 20.5zM754 29l215 1214q2 12 11 20.5t21 8.5h138 q12 0 19 -8.5t5 -20.5l-84 -473h365l84 473q1 12 11 20.5t22 8.5h137q12 0 19 -8.5t5 -20.5l-215 -1214q-2 -12 -11 -20.5t-21 -8.5h-138q-12 0 -19 8.5t-5 20.5l98 559h-364l-99 -559q-1 -12 -11 -20.5t-22 -8.5h-137q-12 0 -19 8.5t-5 20.5z" />
<glyph horiz-adv-x="2451" d="M373 1485l22 125q3 12 13 20t22 8h2157q12 0 18.5 -8t3.5 -20l-22 -125q-1 -12 -11 -20.5t-22 -8.5h-1712l-252 -1427q-1 -12 -11 -20.5t-22 -8.5h-137q-12 0 -19.5 8.5t-5.5 20.5l252 1427h-250q-12 0 -19 8.5t-5 20.5zM754 29l215 1214q2 12 11 20.5t21 8.5h138 q12 0 19 -8.5t5 -20.5l-84 -473h365l84 473q1 12 11 20.5t22 8.5h137q12 0 19 -8.5t5 -20.5l-215 -1214q-2 -12 -11 -20.5t-21 -8.5h-138q-12 0 -19 8.5t-5 20.5l98 559h-364l-99 -559q-1 -12 -11 -20.5t-22 -8.5h-137q-12 0 -19 8.5t-5 20.5zM1651 29l215 1214 q2 12 11 20.5t21 8.5h623q12 0 19.5 -8.5t5.5 -20.5l-23 -127q-3 -12 -13 -20.5t-22 -8.5h-456l-56 -317h375q12 0 19 -8.5t4 -20.5l-21 -125q-3 -12 -13 -20t-22 -8h-374l-72 -406h469q12 0 19 -8t5 -20l-22 -125q-1 -12 -11 -20.5t-22 -8.5h-635q-12 0 -19 8.5t-5 20.5z " />
<glyph horiz-adv-x="1558" d="M147 29l279 1581q3 12 13 20t22 8h137q12 0 19 -8t4 -20l-115 -656h364l115 656q3 12 13 20t22 8h137q12 0 19 -8t4 -20l-115 -656h365l114 656q3 12 13 20t22 8h137q12 0 19 -8t4 -20l-279 -1581q-1 -12 -11 -20.5t-22 -8.5h-137q-12 0 -19 8.5t-5 20.5l131 743h-365 l-131 -743q-1 -12 -11 -20.5t-22 -8.5h-137q-12 0 -19 8.5t-5 20.5l131 743h-365l-131 -743q-1 -12 -11 -20.5t-22 -8.5h-137q-12 0 -19.5 8.5t-5.5 20.5z" />
<glyph horiz-adv-x="1497" d="M174 240l80 454q18 91 92 162q-13 49 -4 102l78 441q17 99 100 169t182 70h711q99 0 156.5 -70t40.5 -169l-78 -441q-8 -51 -41 -102q53 -69 35 -162l-80 -454q-17 -99 -99.5 -169.5t-181.5 -70.5h-792q-99 0 -157.5 70.5t-41.5 169.5zM369 233q-5 -25 8.5 -42t38.5 -17 h284l103 569h-291q-25 -3 -43.5 -19.5t-22.5 -39.5zM539 969q-4 -23 8 -40t35 -20h249l97 547h-244q-25 0 -45.5 -17t-24.5 -42zM895 174h285q25 0 46 17t25 42l78 451q4 23 -7.5 39.5t-33.5 19.5h-291zM1026 909h250q23 3 40.5 20t22.5 40l76 428q4 25 -10 42t-39 17h-244z " />
<glyph horiz-adv-x="1558" d="M182 229l209 1180q17 99 99.5 169.5t181.5 70.5h254q80 0 133 -47q76 47 151 47h254q99 0 157.5 -70.5t41.5 -169.5l-209 -1180q-17 -99 -99 -169t-181 -70h-254q-83 0 -136 47q-68 -47 -149 -47h-254q-99 0 -157.5 70t-41.5 169zM377 223q-4 -25 10 -42t39 -17h225 q25 0 45.5 17t24.5 42l209 1186v4q2 23 -12 38t-37 15h-226q-25 0 -45.5 -17.5t-23.5 -41.5zM915 223q-4 -25 10.5 -42t39.5 -17h225q25 0 45.5 17t24.5 42l208 1184q3 25 -11 42t-38 17h-225q-23 0 -42.5 -15t-27.5 -38v-4v-2l-209 -1178v-6z" />
<glyph horiz-adv-x="847" d="M451 1751l24 131q1 12 11 20.5t22 8.5h127q12 0 19 -8.5t5 -20.5l-24 -131q-1 -12 -11 -20.5t-22 -8.5h-127q-12 0 -19 8.5t-5 20.5zM827 1751l25 131q1 12 11 20.5t22 8.5h127q12 0 19 -8.5t5 -20.5l-24 -131q-1 -12 -11 -20.5t-22 -8.5h-127q-12 0 -19.5 8.5t-5.5 20.5 z" />
<glyph d="M108.5 8.5q-4.5 6.5 0.5 20.5l550 1581q4 13 13.5 20t16.5 8h7h189q3 0 7 -0.5t11 -7.5t6 -20l-6 -1581q0 -13 -5 -20t-10 -8l-5 -1h-154q-2 0 -5.5 1t-9 8t-5.5 20l6 239h-332l-80 -239q-4 -13 -11 -20t-12 -8l-6 -1h-153q-2 0 -5 1t-7.5 7.5zM440 451h279l18 892z M528 1751l25 131q1 12 11 20.5t22 8.5h127q12 0 19 -8.5t5 -20.5l-24 -131q-1 -12 -11 -20.5t-22 -8.5h-127q-12 0 -19.5 8.5t-5.5 20.5zM905 1751l25 131q1 12 11 20.5t22 8.5h127q12 0 19 -8.5t5 -20.5l-24 -131q-1 -12 -11 -20.5t-22 -8.5h-127q-12 0 -19.5 8.5 t-5.5 20.5z" />
<glyph horiz-adv-x="948" d="M147 29l279 1581q3 12 13 20t22 8h622q12 0 19 -8t4 -20l-23 -127q-2 -12 -11 -20.5t-21 -8.5h-457l-88 -500h375q12 0 18.5 -8t3.5 -20l-22 -125q-1 -12 -11 -20.5t-22 -8.5h-375l-104 -590h469q12 0 19 -8t5 -20l-22 -125q-1 -12 -11 -20.5t-22 -8.5h-635 q-12 0 -19.5 8.5t-5.5 20.5zM500 1751l24 131q1 12 11 20.5t22 8.5h127q12 0 19.5 -8.5t5.5 -20.5l-25 -131q-1 -12 -11 -20.5t-22 -8.5h-127q-12 0 -19 8.5t-5 20.5zM877 1751l24 131q1 12 11 20.5t22 8.5h127q12 0 19 -8.5t5 -20.5l-24 -131q-1 -12 -11 -20.5t-22 -8.5 h-127q-12 0 -19 8.5t-5 20.5z" />
<glyph horiz-adv-x="1028" d="M182 229l209 1180q17 99 99.5 169.5t181.5 70.5h262q99 0 157.5 -70.5t41.5 -169.5l-209 -1180q-17 -99 -99.5 -169t-181.5 -70h-262q-99 0 -157.5 70t-41.5 169zM377 223q-4 -25 10 -42t39 -17h233q25 0 45.5 17t24.5 42l209 1184q3 25 -11 42t-38 17h-234 q-25 0 -45.5 -17.5t-23.5 -41.5zM539 1751l24 131q1 12 11 20.5t22 8.5h127q12 0 19.5 -8.5t5.5 -20.5l-25 -131q-1 -12 -11 -20.5t-22 -8.5h-127q-12 0 -19 8.5t-5 20.5zM915 1751l25 131q1 12 11 20.5t22 8.5h127q12 0 19 -8.5t5 -20.5l-24 -131q-1 -12 -11 -20.5 t-22 -8.5h-127q-12 0 -19.5 8.5t-5.5 20.5z" />
<glyph horiz-adv-x="1024" d="M182 229l244 1381q3 12 13 20t22 8h137q12 0 19 -8t4 -20l-244 -1387q-4 -25 10 -42t39 -17h229q25 0 45.5 17t24.5 42l244 1387q3 12 13 20t22 8h137q12 0 18.5 -8t3.5 -20l-243 -1381q-17 -99 -99.5 -169t-181.5 -70h-258q-99 0 -157.5 70t-41.5 169zM537 1751l24 131 q1 12 11 20.5t22 8.5h127q12 0 19 -8.5t5 -20.5l-24 -131q-1 -12 -11 -20.5t-22 -8.5h-127q-12 0 -19 8.5t-5 20.5zM913 1751l25 131q1 12 11 20.5t22 8.5h127q12 0 19 -8.5t5 -20.5l-24 -131q-1 -12 -11 -20.5t-22 -8.5h-127q-12 0 -19.5 8.5t-5.5 20.5z" />
<glyph horiz-adv-x="520" d="M168 29l278 1581q3 12 13 20t22 8h137q12 0 19 -8t4 -20l-279 -1581q-2 -12 -11 -20.5t-21 -8.5h-137q-12 0 -19.5 8.5t-5.5 20.5zM287 1751l24 131q1 12 11 20.5t22 8.5h127q12 0 19.5 -8.5t5.5 -20.5l-25 -131q-1 -12 -11 -20.5t-22 -8.5h-127q-12 0 -19 8.5t-5 20.5z M664 1751l24 131q1 12 11 20.5t22 8.5h127q12 0 19 -8.5t5 -20.5l-24 -131q-1 -12 -11 -20.5t-22 -8.5h-127q-12 0 -19 8.5t-5 20.5z" />
<glyph horiz-adv-x="950" d="M367 1610q-1 13 3.5 20t9.5 8h5h154q2 0 5.5 -0.5t9 -7.5t5.5 -20l72 -723l325 723q5 13 13.5 20t14.5 8h5h154h2t4 -1.5t4 -4t0.5 -8.5t-4.5 -14l-487 -1098l-87 -483q-2 -12 -11 -20.5t-21 -8.5h-135q-12 0 -19.5 8.5t-5.5 20.5l86 483zM502 1751l24 131q1 12 11 20.5 t22 8.5h127q12 0 19.5 -8.5t5.5 -20.5l-25 -131q-1 -12 -11 -20.5t-22 -8.5h-127q-12 0 -19 8.5t-5 20.5zM879 1751l24 131q1 12 11 20.5t22 8.5h127q12 0 19 -8.5t5 -20.5l-24 -131q-1 -12 -11 -20.5t-22 -8.5h-127q-12 0 -19 8.5t-5 20.5z" />
</font>
</defs>
</svg>
