<?xml version="1.0" standalone="no"?>
<!DOCTYPE svg PUBLIC "-//W3C//DTD SVG 1.1//EN" "http://www.w3.org/Graphics/SVG/1.1/DTD/svg11.dtd" >
<svg xmlns="http://www.w3.org/2000/svg">
<metadata></metadata>
<defs>
<font id="clarkeblack_-_oblique" horiz-adv-x="921" >
<font-face units-per-em="2048" ascent="1536" descent="-512" />
<missing-glyph horiz-adv-x="716" />
<glyph horiz-adv-x="0" />
<glyph horiz-adv-x="682" />
<glyph unicode=" "  horiz-adv-x="716" />
<glyph unicode="&#x09;" horiz-adv-x="716" />
<glyph unicode="&#xa0;" horiz-adv-x="716" />
<glyph unicode="!" horiz-adv-x="481" d="M106 29l41 233q1 12 12 20.5t23 8.5h219q12 0 18.5 -8.5t4.5 -20.5l-41 -233q-1 -12 -11 -20.5t-22 -8.5h-219q-12 0 -19.5 8.5t-5.5 20.5zM174 418l211 1192q3 12 13 20t22 8h219q12 0 19 -8t4 -20l-211 -1192q-1 -12 -11 -20.5t-22 -8.5h-219q-12 0 -19.5 8.5 t-5.5 20.5z" />
<glyph unicode="&#x22;" horiz-adv-x="593" d="M262 1438l37 200q1 12 11 20.5t22 8.5h209q12 0 19 -8.5t5 -20.5l-37 -200q-9 -56 -54.5 -95.5t-100.5 -39.5t-87.5 39.5t-23.5 95.5zM569 1438l37 200q1 12 11 20.5t22 8.5h209q12 0 19 -8.5t5 -20.5l-36 -200q-9 -56 -55 -95.5t-101 -39.5t-87.5 39.5t-23.5 95.5z" />
<glyph unicode="#" horiz-adv-x="1396" d="M174 469l37 207q1 12 11 20.5t22 8.5h172l94 186h-135q-12 0 -19 8.5t-4 20.5l35 206q3 12 13 20.5t22 8.5h194l129 279h267l-131 -279h206l130 279h266l-131 -279h127q12 0 18.5 -8.5t3.5 -20.5l-35 -206q-3 -12 -12.5 -20.5t-21.5 -8.5h-189l-94 -186h137 q12 0 19.5 -8.5t5.5 -20.5l-37 -207q-3 -12 -13 -20.5t-22 -8.5h-197l-110 -235h-260l108 235h-209l-110 -235h-260l108 235h-112q-12 0 -19 8.5t-4 20.5zM678 705h209l94 186h-209z" />
<glyph unicode="$" horiz-adv-x="876" d="M111 229l45 254q3 12 12.5 20.5t21.5 8.5h220q12 0 18.5 -8.5t3.5 -20.5l-31 -178q-4 -25 10.5 -42t39.5 -17h61q25 0 45.5 17t24.5 42l61 354q5 25 -9.5 42.5t-39.5 17.5h-158q-98 0 -155.5 69.5t-40.5 169.5l79 451q17 99 99.5 169.5t181.5 70.5h25l16 84q1 12 11 20 t22 8h137q12 0 19 -8t6 -20l-17 -84h25q99 0 157 -70.5t41 -169.5l-26 -152q-3 -12 -13 -20t-22 -8h-219q-12 0 -19 8t-4 20l13 68q3 25 -11 42t-39 17h-51q-25 0 -45.5 -17.5t-23.5 -41.5l-52 -291q-5 -25 9 -42t39 -17h157q99 0 157.5 -70.5t41.5 -169.5l-90 -506 q-17 -99 -99.5 -169t-181.5 -70h-35l-14 -78q-1 -12 -12 -20.5t-23 -8.5h-137q-12 0 -18.5 8.5t-4.5 20.5l15 78h-25q-99 0 -157 70t-41 169z" />
<glyph unicode="%" horiz-adv-x="1880" d="M276 997l74 412q17 99 99.5 169.5t181.5 70.5h192q99 0 157.5 -70.5t41.5 -169.5l-74 -412q-17 -99 -99 -169t-181 -70h-193q-99 0 -157.5 70t-41.5 169zM547 1073q-4 -25 10 -42t39 -17h41q25 0 45.5 17t24.5 42l45 252q3 25 -11 42t-39 17h-40q-25 0 -46 -17.5 t-24 -41.5zM581 8.5q-2 6.5 5 20.5l712 1581q6 13 16.5 20t17.5 8h7h246l5 -2q4 -7 -5 -26l-719 -1581q-5 -13 -15 -20t-17 -8l-7 -1h-239q-2 0 -3.5 1t-3.5 7.5zM1145 229l74 412q17 100 99.5 170t180.5 70h193q99 0 157 -70.5t41 -169.5l-73 -412q-17 -99 -99.5 -169 t-181.5 -70h-193q-99 0 -157 70t-41 169zM1415 305q-4 -25 10 -42t39 -17h41q25 0 45.5 17t24.5 42l43 252q5 25 -8.5 42t-38.5 17h-41q-25 0 -46.5 -17t-25.5 -42z" />
<glyph unicode="&#x26;" horiz-adv-x="1024" d="M92 240l39 215q12 71 83.5 170t191.5 233q-96 317 -82 402l26 149q17 99 99.5 169.5t181.5 70.5h209q99 0 157 -70.5t41 -169.5l-24 -135q-8 -48 -59.5 -128t-103 -144t-144.5 -175l53 -170l43 62q2 2 5.5 6.5t5.5 7t5.5 6t6.5 5t6.5 3t7.5 1.5h219q12 0 16.5 -9 t-4.5 -20l-225 -320l129 -370q3 -11 -4 -20t-19 -9h-221q-16 0 -33 29q-16 38 -41 104l-92 -133h-274q-99 0 -157.5 70.5t-41.5 169.5zM381 305q-4 -25 10 -42t39 -17h35l100 139l-67 188q-93 -131 -103 -184zM604 1278q-8 -36 25 -172q101 123 108 168q0 1 3.5 18.5 t7.5 40.5q4 25 -10.5 42.5t-39.5 17.5h-16q-25 0 -45 -17.5t-25 -42.5z" />
<glyph unicode="'" horiz-adv-x="286" d="M262 1438l37 200q1 12 11 20.5t22 8.5h209q12 0 19 -8.5t5 -20.5l-37 -200q-9 -56 -54.5 -95.5t-100.5 -39.5t-87.5 39.5t-23.5 95.5z" />
<glyph unicode="(" horiz-adv-x="573" d="M94 -37l299 1692q17 99 100.5 169t182.5 70h151q12 0 19 -8t4 -20l-43 -248q-3 -12 -13 -20.5t-22 -8.5h-55q-25 0 -45.5 -17t-24.5 -42l-258 -1471q-4 -25 10 -42t39 -17h56q12 0 18 -8.5t4 -20.5l-39 -219q-1 -12 -11 -20t-22 -8h-151q-99 0 -157.5 70t-41.5 169z" />
<glyph unicode=")" horiz-adv-x="573" d="M6 -248l39 219q1 12 12 20.5t23 8.5h55q25 0 45.5 17t24.5 42l258 1471q4 25 -10 42t-39 17h-56q-12 0 -18.5 8.5t-3.5 20.5l43 248q3 12 13 20t22 8h151q99 0 156.5 -70t40.5 -169l-299 -1692q-17 -99 -99.5 -169t-181.5 -70h-151q-12 0 -19 8t-6 20z" />
<glyph unicode="*" horiz-adv-x="634" d="M332.5 1408q-3.5 12 3.5 22l33 77q16 32 39 21l104 -51q22 -16 12 -37l-16 -37q-10 -21 -39 -21l-119 13q-14 1 -17.5 13zM369 1264l96 94q24 21 41 10l31 -20q17 -12 2 -39l-64 -115q-6 -13 -18.5 -15t-22.5 5l-61 41q-24 16 -4 39zM532 1489v121q0 14 10.5 21t24.5 7 h80q14 0 21.5 -7t1.5 -21l-41 -121q-13 -29 -35 -29h-39q-23 0 -23 29zM555 1311q-3 28 18 39l37 18q24 12 37 -10l60 -96q15 -20 -17 -39l-78 -39q-10 -7 -22 -5t-15 15zM616 1440q0 20 27 35l121 51q14 6 22.5 -1t8.5 -20l6 -78q4 -31 -27 -34l-123 -13q-27 0 -30 21z" />
<glyph unicode="+" horiz-adv-x="897" d="M223 694l37 207q1 12 12 20.5t23 8.5h184l31 184q3 12 13 20.5t22 8.5h207q12 0 18.5 -8.5t3.5 -20.5l-31 -184h187q12 0 18 -8.5t4 -20.5l-37 -207q-1 -12 -10.5 -20t-21.5 -8h-187l-32 -187q-3 -12 -13 -20t-22 -8h-207q-12 0 -19 8t-4 20l33 187h-184q-12 0 -19 8 t-6 20z" />
<glyph unicode="," horiz-adv-x="342" d="M45 86l29 166q3 12 13 20.5t22 8.5h223q12 0 18.5 -8.5t3.5 -20.5l-49 -285q-10 -57 -46.5 -88t-92.5 -31q-9 0 -15 7t-4 16l23 119h-43q-41 0 -65.5 29t-16.5 67z" />
<glyph unicode="-" horiz-adv-x="897" d="M223 694l37 207q1 12 12 20.5t23 8.5h635q12 0 18 -8.5t4 -20.5l-37 -207q-1 -12 -10.5 -20t-21.5 -8h-635q-12 0 -19 8t-6 20z" />
<glyph unicode="." horiz-adv-x="342" d="M35 29l39 223q3 12 13 20.5t22 8.5h223q12 0 18.5 -8.5t3.5 -20.5l-39 -223q-2 -12 -11 -20.5t-21 -8.5h-224q-12 0 -19 8.5t-5 20.5z" />
<glyph unicode="/" horiz-adv-x="831" d="M54 8.5q-2 6.5 5 20.5l713 1581q6 13 16.5 20t17.5 8h7h246l5 -2q4 -7 -5 -26l-719 -1581q-5 -13 -15 -20t-17 -8l-7 -1h-240q-2 0 -3.5 1t-3.5 7.5z" />
<glyph unicode="0" horiz-adv-x="897" d="M121 229l209 1180q17 100 99.5 170t180.5 70h254q99 0 157.5 -70.5t41.5 -169.5l-209 -1180q-17 -99 -99.5 -169t-181.5 -70h-254q-99 0 -157 70t-41 169zM412 305q-4 -25 10 -42t39 -17h61q25 0 45.5 17t24.5 42l180 1020q3 25 -11 42t-38 17h-61q-25 0 -46 -17.5 t-24 -41.5z" />
<glyph unicode="1" horiz-adv-x="593" d="M219 29l232 1308h-84q-12 0 -19.5 8.5t-5.5 20.5l23 129l180 143h207q12 0 18.5 -8t3.5 -20l-278 -1581q-1 -12 -11 -20.5t-22 -8.5h-219q-12 0 -19.5 8.5t-5.5 20.5z" />
<glyph unicode="2" horiz-adv-x="872" d="M76 29l41 235q25 34 66 91.5t147.5 210t189.5 277t154 245t78 161.5l14 76q3 25 -11 42t-38 17h-45q-25 0 -46 -17.5t-24 -41.5l-8 -47q-3 -12 -13 -20.5t-22 -8.5h-219q-12 0 -19 8.5t-4 20.5l23 131q17 99 99.5 169.5t181.5 70.5h237q99 0 157.5 -70.5t41.5 -169.5 l-29 -160q-11 -64 -167.5 -310.5t-306.5 -460.5l-151 -214h424q12 0 19 -8t6 -20l-37 -207q-1 -12 -11 -20.5t-22 -8.5h-682q-12 0 -19 8.5t-5 20.5z" />
<glyph unicode="3" horiz-adv-x="901" d="M125 229l25 133q2 12 11 20.5t21 8.5h219q12 0 19.5 -8.5t5.5 -20.5l-10 -57q-4 -25 10 -42t39 -17h61q25 0 45.5 17t24.5 42l61 350q5 25 -9.5 42.5t-39.5 17.5h-57q-23 3 -16 28l34 207q3 12 13 20.5t22 8.5h51q25 0 45.5 17t24.5 42l51 287q3 25 -11 42t-38 17h-65 q-25 0 -46 -17.5t-24 -41.5l-8 -47q-3 -12 -13 -20.5t-22 -8.5h-219q-12 0 -19 8.5t-4 20.5l23 131q17 100 99.5 170t180.5 70h258q99 0 157.5 -70.5t41.5 -169.5l-76 -426q-12 -73 -63 -133q31 -57 16 -131l-86 -490q-17 -99 -99 -169t-181 -70h-254q-99 0 -157.5 70 t-41.5 169z" />
<glyph unicode="4" horiz-adv-x="778" d="M45 256l41 236l612 1118q6 13 20 20t25 8h11h219q12 1 18.5 -7.5t3.5 -20.5l-196 -1118h37q12 0 18.5 -8.5t3.5 -20.5l-35 -207q-3 -12 -13 -20.5t-22 -8.5h-36l-35 -198q-1 -12 -11 -20.5t-22 -8.5h-219q-12 0 -19.5 8.5t-5.5 20.5l35 198h-407q-12 0 -19 8.5t-4 20.5z M348 492h182l97 550z" />
<glyph unicode="5" horiz-adv-x="897" d="M141 229l45 254q3 12 13 20.5t22 8.5h219q12 0 19 -8.5t4 -20.5l-31 -178q-4 -25 10 -42t39 -17h62q25 0 44.5 17t24.5 42l68 389q5 25 -9.5 42.5t-39.5 17.5h-363q-12 0 -18.5 8t-3.5 20l145 828q3 12 13 20t22 8h621q12 0 18.5 -8t3.5 -20l-37 -209q-1 -12 -11 -20.5 t-22 -8.5h-372l-66 -362h211q99 0 157.5 -70.5t41.5 -169.5l-97 -541q-17 -99 -99 -169t-181 -70h-254q-99 0 -157.5 70t-41.5 169z" />
<glyph unicode="6" horiz-adv-x="876" d="M121 229l209 1180q17 100 99.5 170t180.5 70h232q99 0 157 -70.5t41 -169.5l-26 -152q-3 -12 -13 -20t-22 -8h-219q-12 0 -19 8t-4 20l13 68q3 25 -11 42t-39 17h-38q-25 0 -46 -17.5t-24 -41.5l-62 -344h218q99 0 157 -70.5t39 -169.5l-90 -512q-17 -99 -99.5 -169 t-181.5 -70h-254q-99 0 -157 70t-41 169zM412 305q-4 -25 10 -42t39 -17h61q25 0 45.5 17t24.5 42l61 352q5 25 -9.5 42.5t-39.5 17.5h-121z" />
<glyph unicode="7" horiz-adv-x="774" d="M207.5 8.5q-4.5 6.5 1.5 20.5l493 1345h-391q-12 0 -19 8.5t-5 20.5l37 207q7 28 34 28h635q12 0 19 -8t4 -20l-41 -236l-490 -1345q-4 -13 -11.5 -20t-13.5 -8l-5 -1h-236q-2 0 -4.5 1t-7 7.5z" />
<glyph unicode="8" horiz-adv-x="901" d="M121 229l86 488q3 14 7.5 27t11 24t13.5 20.5t15 17.5t15 14t14.5 11.5t12 8.5t8.5 6l5 2q-72 36 -55 133l76 428q17 100 99.5 170t180.5 70h258q99 0 157.5 -70.5t41.5 -169.5l-76 -428q-6 -37 -22 -65t-34.5 -41.5t-30.5 -19.5t-19 -7q4 -2 9.5 -6t17.5 -15t19 -25.5 t13.5 -36.5t-0.5 -48l-86 -488q-17 -99 -99 -169t-181 -70h-259q-99 0 -157 70t-41 169zM412 305q-4 -25 10 -42t39 -17h65q25 0 45.5 17t24.5 42l61 348q5 25 -9.5 42.5t-39.5 17.5h-65q-25 0 -45 -17.5t-25 -42.5zM541 1036q-4 -25 10 -42t39 -17h72q22 2 40.5 19t22.5 40 l51 289q3 25 -11 42t-38 17h-65q-25 0 -46 -17.5t-24 -41.5z" />
<glyph unicode="9" horiz-adv-x="897" d="M141 229l27 152q3 12 13 20.5t22 8.5h219q12 0 18.5 -8.5t3.5 -20.5l-12 -68q-3 -25 11 -42t38 -17h41q25 0 46 17.5t24 41.5l55 308h-217q-99 0 -157.5 70t-39.5 169l97 549q17 100 99.5 170t180.5 70h254q99 0 157.5 -70.5t41.5 -169.5l-209 -1180q-17 -99 -99.5 -169 t-181.5 -70h-233q-99 0 -157.5 70t-41.5 169zM524 944q-4 -25 10 -42t39 -17h121l78 448q5 25 -9.5 42.5t-39.5 17.5h-61q-25 0 -45 -17.5t-25 -42.5z" />
<glyph unicode=":" horiz-adv-x="423" d="M76 29l39 223q3 12 13 20.5t22 8.5h223q12 0 18.5 -8.5t3.5 -20.5l-39 -223q-2 -12 -11 -20.5t-21 -8.5h-224q-12 0 -19 8.5t-5 20.5zM229 899l39 223q3 12 13 20.5t22 8.5h223q12 0 19 -8.5t4 -20.5l-39 -223q-3 -12 -13 -20.5t-22 -8.5h-223q-12 0 -19 8.5t-4 20.5z " />
<glyph unicode=";" horiz-adv-x="423" d="M86 86l29 166q3 12 13 20.5t22 8.5h223q12 0 18.5 -8.5t3.5 -20.5l-49 -285q-10 -57 -46.5 -88t-92.5 -31q-9 0 -15 7t-4 16l23 119h-43q-41 0 -65.5 29t-16.5 67zM229 899l39 223q3 12 13 20.5t22 8.5h223q12 0 19 -8.5t4 -20.5l-39 -223q-3 -12 -13 -20.5t-22 -8.5 h-223q-12 0 -19 8.5t-4 20.5z" />
<glyph unicode="&#x3c;" horiz-adv-x="628" d="M174 772q-10 29 10 57l359 471q10 13 21 20t16 8l6 1h233l7 -3q4 -9 -9 -26l-366 -499l190 -500q5 -14 3 -20.5t-6 -7.5l-5 -1h-234q-20 0 -32 29z" />
<glyph unicode="=" horiz-adv-x="897" d="M190 510l37 207q3 12 13 20t22 8h635q12 0 19 -8t4 -20l-37 -207q-1 -12 -11 -20.5t-22 -8.5h-635q-12 0 -19.5 8.5t-5.5 20.5zM256 879l37 206q1 12 11 20.5t22 8.5h635q12 0 19 -8.5t5 -20.5l-37 -206q-1 -12 -11 -20.5t-22 -8.5h-634q-12 0 -19.5 8.5t-5.5 20.5z" />
<glyph unicode="&#x3e;" horiz-adv-x="628" d="M81.5 281q-0.5 7 8.5 20l367 500l-191 499q-4 14 -2 20.5t7 7.5l5 1h234q21 0 31 -29l194 -471q10 -32 -10 -57l-360 -471q-9 -13 -19 -20t-16 -8l-6 -1h-234q-2 0 -5 1t-3.5 8z" />
<glyph unicode="?" horiz-adv-x="876" d="M264 29l41 233q1 12 12 20.5t23 8.5h219q12 0 18.5 -8.5t4.5 -20.5l-41 -233q-1 -12 -11 -20.5t-22 -8.5h-219q-12 0 -19.5 8.5t-5.5 20.5zM283 1257l26 152q17 99 99.5 169.5t181.5 70.5h254q99 0 157 -70.5t41 -169.5l-88 -500q-19 -101 -80 -162.5t-161 -76.5 q-26 -3 -46 -19.5t-24 -40.5l-35 -192q-1 -12 -11 -20.5t-22 -8.5h-219q-12 0 -19 8.5t-5 20.5l49 268q18 101 80 164.5t160 75.5q27 3 46 19t23 40l62 340q3 25 -11 42t-39 17h-61q-25 0 -46 -17.5t-24 -41.5l-12 -68q-3 -12 -13 -20t-22 -8h-219q-12 0 -18.5 8t-3.5 20z " />
<glyph unicode="@" horiz-adv-x="1640" d="M143 240l205 1159q17 99 100.5 169t182.5 70h956q99 0 156.5 -70t40.5 -169l-146 -821q-17 -100 -99.5 -170t-180.5 -70h-111q-72 0 -119 33q-56 -33 -124 -33h-254q-99 0 -157.5 70.5t-41.5 169.5l72 409q19 100 101.5 170t180.5 70h213q99 0 157.5 -70.5t39.5 -169.5 l-58 -334q-4 -25 10.5 -42t39.5 -17t44.5 17t24.5 42l117 662q4 25 -10 42t-39 17h-764q-25 0 -45.5 -17t-24.5 -42l-176 -1000q-4 -25 10 -42t39 -17h1057q12 0 18.5 -8.5t4.5 -20.5l-35 -198q-1 -12 -11 -20.5t-22 -8.5h-1153q-99 0 -157.5 70.5t-41.5 169.5zM842 653 q-4 -25 10 -42t39 -17h41q23 0 42 14.5t25 36.5l45 258q5 25 -9.5 42.5t-39.5 17.5h-41q-25 0 -44.5 -17.5t-24.5 -42.5z" />
<glyph unicode="A" d="M68 8q-2 3 -3 8q0 5 3 13l550 1581q4 13 13.5 20t16.5 8h7h189q3 0 7 -0.5t11 -7.5t6 -20l-6 -1581q0 -13 -5 -20t-10 -8l-5 -1h-236q-2 0 -5.5 1t-9 8t-5.5 20l6 198h-184l-64 -198q-4 -13 -11 -20t-13 -8l-5 -1h-235q-2 0 -5 1t-7 7zM489 492h117l47 606z" />
<glyph unicode="B" horiz-adv-x="931" d="M106 29l279 1581q3 12 13 20t22 8h428q98 0 156 -70q44 -54 44 -125q0 -21 -4 -44l-77 -441q-8 -51 -41 -102q40 -52 40 -116q0 -22 -5 -46l-80 -454q-17 -99 -99.5 -169.5t-181.5 -70.5h-469q-12 0 -19.5 8.5t-5.5 20.5zM424 256h125q25 0 44.5 17t24.5 42l58 328 q4 23 -8 39.5t-35 19.5h-131zM545 950h90q25 3 42.5 20t20.5 40l56 305q1 6 1 11q0 18 -11 31q-14 17 -39 17h-84z" />
<glyph unicode="C" horiz-adv-x="911" d="M141 229l209 1180q17 99 99.5 169.5t181.5 70.5h248q99 -1 157 -71q45 -55 45 -126q0 -21 -4 -43l-26 -152q-3 -12 -13 -20t-22 -8h-219q-12 0 -19 8t-4 20l12 68q3 25 -11 42t-38 17h-55q-25 0 -46 -17.5t-24 -41.5l-180 -1020q-4 -25 10 -42t39 -17h66q25 0 44.5 17 t24.5 42l31 178q3 12 13 20.5t22 8.5h219q12 0 19 -8.5t4 -20.5l-45 -254q-17 -99 -99.5 -169t-181.5 -70h-258q-100 0 -158 70q-45 54 -45 126q0 21 4 43z" />
<glyph unicode="D" horiz-adv-x="942" d="M106 29l279 1581q3 12 13 20t22 8h469q97 0 155 -70q44 -54 45 -125q0 -21 -4 -44l-204 -1159q-17 -99 -99.5 -169.5t-181.5 -70.5h-469q-12 0 -19.5 8.5t-5.5 20.5zM424 264h125q25 0 45.5 17.5t23.5 42.5l177 991q1 5 1 10q0 18 -12 32q-14 17 -39 17h-124z" />
<glyph unicode="E" horiz-adv-x="866" d="M106 29l279 1581q3 12 13 20t22 8h622q12 0 19 -8q5 -6 5 -13q0 -3 -1 -7l-37 -209q-1 -12 -11 -20.5t-22 -8.5h-374l-68 -377h293q12 0 19 -8t5 -20l-36 -207q-1 -12 -12 -20.5t-23 -8.5h-293l-82 -467h387q12 0 19 -8t6 -20l-37 -207q-1 -12 -11 -20.5t-22 -8.5h-635 q-12 0 -19.5 8.5t-5.5 20.5z" />
<glyph unicode="F" horiz-adv-x="833" d="M106 29l279 1581q3 12 13 20t22 8h622q12 0 19 -8q5 -6 5 -13q0 -3 -1 -7l-37 -209q-1 -12 -11 -20.5t-22 -8.5h-374l-68 -377h293q12 0 19 -8t5 -20l-36 -207q-1 -12 -12 -20.5t-23 -8.5h-293l-123 -702q-1 -12 -11 -20.5t-22 -8.5h-219q-12 0 -19.5 8.5t-5.5 20.5z" />
<glyph unicode="G" horiz-adv-x="911" d="M141 229l209 1180q17 99 99.5 169.5t181.5 70.5h246q99 0 157 -71q45 -54 45 -126q0 -21 -4 -43l-26 -152q-3 -12 -13 -20t-22 -8h-219q-12 0 -19 8t-4 20l12 68q3 25 -11 42t-38 17h-53q-25 0 -46 -17.5t-24 -41.5l-180 -1020q-4 -25 10 -42t39 -17h66q25 0 44.5 17 t24.5 42l39 227h-67q-12 0 -19 8.5t-4 20.5l37 207q1 12 11 20.5t22 8.5h315q12 0 19.5 -8.5t5.5 -20.5l-96 -539q-17 -99 -99.5 -169t-181.5 -70h-258q-99 0 -158 70q-45 54 -45 126q0 21 4 43z" />
<glyph unicode="H" horiz-adv-x="958" d="M106 29l279 1581q3 12 13 20t22 8h219q12 0 19 -8t4 -20l-109 -615h201l108 615q3 12 13 20t22 8h219q12 0 19 -8q5 -6 5 -13q0 -3 -1 -7l-279 -1581q-1 -12 -11 -20.5t-22 -8.5h-219q-12 0 -19 8.5t-5 20.5l123 702h-201l-123 -702q-1 -12 -11 -20.5t-22 -8.5h-219 q-12 0 -19.5 8.5t-5.5 20.5z" />
<glyph unicode="I" horiz-adv-x="481" d="M106 29l279 1581q3 12 13 20t22 8h219q12 0 19 -8q5 -6 5 -13q0 -3 -1 -7l-279 -1581q-1 -12 -11 -20.5t-22 -8.5h-219q-12 0 -19.5 8.5t-5.5 20.5z" />
<glyph unicode="J" horiz-adv-x="876" d="M80 229l45 254q3 12 13 20.5t22 8.5h215q12 0 18.5 -8.5t3.5 -20.5l-30 -178q-4 -25 10 -42t39 -17h65q25 0 45.5 17t24.5 42l229 1305q3 12 13 20t22 8h219q12 0 19 -8q5 -6 5 -13q0 -3 -1 -7l-244 -1381q-17 -99 -99.5 -169t-181.5 -70h-253q-99 0 -157 70 q-46 54 -46 126q0 21 4 43z" />
<glyph unicode="K" horiz-adv-x="903" d="M106 29l279 1581q3 12 13 20t22 8h219q12 0 19 -8t4 -20l-99 -553l291 553q8 13 17 20t15 8h5h235l9 -3q2 -2 2 -6q0 -7 -7 -19l-376 -688l98 -893q2 -13 -2 -20t-9 -8l-5 -1h-236q-2 0 -6 1t-10.5 8t-8.5 20l-63 493l-68 -139l-61 -354q-1 -12 -11 -20.5t-22 -8.5h-219 q-12 0 -19.5 8.5t-5.5 20.5z" />
<glyph unicode="L" horiz-adv-x="845" d="M106 29l279 1581q3 12 13 20t22 8h219q12 0 19 -8t4 -20l-238 -1346h387q12 0 19 -8t6 -20l-37 -207q-1 -12 -11 -20.5t-22 -8.5h-635q-12 0 -19.5 8.5t-5.5 20.5z" />
<glyph unicode="M" horiz-adv-x="1241" d="M106 29l279 1581q3 12 13 20t22 8h211q3 0 7 -0.5t11.5 -7.5t9.5 -20l136 -621l352 621q7 13 17.5 20t17.5 8h6h211q13 0 19 -8q4 -5 4 -13q0 -3 -1 -7l-278 -1581q-1 -12 -11 -20.5t-22 -8.5h-219q-12 0 -19.5 8.5t-5.5 20.5l150 843l-352 -626l-132 626l-149 -843 q-1 -12 -11 -20.5t-22 -8.5h-219q-12 0 -19.5 8.5t-5.5 20.5z" />
<glyph unicode="N" horiz-adv-x="958" d="M106 29l279 1581q3 12 13 20t22 8h217q3 0 6.5 -0.5t10.5 -7.5t8 -20l77 -697l123 697q3 12 13 20t22 8h219q12 0 19 -8q5 -6 5 -13q0 -3 -1 -7l-279 -1581q-1 -12 -11 -20.5t-22 -8.5h-206q-3 0 -6.5 1t-11 8t-9.5 20l-92 671l-119 -671q-1 -12 -11 -20.5t-22 -8.5h-219 q-12 0 -19.5 8.5t-5.5 20.5z" />
<glyph unicode="O" horiz-adv-x="946" d="M141 229l209 1180q17 99 99.5 169.5t181.5 70.5h262q99 -1 157 -71q45 -55 46 -126q0 -21 -4 -43l-209 -1180q-17 -99 -99.5 -169t-181.5 -70h-262q-100 0 -158 70q-45 54 -45 126q0 21 4 43zM432 305q-1 -6 -1 -11q0 -18 11 -31q14 -17 39 -17h70q25 0 45.5 17t24.5 42 l180 1020q1 4 1 9q0 19 -12 33q-14 17 -38 17h-70q-25 0 -46 -17.5t-24 -41.5z" />
<glyph unicode="P" d="M106 29l279 1581q3 12 13 20t22 8h469q97 0 155 -70q44 -54 45 -125q0 -21 -4 -44l-92 -522q-17 -99 -100 -169.5t-182 -70.5h-222l-106 -608q-1 -12 -11 -20.5t-22 -8.5h-219q-12 0 -19.5 8.5t-5.5 20.5zM535 893h124q25 0 46 17.5t24 41.5l66 363q1 5 1 10q0 18 -12 32 q-14 17 -39 17h-124z" />
<glyph unicode="Q" horiz-adv-x="946" d="M141 229l209 1180q17 99 99.5 169.5t181.5 70.5h262q99 0 157 -71q46 -54 46 -126q0 -21 -4 -43l-209 -1180q-17 -99 -99.5 -169t-181.5 -70h-12l-27 -146q-1 -12 -11 -20t-22 -8h-180q-12 0 -19 8t-5 20l26 146h-12q-99 0 -158 70q-45 54 -45 126q0 21 4 43zM432 305 q-1 -6 -1 -11q0 -18 11 -31q14 -17 39 -17h70q25 0 45.5 17t24.5 42l180 1020q1 4 1 9q0 19 -12 33q-14 17 -38 17h-70q-25 0 -46 -17.5t-24 -41.5z" />
<glyph unicode="R" horiz-adv-x="937" d="M106 29l279 1581q3 12 13 20t22 8h469q97 0 155 -70q44 -54 45 -125q0 -21 -4 -44l-92 -522q-13 -75 -65 -135.5t-123 -88.5l53 -624q2 -13 -2.5 -20t-9.5 -8l-6 -1h-236q-2 0 -6 1t-10.5 8t-7.5 20l-54 608h-37l-106 -608q-1 -12 -11 -20.5t-22 -8.5h-219 q-12 0 -19.5 8.5t-5.5 20.5zM535 893h124q25 0 46 17.5t24 41.5l66 363q1 5 1 10q0 18 -12 32q-14 17 -39 17h-124z" />
<glyph unicode="S" horiz-adv-x="880" d="M111 229l45 254q3 12 12.5 20.5t21.5 8.5h220q12 0 18.5 -8.5t3.5 -20.5l-31 -178q-4 -25 10.5 -42t39.5 -17h65q25 0 45.5 17t24.5 42l61 354q5 25 -9.5 42.5t-39.5 17.5h-162q-98 -1 -156 69q-44 54 -44 126q0 21 4 44l79 451q17 99 99.5 169.5t181.5 70.5h248 q100 -1 158 -71q45 -55 45 -126q0 -21 -4 -43l-27 -152q-3 -12 -13 -20t-22 -8h-219q-12 0 -19 8t-4 20l13 68q3 25 -11 42t-38 17h-56q-25 0 -45.5 -17.5t-23.5 -41.5l-52 -291q-5 -25 9 -42t39 -17h161q99 -1 157 -71q45 -55 46 -126q0 -21 -4 -43l-90 -506 q-17 -99 -99.5 -169t-181.5 -70h-258q-99 0 -157 70q-45 54 -45 126q0 21 4 43z" />
<glyph unicode="T" horiz-adv-x="897" d="M313 29l238 1345h-209q-12 0 -19.5 8.5t-5.5 20.5l37 207q3 12 13 20t22 8h696q12 0 19 -8q5 -6 5 -13q0 -3 -1 -7l-37 -207q-1 -12 -11 -20.5t-22 -8.5h-211l-237 -1345q-1 -12 -11 -20.5t-22 -8.5h-219q-12 0 -19.5 8.5t-5.5 20.5z" />
<glyph unicode="U" horiz-adv-x="942" d="M141 229l244 1381q3 12 13 20t22 8h219q12 0 19 -8t4 -20l-230 -1305q-4 -25 10 -42t39 -17h66q25 0 44.5 17t24.5 42l230 1305q3 12 13 20t22 8h219q12 0 18 -8q4 -5 5 -13q0 -3 -1 -7l-243 -1381q-17 -99 -99.5 -169t-181.5 -70h-258q-100 0 -158 70q-45 54 -45 126 q0 21 4 43z" />
<glyph unicode="V" horiz-adv-x="901" d="M330 29l6 1581q1 13 6.5 20t10.5 8h5h236q2 0 5.5 -0.5t8.5 -7.5t4 -20l-53 -987l295 987q4 13 12 20t14 8h5h235h2t4 -1.5t5 -4t2 -8.5t-3 -14l-550 -1581q-4 -13 -12.5 -20t-15.5 -8l-7 -1h-189q-3 0 -7.5 1t-11.5 8t-7 20z" />
<glyph unicode="W" horiz-adv-x="1435" d="M330 29l6 1581q1 13 6.5 20t10.5 8h5h236q2 0 5.5 -0.5t8.5 -7.5t4 -20l-53 -987l315 987q4 13 12 20t14 8h5h203q2 0 5.5 -0.5t8.5 -7.5t4 -20l-32 -987l295 987q4 13 11.5 20t13.5 8h5h236h2t4 -1.5t5 -4t2 -8.5t-3 -14l-551 -1581q-4 -13 -12.5 -20t-15.5 -8l-7 -1 h-188q-3 0 -7.5 1t-12 8t-7.5 20l2 825l-286 -825q-4 -13 -12.5 -20t-15.5 -8l-7 -1h-189q-3 0 -7.5 1t-11.5 8t-7 20z" />
<glyph unicode="X" horiz-adv-x="851" d="M44 12q0 6 5 17l377 827l-78 754q-1 13 2 20t6 8h4h246q3 0 7.5 -0.5t12.5 -7.5t9 -20l20 -305l127 305q6 13 16.5 20t17.5 8h7h246l5 -2q1 -2 1 -5q0 -7 -6 -21l-346 -754l88 -827q2 -13 -0.5 -20t-6.5 -8l-3 -1h-240q-27 0 -31 29l-32 383l-168 -383q-5 -13 -15 -20 t-17 -8l-7 -1h-240q-1 0 -3 1q-4 3 -4 11z" />
<glyph unicode="Y" horiz-adv-x="868" d="M301 29l86 483l-61 1098q-1 13 3.5 20t9.5 8h5h236q2 0 5.5 -0.5t9 -7.5t5.5 -20l4 -641l230 641q5 13 13 20t13 8h6h236h2t4 -1.5t4 -4.5q1 -1 1 -4q0 -9 -5 -18l-446 -1098l-87 -483q-2 -12 -11 -20.5t-21 -8.5h-217q-12 0 -19.5 8.5t-5.5 20.5z" />
<glyph unicode="Z" horiz-adv-x="856" d="M86 29l41 235l627 1110h-402q-12 0 -19 8.5t-5 20.5l37 207q7 28 34 28h635q12 0 19 -8q5 -6 5 -13q0 -3 -1 -7l-41 -236l-623 -1110h398q12 0 19 -8t5 -20l-37 -207q-1 -12 -11 -20.5t-22 -8.5h-634q-12 0 -19.5 8.5t-5.5 20.5z" />
<glyph unicode="[" horiz-adv-x="573" d="M61 -227l369 2093q3 12 13 20t22 8h362q12 0 19 -8t4 -20l-37 -207q-1 -12 -11 -20.5t-22 -8.5h-114l-287 -1630h115q12 0 18 -8.5t4 -20.5l-35 -198q-1 -12 -12 -20.5t-23 -8.5h-362q-12 0 -18.5 8.5t-4.5 20.5z" />
<glyph unicode="\" horiz-adv-x="831" d="M338 1610q-1 13 2 20t6 8h4h246q3 0 7.5 -0.5t12.5 -7.5t9 -20l155 -1581q2 -13 -0.5 -20t-5.5 -8l-4 -1h-240q-26 0 -30 29z" />
<glyph unicode="]" horiz-adv-x="573" d="M10 -227l35 198q1 12 12 20.5t23 8.5h115l286 1630h-114q-12 0 -19.5 8.5t-5.5 20.5l37 207q3 12 13 20t22 8h362q12 0 19 -8t4 -20l-369 -2093q-1 -12 -12 -20.5t-23 -8.5h-362q-12 0 -18.5 8.5t-4.5 20.5z" />
<glyph unicode="^" horiz-adv-x="718" d="M361 1638.5q-3 6.5 6 20.5l188 276q8 13 17.5 20t15.5 8l6 1h223q2 0 5.5 -1t10.5 -8t11 -20l90 -276q3 -14 0.5 -20.5t-7.5 -7.5l-5 -1h-144l-104 164l-162 -164h-141q-2 0 -4.5 1t-5.5 7.5z" />
<glyph unicode="_" horiz-adv-x="1101" d="M106 29l37 207q1 12 11 20t22 8h840q12 0 19 -8t5 -20l-36 -207q-1 -12 -11 -20.5t-22 -8.5h-840q-12 0 -19.5 8.5t-5.5 20.5z" />
<glyph unicode="`" horiz-adv-x="491" d="M448.5 1955.5q1.5 6.5 5.5 7.5l5 1h162q2 0 5.5 -1t10.5 -8t10 -20l47 -174q3 -14 0.5 -20t-7.5 -7l-5 -1h-121l-108 202q-6 14 -4.5 20.5z" />
<glyph unicode="a" d="M68 8q-2 3 -3 8q0 5 3 13l550 1581q4 13 13.5 20t16.5 8h7h189q3 0 7 -0.5t11 -7.5t6 -20l-6 -1581q0 -13 -5 -20t-10 -8l-5 -1h-236q-2 0 -5.5 1t-9 8t-5.5 20l6 198h-184l-64 -198q-4 -13 -11 -20t-13 -8l-5 -1h-235q-2 0 -5 1t-7 7zM489 492h117l47 606z" />
<glyph unicode="b" horiz-adv-x="931" d="M106 29l279 1581q3 12 13 20t22 8h428q98 0 156 -70q44 -54 44 -125q0 -21 -4 -44l-77 -441q-8 -51 -41 -102q40 -52 40 -116q0 -22 -5 -46l-80 -454q-17 -99 -99.5 -169.5t-181.5 -70.5h-469q-12 0 -19.5 8.5t-5.5 20.5zM424 256h125q25 0 44.5 17t24.5 42l58 328 q4 23 -8 39.5t-35 19.5h-131zM545 950h90q25 3 42.5 20t20.5 40l56 305q1 6 1 11q0 18 -11 31q-14 17 -39 17h-84z" />
<glyph unicode="c" horiz-adv-x="911" d="M141 229l209 1180q17 99 99.5 169.5t181.5 70.5h248q99 -1 157 -71q45 -55 45 -126q0 -21 -4 -43l-26 -152q-3 -12 -13 -20t-22 -8h-219q-12 0 -19 8t-4 20l12 68q3 25 -11 42t-38 17h-55q-25 0 -46 -17.5t-24 -41.5l-180 -1020q-4 -25 10 -42t39 -17h66q25 0 44.5 17 t24.5 42l31 178q3 12 13 20.5t22 8.5h219q12 0 19 -8.5t4 -20.5l-45 -254q-17 -99 -99.5 -169t-181.5 -70h-258q-100 0 -158 70q-45 54 -45 126q0 21 4 43z" />
<glyph unicode="d" horiz-adv-x="942" d="M106 29l279 1581q3 12 13 20t22 8h469q97 0 155 -70q44 -54 45 -125q0 -21 -4 -44l-204 -1159q-17 -99 -99.5 -169.5t-181.5 -70.5h-469q-12 0 -19.5 8.5t-5.5 20.5zM424 264h125q25 0 45.5 17.5t23.5 42.5l177 991q1 5 1 10q0 18 -12 32q-14 17 -39 17h-124z" />
<glyph unicode="e" horiz-adv-x="866" d="M106 29l279 1581q3 12 13 20t22 8h622q12 0 19 -8q5 -6 5 -13q0 -3 -1 -7l-37 -209q-1 -12 -11 -20.5t-22 -8.5h-374l-68 -377h293q12 0 19 -8t5 -20l-36 -207q-1 -12 -12 -20.5t-23 -8.5h-293l-82 -467h387q12 0 19 -8t6 -20l-37 -207q-1 -12 -11 -20.5t-22 -8.5h-635 q-12 0 -19.5 8.5t-5.5 20.5z" />
<glyph unicode="f" horiz-adv-x="833" d="M106 29l279 1581q3 12 13 20t22 8h622q12 0 19 -8q5 -6 5 -13q0 -3 -1 -7l-37 -209q-1 -12 -11 -20.5t-22 -8.5h-374l-68 -377h293q12 0 19 -8t5 -20l-36 -207q-1 -12 -12 -20.5t-23 -8.5h-293l-123 -702q-1 -12 -11 -20.5t-22 -8.5h-219q-12 0 -19.5 8.5t-5.5 20.5z" />
<glyph unicode="g" horiz-adv-x="911" d="M141 229l209 1180q17 99 99.5 169.5t181.5 70.5h246q99 0 157 -71q45 -54 45 -126q0 -21 -4 -43l-26 -152q-3 -12 -13 -20t-22 -8h-219q-12 0 -19 8t-4 20l12 68q3 25 -11 42t-38 17h-53q-25 0 -46 -17.5t-24 -41.5l-180 -1020q-4 -25 10 -42t39 -17h66q25 0 44.5 17 t24.5 42l39 227h-67q-12 0 -19 8.5t-4 20.5l37 207q1 12 11 20.5t22 8.5h315q12 0 19.5 -8.5t5.5 -20.5l-96 -539q-17 -99 -99.5 -169t-181.5 -70h-258q-99 0 -158 70q-45 54 -45 126q0 21 4 43z" />
<glyph unicode="h" horiz-adv-x="958" d="M106 29l279 1581q3 12 13 20t22 8h219q12 0 19 -8t4 -20l-109 -615h201l108 615q3 12 13 20t22 8h219q12 0 19 -8q5 -6 5 -13q0 -3 -1 -7l-279 -1581q-1 -12 -11 -20.5t-22 -8.5h-219q-12 0 -19 8.5t-5 20.5l123 702h-201l-123 -702q-1 -12 -11 -20.5t-22 -8.5h-219 q-12 0 -19.5 8.5t-5.5 20.5z" />
<glyph unicode="i" horiz-adv-x="481" d="M106 29l279 1581q3 12 13 20t22 8h219q12 0 19 -8q5 -6 5 -13q0 -3 -1 -7l-279 -1581q-1 -12 -11 -20.5t-22 -8.5h-219q-12 0 -19.5 8.5t-5.5 20.5z" />
<glyph unicode="j" horiz-adv-x="876" d="M80 229l45 254q3 12 13 20.5t22 8.5h215q12 0 18.5 -8.5t3.5 -20.5l-30 -178q-4 -25 10 -42t39 -17h65q25 0 45.5 17t24.5 42l229 1305q3 12 13 20t22 8h219q12 0 19 -8q5 -6 5 -13q0 -3 -1 -7l-244 -1381q-17 -99 -99.5 -169t-181.5 -70h-253q-99 0 -157 70 q-46 54 -46 126q0 21 4 43z" />
<glyph unicode="k" horiz-adv-x="903" d="M106 29l279 1581q3 12 13 20t22 8h219q12 0 19 -8t4 -20l-99 -553l291 553q8 13 17 20t15 8h5h235l9 -3q2 -2 2 -6q0 -7 -7 -19l-376 -688l98 -893q2 -13 -2 -20t-9 -8l-5 -1h-236q-2 0 -6 1t-10.5 8t-8.5 20l-63 493l-68 -139l-61 -354q-1 -12 -11 -20.5t-22 -8.5h-219 q-12 0 -19.5 8.5t-5.5 20.5z" />
<glyph unicode="l" horiz-adv-x="845" d="M106 29l279 1581q3 12 13 20t22 8h219q12 0 19 -8t4 -20l-238 -1346h387q12 0 19 -8t6 -20l-37 -207q-1 -12 -11 -20.5t-22 -8.5h-635q-12 0 -19.5 8.5t-5.5 20.5z" />
<glyph unicode="m" horiz-adv-x="1241" d="M106 29l279 1581q3 12 13 20t22 8h211q3 0 7 -0.5t11.5 -7.5t9.5 -20l136 -621l352 621q7 13 17.5 20t17.5 8h6h211q13 0 19 -8q4 -5 4 -13q0 -3 -1 -7l-278 -1581q-1 -12 -11 -20.5t-22 -8.5h-219q-12 0 -19.5 8.5t-5.5 20.5l150 843l-352 -626l-132 626l-149 -843 q-1 -12 -11 -20.5t-22 -8.5h-219q-12 0 -19.5 8.5t-5.5 20.5z" />
<glyph unicode="n" horiz-adv-x="958" d="M106 29l279 1581q3 12 13 20t22 8h217q3 0 6.5 -0.5t10.5 -7.5t8 -20l77 -697l123 697q3 12 13 20t22 8h219q12 0 19 -8q5 -6 5 -13q0 -3 -1 -7l-279 -1581q-1 -12 -11 -20.5t-22 -8.5h-206q-3 0 -6.5 1t-11 8t-9.5 20l-92 671l-119 -671q-1 -12 -11 -20.5t-22 -8.5h-219 q-12 0 -19.5 8.5t-5.5 20.5z" />
<glyph unicode="o" horiz-adv-x="946" d="M141 229l209 1180q17 99 99.5 169.5t181.5 70.5h262q99 -1 157 -71q45 -55 46 -126q0 -21 -4 -43l-209 -1180q-17 -99 -99.5 -169t-181.5 -70h-262q-100 0 -158 70q-45 54 -45 126q0 21 4 43zM432 305q-1 -6 -1 -11q0 -18 11 -31q14 -17 39 -17h70q25 0 45.5 17t24.5 42 l180 1020q1 4 1 9q0 19 -12 33q-14 17 -38 17h-70q-25 0 -46 -17.5t-24 -41.5z" />
<glyph unicode="p" d="M106 29l279 1581q3 12 13 20t22 8h469q98 0 155 -70q45 -53 45 -125q0 -21 -4 -44l-92 -522q-17 -99 -100 -169.5t-182 -70.5h-222l-106 -608q-1 -12 -11 -20.5t-22 -8.5h-219q-12 0 -19.5 8.5t-5.5 20.5zM535 893h124q25 0 46 17.5t24 41.5l66 363q1 5 1 10q0 19 -12 32 q-14 17 -39 17h-124z" />
<glyph unicode="q" horiz-adv-x="946" d="M141 229l209 1180q17 99 99.5 169.5t181.5 70.5h262q99 0 157 -71q46 -54 46 -126q0 -21 -4 -43l-209 -1180q-17 -99 -99.5 -169t-181.5 -70h-12l-27 -146q-1 -12 -11 -20t-22 -8h-180q-12 0 -19 8t-5 20l26 146h-12q-99 0 -158 70q-45 54 -45 126q0 21 4 43zM432 305 q-1 -6 -1 -11q0 -18 11 -31q14 -17 39 -17h70q25 0 45.5 17t24.5 42l180 1020q1 4 1 9q0 19 -12 33q-14 17 -38 17h-70q-25 0 -46 -17.5t-24 -41.5z" />
<glyph unicode="r" horiz-adv-x="937" d="M106 29l279 1581q3 12 13 20t22 8h469q97 0 155 -70q44 -54 45 -125q0 -21 -4 -44l-92 -522q-13 -75 -65 -135.5t-123 -88.5l53 -624q2 -13 -2.5 -20t-9.5 -8l-6 -1h-236q-2 0 -6 1t-10.5 8t-7.5 20l-54 608h-37l-106 -608q-1 -12 -11 -20.5t-22 -8.5h-219 q-12 0 -19.5 8.5t-5.5 20.5zM535 893h124q25 0 46 17.5t24 41.5l66 363q1 5 1 10q0 18 -12 32q-14 17 -39 17h-124z" />
<glyph unicode="s" horiz-adv-x="880" d="M111 229l45 254q3 12 12.5 20.5t21.5 8.5h220q12 0 18.5 -8.5t3.5 -20.5l-31 -178q-4 -25 10.5 -42t39.5 -17h65q25 0 45.5 17t24.5 42l61 354q5 25 -9.5 42.5t-39.5 17.5h-162q-98 -1 -156 69q-44 54 -44 126q0 21 4 44l79 451q17 99 99.5 169.5t181.5 70.5h248 q100 -1 158 -71q45 -55 45 -126q0 -21 -4 -43l-27 -152q-3 -12 -13 -20t-22 -8h-219q-12 0 -19 8t-4 20l13 68q3 25 -11 42t-38 17h-56q-25 0 -45.5 -17.5t-23.5 -41.5l-52 -291q-5 -25 9 -42t39 -17h161q99 -1 157 -71q45 -55 46 -126q0 -21 -4 -43l-90 -506 q-17 -99 -99.5 -169t-181.5 -70h-258q-99 0 -157 70q-45 54 -45 126q0 21 4 43z" />
<glyph unicode="t" horiz-adv-x="897" d="M313 29l238 1345h-209q-12 0 -19.5 8.5t-5.5 20.5l37 207q3 12 13 20t22 8h696q12 0 19 -8q5 -6 5 -13q0 -3 -1 -7l-37 -207q-1 -12 -11 -20.5t-22 -8.5h-211l-237 -1345q-1 -12 -11 -20.5t-22 -8.5h-219q-12 0 -19.5 8.5t-5.5 20.5z" />
<glyph unicode="u" horiz-adv-x="942" d="M141 229l244 1381q3 12 13 20t22 8h219q12 0 19 -8t4 -20l-230 -1305q-4 -25 10 -42t39 -17h66q25 0 44.5 17t24.5 42l230 1305q3 12 13 20t22 8h219q12 0 18 -8q4 -5 5 -13q0 -3 -1 -7l-243 -1381q-17 -99 -99.5 -169t-181.5 -70h-258q-100 0 -158 70q-45 54 -45 126 q0 21 4 43z" />
<glyph unicode="v" horiz-adv-x="901" d="M330 29l6 1581q1 13 6.5 20t10.5 8h5h236q2 0 5.5 -0.5t8.5 -7.5t4 -20l-53 -987l295 987q4 13 12 20t14 8h5h235h2t4 -1.5t5 -4t2 -8.5t-3 -14l-550 -1581q-4 -13 -12.5 -20t-15.5 -8l-7 -1h-189q-3 0 -7.5 1t-11.5 8t-7 20z" />
<glyph unicode="w" horiz-adv-x="1435" d="M330 29l6 1581q1 13 6.5 20t10.5 8h5h236q2 0 5.5 -0.5t8.5 -7.5t4 -20l-53 -987l315 987q4 13 12 20t14 8h5h203q2 0 5.5 -0.5t8.5 -7.5t4 -20l-32 -987l295 987q4 13 11.5 20t13.5 8h5h236h2t4 -1.5t5 -4t2 -8.5t-3 -14l-551 -1581q-4 -13 -12.5 -20t-15.5 -8l-7 -1 h-188q-3 0 -7.5 1t-12 8t-7.5 20l2 825l-286 -825q-4 -13 -12.5 -20t-15.5 -8l-7 -1h-189q-3 0 -7.5 1t-11.5 8t-7 20z" />
<glyph unicode="x" horiz-adv-x="851" d="M44 12q0 6 5 17l377 827l-78 754q-1 13 2 20t6 8h4h246q3 0 7.5 -0.5t12.5 -7.5t9 -20l20 -305l127 305q6 13 16.5 20t17.5 8h7h246l5 -2q1 -2 1 -5q0 -7 -6 -21l-346 -754l88 -827q2 -13 -0.5 -20t-6.5 -8l-3 -1h-240q-27 0 -31 29l-32 383l-168 -383q-5 -13 -15 -20 t-17 -8l-7 -1h-240q-1 0 -3 1q-4 3 -4 11z" />
<glyph unicode="y" horiz-adv-x="868" d="M301 29l86 483l-61 1098q-1 13 3.5 20t9.5 8h5h236q2 0 5.5 -0.5t9 -7.5t5.5 -20l4 -641l230 641q5 13 13 20t13 8h6h236h2t4 -1.5t4 -4.5q1 -1 1 -4q0 -9 -5 -18l-446 -1098l-87 -483q-2 -12 -11 -20.5t-21 -8.5h-217q-12 0 -19.5 8.5t-5.5 20.5z" />
<glyph unicode="z" horiz-adv-x="856" d="M86 29l41 235l627 1110h-402q-12 0 -19 8.5t-5 20.5l37 207q7 28 34 28h635q12 0 19 -8q5 -6 5 -13q0 -3 -1 -7l-41 -236l-623 -1110h398q12 0 19 -8t5 -20l-37 -207q-1 -12 -11 -20.5t-22 -8.5h-634q-12 0 -19.5 8.5t-5.5 20.5z" />
<glyph unicode="{" horiz-adv-x="686" d="M231 801l222 319l94 535q17 99 100 169t182 70h111q12 0 19 -8t4 -20l-43 -248q-3 -12 -13 -20.5t-22 -8.5h-15q-25 0 -44.5 -17t-24.5 -42l-72 -410l-227 -319l114 -318l-73 -424q-4 -25 10 -42t39 -17h14q12 0 18.5 -8.5t4.5 -20.5l-39 -219q-1 -12 -11 -20t-22 -8 h-111q-99 0 -157 70t-41 169l92 520z" />
<glyph unicode="|" horiz-adv-x="481" d="M66 -207l360 2052q3 12 13 20.5t22 8.5h219q12 0 18.5 -8.5t3.5 -20.5l-360 -2052q-3 -12 -13 -20.5t-22 -8.5h-219q-12 0 -18.5 8.5t-3.5 20.5z" />
<glyph unicode="}" horiz-adv-x="686" d="M6 -248l39 219q1 12 12 20.5t23 8.5h14q25 0 45.5 17t24.5 42l74 424l225 318l-113 319l72 410q4 25 -10 42t-39 17h-15q-12 0 -18.5 8.5t-3.5 20.5l43 248q3 12 13 20t22 8h110q99 0 156.5 -70t40.5 -169l-94 -535l106 -319l-219 -318l-92 -520q-17 -99 -99.5 -169 t-181.5 -70h-110q-12 0 -19 8t-6 20z" />
<glyph unicode="~" horiz-adv-x="942" d="M209 813q-5 11 0.5 24t17.5 19l195 102q27 13 37 -10l6 -12q9 -22 31 -28.5t45 5.5l123 64q94 48 185.5 22t125.5 -110l39 -98q7 -26 -19 -39l-198 -105q-9 -5 -21 0t-16 15q-7 22 -30.5 29t-45.5 -5l-123 -63q-95 -49 -186 -23t-125 111z" />
<glyph unicode="&#xa1;" horiz-adv-x="481" d="M106 29l211 1192q1 12 11 20t22 8h219q12 0 19 -8t6 -20l-211 -1192q-1 -12 -11 -20.5t-22 -8.5h-219q-12 0 -19.5 8.5t-5.5 20.5zM344 1376l41 234q3 12 13 20t22 8h219q12 0 19 -8t4 -20l-41 -234q-1 -12 -11 -20t-22 -8h-219q-12 0 -19 8t-6 20z" />
<glyph unicode="&#xa2;" horiz-adv-x="907" d="M162 346l164 928q19 100 101.5 169.5t180.5 69.5h25l16 97q3 12 13 20t22 8h137q12 0 19 -8t4 -20l-17 -97h25q99 0 157.5 -70t39.5 -169l-27 -152q-1 -12 -11 -20t-22 -8h-219q-12 0 -19 8t-6 20l13 68q4 25 -10 42t-39 17h-52q-25 0 -44.5 -17t-24.5 -42l-135 -768 q-5 -25 9.5 -42.5t39.5 -17.5h61q25 0 45 17.5t25 42.5l31 178q3 12 12.5 20.5t21.5 8.5h220q12 0 18.5 -8.5t3.5 -20.5l-45 -254q-17 -99 -99.5 -169.5t-181.5 -70.5h-36l-15 -77q-1 -12 -11 -20.5t-22 -8.5h-137q-12 0 -19 8.5t-5 20.5l14 77h-23q-99 0 -157 70.5 t-41 169.5z" />
<glyph unicode="&#xa3;" horiz-adv-x="929" d="M41 0l45 256h14q25 0 45.5 17t24.5 42l61 351h-45q-12 0 -19 8t-5 20l37 207q1 12 11.5 20.5t22.5 8.5h46l83 479q17 99 99.5 169.5t181.5 70.5h244q99 0 157 -70.5t41 -169.5l-26 -152q-3 -12 -13 -20t-22 -8h-219q-12 0 -19 8t-4 20l13 68q3 25 -11 42t-39 17h-51 q-25 0 -45.5 -17.5t-23.5 -41.5l-70 -395h313q12 0 18.5 -8.5t4.5 -20.5l-37 -207q-1 -12 -11 -20t-22 -8h-313l-72 -410h162q23 0 42.5 14.5t25.5 36.5q7 29 32 29h220q12 0 19 -8.5t5 -20.5l-12 -67q-17 -99 -99.5 -169.5t-181.5 -70.5h-608z" />
<glyph unicode="&#xa5;" horiz-adv-x="909" d="M141 203l37 207q1 12 11 20t22 8h182l15 74l-5 31h-174q-12 0 -18.5 8t-3.5 20l37 207q2 12 11 20.5t21 8.5h113l-43 803q-1 13 4 20t10 8h5h235q2 0 5.5 -0.5t9.5 -7.5t6 -20l4 -641l229 641q5 13 13.5 20t14.5 8h5h235h2t4 -1.5t4 -4t0.5 -8.5t-4.5 -14l-327 -803h110 q12 0 19.5 -8.5t5.5 -20.5l-37 -207q-3 -12 -13 -20t-22 -8h-172l-10 -31l-14 -74h178q12 0 19 -8t5 -20l-36 -207q-1 -12 -12 -20.5t-23 -8.5h-178l-25 -145q-1 -12 -11 -20.5t-22 -8.5h-217q-12 0 -19 8.5t-5 20.5l24 145h-182q-12 0 -18.5 8.5t-4.5 20.5z" />
<glyph unicode="&#xa6;" horiz-adv-x="481" d="M66 -207l151 864q3 12 13 20.5t22 8.5h219q12 0 19 -8.5t4 -20.5l-152 -864q-3 -12 -13 -20.5t-22 -8.5h-219q-12 0 -18.5 8.5t-3.5 20.5zM266 938l160 907q3 12 13 20.5t22 8.5h219q12 0 18.5 -8.5t3.5 -20.5l-159 -907q-1 -12 -11 -20.5t-22 -8.5h-219q-12 0 -19.5 8.5 t-5.5 20.5z" />
<glyph unicode="&#xa7;" horiz-adv-x="907" d="M135 188l27 152q1 12 11 20.5t22 8.5h219q12 0 19 -8.5t5 -20.5l-12 -68q-4 -25 10 -42t39 -17h92q25 0 45.5 17t24.5 42l25 146q5 22 -3 39.5t-30 17.5h-207q-98 0 -156 70t-41 170l37 207q8 51 41 102q-51 67 -33 162l45 264q19 100 102 170t181 70h285q99 0 157 -70.5 t39 -169.5l-26 -152q-1 -12 -11 -20t-22 -8h-219q-12 0 -19 8t-6 20l12 68q4 25 -10 42t-39 17h-92q-25 0 -44.5 -17t-24.5 -42l-25 -145q-4 -23 7 -40t32 -20h196q99 0 157.5 -70t41.5 -169l-37 -207q-8 -50 -41 -101q53 -69 35 -161l-45 -265q-19 -99 -101.5 -169 t-181.5 -70h-284q-99 0 -157.5 70t-39.5 169zM516 791q-5 -25 8.5 -42.5t38.5 -17.5h53q29 0 48 17.5t22 39.5l10 50q3 25 -11 42t-38 17h-53q-25 0 -46 -17.5t-24 -41.5z" />
<glyph unicode="&#xa8;" horiz-adv-x="899" d="M428 1849q10 63 63.5 107.5t118.5 44.5q63 0 99.5 -44.5t25.5 -107.5q-12 -65 -64.5 -110t-115.5 -45q-65 0 -102 45.5t-25 109.5zM815 1849q10 63 63.5 107.5t118.5 44.5q63 0 99.5 -44.5t25.5 -107.5q-12 -65 -64.5 -110t-115.5 -45q-65 0 -102 45.5t-25 109.5z" />
<glyph unicode="&#xa9;" horiz-adv-x="1697" d="M184 819q30 170 120 323t216.5 264.5t288.5 177t330 65.5t307 -65.5t226.5 -177t122.5 -264.5t5 -323t-119 -322.5t-215.5 -263.5t-288 -176t-329.5 -65q-224 0 -391 110.5t-239.5 300t-33.5 416.5zM444 819q-27 -156 21 -286.5t161 -206.5t267 -76q234 0 420.5 165.5 t228.5 403.5q27 156 -20.5 286.5t-160.5 207t-267 76.5q-234 0 -421 -166t-229 -404zM741 496l113 632q9 53 53.5 90t98.5 37h129q54 0 84.5 -37t21.5 -90l-12 -69q-3 -12 -13 -20.5t-22 -8.5h-90q-12 0 -19 8.5t-4 20.5l4 24q2 14 -5.5 23.5t-20.5 9.5h-29q-12 0 -24 -10 t-13 -23l-96 -548q-3 -12 5 -21.5t20 -9.5h34q13 0 24.5 9.5t14.5 21.5l15 83q2 12 11 20.5t21 8.5h88q12 0 19.5 -8.5t5.5 -20.5l-22 -122q-9 -52 -53 -89.5t-97 -37.5h-135q-54 0 -85 37t-22 90z" />
<glyph unicode="&#xaa;" horiz-adv-x="548" d="M180.5 772.5q-4.5 6.5 1.5 20.5l287 817q4 13 12 20t13 8h6h127q2 0 5.5 -0.5t8.5 -7.5t4 -20v-817q-1 -13 -6.5 -20t-10.5 -8l-5 -1h-107q-2 0 -5.5 1t-8.5 8t-4 20v92h-136l-32 -92q-4 -13 -12 -20t-14 -8l-5 -1h-106q-2 0 -5 1t-7.5 7.5zM408 1026h94l12 342z" />
<glyph unicode="&#xab;" horiz-adv-x="868" d="M176 772q-14 30 10 57l211 283q10 13 21 20t16 8l6 1h244l7 -3q4 -9 -9 -26l-229 -311l120 -312q4 -14 2 -20t-7 -7l-5 -1h-244q-20 -1 -30 28zM518 772q-14 30 10 57l211 283q10 13 21 20t16 8l6 1h244l7 -3q4 -9 -9 -26l-229 -311l120 -312q4 -14 2 -20t-7 -7l-5 -1 h-243q-21 -1 -31 28z" />
<glyph unicode="&#xac;" horiz-adv-x="1120" d="M223 694l37 207q1 12 12 20.5t23 8.5h858q12 0 18.5 -8.5t4.5 -20.5l-74 -422q-3 -12 -13 -20t-22 -8h-207q-12 0 -18.5 8t-3.5 20l32 187h-622q-12 0 -19 8t-6 20z" />
<glyph unicode="&#xad;" horiz-adv-x="897" d="M223 694l37 207q1 12 12 20.5t23 8.5h635q12 0 18 -8.5t4 -20.5l-37 -207q-1 -12 -10.5 -20t-21.5 -8h-635q-12 0 -19 8t-6 20z" />
<glyph unicode="&#xae;" horiz-adv-x="1697" d="M184 819q30 170 120 323t216.5 264.5t288.5 177t330 65.5t307 -65.5t226.5 -177t122.5 -264.5t5 -323t-119 -322.5t-215.5 -263.5t-288 -176t-329.5 -65q-224 0 -391 110.5t-239.5 300t-33.5 416.5zM444 819q-27 -156 21 -286.5t161 -206.5t267 -76q234 0 420.5 165.5 t228.5 403.5q27 156 -20.5 286.5t-160.5 207t-267 76.5q-234 0 -421 -166t-229 -404zM731 403l146 818q1 12 10.5 20t21.5 8h238q52 0 82.5 -37t21.5 -90l-51 -291q-6 -39 -34.5 -70.5t-67.5 -45.5l28 -312q2 -13 -2 -20t-9 -7l-5 -1h-104q-2 0 -6 0.5t-10.5 7.5t-8.5 20 l-29 302h-22l-53 -302q-1 -12 -11 -20t-22 -8h-88q-12 0 -19 8t-6 20zM958 860h70q14 0 25 10t12 23l33 186q3 12 -5.5 21.5t-21.5 9.5h-70z" />
<glyph unicode="&#xaf;" horiz-adv-x="897" d="M412 1761l16 92q1 12 12 20.5t23 8.5h635q12 0 18 -8.5t4 -20.5l-16 -92q-1 -12 -11 -20t-22 -8h-635q-12 0 -19 8t-5 20z" />
<glyph unicode="&#xb0;" horiz-adv-x="618" d="M377 1561q15 86 86.5 146t157.5 60t135.5 -60t34.5 -146t-86.5 -146.5t-157.5 -60.5t-135.5 60.5t-34.5 146.5zM526 1561q-4 -21 7 -39.5t40 -18.5t46.5 18.5t21.5 39.5t-7 39t-40 18t-46.5 -18t-21.5 -39z" />
<glyph unicode="&#xb1;" horiz-adv-x="897" d="M152 281l34 206q3 12 13 20.5t22 8.5h635q12 0 19 -8.5t4 -20.5l-35 -206q-3 -12 -13 -20.5t-22 -8.5h-635q-12 0 -18.5 8.5t-3.5 20.5zM252 858l37 207q3 12 13 20.5t22 8.5h184l33 184q2 12 11 20.5t21 8.5h207q12 0 19.5 -8.5t5.5 -20.5l-33 -184h186q12 0 19 -8.5 t4 -20.5l-37 -207q-1 -12 -11 -20.5t-22 -8.5h-186l-33 -186q-3 -12 -13 -20.5t-22 -8.5h-206q-12 0 -19 8.5t-4 20.5l33 186h-185q-12 0 -19 8.5t-5 20.5z" />
<glyph unicode="&#xb2;" horiz-adv-x="600" d="M240 778l20 127q13 18 35.5 49t79.5 113t101.5 149t83 131.5t42.5 86.5l6 41q3 12 -5 22t-21 10h-23q-13 0 -24.5 -10t-14.5 -22l-4 -27q-4 -14 -18 -14h-117q-6 0 -10.5 4t-3.5 10l14 74q9 52 52.5 89.5t96.5 37.5h129q53 0 84.5 -37.5t22.5 -89.5l-16 -88 q-6 -35 -89.5 -167t-164.5 -247l-80 -115h225q6 0 9.5 -5t2.5 -11l-18 -111q-3 -14 -19 -14h-366q-14 0 -10 14z" />
<glyph unicode="&#xb3;" horiz-adv-x="600" d="M260 887l12 71q4 15 19 15h117q6 0 9.5 -4.5t2.5 -10.5l-6 -30q-2 -14 6.5 -23.5t21.5 -9.5h33q12 0 23 10t12 23l33 186q3 13 -5 23t-20 10h-31q-10 0 -10 14l21 113q3 16 20 16h27q12 0 23 10t12 23l26 152q3 13 -4.5 22.5t-19.5 9.5h-35q-13 0 -24.5 -9t-14.5 -23 l-4 -25q0 -6 -5.5 -10t-11.5 -4h-118q-13 0 -13 14l13 70q11 54 54 91.5t97 37.5h137q53 0 85 -38t22 -91l-39 -228q-8 -38 -35 -71q17 -33 8 -72l-45 -262q-9 -54 -53.5 -91.5t-97.5 -37.5h-135q-54 0 -85 37.5t-22 91.5z" />
<glyph unicode="&#xb4;" horiz-adv-x="491" d="M412 1736q-6 7 4 25l108 174q8 13 18 20t16 8l5 1h162l6 -3q6 -6 -12 -26l-178 -202h-121z" />
<glyph unicode="&#xb6;" horiz-adv-x="1255" d="M260 897l88 502q17 99 100.5 169t182.5 70h823q12 0 19 -8t4 -20l-37 -207q-1 -12 -11 -20.5t-22 -8.5h-27l-237 -1345q-1 -12 -11 -20.5t-22 -8.5h-219q-12 0 -19.5 8.5t-5.5 20.5l238 1345h-68l-237 -1345q-1 -12 -11 -20.5t-22 -8.5h-219q-12 0 -19.5 8.5t-5.5 20.5 l111 628h-176q-99 0 -157.5 70.5t-39.5 169.5z" />
<glyph unicode="&#xb7;" horiz-adv-x="342" d="M152 686l38 223q1 12 11 20.5t22 8.5h223q12 0 19.5 -8.5t5.5 -20.5l-39 -223q-3 -12 -13 -20.5t-22 -8.5h-223q-12 0 -18.5 8.5t-3.5 20.5z" />
<glyph unicode="&#xb8;" horiz-adv-x="454" d="M51 -281l6 29q1 12 11 20.5t22 8.5h47q12 0 19.5 -8.5t5.5 -20.5q-1 -6 2.5 -10t9.5 -4h10q14 0 17 14l18 102q0 15 -12 15h-10q-6 0 -11.5 -4.5t-5.5 -10.5l-2 -12h-104l6 43l90 129h137l-51 -73h27q23 0 37 -16.5t10 -39.5l-29 -162q-3 -23 -22 -39t-43 -16h-138 q-23 0 -36.5 16t-10.5 39z" />
<glyph unicode="&#xb9;" horiz-adv-x="413" d="M299 778l123 699h-45q-6 0 -9.5 5t-2.5 11l12 70l96 75h111q6 0 9.5 -4t2.5 -10l-147 -846q-1 -6 -8 -10t-13 -4h-117q-15 0 -12 14z" />
<glyph unicode="&#xba;" horiz-adv-x="475" d="M197 885l110 633q9 52 54 89.5t96 37.5h139q51 0 82 -37.5t22 -89.5l-110 -633q-9 -52 -54 -89.5t-96 -37.5h-139q-51 0 -82 37.5t-22 89.5zM350 924q-2 -13 5 -22t20 -9h37q14 0 26 9.5t13 21.5l96 549q3 13 -5 22.5t-22 9.5h-37q-13 0 -23.5 -9t-13.5 -23z" />
<glyph unicode="&#xbb;" horiz-adv-x="868" d="M116 463q-6 7 9 26l227 312l-119 311q-4 14 -1.5 20.5t7.5 7.5l5 1h243q21 0 31 -29l113 -283q14 -31 -10 -57l-211 -283q-10 -13 -21 -20t-17 -7l-5 -1h-244zM458 463q-6 7 9 26l227 312l-119 311q-4 14 -1.5 20.5t7.5 7.5l5 1h243q21 0 31 -29l113 -283q14 -31 -10 -57 l-211 -283q-10 -13 -21 -20t-17 -7l-5 -1h-244z" />
<glyph unicode="&#xbc;" horiz-adv-x="1306" d="M179.5 111q-0.5 7 8.5 20l908 1356q8 13 18 20t16 8l5 1h204q2 0 4.5 -1t5 -7.5t-7.5 -20.5l-913 -1356q-9 -13 -19 -20t-16 -8l-6 -1h-199q-2 0 -5 1t-3.5 8zM299 778l123 699h-45q-6 0 -9.5 5t-2.5 11l12 70l96 75h111q6 0 9.5 -4t2.5 -10l-147 -846q-1 -6 -8 -10 t-13 -4h-117q-15 0 -12 14zM811 137l23 125l325 596q4 7 11.5 11t13.5 5h6h117q15 0 12 -16l-105 -596h19q14 0 14 -16l-20 -109q0 -14 -19 -14h-18l-19 -107q-3 -16 -18 -16h-117q-6 0 -10.5 4.5t-3.5 11.5l18 107h-215q-14 0 -14 14zM975 262h96l55 316z" />
<glyph unicode="&#xbd;" horiz-adv-x="1394" d="M173.5 111q-0.5 7 8.5 20l908 1356q8 13 17.5 20t14.5 8l6 1h226q2 0 4.5 -1t5 -7.5t-7.5 -20.5l-914 -1356q-9 -13 -19 -20t-16 -8l-6 -1h-219q-2 0 -5 1t-3.5 8zM299 778l123 699h-45q-6 0 -9.5 5t-2.5 11l12 70l96 75h111q6 0 9.5 -4t2.5 -10l-147 -846q-1 -6 -8 -10 t-13 -4h-117q-15 0 -12 14zM899 14l23 127q13 18 35 49t79 113t101.5 149t82.5 131.5t42 86.5l8 41q2 12 -6 22t-21 10h-22q-13 0 -25 -10t-14 -22l-6 -27q0 -14 -19 -14h-117q-14 0 -14 14l14 74q9 52 54 89.5t98 37.5h129q52 0 82.5 -37t21.5 -90l-16 -88q-6 -35 -89 -167 t-163 -247l-80 -115h226q6 0 9 -5t1 -11l-19 -111q-4 -14 -16 -14h-367q-15 0 -12 14z" />
<glyph unicode="&#xbe;" horiz-adv-x="1411" d="M260 887l12 71q4 15 19 15h117q6 0 9.5 -4.5t2.5 -10.5l-6 -30q-2 -14 6.5 -23.5t21.5 -9.5h33q12 0 23 10t12 23l33 186q3 13 -5 23t-20 10h-31q-10 0 -10 14l21 113q3 16 20 16h27q12 0 23 10t12 23l26 152q3 13 -4.5 22.5t-19.5 9.5h-35q-13 0 -24.5 -9t-14.5 -23 l-4 -25q0 -6 -5.5 -10t-11.5 -4h-118q-13 0 -13 14l13 70q11 54 54 91.5t97 37.5h137q53 0 85 -38t22 -91l-39 -228q-8 -38 -35 -71q17 -33 8 -72l-45 -262q-9 -54 -53.5 -91.5t-97.5 -37.5h-135q-54 0 -85 37.5t-22 91.5zM292.5 111q-0.5 7 8.5 20l907 1356q8 13 18 20 t16 8l5 1h205q2 0 4.5 -1t5 -7.5t-7.5 -20.5l-913 -1356q-9 -13 -19 -20t-16 -8l-6 -1h-199q-2 0 -5 1t-3.5 8zM915 137l23 125l326 596q4 7 11.5 11t12.5 5h6h117q15 0 12 -16l-104 -596h18q15 0 15 -16l-21 -109q0 -14 -18 -14h-19l-18 -107q-3 -16 -19 -16h-116 q-7 0 -11.5 4.5t-3.5 11.5l19 107h-215q-15 0 -15 14zM1079 262h97l55 316z" />
<glyph unicode="&#xbf;" horiz-adv-x="876" d="M121 229l88 500q19 101 80.5 163t161.5 77q26 3 45.5 19t23.5 40l35 193q1 12 11 20t22 8h219q12 0 19 -8t5 -20l-49 -269q-18 -101 -79.5 -164t-159.5 -75q-26 -3 -46 -19.5t-24 -40.5l-61 -340q-3 -25 11 -42t38 -17h61q25 0 46 17.5t24 41.5l12 68q3 12 13 20.5 t22 8.5h219q12 0 19 -8.5t4 -20.5l-27 -152q-17 -99 -99.5 -169t-181.5 -70h-254q-99 0 -157 70t-41 169zM582 1376l41 234q7 28 34 28h220q12 0 18.5 -8t3.5 -20l-41 -234q-1 -12 -11 -20t-22 -8h-219q-12 0 -19 8t-5 20z" />
<glyph unicode="&#xc0;" d="M67.5 8.5q-4.5 6.5 0.5 20.5l550 1581q4 13 13.5 20t16.5 8h7h189q3 0 7 -0.5t11 -7.5t6 -20l-6 -1581q0 -13 -5 -20t-10 -8l-5 -1h-236q-2 0 -5.5 1t-9 8t-5.5 20l6 198h-184l-64 -198q-4 -13 -11 -20t-13 -8l-5 -1h-235q-2 0 -5 1t-7.5 7.5zM489 492h117l47 606z M577.5 1955.5q1.5 6.5 6.5 7.5l4 1h162q2 0 5.5 -1t10.5 -8t10 -20l47 -174q3 -14 0.5 -20t-7.5 -7l-5 -1h-121l-108 202q-6 14 -4.5 20.5z" />
<glyph unicode="&#xc1;" d="M67.5 8.5q-4.5 6.5 0.5 20.5l550 1581q4 13 13.5 20t16.5 8h7h189q3 0 7 -0.5t11 -7.5t6 -20l-6 -1581q0 -13 -5 -20t-10 -8l-5 -1h-236q-2 0 -5.5 1t-9 8t-5.5 20l6 198h-184l-64 -198q-4 -13 -11 -20t-13 -8l-5 -1h-235q-2 0 -5 1t-7.5 7.5zM489 492h117l47 606z M709 1736q-6 7 4 25l108 174q8 13 17.5 20t15.5 8l6 1h162l6 -3q6 -6 -12 -26l-178 -202h-121z" />
<glyph unicode="&#xc2;" d="M67.5 8.5q-4.5 6.5 0.5 20.5l550 1581q4 13 13.5 20t16.5 8h7h189q3 0 7 -0.5t11 -7.5t6 -20l-6 -1581q0 -13 -5 -20t-10 -8l-5 -1h-236q-2 0 -5.5 1t-9 8t-5.5 20l6 198h-184l-64 -198q-4 -13 -11 -20t-13 -8l-5 -1h-235q-2 0 -5 1t-7.5 7.5zM489 492h117l47 606z M565 1736q-6 7 4 25l109 174q8 13 18 20t16 8l5 1h182q2 0 6 -1t11 -8t10 -20l47 -174q3 -14 0.5 -20t-7.5 -7l-5 -1h-123l-56 102l-88 -102h-121z" />
<glyph unicode="&#xc3;" d="M67.5 8.5q-4.5 6.5 0.5 20.5l550 1581q4 13 13.5 20t16.5 8h7h189q3 0 7 -0.5t11 -7.5t6 -20l-6 -1581q0 -13 -5 -20t-10 -8l-5 -1h-236q-2 0 -5.5 1t-9 8t-5.5 20l6 198h-184l-64 -198q-4 -13 -11 -20t-13 -8l-5 -1h-235q-2 0 -5 1t-7.5 7.5zM489 492h117l47 606z M516 1736q-6 7 4 25l109 174q8 13 17.5 20t15.5 8l6 1h131q20 0 32 -29l33 -67l86 96h121q2 0 4.5 -1t5 -7.5t-7.5 -20.5l-108 -174q-7 -13 -16.5 -20t-14.5 -7l-6 -1h-144l-55 102l-84 -102h-121z" />
<glyph unicode="&#xc4;" d="M67.5 8.5q-4.5 6.5 0.5 20.5l550 1581q4 13 13.5 20t16.5 8h7h189q3 0 7 -0.5t11 -7.5t6 -20l-6 -1581q0 -13 -5 -20t-10 -8l-5 -1h-236q-2 0 -5.5 1t-9 8t-5.5 20l6 198h-184l-64 -198q-4 -13 -11 -20t-13 -8l-5 -1h-235q-2 0 -5 1t-7.5 7.5zM440 1849q10 63 64 107.5 t119 44.5q63 0 99.5 -44.5t25.5 -107.5q-12 -64 -65 -109.5t-116 -45.5q-65 0 -102 45.5t-25 109.5zM489 492h117l47 606zM827 1849q10 63 64 107.5t119 44.5q63 0 99.5 -44.5t25.5 -107.5q-12 -64 -65 -109.5t-116 -45.5q-65 0 -102 45.5t-25 109.5z" />
<glyph unicode="&#xc5;" d="M67.5 8.5q-4.5 6.5 0.5 20.5l532 1530q-62 59 -47 159q15 86 86.5 146.5t157.5 60.5t135.5 -60.5t34.5 -146.5q-15 -93 -99 -157l-6 -1532q0 -13 -5 -20t-10 -8l-5 -1h-236q-2 0 -5.5 1t-9 8t-5.5 20l6 198h-184l-64 -198q-4 -13 -11 -20t-13 -8l-5 -1h-235q-2 0 -5 1 t-7.5 7.5zM489 492h117l47 606zM713 1718q-3 -23 8.5 -35t30.5 -12t35.5 12t19.5 35q4 23 -8 35t-31 12t-35 -12t-20 -35z" />
<glyph unicode="&#xc6;" horiz-adv-x="1204" d="M67.5 8.5q-4.5 6.5 0.5 20.5l550 1581q4 13 13.5 20t16.5 8h7h725q12 0 19 -8t4 -20l-29 -168q-3 -12 -13 -20.5t-22 -8.5h-473l-2 -438h316q12 0 19 -8.5t5 -20.5l-28 -166q-3 -12 -13 -20t-22 -8h-277l-2 -529h281q12 0 18.5 -8t3.5 -20l-28 -166q-1 -12 -11 -20.5 t-22 -8.5h-457q-2 0 -5.5 1t-9 8t-5.5 20l2 219h-250l-76 -219q-4 -13 -11 -20t-12 -8l-6 -1h-194q-2 0 -5 1t-7.5 7.5zM494 512h116l43 586z" />
<glyph unicode="&#xc7;" horiz-adv-x="911" d="M141 229l209 1180q17 99 99.5 169.5t181.5 70.5h248q99 0 157 -70.5t41 -169.5l-26 -152q-3 -12 -13 -20t-22 -8h-219q-12 0 -19 8t-4 20l12 68q3 25 -11 42t-38 17h-55q-25 0 -46 -17.5t-24 -41.5l-180 -1020q-4 -25 10 -42t39 -17h66q25 0 44.5 17t24.5 42l31 178 q3 12 13 20.5t22 8.5h219q12 0 19 -8.5t4 -20.5l-45 -254q-17 -99 -99.5 -169t-181.5 -70h-72l-37 -53h27q23 0 37 -16.5t10 -39.5l-28 -162q-3 -23 -22.5 -39t-43.5 -16h-137q-23 0 -36.5 16t-10.5 39l6 29q1 12 11 20.5t22 8.5h47q12 0 19 -8.5t5 -20.5q-1 -6 3 -10t10 -4 h10q12 0 16 14l19 102q0 15 -13 15h-10q-6 0 -11 -4.5t-5 -10.5l-2 -12h-105l6 43l78 109h-51q-99 0 -157.5 70t-41.5 169z" />
<glyph unicode="&#xc8;" horiz-adv-x="866" d="M106 29l279 1581q3 12 13 20t22 8h622q12 0 19 -8t4 -20l-37 -209q-1 -12 -11 -20.5t-22 -8.5h-374l-68 -377h293q12 0 19 -8t5 -20l-36 -207q-1 -12 -12 -20.5t-23 -8.5h-293l-82 -467h387q12 0 19 -8t6 -20l-37 -207q-1 -12 -11 -20.5t-22 -8.5h-635q-12 0 -19.5 8.5 t-5.5 20.5zM564.5 1955.5q1.5 6.5 5.5 7.5l5 1h162q2 0 6 -1t11 -8t10 -20l47 -174q3 -14 0.5 -20t-7.5 -7l-5 -1h-121l-109 202q-6 14 -4.5 20.5z" />
<glyph unicode="&#xc9;" horiz-adv-x="866" d="M106 29l279 1581q3 12 13 20t22 8h622q12 0 19 -8t4 -20l-37 -209q-1 -12 -11 -20.5t-22 -8.5h-374l-68 -377h293q12 0 19 -8t5 -20l-36 -207q-1 -12 -12 -20.5t-23 -8.5h-293l-82 -467h387q12 0 19 -8t6 -20l-37 -207q-1 -12 -11 -20.5t-22 -8.5h-635q-12 0 -19.5 8.5 t-5.5 20.5zM680 1736q-6 7 4 25l109 174q8 13 17.5 20t15.5 8l5 1h162l6 -3q6 -6 -12 -26l-178 -202h-121z" />
<glyph unicode="&#xca;" horiz-adv-x="866" d="M106 29l279 1581q3 12 13 20t22 8h622q12 0 19 -8t4 -20l-37 -209q-1 -12 -11 -20.5t-22 -8.5h-374l-68 -377h293q12 0 19 -8t5 -20l-36 -207q-1 -12 -12 -20.5t-23 -8.5h-293l-82 -467h387q12 0 19 -8t6 -20l-37 -207q-1 -12 -11 -20.5t-22 -8.5h-635q-12 0 -19.5 8.5 t-5.5 20.5zM541 1736q-6 7 4 25l108 174q8 13 17.5 20t15.5 8l6 1h182q2 0 6 -1t11 -8t10 -20l47 -174q3 -14 0.5 -20t-7.5 -7l-5 -1h-123l-55 102l-88 -102h-121z" />
<glyph unicode="&#xcb;" horiz-adv-x="874" d="M115 29l278 1581q3 12 13 20t22 8h623q12 0 18.5 -8t3.5 -20l-37 -209q-2 -12 -11 -20.5t-21 -8.5h-375l-68 -377h293q12 0 19 -8t6 -20l-37 -207q-1 -12 -12 -20.5t-23 -8.5h-293l-82 -467h387q12 0 19 -8t6 -20l-37 -207q-1 -12 -11 -20.5t-22 -8.5h-635q-12 0 -19 8.5 t-5 20.5zM428 1849q10 63 63.5 107.5t118.5 44.5q63 0 99.5 -44.5t25.5 -107.5q-12 -65 -64.5 -110t-115.5 -45q-65 0 -102 45.5t-25 109.5zM815 1849q10 63 63.5 107.5t118.5 44.5q63 0 99.5 -44.5t25.5 -107.5q-12 -65 -64.5 -110t-115.5 -45q-65 0 -102 45.5t-25 109.5z " />
<glyph unicode="&#xcc;" horiz-adv-x="466" d="M92 29l279 1581q3 12 13 20t22 8h219q12 0 18.5 -8t3.5 -20l-278 -1581q-1 -12 -11 -20.5t-22 -8.5h-219q-12 0 -19.5 8.5t-5.5 20.5zM345.5 1955.5q1.5 6.5 6.5 7.5l4 1h162q2 0 6 -1t11 -8t10 -20l47 -174q3 -14 0.5 -20t-7.5 -7l-5 -1h-121l-109 202q-6 14 -4.5 20.5z " />
<glyph unicode="&#xcd;" horiz-adv-x="464" d="M106 29l279 1581q3 12 13 20t22 8h219q12 0 19 -8t4 -20l-279 -1581q-1 -12 -11 -20.5t-22 -8.5h-219q-12 0 -19.5 8.5t-5.5 20.5zM488 1736q-6 7 4 25l108 174q8 13 18 20t16 8l5 1h162l6 -3q6 -6 -12 -26l-179 -202h-120z" />
<glyph unicode="&#xce;" horiz-adv-x="473" d="M102 29l279 1581q3 12 13 20t22 8h219q12 0 18.5 -8t3.5 -20l-278 -1581q-1 -12 -11 -20.5t-22 -8.5h-219q-12 0 -19.5 8.5t-5.5 20.5zM340 1736q-6 7 4 25l109 174q8 13 17.5 20t15.5 8l6 1h182q2 0 5.5 -1t10.5 -8t10 -20l48 -174q3 -14 0 -20t-8 -7l-5 -1h-123 l-55 102l-88 -102h-121z" />
<glyph unicode="&#xcf;" horiz-adv-x="458" d="M96 29l279 1581q3 12 13 20t22 8h219q12 0 18.5 -8t3.5 -20l-278 -1581q-1 -12 -11 -20.5t-22 -8.5h-219q-12 0 -19.5 8.5t-5.5 20.5zM223 1849q10 63 64 107.5t119 44.5q63 0 99 -44.5t25 -107.5q-12 -65 -64.5 -110t-115.5 -45q-65 0 -102 45.5t-25 109.5zM580 1849 q10 63 63.5 107.5t118.5 44.5q63 0 99.5 -44.5t25.5 -107.5q-12 -65 -64.5 -110t-115.5 -45q-65 0 -102 45.5t-25 109.5z" />
<glyph unicode="&#xd0;" horiz-adv-x="942" d="M106 29l113 637h-74q-12 0 -19 8t-5 20l37 207q1 12 12 20.5t23 8.5h73l119 680q3 12 13 20t22 8h469q98 0 155.5 -69.5t40.5 -169.5l-204 -1159q-17 -99 -99.5 -169.5t-181.5 -70.5h-469q-12 0 -19.5 8.5t-5.5 20.5zM424 264h125q25 0 45.5 17.5t23.5 42.5l177 991 q4 25 -10.5 42t-39.5 17h-124l-78 -444h53q12 0 18 -8.5t4 -20.5l-36 -207q-1 -12 -11 -20t-22 -8h-53z" />
<glyph unicode="&#xd1;" horiz-adv-x="958" d="M106 29l279 1581q3 12 13 20t22 8h217q3 0 6.5 -0.5t10.5 -7.5t8 -20l77 -697l123 697q3 12 13 20t22 8h219q12 0 19 -8t4 -20l-279 -1581q-1 -12 -11 -20.5t-22 -8.5h-206q-3 0 -6.5 1t-11 8t-9.5 20l-92 671l-119 -671q-1 -12 -11 -20.5t-22 -8.5h-219q-12 0 -19.5 8.5 t-5.5 20.5zM533 1736q-6 7 4 25l108 174q8 13 17.5 20t15.5 8l6 1h131q21 0 33 -29l33 -67l86 96h120q2 0 4.5 -1t5.5 -7.5t-7 -20.5l-109 -174q-7 -13 -16.5 -20t-14.5 -7l-6 -1h-143l-56 102l-83 -102h-121z" />
<glyph unicode="&#xd2;" horiz-adv-x="946" d="M141 229l209 1180q17 99 99.5 169.5t181.5 70.5h262q99 0 157.5 -70.5t41.5 -169.5l-209 -1180q-17 -99 -99.5 -169t-181.5 -70h-262q-99 0 -157.5 70t-41.5 169zM432 305q-4 -25 10 -42t39 -17h70q25 0 45.5 17t24.5 42l180 1020q3 25 -11 42t-38 17h-70 q-25 0 -46 -17.5t-24 -41.5zM589.5 1955.5q1.5 6.5 6.5 7.5l4 1h162q2 0 5.5 -1t10.5 -8t10 -20l48 -174q3 -14 0 -20t-8 -7l-5 -1h-121l-108 202q-6 14 -4.5 20.5z" />
<glyph unicode="&#xd3;" horiz-adv-x="946" d="M141 229l209 1180q17 99 99.5 169.5t181.5 70.5h262q99 0 157.5 -70.5t41.5 -169.5l-209 -1180q-17 -99 -99.5 -169t-181.5 -70h-262q-99 0 -157.5 70t-41.5 169zM432 305q-4 -25 10 -42t39 -17h70q25 0 45.5 17t24.5 42l180 1020q3 25 -11 42t-38 17h-70 q-25 0 -46 -17.5t-24 -41.5zM725 1736q-6 7 4 25l109 174q8 13 18 20t16 8l5 1h161l6 -3q6 -6 -12 -26l-178 -202h-121z" />
<glyph unicode="&#xd4;" horiz-adv-x="946" d="M141 229l209 1180q17 99 99.5 169.5t181.5 70.5h262q99 0 157.5 -70.5t41.5 -169.5l-209 -1180q-17 -99 -99.5 -169t-181.5 -70h-262q-99 0 -157.5 70t-41.5 169zM432 305q-4 -25 10 -42t39 -17h70q25 0 45.5 17t24.5 42l180 1020q3 25 -11 42t-38 17h-70 q-25 0 -46 -17.5t-24 -41.5zM569.5 1738.5q-1.5 2.5 0 8.5t5.5 14l109 174q8 13 18 20t16 8l5 1h182q2 0 6 -1t11 -8t10 -20l47 -174q3 -14 0.5 -20t-7.5 -7l-5 -1h-123l-56 102l-88 -102h-120h-2t-4 1.5t-4.5 4z" />
<glyph unicode="&#xd5;" horiz-adv-x="946" d="M141 229l209 1180q17 99 99.5 169.5t181.5 70.5h262q99 0 157.5 -70.5t41.5 -169.5l-209 -1180q-17 -99 -99.5 -169t-181.5 -70h-262q-99 0 -157.5 70t-41.5 169zM432 305q-4 -25 10 -42t39 -17h70q25 0 45.5 17t24.5 42l180 1020q3 25 -11 42t-38 17h-70 q-25 0 -46 -17.5t-24 -41.5zM526.5 1738.5q-1.5 2.5 0 8.5t5.5 14l109 174q8 13 17.5 20t15.5 8l6 1h131q21 0 33 -29l33 -67l86 96h120q2 0 4.5 -1t5 -7.5t-7.5 -20.5l-108 -174q-7 -13 -16.5 -20t-14.5 -7l-6 -1h-143l-56 102l-84 -102h-120h-2t-4 1.5t-4.5 4z" />
<glyph unicode="&#xd6;" horiz-adv-x="946" d="M141 229l209 1180q17 99 99.5 169.5t181.5 70.5h262q99 0 157.5 -70.5t41.5 -169.5l-209 -1180q-17 -99 -99.5 -169t-181.5 -70h-262q-99 0 -157.5 70t-41.5 169zM432 305q-4 -25 10 -42t39 -17h70q25 0 45.5 17t24.5 42l180 1020q3 25 -11 42t-38 17h-70 q-25 0 -46 -17.5t-24 -41.5zM451 1849q10 63 63.5 107.5t118.5 44.5q63 0 99.5 -44.5t25.5 -107.5q-12 -65 -64.5 -110t-115.5 -45q-65 0 -102 45.5t-25 109.5zM838 1849q10 63 63.5 107.5t118.5 44.5q63 0 99.5 -44.5t25.5 -107.5q-12 -65 -64.5 -110t-115.5 -45 q-65 0 -102 45.5t-25 109.5z" />
<glyph unicode="&#xd7;" horiz-adv-x="845" d="M137 412q-7 7 6 26l273 375l-140 367q-5 14 -2 20t9 7l6 1h262q21 1 29 -28l32 -90l68 90q9 13 19 20t16 8h6h262l9 -2q8 -7 -9 -26l-268 -367l139 -375q5 -14 3 -20t-7 -7l-6 -1h-256q-17 -1 -31 28l-41 101l-76 -101q-10 -13 -20 -20t-14 -8h-5h-256z" />
<glyph unicode="&#xd8;" horiz-adv-x="937" d="M92 -99q-4 7 4 25l68 160q-36 59 -23 143l209 1180q17 99 99.5 169.5t181.5 70.5h182l29 63q5 13 15 20t17 8l7 1h245q2 0 3.5 -1t3.5 -7.5t-5 -20.5l-67 -160q34 -61 22 -143l-209 -1180q-17 -99 -99 -169t-181 -70h-191l-26 -64q-5 -13 -15 -20t-17 -8h-7h-240z M512 246h31q25 0 44.5 17t24.5 42l54 309zM561 1040l144 344h-23q-25 0 -46 -17.5t-24 -41.5z" />
<glyph unicode="&#xd9;" horiz-adv-x="942" d="M141 229l244 1381q3 12 13 20t22 8h219q12 0 19 -8t4 -20l-230 -1305q-4 -25 10 -42t39 -17h66q25 0 44.5 17t24.5 42l230 1305q3 12 13 20t22 8h219q12 0 18.5 -8t3.5 -20l-243 -1381q-17 -99 -99.5 -169t-181.5 -70h-258q-99 0 -157.5 70t-41.5 169zM589.5 1955.5 q1.5 6.5 6.5 7.5l4 1h162q2 0 5.5 -1t10.5 -8t10 -20l48 -174q3 -14 0 -20t-8 -7l-5 -1h-121l-108 202q-6 14 -4.5 20.5z" />
<glyph unicode="&#xda;" horiz-adv-x="942" d="M141 229l244 1381q3 12 13 20t22 8h219q12 0 19 -8t4 -20l-230 -1305q-4 -25 10 -42t39 -17h66q25 0 44.5 17t24.5 42l230 1305q3 12 13 20t22 8h219q12 0 18.5 -8t3.5 -20l-243 -1381q-17 -99 -99.5 -169t-181.5 -70h-258q-99 0 -157.5 70t-41.5 169zM717 1736 q-6 7 4 25l108 174q8 13 17.5 20t15.5 8l6 1h162l6 -3q6 -6 -12 -26l-178 -202h-121z" />
<glyph unicode="&#xdb;" horiz-adv-x="942" d="M141 229l244 1381q3 12 13 20t22 8h219q12 0 19 -8t4 -20l-230 -1305q-4 -25 10 -42t39 -17h66q25 0 44.5 17t24.5 42l230 1305q3 12 13 20t22 8h219q12 0 18.5 -8t3.5 -20l-243 -1381q-17 -99 -99.5 -169t-181.5 -70h-258q-99 0 -157.5 70t-41.5 169zM574 1736 q-6 7 4 25l108 174q8 13 18 20t16 8l5 1h182q2 0 6 -1t11 -8t10 -20l47 -174q3 -14 0.5 -20t-7.5 -7l-5 -1h-123l-55 102l-89 -102h-120z" />
<glyph unicode="&#xdc;" horiz-adv-x="942" d="M141 229l244 1381q3 12 13 20t22 8h219q12 0 19 -8t4 -20l-230 -1305q-4 -25 10 -42t39 -17h66q25 0 44.5 17t24.5 42l230 1305q3 12 13 20t22 8h219q12 0 18.5 -8t3.5 -20l-243 -1381q-17 -99 -99.5 -169t-181.5 -70h-258q-99 0 -157.5 70t-41.5 169zM449 1849 q10 63 63.5 107.5t118.5 44.5q63 0 99.5 -44.5t25.5 -107.5q-12 -64 -65 -109.5t-116 -45.5q-64 0 -101 45t-25 110zM836 1849q10 63 63.5 107.5t118.5 44.5q63 0 99.5 -44.5t25.5 -107.5q-12 -65 -64.5 -110t-115.5 -45q-65 0 -102 45.5t-25 109.5z" />
<glyph unicode="&#xdd;" horiz-adv-x="868" d="M301 29l86 483l-61 1098q-1 13 3.5 20t9.5 8h5h236q2 0 5.5 -0.5t9 -7.5t5.5 -20l4 -641l230 641q5 13 13 20t13 8h6h236h2t4 -1.5t4 -4t0.5 -8.5t-4.5 -14l-446 -1098l-87 -483q-2 -12 -11 -20.5t-21 -8.5h-217q-12 0 -19.5 8.5t-5.5 20.5zM684 1736q-6 7 4 25l109 174 q8 13 17.5 20t15.5 8l6 1h161l6 -3q6 -6 -12 -26l-178 -202h-121z" />
<glyph unicode="&#xde;" d="M106 29l279 1581q3 12 13 20t22 8h219q12 0 19 -8t4 -20l-54 -299h221q99 0 157.5 -70.5t41.5 -169.5l-88 -502q-19 -99 -101.5 -169t-181.5 -70h-221l-53 -301q-1 -12 -11 -20.5t-22 -8.5h-219q-12 0 -19.5 8.5t-5.5 20.5zM481 586h125q25 0 45.5 17t24.5 42l59 342 q5 25 -8.5 42.5t-38.5 17.5h-125z" />
<glyph unicode="&#xdf;" horiz-adv-x="917" d="M106 29l242 1370q17 99 100.5 169t182.5 70h424q12 0 18.5 -8t3.5 -20l-41 -236l-225 -471q76 -19 116 -83t25 -148l-78 -443q-17 -99 -99 -169t-181 -70h-68q-12 0 -19 8t-5 20l33 187q25 0 44.5 17t24.5 42l58 324q4 25 -10.5 42t-39.5 17h-67q-12 0 -19 8.5t-4 20.5 l37 215l225 483h-104q-25 0 -45.5 -17t-24.5 -42l-227 -1286q-1 -12 -11 -20.5t-22 -8.5h-219q-12 0 -19.5 8.5t-5.5 20.5z" />
<glyph unicode="&#xe0;" d="M67.5 8.5q-4.5 6.5 0.5 20.5l550 1581q4 13 13.5 20t16.5 8h7h189q3 0 7 -0.5t11 -7.5t6 -20l-6 -1581q0 -13 -5 -20t-10 -8l-5 -1h-236q-2 0 -5.5 1t-9 8t-5.5 20l6 198h-184l-64 -198q-4 -13 -11 -20t-13 -8l-5 -1h-235q-2 0 -5 1t-7.5 7.5zM489 492h117l47 606z M577.5 1955.5q1.5 6.5 6.5 7.5l4 1h162q2 0 5.5 -1t10.5 -8t10 -20l47 -174q3 -14 0.5 -20t-7.5 -7l-5 -1h-121l-108 202q-6 14 -4.5 20.5z" />
<glyph unicode="&#xe1;" d="M67.5 8.5q-4.5 6.5 0.5 20.5l550 1581q4 13 13.5 20t16.5 8h7h189q3 0 7 -0.5t11 -7.5t6 -20l-6 -1581q0 -13 -5 -20t-10 -8l-5 -1h-236q-2 0 -5.5 1t-9 8t-5.5 20l6 198h-184l-64 -198q-4 -13 -11 -20t-13 -8l-5 -1h-235q-2 0 -5 1t-7.5 7.5zM489 492h117l47 606z M709 1736q-6 7 4 25l108 174q8 13 17.5 20t15.5 8l6 1h162l6 -3q6 -6 -12 -26l-178 -202h-121z" />
<glyph unicode="&#xe2;" d="M67.5 8.5q-4.5 6.5 0.5 20.5l550 1581q4 13 13.5 20t16.5 8h7h189q3 0 7 -0.5t11 -7.5t6 -20l-6 -1581q0 -13 -5 -20t-10 -8l-5 -1h-236q-2 0 -5.5 1t-9 8t-5.5 20l6 198h-184l-64 -198q-4 -13 -11 -20t-13 -8l-5 -1h-235q-2 0 -5 1t-7.5 7.5zM489 492h117l47 606z M565 1736q-6 7 4 25l109 174q8 13 18 20t16 8l5 1h182q2 0 6 -1t11 -8t10 -20l47 -174q3 -14 0.5 -20t-7.5 -7l-5 -1h-123l-56 102l-88 -102h-121z" />
<glyph unicode="&#xe3;" d="M67.5 8.5q-4.5 6.5 0.5 20.5l550 1581q4 13 13.5 20t16.5 8h7h189q3 0 7 -0.5t11 -7.5t6 -20l-6 -1581q0 -13 -5 -20t-10 -8l-5 -1h-236q-2 0 -5.5 1t-9 8t-5.5 20l6 198h-184l-64 -198q-4 -13 -11 -20t-13 -8l-5 -1h-235q-2 0 -5 1t-7.5 7.5zM489 492h117l47 606z M516 1736q-6 7 4 25l109 174q8 13 17.5 20t15.5 8l6 1h131q20 0 32 -29l33 -67l86 96h121q2 0 4.5 -1t5 -7.5t-7.5 -20.5l-108 -174q-7 -13 -16.5 -20t-14.5 -7l-6 -1h-144l-55 102l-84 -102h-121z" />
<glyph unicode="&#xe4;" d="M67.5 8.5q-4.5 6.5 0.5 20.5l550 1581q4 13 13.5 20t16.5 8h7h189q3 0 7 -0.5t11 -7.5t6 -20l-6 -1581q0 -13 -5 -20t-10 -8l-5 -1h-236q-2 0 -5.5 1t-9 8t-5.5 20l6 198h-184l-64 -198q-4 -13 -11 -20t-13 -8l-5 -1h-235q-2 0 -5 1t-7.5 7.5zM440 1849q10 63 64 107.5 t119 44.5q63 0 99.5 -44.5t25.5 -107.5q-12 -64 -65 -109.5t-116 -45.5q-65 0 -102 45.5t-25 109.5zM489 492h117l47 606zM827 1849q10 63 64 107.5t119 44.5q63 0 99.5 -44.5t25.5 -107.5q-12 -64 -65 -109.5t-116 -45.5q-65 0 -102 45.5t-25 109.5z" />
<glyph unicode="&#xe5;" d="M67.5 8.5q-4.5 6.5 0.5 20.5l532 1530q-62 59 -47 159q15 86 86.5 146.5t157.5 60.5t135.5 -60.5t34.5 -146.5q-15 -93 -99 -157l-6 -1532q0 -13 -5 -20t-10 -8l-5 -1h-236q-2 0 -5.5 1t-9 8t-5.5 20l6 198h-184l-64 -198q-4 -13 -11 -20t-13 -8l-5 -1h-235q-2 0 -5 1 t-7.5 7.5zM489 492h117l47 606zM713 1718q-3 -23 8.5 -35t30.5 -12t35.5 12t19.5 35q4 23 -8 35t-31 12t-35 -12t-20 -35z" />
<glyph unicode="&#xe6;" horiz-adv-x="1204" d="M67.5 8.5q-4.5 6.5 0.5 20.5l550 1581q4 13 13.5 20t16.5 8h7h725q12 0 19 -8t4 -20l-37 -209q-1 -12 -11 -20.5t-22 -8.5h-465l-4 -377h320q12 0 19 -8t5 -20l-37 -207q-1 -12 -11.5 -20.5t-22.5 -8.5h-273l-2 -467h287q12 0 19 -8t6 -20l-37 -207q-1 -12 -11 -20.5 t-22 -8.5h-498q-2 0 -5.5 1t-9 8t-5.5 20l10 219h-184l-68 -219q-4 -13 -11 -20t-13 -8l-5 -1h-235q-2 0 -5 1t-7.5 7.5zM494 512h116l43 586z" />
<glyph unicode="&#xe7;" horiz-adv-x="911" d="M141 229l209 1180q17 99 99.5 169.5t181.5 70.5h248q99 0 157 -70.5t41 -169.5l-26 -152q-3 -12 -13 -20t-22 -8h-219q-12 0 -19 8t-4 20l12 68q3 25 -11 42t-38 17h-55q-25 0 -46 -17.5t-24 -41.5l-180 -1020q-4 -25 10 -42t39 -17h66q25 0 44.5 17t24.5 42l31 178 q3 12 13 20.5t22 8.5h219q12 0 19 -8.5t4 -20.5l-45 -254q-17 -99 -99.5 -169t-181.5 -70h-72l-37 -53h27q23 0 37 -16.5t10 -39.5l-28 -162q-3 -23 -22.5 -39t-43.5 -16h-137q-23 0 -36.5 16t-10.5 39l6 29q1 12 11 20.5t22 8.5h47q12 0 19 -8.5t5 -20.5q-1 -6 3 -10t10 -4 h10q12 0 16 14l19 102q0 15 -13 15h-10q-6 0 -11 -4.5t-5 -10.5l-2 -12h-105l6 43l78 109h-51q-99 0 -157.5 70t-41.5 169z" />
<glyph unicode="&#xe8;" horiz-adv-x="866" d="M106 29l279 1581q3 12 13 20t22 8h622q12 0 19 -8t4 -20l-37 -209q-1 -12 -11 -20.5t-22 -8.5h-374l-68 -377h293q12 0 19 -8t5 -20l-36 -207q-1 -12 -12 -20.5t-23 -8.5h-293l-82 -467h387q12 0 19 -8t6 -20l-37 -207q-1 -12 -11 -20.5t-22 -8.5h-635q-12 0 -19.5 8.5 t-5.5 20.5zM564.5 1955.5q1.5 6.5 5.5 7.5l5 1h162q2 0 6 -1t11 -8t10 -20l47 -174q3 -14 0.5 -20t-7.5 -7l-5 -1h-121l-109 202q-6 14 -4.5 20.5z" />
<glyph unicode="&#xe9;" horiz-adv-x="866" d="M106 29l279 1581q3 12 13 20t22 8h622q12 0 19 -8t4 -20l-37 -209q-1 -12 -11 -20.5t-22 -8.5h-374l-68 -377h293q12 0 19 -8t5 -20l-36 -207q-1 -12 -12 -20.5t-23 -8.5h-293l-82 -467h387q12 0 19 -8t6 -20l-37 -207q-1 -12 -11 -20.5t-22 -8.5h-635q-12 0 -19.5 8.5 t-5.5 20.5zM682 1736q-6 7 4 25l109 174q8 13 17.5 20t15.5 8l6 1h161l6 -3q6 -6 -12 -26l-178 -202h-121z" />
<glyph unicode="&#xea;" horiz-adv-x="866" d="M106 29l279 1581q3 12 13 20t22 8h622q12 0 19 -8t4 -20l-37 -209q-1 -12 -11 -20.5t-22 -8.5h-374l-68 -377h293q12 0 19 -8t5 -20l-36 -207q-1 -12 -12 -20.5t-23 -8.5h-293l-82 -467h387q12 0 19 -8t6 -20l-37 -207q-1 -12 -11 -20.5t-22 -8.5h-635q-12 0 -19.5 8.5 t-5.5 20.5zM541 1736q-6 7 4 25l108 174q8 13 17.5 20t15.5 8l6 1h182q2 0 6 -1t11 -8t10 -20l47 -174q3 -14 0.5 -20t-7.5 -7l-5 -1h-123l-55 102l-88 -102h-121z" />
<glyph unicode="&#xeb;" horiz-adv-x="874" d="M115 29l278 1581q3 12 13 20t22 8h623q12 0 18.5 -8t3.5 -20l-37 -209q-2 -12 -11 -20.5t-21 -8.5h-375l-68 -377h293q12 0 19 -8t6 -20l-37 -207q-1 -12 -12 -20.5t-23 -8.5h-293l-82 -467h387q12 0 19 -8t6 -20l-37 -207q-1 -12 -11 -20.5t-22 -8.5h-635q-12 0 -19 8.5 t-5 20.5zM428 1849q10 63 63.5 107.5t118.5 44.5q63 0 99.5 -44.5t25.5 -107.5q-12 -65 -64.5 -110t-115.5 -45q-65 0 -102 45.5t-25 109.5zM815 1849q10 63 63.5 107.5t118.5 44.5q63 0 99.5 -44.5t25.5 -107.5q-12 -65 -64.5 -110t-115.5 -45q-65 0 -102 45.5t-25 109.5z " />
<glyph unicode="&#xec;" horiz-adv-x="466" d="M92 29l279 1581q3 12 13 20t22 8h219q12 0 18.5 -8t3.5 -20l-278 -1581q-1 -12 -11 -20.5t-22 -8.5h-219q-12 0 -19.5 8.5t-5.5 20.5zM345.5 1955.5q1.5 6.5 6.5 7.5l4 1h162q2 0 6 -1t11 -8t10 -20l47 -174q3 -14 0.5 -20t-7.5 -7l-5 -1h-121l-109 202q-6 14 -4.5 20.5z " />
<glyph unicode="&#xed;" horiz-adv-x="464" d="M106 29l279 1581q3 12 13 20t22 8h219q12 0 19 -8t4 -20l-279 -1581q-1 -12 -11 -20.5t-22 -8.5h-219q-12 0 -19.5 8.5t-5.5 20.5zM488 1736q-6 7 4 25l108 174q8 13 18 20t16 8l5 1h162l6 -3q6 -6 -12 -26l-179 -202h-120z" />
<glyph unicode="&#xee;" horiz-adv-x="473" d="M102 29l279 1581q3 12 13 20t22 8h219q12 0 18.5 -8t3.5 -20l-278 -1581q-1 -12 -11 -20.5t-22 -8.5h-219q-12 0 -19.5 8.5t-5.5 20.5zM340 1736q-6 7 4 25l109 174q8 13 17.5 20t15.5 8l6 1h182q2 0 5.5 -1t10.5 -8t10 -20l48 -174q3 -14 0 -20t-8 -7l-5 -1h-123 l-55 102l-88 -102h-121z" />
<glyph unicode="&#xef;" horiz-adv-x="458" d="M96 29l279 1581q3 12 13 20t22 8h219q12 0 18.5 -8t3.5 -20l-278 -1581q-1 -12 -11 -20.5t-22 -8.5h-219q-12 0 -19.5 8.5t-5.5 20.5zM223 1849q10 63 64 107.5t119 44.5q63 0 99 -44.5t25 -107.5q-12 -65 -64.5 -110t-115.5 -45q-65 0 -102 45.5t-25 109.5zM580 1849 q10 63 63.5 107.5t118.5 44.5q63 0 99.5 -44.5t25.5 -107.5q-12 -65 -64.5 -110t-115.5 -45q-65 0 -102 45.5t-25 109.5z" />
<glyph unicode="&#xf0;" horiz-adv-x="942" d="M106 29l113 637h-74q-12 0 -19 8t-5 20l37 207q1 12 12 20.5t23 8.5h73l119 680q3 12 13 20t22 8h469q98 0 155.5 -69.5t40.5 -169.5l-204 -1159q-17 -99 -99.5 -169.5t-181.5 -70.5h-469q-12 0 -19.5 8.5t-5.5 20.5zM424 264h125q25 0 45.5 17.5t23.5 42.5l177 991 q4 25 -10.5 42t-39.5 17h-124l-78 -444h53q12 0 18 -8.5t4 -20.5l-36 -207q-1 -12 -11 -20t-22 -8h-53z" />
<glyph unicode="&#xf1;" horiz-adv-x="958" d="M106 29l279 1581q3 12 13 20t22 8h217q3 0 6.5 -0.5t10.5 -7.5t8 -20l77 -697l123 697q3 12 13 20t22 8h219q12 0 19 -8t4 -20l-279 -1581q-1 -12 -11 -20.5t-22 -8.5h-206q-3 0 -6.5 1t-11 8t-9.5 20l-92 671l-119 -671q-1 -12 -11 -20.5t-22 -8.5h-219q-12 0 -19.5 8.5 t-5.5 20.5zM533 1736q-6 7 4 25l108 174q8 13 17.5 20t15.5 8l6 1h131q21 0 33 -29l33 -67l86 96h120q2 0 4.5 -1t5.5 -7.5t-7 -20.5l-109 -174q-7 -13 -16.5 -20t-14.5 -7l-6 -1h-143l-56 102l-83 -102h-121z" />
<glyph unicode="&#xf2;" horiz-adv-x="946" d="M141 229l209 1180q17 99 99.5 169.5t181.5 70.5h262q99 0 157.5 -70.5t41.5 -169.5l-209 -1180q-17 -99 -99.5 -169t-181.5 -70h-262q-99 0 -157.5 70t-41.5 169zM432 305q-4 -25 10 -42t39 -17h70q25 0 45.5 17t24.5 42l180 1020q3 25 -11 42t-38 17h-70 q-25 0 -46 -17.5t-24 -41.5zM589.5 1955.5q1.5 6.5 6.5 7.5l4 1h162q2 0 5.5 -1t10.5 -8t10 -20l48 -174q3 -14 0 -20t-8 -7l-5 -1h-121l-108 202q-6 14 -4.5 20.5z" />
<glyph unicode="&#xf3;" horiz-adv-x="946" d="M141 229l209 1180q17 99 99.5 169.5t181.5 70.5h262q99 0 157.5 -70.5t41.5 -169.5l-209 -1180q-17 -99 -99.5 -169t-181.5 -70h-262q-99 0 -157.5 70t-41.5 169zM432 305q-4 -25 10 -42t39 -17h70q25 0 45.5 17t24.5 42l180 1020q3 25 -11 42t-38 17h-70 q-25 0 -46 -17.5t-24 -41.5zM725 1736q-6 7 4 25l109 174q8 13 18 20t16 8l5 1h161l6 -3q6 -6 -12 -26l-178 -202h-121z" />
<glyph unicode="&#xf4;" horiz-adv-x="946" d="M141 229l209 1180q17 99 99.5 169.5t181.5 70.5h262q99 0 157.5 -70.5t41.5 -169.5l-209 -1180q-17 -99 -99.5 -169t-181.5 -70h-262q-99 0 -157.5 70t-41.5 169zM432 305q-4 -25 10 -42t39 -17h70q25 0 45.5 17t24.5 42l180 1020q3 25 -11 42t-38 17h-70 q-25 0 -46 -17.5t-24 -41.5zM569.5 1738.5q-1.5 2.5 0 8.5t5.5 14l109 174q8 13 18 20t16 8l5 1h182q2 0 6 -1t11 -8t10 -20l47 -174q3 -14 0.5 -20t-7.5 -7l-5 -1h-123l-56 102l-88 -102h-120h-2t-4 1.5t-4.5 4z" />
<glyph unicode="&#xf5;" horiz-adv-x="946" d="M141 229l209 1180q17 99 99.5 169.5t181.5 70.5h262q99 0 157.5 -70.5t41.5 -169.5l-209 -1180q-17 -99 -99.5 -169t-181.5 -70h-262q-99 0 -157.5 70t-41.5 169zM432 305q-4 -25 10 -42t39 -17h70q25 0 45.5 17t24.5 42l180 1020q3 25 -11 42t-38 17h-70 q-25 0 -46 -17.5t-24 -41.5zM526.5 1738.5q-1.5 2.5 0 8.5t5.5 14l109 174q8 13 17.5 20t15.5 8l6 1h131q21 0 33 -29l33 -67l86 96h120q2 0 4.5 -1t5 -7.5t-7.5 -20.5l-108 -174q-7 -13 -16.5 -20t-14.5 -7l-6 -1h-143l-56 102l-84 -102h-120h-2t-4 1.5t-4.5 4z" />
<glyph unicode="&#xf6;" horiz-adv-x="946" d="M141 229l209 1180q17 99 99.5 169.5t181.5 70.5h262q99 0 157.5 -70.5t41.5 -169.5l-209 -1180q-17 -99 -99.5 -169t-181.5 -70h-262q-99 0 -157.5 70t-41.5 169zM432 305q-4 -25 10 -42t39 -17h70q25 0 45.5 17t24.5 42l180 1020q3 25 -11 42t-38 17h-70 q-25 0 -46 -17.5t-24 -41.5zM451 1849q10 63 63.5 107.5t118.5 44.5q63 0 99.5 -44.5t25.5 -107.5q-12 -65 -64.5 -110t-115.5 -45q-65 0 -102 45.5t-25 109.5zM838 1849q10 63 63.5 107.5t118.5 44.5q63 0 99.5 -44.5t25.5 -107.5q-12 -65 -64.5 -110t-115.5 -45 q-65 0 -102 45.5t-25 109.5z" />
<glyph unicode="&#xf7;" horiz-adv-x="1056" d="M223 694l37 207q1 12 12 20.5t23 8.5h795q12 0 18 -8.5t4 -20.5l-37 -207q-1 -12 -11 -20t-22 -8h-794q-12 0 -19 8t-6 20zM438 442q10 67 69 115.5t128 48.5q67 0 106.5 -48t28.5 -116q-12 -69 -69.5 -118.5t-125.5 -49.5q-69 0 -109 49.5t-28 118.5zM563 1159 q12 67 70 115.5t127 48.5q68 0 107.5 -48.5t27.5 -115.5q-12 -69 -69 -118.5t-124 -49.5q-69 0 -110 49.5t-29 118.5z" />
<glyph unicode="&#xf8;" horiz-adv-x="937" d="M92 -99q-4 7 4 25l68 160q-36 59 -23 143l209 1180q17 99 99.5 169.5t181.5 70.5h182l29 63q5 13 15 20t17 8l7 1h245q2 0 3.5 -1t3.5 -7.5t-5 -20.5l-67 -160q34 -61 22 -143l-209 -1180q-17 -99 -99 -169t-181 -70h-191l-26 -64q-5 -13 -15 -20t-17 -8h-7h-240z M512 246h31q25 0 44.5 17t24.5 42l54 309zM561 1040l144 344h-23q-25 0 -46 -17.5t-24 -41.5z" />
<glyph unicode="&#xf9;" horiz-adv-x="942" d="M141 229l244 1381q3 12 13 20t22 8h219q12 0 19 -8t4 -20l-230 -1305q-4 -25 10 -42t39 -17h66q25 0 44.5 17t24.5 42l230 1305q3 12 13 20t22 8h219q12 0 18.5 -8t3.5 -20l-243 -1381q-17 -99 -99.5 -169t-181.5 -70h-258q-99 0 -157.5 70t-41.5 169zM589.5 1955.5 q1.5 6.5 6.5 7.5l4 1h162q2 0 5.5 -1t10.5 -8t10 -20l48 -174q3 -14 0 -20t-8 -7l-5 -1h-121l-108 202q-6 14 -4.5 20.5z" />
<glyph unicode="&#xfa;" horiz-adv-x="946" d="M141 229l244 1381q3 12 13 20t22 8h219q12 0 19 -8t4 -20l-230 -1305q-4 -25 10 -42t39 -17h70q25 0 45.5 17t24.5 42l229 1305q3 12 13 20t22 8h219q12 0 18.5 -8t3.5 -20l-243 -1381q-17 -99 -99.5 -169t-181.5 -70h-262q-99 0 -157.5 70t-41.5 169zM719 1736 q-6 7 4 25l108 174q8 13 17.5 20t15.5 8l6 1h162l6 -3q6 -6 -12 -26l-178 -202h-121z" />
<glyph unicode="&#xfb;" horiz-adv-x="942" d="M141 229l244 1381q3 12 13 20t22 8h219q12 0 19 -8t4 -20l-230 -1305q-4 -25 10 -42t39 -17h66q25 0 44.5 17t24.5 42l230 1305q3 12 13 20t22 8h219q12 0 18.5 -8t3.5 -20l-243 -1381q-17 -99 -99.5 -169t-181.5 -70h-258q-99 0 -157.5 70t-41.5 169zM574 1736 q-6 7 4 25l108 174q8 13 18 20t16 8l5 1h182q2 0 6 -1t11 -8t10 -20l47 -174q3 -14 0.5 -20t-7.5 -7l-5 -1h-123l-55 102l-89 -102h-120z" />
<glyph unicode="&#xfc;" horiz-adv-x="942" d="M141 229l244 1381q3 12 13 20t22 8h219q12 0 19 -8t4 -20l-230 -1305q-4 -25 10 -42t39 -17h66q25 0 44.5 17t24.5 42l230 1305q3 12 13 20t22 8h219q12 0 18.5 -8t3.5 -20l-243 -1381q-17 -99 -99.5 -169t-181.5 -70h-258q-99 0 -157.5 70t-41.5 169zM449 1849 q10 63 63.5 107.5t118.5 44.5q63 0 99.5 -44.5t25.5 -107.5q-12 -64 -65 -109.5t-116 -45.5q-64 0 -101 45t-25 110zM836 1849q10 63 63.5 107.5t118.5 44.5q63 0 99.5 -44.5t25.5 -107.5q-12 -65 -64.5 -110t-115.5 -45q-65 0 -102 45.5t-25 109.5z" />
<glyph unicode="&#xfd;" horiz-adv-x="868" d="M301 29l86 483l-61 1098q-1 13 3.5 20t9.5 8h5h236q2 0 5.5 -0.5t9 -7.5t5.5 -20l4 -641l230 641q5 13 13 20t13 8h6h236h2t4 -1.5t4 -4t0.5 -8.5t-4.5 -14l-446 -1098l-87 -483q-2 -12 -11 -20.5t-21 -8.5h-217q-12 0 -19.5 8.5t-5.5 20.5zM684 1736q-6 7 4 25l109 174 q8 13 17.5 20t15.5 8l6 1h161l6 -3q6 -6 -12 -26l-178 -202h-121z" />
<glyph unicode="&#xfe;" d="M106 29l279 1581q3 12 13 20t22 8h219q12 0 19 -8t4 -20l-54 -299h221q99 0 157.5 -70.5t41.5 -169.5l-88 -502q-19 -99 -101.5 -169t-181.5 -70h-221l-53 -301q-1 -12 -11 -20.5t-22 -8.5h-219q-12 0 -19.5 8.5t-5.5 20.5zM481 586h125q25 0 45.5 17t24.5 42l59 342 q5 25 -8.5 42.5t-38.5 17.5h-125z" />
<glyph unicode="&#xff;" horiz-adv-x="868" d="M301 29l86 483l-61 1098q-1 13 3.5 20t9.5 8h5h236q2 0 5.5 -0.5t9 -7.5t5.5 -20l4 -641l230 641q5 13 13 20t13 8h6h236h2t4 -1.5t4 -4t0.5 -8.5t-4.5 -14l-446 -1098l-87 -483q-2 -12 -11 -20.5t-21 -8.5h-217q-12 0 -19.5 8.5t-5.5 20.5zM414 1849q10 63 63.5 107.5 t118.5 44.5q63 0 99.5 -44.5t25.5 -107.5q-12 -65 -64.5 -110t-115.5 -45q-65 0 -102 45.5t-25 109.5zM801 1849q10 63 63.5 107.5t118.5 44.5q63 0 99.5 -44.5t25.5 -107.5q-12 -65 -64.5 -110t-115.5 -45q-65 0 -102 45.5t-25 109.5z" />
<glyph unicode="&#x152;" horiz-adv-x="1363" d="M143 240l205 1159q17 99 100.5 169t182.5 70h909q12 0 19 -8t4 -20l-37 -209q-1 -12 -11 -20.5t-22 -8.5h-395l-68 -377h313q12 0 19 -8t6 -20l-37 -207q-1 -12 -12 -20.5t-23 -8.5h-313l-82 -467h408q12 0 19 -8t5 -20l-37 -207q-2 -12 -11 -20.5t-21 -8.5h-922 q-99 0 -157.5 70.5t-41.5 169.5zM432 313q-3 -25 11 -42t38 -17h82q25 0 46 17.5t24 41.5l178 1004q4 25 -10 42t-39 17h-82q-25 0 -45.5 -17t-24.5 -42z" />
<glyph unicode="&#x153;" horiz-adv-x="1363" d="M143 240l205 1159q17 99 100.5 169t182.5 70h909q12 0 19 -8t4 -20l-37 -209q-1 -12 -11 -20.5t-22 -8.5h-395l-68 -377h313q12 0 19 -8t6 -20l-37 -207q-1 -12 -12 -20.5t-23 -8.5h-313l-82 -467h408q12 0 19 -8t5 -20l-37 -207q-2 -12 -11 -20.5t-21 -8.5h-922 q-99 0 -157.5 70.5t-41.5 169.5zM432 313q-3 -25 11 -42t38 -17h82q25 0 46 17.5t24 41.5l178 1004q4 25 -10 42t-39 17h-82q-25 0 -45.5 -17t-24.5 -42z" />
<glyph unicode="&#x178;" horiz-adv-x="868" d="M301 29l86 483l-61 1098q-1 13 3.5 20t9.5 8h5h236q2 0 5.5 -0.5t9 -7.5t5.5 -20l4 -641l230 641q5 13 13 20t13 8h6h236h2t4 -1.5t4 -4t0.5 -8.5t-4.5 -14l-446 -1098l-87 -483q-2 -12 -11 -20.5t-21 -8.5h-217q-12 0 -19.5 8.5t-5.5 20.5zM414 1849q10 63 63.5 107.5 t118.5 44.5q63 0 99.5 -44.5t25.5 -107.5q-12 -65 -64.5 -110t-115.5 -45q-65 0 -102 45.5t-25 109.5zM801 1849q10 63 63.5 107.5t118.5 44.5q63 0 99.5 -44.5t25.5 -107.5q-12 -65 -64.5 -110t-115.5 -45q-65 0 -102 45.5t-25 109.5z" />
<glyph unicode="&#x2c6;" horiz-adv-x="616" d="M412 1736q-6 7 4 25l108 174q8 13 18 20t16 8l5 1h182q2 0 6 -1t11 -8t10 -20l47 -174q3 -14 0.5 -20t-7.5 -7l-5 -1h-123l-55 102l-88 -102h-121z" />
<glyph unicode="&#x2dc;" horiz-adv-x="735" d="M412 1736q-6 7 4 25l108 174q8 13 18 20t16 8l5 1h131q21 0 33 -29l33 -67l86 96h121q2 0 4.5 -1t5 -7.5t-7.5 -20.5l-109 -174q-7 -13 -16.5 -20t-15.5 -7l-5 -1h-143l-55 102l-84 -102h-121z" />
<glyph unicode="&#x2000;" horiz-adv-x="1000" />
<glyph unicode="&#x2001;" horiz-adv-x="2001" />
<glyph unicode="&#x2002;" horiz-adv-x="1000" />
<glyph unicode="&#x2003;" horiz-adv-x="2001" />
<glyph unicode="&#x2004;" horiz-adv-x="667" />
<glyph unicode="&#x2005;" horiz-adv-x="500" />
<glyph unicode="&#x2006;" horiz-adv-x="333" />
<glyph unicode="&#x2007;" horiz-adv-x="333" />
<glyph unicode="&#x2008;" horiz-adv-x="250" />
<glyph unicode="&#x2009;" horiz-adv-x="400" />
<glyph unicode="&#x200a;" horiz-adv-x="111" />
<glyph unicode="&#x2010;" horiz-adv-x="897" d="M223 694l37 207q1 12 12 20.5t23 8.5h635q12 0 18 -8.5t4 -20.5l-37 -207q-1 -12 -10.5 -20t-21.5 -8h-635q-12 0 -19 8t-6 20z" />
<glyph unicode="&#x2011;" horiz-adv-x="897" d="M223 694l37 207q1 12 12 20.5t23 8.5h635q12 0 18 -8.5t4 -20.5l-37 -207q-1 -12 -10.5 -20t-21.5 -8h-635q-12 0 -19 8t-6 20z" />
<glyph unicode="&#x2012;" horiz-adv-x="897" d="M223 694l37 207q1 12 12 20.5t23 8.5h635q12 0 18 -8.5t4 -20.5l-37 -207q-1 -12 -10.5 -20t-21.5 -8h-635q-12 0 -19 8t-6 20z" />
<glyph unicode="&#x2013;" horiz-adv-x="999" d="M223 694l37 207q1 12 12 20.5t23 8.5h737q12 0 18.5 -8.5t4.5 -20.5l-37 -207q-1 -12 -11 -20t-22 -8h-737q-12 0 -19 8t-6 20z" />
<glyph unicode="&#x2014;" horiz-adv-x="1101" d="M223 694l37 207q1 12 12 20.5t23 8.5h840q12 0 18 -8.5t4 -20.5l-37 -207q-1 -12 -11 -20t-22 -8h-839q-12 0 -19 8t-6 20z" />
<glyph unicode="&#x2018;" horiz-adv-x="307" d="M244 1331l35 201q11 56 56.5 95.5t100.5 39.5h105q12 0 19 -8.5t5 -20.5l-55 -307q-1 -12 -11 -20t-22 -8h-209q-12 0 -19 8t-5 20z" />
<glyph unicode="&#x2019;" horiz-adv-x="307" d="M264 1331l55 307q1 12 11 20.5t22 8.5h209q12 0 19.5 -8.5t5.5 -20.5l-37 -200q-9 -56 -55 -95.5t-101 -39.5h-104q-12 0 -19 8t-6 20z" />
<glyph unicode="&#x201a;" horiz-adv-x="307" d="M10 -106l56 307q1 12 10.5 20t21.5 8h209q12 0 19 -8t6 -20l-35 -201q-11 -56 -57 -95.5t-101 -39.5h-104q-12 0 -19.5 8.5t-5.5 20.5z" />
<glyph unicode="&#x201c;" horiz-adv-x="614" d="M244 1331l35 201q11 56 56.5 95.5t100.5 39.5h105q12 0 19 -8.5t5 -20.5l-55 -307q-1 -12 -11 -20t-22 -8h-209q-12 0 -19 8t-5 20zM551 1331l35 201q11 56 56.5 95.5t100.5 39.5h105q12 0 19 -8.5t5 -20.5l-55 -307q-1 -12 -11 -20t-22 -8h-209q-12 0 -19 8t-5 20z" />
<glyph unicode="&#x201d;" horiz-adv-x="614" d="M264 1331l55 307q1 12 11 20.5t22 8.5h209q12 0 19.5 -8.5t5.5 -20.5l-37 -200q-9 -56 -55 -95.5t-101 -39.5h-104q-12 0 -19 8t-6 20zM571 1331l56 307q2 12 11 20.5t21 8.5h209q12 0 19.5 -8.5t5.5 -20.5l-37 -200q-9 -56 -55 -95.5t-101 -39.5h-104q-12 0 -19 8t-6 20 z" />
<glyph unicode="&#x201e;" horiz-adv-x="614" d="M10 -106l56 307q1 12 10.5 20t21.5 8h209q12 0 19 -8t6 -20l-35 -201q-11 -56 -57 -95.5t-101 -39.5h-104q-12 0 -19.5 8.5t-5.5 20.5zM317 -106l56 307q1 12 11 20t22 8h208q12 0 19 -8t6 -20l-35 -201q-11 -56 -57 -95.5t-101 -39.5h-104q-12 0 -19.5 8.5t-5.5 20.5z " />
<glyph unicode="&#x2022;" horiz-adv-x="507" d="M227 715l35 200q5 25 25 42.5t45 17.5h184q25 0 39.5 -17.5t9.5 -42.5l-35 -200q-5 -25 -24.5 -42.5t-44.5 -17.5h-185q-25 0 -39.5 17.5t-9.5 42.5z" />
<glyph unicode="&#x2026;" horiz-adv-x="1218" d="M35 29l39 223q3 12 13 20.5t22 8.5h223q12 0 18.5 -8.5t3.5 -20.5l-39 -223q-2 -12 -11 -20.5t-21 -8.5h-224q-12 0 -19 8.5t-5 20.5zM473 29l39 223q3 12 13 20.5t22 8.5h223q12 0 19 -8.5t4 -20.5l-39 -223q-1 -12 -11 -20.5t-22 -8.5h-223q-12 0 -19.5 8.5t-5.5 20.5z M911 29l39 223q3 12 13 20.5t22 8.5h223q12 0 19 -8.5t4 -20.5l-39 -223q-1 -12 -11 -20.5t-22 -8.5h-223q-12 0 -19.5 8.5t-5.5 20.5z" />
<glyph unicode="&#x202f;" horiz-adv-x="400" />
<glyph unicode="&#x2039;" horiz-adv-x="526" d="M176 772q-14 30 10 57l211 283q10 13 21 20t16 8l6 1h244l7 -3q4 -9 -9 -26l-229 -311l120 -312q4 -14 2 -20t-7 -7l-5 -1h-244q-20 -1 -30 28z" />
<glyph unicode="&#x203a;" horiz-adv-x="526" d="M116 463q-6 7 9 26l227 312l-119 311q-4 14 -1.5 20.5t7.5 7.5l5 1h243q21 0 31 -29l113 -283q14 -31 -10 -57l-211 -283q-10 -13 -21 -20t-17 -7l-5 -1h-244z" />
<glyph unicode="&#x205f;" horiz-adv-x="500" />
<glyph unicode="&#x20ac;" horiz-adv-x="907" d="M96 551l37 207q1 12 11 20t22 8h74l12 64h-74q-12 0 -19 8.5t-5 20.5l36 206q1 12 11 20.5t22 8.5h74l53 295q17 99 99.5 169.5t181.5 70.5h243q99 0 157.5 -70.5t41.5 -169.5l-18 -100q-1 -12 -11 -20.5t-22 -8.5h-219q-12 0 -19.5 8.5t-5.5 20.5l4 16q3 25 -11 42 t-38 17h-51q-25 0 -46 -17.5t-24 -41.5l-39 -211h285q12 0 19.5 -8.5t5.5 -20.5l-37 -206q-1 -12 -11 -20.5t-22 -8.5h-285l-12 -64h285q12 0 19 -8t5 -20l-37 -207q-1 -12 -11.5 -20.5t-22.5 -8.5h-285l-37 -217q-4 -25 10 -42t39 -17h62q25 0 44.5 17t24.5 42l6 35 q1 12 11 20.5t22 8.5h219q12 0 19.5 -8.5t5.5 -20.5l-21 -111q-17 -99 -99 -169t-181 -70h-254q-99 0 -157.5 70t-41.5 169l52 293h-74q-12 0 -18.5 8.5t-4.5 20.5z" />
<glyph unicode="&#x2122;" horiz-adv-x="1261" d="M369 793l125 706h-99q-12 0 -19 8.5t-5 20.5l14 82q3 12 13 20t22 8h346q12 0 18.5 -8t3.5 -20l-14 -82q-1 -12 -11 -20.5t-22 -8.5h-100l-125 -706q-3 -12 -13 -20.5t-22 -8.5h-90q-12 0 -18.5 8.5t-3.5 20.5zM745 793l138 780l6 37q3 12 13 20t22 8h80q2 0 5.5 -0.5 t10 -7.5t8.5 -20l74 -363l198 363q7 13 16.5 20t15.5 8h5h82q12 0 19 -8t4 -20l-6 -37l-138 -780q-3 -12 -12.5 -20.5t-21.5 -8.5h-80q-12 0 -19 8.5t-4 20.5l78 448l-201 -348l-80 348l-77 -448q-3 -12 -13 -20.5t-22 -8.5h-78q-12 0 -19 8.5t-4 20.5z" />
<glyph unicode="&#x25fc;" horiz-adv-x="1638" d="M0 0v1638h1638v-1638h-1638z" />
<glyph unicode="&#xfb01;" horiz-adv-x="1202" d="M106 29l279 1581q3 12 13 20t22 8h940q12 0 18.5 -8t3.5 -20l-36 -209q-1 -12 -11 -20.5t-22 -8.5h-692l-68 -377h293q12 0 19 -8t5 -20l-36 -207q-1 -12 -12 -20.5t-23 -8.5h-293l-123 -702q-1 -12 -11 -20.5t-22 -8.5h-219q-12 0 -19.5 8.5t-5.5 20.5zM827 29l215 1214 q1 12 11 20.5t22 8.5h219q12 0 19.5 -8.5t5.5 -20.5l-215 -1214q-1 -12 -11 -20.5t-22 -8.5h-219q-12 0 -19.5 8.5t-5.5 20.5z" />
<glyph unicode="&#xfb02;" horiz-adv-x="1382" d="M106 29l279 1581q3 12 13 20t22 8h837q12 0 19 -8t4 -20l-37 -209q-1 -12 -11 -20.5t-22 -8.5h-589l-68 -377h190q12 0 19 -8t6 -20l-37 -207q-1 -12 -12 -20.5t-23 -8.5h-190l-123 -702q-1 -12 -11 -20.5t-22 -8.5h-219q-12 0 -19.5 8.5t-5.5 20.5zM725 29l215 1214 q1 12 11 20.5t22 8.5h219q12 0 19.5 -8.5t5.5 -20.5l-175 -979h306q12 0 19 -8t5 -20l-37 -207q-2 -12 -11 -20.5t-21 -8.5h-553q-12 0 -19.5 8.5t-5.5 20.5z" />
<glyph horiz-adv-x="1456" d="M141 229l209 1180q17 99 99.5 169.5t181.5 70.5h274q99 0 157.5 -70.5t41.5 -169.5l-21 -111q-1 -12 -10.5 -20t-21.5 -8h-220q-12 0 -19 8t-5 20l6 27q3 25 -11 42t-38 17h-82q-25 0 -46 -17.5t-24 -41.5l-180 -1020q-4 -25 10 -42t39 -17h82q25 0 45.5 17t24.5 42 l24 137q1 12 11 20.5t22 8.5h219q12 0 19.5 -8.5t5.5 -20.5l-39 -213q-17 -99 -99.5 -169t-181.5 -70h-274q-99 0 -157.5 70t-41.5 169zM696 664l72 413q3 12 13 20.5t22 8.5h219q12 0 18.5 -8.5t3.5 -20.5l-14 -82h221l109 615q3 12 13 20t22 8h219q12 0 18.5 -8t3.5 -20 l-278 -1581q-1 -12 -11 -20.5t-22 -8.5h-219q-12 0 -19.5 8.5t-5.5 20.5l123 702h-221l-10 -67q-3 -12 -13 -20.5t-22 -8.5h-219q-12 0 -19 8.5t-4 20.5z" />
<glyph horiz-adv-x="1193" d="M106 29l279 1581q3 12 13 20t22 8h219q12 0 19 -8t4 -20l-238 -1346h684q12 0 19 -8t6 -20l-37 -207q-1 -12 -11 -20.5t-22 -8.5h-932q-12 0 -19.5 8.5t-5.5 20.5zM551 395l213 1215q3 12 13 20t22 8h219q12 0 18.5 -8t3.5 -20l-172 -979h306q12 0 18.5 -8.5t3.5 -20.5 l-35 -207q-3 -12 -13 -20t-22 -8h-553q-12 0 -18.5 8t-3.5 20z" />
<glyph horiz-adv-x="1441" d="M141 229l209 1180q17 99 99.5 169.5t181.5 70.5h274q99 0 157.5 -70.5t41.5 -169.5l-21 -111q-1 -12 -10.5 -20t-21.5 -8h-220q-12 0 -19 8t-5 20l12 68q4 25 -10 42t-39 17h-82q-25 0 -45.5 -17t-24.5 -42l-194 -1102q-4 -25 10 -42t39 -17h82q25 0 45.5 17t24.5 42 l32 178q1 12 11 20.5t22 8.5h219q12 0 19.5 -8.5t5.5 -20.5l-39 -213q-17 -99 -99.5 -169t-181.5 -70h-274q-99 0 -157.5 70t-41.5 169zM692 643l80 455q1 12 11 20t22 8h219q12 0 19 -8t6 -20l-25 -144l369 656q8 13 17.5 20t14.5 8h5h235l9 -3q6 -7 -5 -25l-395 -680 l117 -901q2 -13 -2.5 -20t-9.5 -8l-5 -1h-235q-2 0 -6 1t-10.5 8t-8.5 20l-100 874l-45 -260q-3 -12 -13 -20.5t-22 -8.5h-219q-12 0 -19 8.5t-4 20.5z" />
<glyph horiz-adv-x="2000" d="M106 29l279 1581q3 12 13 20t22 8h211q3 0 7 -0.5t11.5 -7.5t9.5 -20l136 -621l352 621q7 13 17.5 20t17.5 8h6h203q3 0 7 -0.5t11.5 -7.5t9.5 -20l135 -621l353 621q7 13 17.5 20t17.5 8h6h211q12 0 18.5 -8t3.5 -20l-278 -1581q-1 -12 -11 -20.5t-22 -8.5h-219 q-12 0 -19.5 8.5t-5.5 20.5l150 843l-353 -626l-131 626l-149 -843q-1 -12 -11 -20.5t-22 -8.5h-219q-12 0 -19.5 8.5t-5.5 20.5l150 843l-352 -626l-132 626l-149 -843q-1 -12 -11 -20.5t-22 -8.5h-219q-12 0 -19.5 8.5t-5.5 20.5z" />
<glyph horiz-adv-x="1404" d="M86 29l41 235l627 1110h-402q-12 0 -19 8.5t-5 20.5l37 207q7 28 34 28h635q12 0 19 -8t4 -20l-41 -236l-623 -1110h152q12 0 19 -8t5 -20l-37 -207q-2 -12 -11 -20.5t-21 -8.5h-389q-12 0 -19.5 8.5t-5.5 20.5zM635 29l41 235l627 1110h-136q-12 0 -19 8.5t-5 20.5 l37 207q7 28 34 28h369q12 0 19 -8t4 -20l-41 -236l-623 -1110h397q12 0 19 -8t6 -20l-37 -207q-1 -12 -11 -20.5t-22 -8.5h-635q-12 0 -19 8.5t-5 20.5z" />
<glyph horiz-adv-x="1316" d="M106 29l279 1581q3 12 13 20t22 8h219q12 0 19 -8t4 -20l-238 -1346h807q12 0 19 -8t5 -20l-36 -207q-1 -12 -11 -20.5t-22 -8.5h-1055q-12 0 -19.5 8.5t-5.5 20.5zM582 580l147 829q17 99 99.5 169.5t181.5 70.5h254q99 0 157 -70.5t41 -169.5l-147 -829 q-17 -99 -99.5 -169.5t-181.5 -70.5h-254q-99 0 -157 70.5t-41 169.5zM872 655q-4 -25 10.5 -42t39.5 -17h61q25 0 45.5 17t24.5 42l118 670q3 25 -11 42t-38 17h-61q-25 0 -46 -17.5t-24 -41.5z" />
<glyph horiz-adv-x="1241" d="M143 29l201 1581q3 12 13 20t22 8h219q12 0 19 -8t4 -20l-123 -1047l305 473l137 -473l246 1047q3 12 13 20t22 8h219q12 0 18.5 -8t3.5 -20l-356 -1581q-1 -12 -11 -20.5t-22 -8.5h-215q-21 2 -31 29l-133 399l-272 -399q-8 -12 -18 -19t-16 -8l-5 -2h-215 q-12 0 -19.5 8.5t-5.5 20.5z" />
<glyph horiz-adv-x="933" d="M141 229l209 1180q17 99 99.5 169.5t181.5 70.5h254q99 0 157 -70.5t41 -169.5l-209 -1180q-15 -84 -75 -147l28 -197q1 -13 -2 -20t-7 -7l-3 -1h-219q-3 0 -7.5 0.5t-12.5 7.5t-9 20l-18 105h-209q-99 0 -157.5 70t-41.5 169zM432 305q-4 -25 10 -42t39 -17h62 q25 0 44.5 17t24.5 42l181 1020q3 25 -11 42t-39 17h-61q-25 0 -46 -17.5t-24 -41.5z" />
<glyph horiz-adv-x="856" d="M86 29l41 235l227 402h-86q-12 0 -19 8t-5 20l37 207q1 12 11.5 20.5t22.5 8.5h189l250 444h-402q-12 0 -19 8.5t-5 20.5l37 207q7 28 34 28h635q12 0 19 -8t4 -20l-41 -236l-250 -444h102q12 0 18.5 -8.5t4.5 -20.5l-37 -207q-1 -12 -11 -20t-22 -8h-203l-225 -402h398 q12 0 19 -8t5 -20l-37 -207q-1 -12 -11 -20.5t-22 -8.5h-634q-12 0 -19.5 8.5t-5.5 20.5z" />
<glyph horiz-adv-x="571" d="M45 29l35 198q1 12 12 20.5t23 8.5h63q25 0 45.5 17t24.5 42l227 1295q3 12 13 20t22 8h219q12 0 19 -8t4 -20l-242 -1370q-17 -99 -99.5 -169.5t-181.5 -70.5h-159q-12 0 -19.5 8.5t-5.5 20.5z" />
<glyph horiz-adv-x="1386" d="M85.5 8.5q-4.5 6.5 2.5 20.5l274 624q-61 28 -92 88.5t-18 135.5l92 522q17 99 100.5 169t182.5 70h710q99 0 156.5 -70t40.5 -169l-92 -522q-13 -75 -65.5 -135t-123.5 -89l54 -624q2 -13 -3 -20t-10 -8l-6 -1h-235q-3 0 -6.5 1t-10.5 8t-8 20l-53 608h-33l-106 -608 q-1 -3 -7 -15q-11 -14 -22 -14h-4h-219h-11q-2 2 -4 2l-4 4q-4 0 -4 4l-2 4l-2 4l2 7v4l107 608h-33l-266 -608q-4 -13 -12.5 -20t-14.5 -8l-6 -1h-236q-2 0 -5 1t-7.5 7.5zM541 952q-3 -25 11 -42t38 -17h121l86 481h-121q-25 0 -45.5 -17t-24.5 -42zM987 893h121 q25 0 46 17.5t24 41.5l65 363q4 25 -10 42t-39 17h-121z" />
<glyph horiz-adv-x="1435" d="M106 29l279 1581q3 12 13 20t22 8h217q3 0 6.5 -0.5t10.5 -7.5t8 -20l77 -697l123 697q3 12 13 20t22 8h217q3 0 6.5 -0.5t10.5 -7.5t8 -20l78 -697l122 697q3 12 13 20t22 8h219q12 0 19 -8t4 -20l-279 -1581q-2 -12 -11 -20.5t-21 -8.5h-207q-3 0 -6.5 1t-11 8t-9.5 20 l-92 671l-119 -671q-1 -12 -11 -20.5t-22 -8.5h-206q-3 0 -6.5 1t-11 8t-9.5 20l-92 671l-119 -671q-1 -12 -11 -20.5t-22 -8.5h-219q-12 0 -19.5 8.5t-5.5 20.5z" />
<glyph horiz-adv-x="1245" d="M106 29l279 1581q3 12 13 20t22 8h219q12 0 19 -8t4 -20l-238 -1346h766q12 0 19 -8t5 -20l-36 -207q-1 -12 -11 -20.5t-22 -8.5h-1014q-12 0 -19.5 8.5t-5.5 20.5zM545 369l219 1241q3 12 13 20t22 8h622q12 0 19 -8t4 -20l-37 -209q-1 -12 -11 -20.5t-22 -8.5h-375 l-43 -242h293q12 0 19 -8t4 -20l-35 -207q-3 -12 -13 -20.5t-22 -8.5h-293l-45 -262h387q12 0 18.5 -8.5t4.5 -20.5l-37 -206q-1 -12 -11 -20.5t-22 -8.5h-635q-12 0 -19 8.5t-5 20.5z" />
<glyph horiz-adv-x="1564" d="M313 29l238 1345h-209q-12 0 -19.5 8.5t-5.5 20.5l37 207q3 12 13 20t22 8h1333q12 0 19 -8t4 -20l-37 -207q-1 -12 -11 -20.5t-22 -8.5h-848l-237 -1345q-1 -12 -11 -20.5t-22 -8.5h-219q-12 0 -19.5 8.5t-5.5 20.5zM713 29l215 1214q1 12 11 20.5t22 8.5h219 q12 0 19 -8.5t5 -20.5l-78 -432h201l78 432q1 12 11 20.5t22 8.5h219q12 0 19 -8.5t5 -20.5l-215 -1214q-2 -12 -11 -20.5t-21 -8.5h-220q-12 0 -19 8.5t-5 20.5l92 518h-201l-92 -518q-1 -12 -11 -20.5t-22 -8.5h-219q-12 0 -19 8.5t-5 20.5z" />
<glyph horiz-adv-x="2369" d="M313 29l238 1345h-209q-12 0 -19.5 8.5t-5.5 20.5l37 207q3 12 13 20t22 8h2157q12 0 18.5 -8t3.5 -20l-37 -207q-2 -12 -11 -20.5t-21 -8.5h-1672l-237 -1345q-1 -12 -11 -20.5t-22 -8.5h-219q-12 0 -19.5 8.5t-5.5 20.5zM713 29l215 1214q1 12 11 20.5t22 8.5h219 q12 0 19 -8.5t5 -20.5l-78 -432h201l78 432q1 12 11 20.5t22 8.5h219q12 0 19 -8.5t5 -20.5l-215 -1214q-2 -12 -11 -20.5t-21 -8.5h-220q-12 0 -19 8.5t-5 20.5l92 518h-201l-92 -518q-1 -12 -11 -20.5t-22 -8.5h-219q-12 0 -19 8.5t-5 20.5zM1610 29l215 1214 q1 12 11 20.5t22 8.5h622q12 0 19.5 -8.5t5.5 -20.5l-37 -209q-3 -12 -13 -20t-22 -8h-375l-35 -195h293q12 0 19.5 -8.5t5.5 -20.5l-37 -207q-1 -12 -11 -20t-22 -8h-293l-51 -283h387q12 0 19 -8t6 -20l-37 -207q-1 -12 -11 -20.5t-22 -8.5h-635q-12 0 -19 8.5t-5 20.5z " />
<glyph horiz-adv-x="1476" d="M106 29l279 1581q3 12 13 20t22 8h219q12 0 19 -8t4 -20l-109 -615h221l109 615q3 12 13 20t22 8h219q12 0 18.5 -8t3.5 -20l-108 -615h221l108 615q3 12 13 20t22 8h219q12 0 19 -8t4 -20l-279 -1581q-2 -12 -11 -20.5t-21 -8.5h-220q-12 0 -19 8.5t-5 20.5l123 702 h-221l-123 -702q-1 -12 -11 -20.5t-22 -8.5h-219q-12 0 -19.5 8.5t-5.5 20.5l123 702h-221l-123 -702q-1 -12 -11 -20.5t-22 -8.5h-219q-12 0 -19.5 8.5t-5.5 20.5z" />
<glyph horiz-adv-x="1415" d="M133 240l80 454q18 91 92 162q-13 49 -4 102l78 441q17 99 100.5 169t182.5 70h669q99 0 156.5 -70t40.5 -169l-78 -441q-8 -51 -41 -102q53 -69 35 -162l-80 -454q-17 -99 -99.5 -169.5t-181.5 -70.5h-751q-99 0 -157.5 70.5t-41.5 169.5zM424 315q-4 -25 10 -42t39 -17 h141l78 446h-147q-23 -3 -41.5 -19.5t-22.5 -39.5zM586 1010q-3 -23 9 -40t34 -20h106l76 424h-100q-25 0 -45.5 -17t-24.5 -42zM891 256h141q25 0 45.5 17t24.5 42l57 328q4 23 -8 39.5t-35 19.5h-147zM1012 950h106q25 3 43 20t21 40l55 305q4 25 -10 42t-39 17h-101z" />
<glyph horiz-adv-x="1435" d="M141 229l209 1180q17 99 99.5 169.5t181.5 70.5h254q67 0 114 -35q62 35 129 35h254q99 0 157.5 -70.5t41.5 -169.5l-209 -1180q-17 -99 -99 -169t-181 -70h-254q-69 0 -119 33q-53 -33 -125 -33h-254q-99 0 -157.5 70t-41.5 169zM432 305q-4 -25 10 -42t39 -17h82 q25 0 45.5 17t24.5 42l180 1020q3 25 -11 42t-38 17h-82q-25 0 -46 -17.5t-24 -41.5zM909 305q-4 -25 10 -42t39 -17h82q25 0 45.5 17t24.5 42l180 1020q3 25 -11 42t-38 17h-82q-23 0 -42 -15t-27 -38z" />
<glyph horiz-adv-x="765" d="M410 1749l34 199q6 26 31 26h195q11 0 18 -7.5t4 -18.5l-35 -199q-2 -11 -11 -19t-19 -8h-195q-10 0 -17 8t-5 19zM723 1749l35 199q6 26 30 26h195q11 0 18.5 -7.5t4.5 -18.5l-35 -199q-1 -10 -10.5 -18.5t-20.5 -8.5h-195q-10 0 -17 8t-5 19z" />
<glyph d="M67.5 8.5q-4.5 6.5 0.5 20.5l550 1581q4 13 13.5 20t16.5 8h7h189q3 0 7 -0.5t11 -7.5t6 -20l-6 -1581q0 -13 -5 -20t-10 -8l-5 -1h-236q-2 0 -5.5 1t-9 8t-5.5 20l6 198h-184l-64 -198q-4 -13 -11 -20t-13 -8l-5 -1h-235q-2 0 -5 1t-7.5 7.5zM487 1749l35 199 q6 26 31 26h195q11 0 18 -7.5t4 -18.5l-35 -199q-2 -11 -11 -19t-19 -8h-195q-10 0 -17.5 8t-5.5 19zM489 492h117l47 606zM801 1749l35 199q6 26 30 26h195q11 0 18 -7.5t4 -18.5l-34 -199q-1 -10 -10.5 -18.5t-20.5 -8.5h-195q-10 0 -17 8t-5 19z" />
<glyph horiz-adv-x="946" d="M141 229l209 1180q17 99 99.5 169.5t181.5 70.5h262q99 0 157.5 -70.5t41.5 -169.5l-209 -1180q-17 -99 -99.5 -169t-181.5 -70h-262q-99 0 -157.5 70t-41.5 169zM432 305q-4 -25 10 -42t39 -17h70q25 0 45.5 17t24.5 42l180 1020q3 25 -11 42t-38 17h-70 q-25 0 -46 -17.5t-24 -41.5zM500 1749l35 199q7 26 30 26h195q11 0 18 -7.5t4 -18.5l-34 -199q-1 -10 -10.5 -18.5t-20.5 -8.5h-195q-10 0 -17 8t-5 19zM813 1749l35 199q6 26 31 26h194q11 0 18.5 -7.5t4.5 -18.5l-35 -199q-1 -10 -10.5 -18.5t-20.5 -8.5h-194 q-10 0 -17.5 8t-5.5 19z" />
<glyph horiz-adv-x="942" d="M141 229l244 1381q3 12 13 20t22 8h219q12 0 19 -8t4 -20l-230 -1305q-4 -25 10 -42t39 -17h66q25 0 44.5 17t24.5 42l230 1305q3 12 13 20t22 8h219q12 0 18.5 -8t3.5 -20l-243 -1381q-17 -99 -99.5 -169t-181.5 -70h-258q-99 0 -157.5 70t-41.5 169zM498 1749l34 199 q6 26 31 26h195q11 0 18 -7.5t4 -18.5l-35 -199q-2 -11 -11 -19t-19 -8h-195q-10 0 -17 8t-5 19zM811 1749l35 199q6 26 31 26h194q11 0 18.5 -7.5t4.5 -18.5l-35 -199q-1 -10 -10.5 -18.5t-20.5 -8.5h-194q-10 0 -17.5 8t-5.5 19z" />
<glyph horiz-adv-x="866" d="M106 29l279 1581q3 12 13 20t22 8h622q12 0 19 -8t4 -20l-37 -209q-1 -12 -11 -20.5t-22 -8.5h-374l-68 -377h293q12 0 19 -8t5 -20l-36 -207q-1 -12 -12 -20.5t-23 -8.5h-293l-82 -467h387q12 0 19 -8t6 -20l-37 -207q-1 -12 -11 -20.5t-22 -8.5h-635q-12 0 -19.5 8.5 t-5.5 20.5zM469 1749l35 199q6 26 31 26h194q11 0 18.5 -7.5t4.5 -18.5l-35 -199q-1 -10 -10.5 -18.5t-20.5 -8.5h-194q-10 0 -17.5 8t-5.5 19zM782 1749l35 199q7 26 31 26h194q11 0 18.5 -7.5t4.5 -18.5l-35 -199q-1 -10 -10.5 -18.5t-20.5 -8.5h-194q-10 0 -17.5 8 t-5.5 19z" />
<glyph horiz-adv-x="438" d="M86 29l279 1581q7 28 34 28h219q12 0 19 -8t4 -20l-279 -1581q-2 -12 -11 -20.5t-21 -8.5h-219q-12 0 -19.5 8.5t-5.5 20.5zM246 1749l35 199q7 26 30 26h195q11 0 18 -7.5t4 -18.5l-34 -199q-1 -10 -10.5 -18.5t-20.5 -8.5h-195q-10 0 -17 8t-5 19zM559 1749l35 199 q6 26 31 26h194q11 0 18.5 -7.5t4.5 -18.5l-35 -199q-1 -10 -10.5 -18.5t-20.5 -8.5h-194q-10 0 -17.5 8t-5.5 19z" />
<glyph horiz-adv-x="868" d="M301 29l86 483l-61 1098q-1 13 3.5 20t9.5 8h5h236q2 0 5.5 -0.5t9 -7.5t5.5 -20l4 -641l230 641q5 13 13 20t13 8h6h236h2t4 -1.5t4 -4t0.5 -8.5t-4.5 -14l-446 -1098l-87 -483q-2 -12 -11 -20.5t-21 -8.5h-217q-12 0 -19.5 8.5t-5.5 20.5zM461 1749l35 199q6 26 30 26 h195q11 0 18 -7.5t4 -18.5l-34 -199q-1 -10 -10.5 -18.5t-20.5 -8.5h-195q-10 0 -17 8t-5 19zM774 1749l35 199q7 26 31 26h194q11 0 18.5 -7.5t4.5 -18.5l-35 -199q-1 -10 -10.5 -18.5t-20.5 -8.5h-194q-10 0 -17.5 8t-5.5 19z" />
</font>
</defs>
</svg>
