<?xml version="1.0" standalone="no"?>
<!DOCTYPE svg PUBLIC "-//W3C//DTD SVG 1.1//EN" "http://www.w3.org/Graphics/SVG/1.1/DTD/svg11.dtd">
<svg width="109px" height="99px" version="1.1" xmlns="http://www.w3.org/2000/svg" xmlns:xlink="http://www.w3.org/1999/xlink" xml:space="preserve" style="fill-rule:evenodd;clip-rule:evenodd;stroke-linejoin:round;stroke-miterlimit:1.41421;">
    <g id="Layer_1">
        <g>
            <rect x="53.4087" y="30.5844" width="2.81835" height="30.6482" style="fill:white;"/>
        </g>
        <g>
            <path d="M54.7023,95.1698L54.4108,95.1688L54.1198,95.1661L53.8292,95.1615L53.5391,95.155L53.2494,95.1468L52.9601,95.1367L52.6713,95.1248L52.383,95.1111L52.095,95.0956L51.8076,95.0783L51.5207,95.0592L51.2343,95.0383L50.9483,95.0156L50.6628,94.9912L50.3779,94.965L50.0934,94.937L49.8094,94.9073L49.526,94.8758L49.2431,94.8425L48.9608,94.8075L48.6789,94.7708L48.3976,94.7323L48.1169,94.6922L47.8367,94.6503L47.557,94.6066L47.278,94.5613L46.9995,94.5142L46.7216,94.4655L46.4442,94.4151L46.1675,94.3629L45.8913,94.3091L45.6158,94.2536L45.3408,94.1965L45.0665,94.1377L44.7928,94.0772L44.5197,94.015L44.2472,93.9512L43.9754,93.8858L43.7042,93.8187L43.4337,93.75L43.1638,93.6797L42.8945,93.6077L42.626,93.5341L42.3581,93.459L42.0908,93.3822L41.8243,93.3038L41.5584,93.2238L41.2933,93.1422L41.0288,93.0591L40.765,92.9743L40.502,92.888L40.2396,92.8001L39.978,92.7107L39.7171,92.6197L39.4569,92.5272L39.1975,92.4331L38.9388,92.3375L38.6809,92.2403L38.4237,92.1416L38.1673,92.0414L37.9116,91.9397L37.6567,91.8365L37.4026,91.7318L37.1493,91.6255L36.8967,91.5178L36.645,91.4086L36.3941,91.2979L36.1439,91.1857L35.8946,91.0721L35.646,90.9569L35.3984,90.8404L35.1515,90.7223L34.9054,90.6029L34.6602,90.4819L34.4159,90.3596L34.1724,90.2358L33.9297,90.1106L33.6879,89.9839L33.447,89.8559L33.2069,89.7264L32.9677,89.5955L32.7294,89.4633L32.492,89.3296L32.2555,89.1946L32.0199,89.0581L31.7852,88.9203L31.5514,88.7811L31.3185,88.6406L31.0865,88.4987L30.8554,88.3554L30.6253,88.2108L30.3962,88.0648L30.1679,87.9175L29.9406,87.7689L29.7143,87.619L29.4889,87.4677L29.2645,87.3151L29.0411,87.1612L28.8186,87.006L28.5971,86.8495L28.3766,86.6917L28.1571,86.5326L27.9386,86.3722L27.7211,86.2106L27.5046,86.0477L27.2892,85.8835L27.0747,85.7181L26.8613,85.5513L26.6488,85.3834L26.4375,85.2142L26.2272,85.0438L26.0179,84.8721L25.8096,84.6992L25.6025,84.5251L25.3964,84.3498L25.1913,84.1732L24.9874,83.9955L24.7845,83.8165L24.5827,83.6364L24.382,83.455L24.1823,83.2725L23.9838,83.0888L23.7864,82.904L23.5901,82.7179L23.395,82.5307L23.2009,82.3424L23.008,82.1529L22.8162,81.9622L22.6255,81.7704L22.436,81.5775L22.2477,81.3835L22.0605,81.1883L21.8744,80.992L21.6896,80.7946L21.5059,80.5961L21.3234,80.3964L21.142,80.1957L20.9619,79.9939L20.7829,79.7911L20.6052,79.5871L20.4287,79.3821L20.2533,79.1759L20.0792,78.9688L19.9063,78.7605L19.7346,78.5513L19.5642,78.3409L19.395,78.1296L19.2271,77.9171L19.0604,77.7037L18.8949,77.4893L18.7307,77.2738L18.5678,77.0573L18.4062,76.8398L18.2458,76.6213L18.0867,76.4018L17.9289,76.1813L17.7724,75.9598L17.6172,75.7373L17.4633,75.5139L17.3107,75.2895L17.1594,75.0641L17.0095,74.8378L16.8609,74.6105L16.7136,74.3823L16.5676,74.1531L16.423,73.923L16.2797,73.6919L16.1378,73.46L15.9973,73.227L15.8581,72.9932L15.7203,72.7585L15.5839,72.5229L15.4488,72.2864L15.3151,72.049L15.1829,71.8107L15.052,71.5715L14.9225,71.3314L14.7945,71.0905L14.6678,70.8487L14.5426,70.6061L14.4188,70.3625L14.2965,70.1182L14.1755,69.873L14.0561,69.6269L13.938,69.3801L13.8215,69.1324L13.7064,68.8838L13.5927,68.6345L13.4805,68.3844L13.3698,68.1334L13.2606,67.8817L13.1529,67.6291L13.0466,67.3758L12.9419,67.1217L12.8387,66.8668L12.737,66.6111L12.6368,66.3547L12.5381,66.0975L12.4409,65.8396L12.3453,65.5809L12.2512,65.3215L12.1587,65.0613L12.0677,64.8004L11.9783,64.5388L11.8904,64.2764L11.8041,64.0134L11.7193,63.7496L11.6362,63.4851L11.5546,63.22L11.4746,62.9541L11.3962,62.6876L11.3194,62.4203L11.2443,62.1524L11.1707,61.8839L11.0987,61.6146L11.0284,61.3447L10.9597,61.0742L10.8926,60.803L10.8272,60.5312L10.7634,60.2587L10.7012,59.9856L10.6408,59.7119L10.5819,59.4376L10.5248,59.1626L10.4693,58.8871L10.4155,58.6109L10.3633,58.3342L10.3129,58.0568L10.2642,57.7789L10.2171,57.5004L10.1718,57.2214L10.1282,56.9417L10.0863,56.6615L10.0461,56.3808L10.0076,56.0995L9.97088,55.8177L9.93589,55.5353L9.90264,55.2524L9.87114,54.969L9.8414,54.685L9.81342,54.4005L9.78721,54.1156L9.76276,53.8301L9.7401,53.5442L9.71921,53.2577L9.70012,52.9708L9.68281,52.6834L9.66731,52.3955L9.6536,52.1071L9.64171,51.8183L9.63163,51.529L9.62338,51.2393L9.61695,50.9492L9.61234,50.6586L9.60958,50.3676L9.60866,50.0761L9.60958,49.7847L9.61234,49.4936L9.61695,49.2031L9.62338,48.9129L9.63163,48.6232L9.64171,48.3339L9.6536,48.0451L9.66731,47.7568L9.68281,47.4689L9.70012,47.1815L9.71921,46.8945L9.7401,46.6081L9.76276,46.3221L9.78721,46.0366L9.81342,45.7517L9.8414,45.4672L9.87114,45.1833L9.90264,44.8998L9.93589,44.6169L9.97088,44.3346L10.0076,44.0527L10.0461,43.7714L10.0863,43.4907L10.1282,43.2105L10.1718,42.9309L10.2171,42.6518L10.2642,42.3733L10.3129,42.0954L10.3633,41.8181L10.4155,41.5413L10.4693,41.2652L10.5248,40.9896L10.5819,40.7147L10.6408,40.4403L10.7012,40.1666L10.7634,39.8935L10.8272,39.621L10.8926,39.3492L10.9597,39.078L11.0284,38.8075L11.0987,38.5376L11.1707,38.2684L11.2443,37.9998L11.3194,37.7319L11.3962,37.4647L11.4746,37.1981L11.5546,36.9323L11.6362,36.6671L11.7193,36.4026L11.8041,36.1389L11.8904,35.8758L11.9783,35.6134L12.0677,35.3518L12.1587,35.0909L12.2512,34.8308L12.3453,34.5713L12.4409,34.3126L12.5381,34.0547L12.6368,33.7975L12.737,33.5411L12.8387,33.2854L12.9419,33.0305L13.0466,32.7764L13.1529,32.5231L13.2606,32.2706L13.3698,32.0188L13.4805,31.7679L13.5927,31.5177L13.7063,31.2684L13.8215,31.0199L13.938,30.7722L14.0561,30.5253L14.1755,30.2793L14.2965,30.034L14.4188,29.7897L14.5426,29.5462L14.6678,29.3035L14.7945,29.0617L14.9225,28.8208L15.052,28.5807L15.1829,28.3416L15.3151,28.1033L15.4488,27.8658L15.5839,27.6293L15.7203,27.3937L15.8581,27.159L15.9973,26.9252L16.1378,26.6923L16.2797,26.4603L16.423,26.2293L16.5676,25.9991L16.7136,25.77L16.8609,25.5417L17.0095,25.3144L17.1594,25.0881L17.3107,24.8627L17.4633,24.6383L17.6172,24.4149L17.7724,24.1924L17.9289,23.9709L18.0867,23.7505L18.2458,23.531L18.4062,23.3124L18.5678,23.0949L18.7307,22.8784L18.8949,22.663L19.0604,22.4485L19.2271,22.2351L19.395,22.0227L19.5642,21.8113L19.7346,21.601L19.9063,21.3917L20.0792,21.1835L20.2533,20.9763L20.4287,20.7702L20.6052,20.5651L20.7829,20.3612L20.9619,20.1583L21.142,19.9565L21.3234,19.7558L21.5059,19.5562L21.6896,19.3576L21.8745,19.1602L22.0605,18.9639L22.2477,18.7688L22.436,18.5747L22.6255,18.3818L22.8162,18.19L23.008,17.9994L23.2009,17.8099L23.395,17.6215L23.5901,17.4343L23.7864,17.2483L23.9838,17.0634L24.1823,16.8797L24.382,16.6972L24.5827,16.5159L24.7845,16.3357L24.9874,16.1568L25.1913,15.979L25.3964,15.8025L25.6025,15.6271L25.8096,15.453L26.0179,15.2801L26.2272,15.1085L26.4375,14.938L26.6489,14.7688L26.8613,14.6009L27.0747,14.4342L27.2892,14.2687L27.5046,14.1046L27.7211,13.9416L27.9386,13.78L28.1571,13.6196L28.3766,13.4605L28.5971,13.3027L28.8186,13.1462L29.0411,12.991L29.2645,12.8371L29.4889,12.6845L29.7143,12.5333L29.9406,12.3833L30.1679,12.2347L30.3962,12.0874L30.6253,11.9414L30.8554,11.7968L31.0865,11.6536L31.3185,11.5116L31.5514,11.3711L31.7852,11.2319L32.0199,11.0941L32.2555,10.9577L32.492,10.8226L32.7294,10.689L32.9677,10.5567L33.2069,10.4258L33.447,10.2963L33.6879,10.1683L33.9297,10.0417L34.1724,9.91643L34.4159,9.79264L34.6602,9.67028L34.9054,9.54936L35.1515,9.42988L35.3983,9.31185L35.646,9.19528L35.8946,9.08017L36.1439,8.96652L36.3941,8.85434L36.645,8.74364L36.8967,8.63443L37.1493,8.5267L37.4026,8.42046L37.6567,8.31573L37.9116,8.2125L38.1673,8.11078L38.4237,8.01057L38.6809,7.91189L38.9388,7.81474L39.1975,7.71912L39.4569,7.62503L39.7171,7.5325L39.978,7.44151L40.2396,7.35207L40.502,7.2642L40.765,7.17789L41.0288,7.09316L41.2933,7.01L41.5584,6.92843L41.8243,6.84844L42.0908,6.77005L42.3581,6.69326L42.626,6.61808L42.8945,6.5445L43.1638,6.47254L43.4337,6.40221L43.7042,6.3335L43.9754,6.26642L44.2472,6.20099L44.5197,6.1372L44.7928,6.07505L45.0665,6.01457L45.3408,5.95574L45.6158,5.89858L45.8913,5.8431L46.1675,5.78929L46.4442,5.73716L46.7216,5.68673L46.9995,5.63798L47.278,5.59094L47.5571,5.5456L47.8367,5.50198L48.1169,5.46007L48.3976,5.41988L48.6789,5.38142L48.9608,5.34469L49.2431,5.3097L49.526,5.27646L49.8095,5.24496L50.0934,5.21522L50.3779,5.18724L50.6628,5.16102L50.9483,5.13658L51.2343,5.11391L51.5207,5.09303L51.8076,5.07393L52.0951,5.05663L52.3829,5.04112L52.6713,5.02742L52.9601,5.01553L53.2494,5.00545L53.5391,4.99719L53.8292,4.99076L54.1198,4.98616L54.4109,4.9834L54.7019,4.98247L54.9405,4.98309L55.1785,4.98494L55.4161,4.98802L55.6535,4.99232L55.8906,4.99785L56.1274,5.0046L56.3639,5.01256L56.6,5.02174L56.8359,5.03213L57.0715,5.04373L57.3068,5.05654L57.5417,5.07054L57.7764,5.08575L58.0107,5.10215L58.2447,5.11974L58.4784,5.13853L58.7117,5.1585L58.9447,5.17965L59.1774,5.20199L59.4097,5.2255L59.6417,5.25019L59.8734,5.27605L60.1047,5.30308L60.3356,5.33128L60.5662,5.36064L60.7965,5.39115L61.0263,5.42283L61.2558,5.45566L61.485,5.48964L61.7137,5.52476L61.9421,5.56103L62.1701,5.59845L62.3978,5.637L62.625,5.67668L62.8519,5.7175L63.0784,5.75945L63.3044,5.80252L63.5301,5.84672L63.7554,5.89204L63.9803,5.93847L64.2048,5.98602L64.4288,6.03468L64.6525,6.08444L64.8757,6.13531L65.0985,6.18728L65.3209,6.24035L65.5429,6.29452L65.7644,6.34978L65.9855,6.40613L66.2062,6.46356L66.4264,6.52207L66.6462,6.58167L66.8655,6.64235L67.0844,6.70409L67.3029,6.76691L67.5209,6.8308L67.7384,6.89574L67.9555,6.96176L68.1721,7.02883L68.3882,7.09695L68.6039,7.16613L68.8191,7.23636L69.0338,7.30763L69.2447,7.37881L68.3434,10.0491L68.1392,9.98024L67.938,9.91345L67.7363,9.84764L67.5342,9.78281L67.3317,9.71897L67.1287,9.65612L66.9253,9.59426L66.7214,9.53339L66.5171,9.47352L66.3124,9.41465L66.1073,9.35679L65.9017,9.29993L65.6957,9.24408L65.4894,9.18924L65.2826,9.13542L65.0753,9.08261L64.8677,9.03083L64.6597,8.98006L64.4513,8.93033L64.2425,8.88162L64.0333,8.83394L63.8237,8.7873L63.6137,8.7417L63.4033,8.69714L63.1925,8.65362L62.9814,8.61115L62.7699,8.56972L62.558,8.52935L62.3457,8.49003L62.1331,8.45177L61.9201,8.41457L61.7067,8.37844L61.4929,8.34337L61.2789,8.30937L61.0644,8.27644L60.8496,8.24459L60.6344,8.21381L60.4189,8.18411L60.2031,8.1555L59.9869,8.12798L59.7703,8.10154L59.5535,8.0762L59.3363,8.05195L59.1187,8.0288L58.9009,8.00675L58.6827,7.9858L58.4641,7.96596L58.2453,7.94723L58.0261,7.92961L57.8067,7.91311L57.5869,7.89773L57.3668,7.88347L57.1464,7.87033L56.9256,7.85832L56.7046,7.84744L56.4833,7.83769L56.2617,7.82907L56.0398,7.8216L55.8176,7.81527L55.5951,7.81008L55.3723,7.80604L55.1493,7.80315L54.9259,7.80142L54.7027,7.80084L54.4287,7.80171L54.1555,7.8043L53.8828,7.80862L53.6105,7.81466L53.3386,7.8224L53.0671,7.83186L52.7962,7.84302L52.5256,7.85587L52.2555,7.87042L51.9859,7.88665L51.7168,7.90457L51.4481,7.92416L51.1799,7.94542L50.9121,7.96834L50.6449,7.99292L50.3782,8.01916L50.1119,8.04705L49.8461,8.07658L49.5809,8.10776L49.3161,8.14056L49.0519,8.17499L48.7882,8.21105L48.525,8.24872L48.2624,8.28801L48.0003,8.3289L47.7387,8.3714L47.4776,8.41549L47.2171,8.46118L46.9572,8.50845L46.6978,8.5573L46.439,8.60773L46.1808,8.65974L45.9231,8.7133L45.666,8.76843L45.4095,8.82511L45.1536,8.88335L44.8983,8.94313L44.6436,9.00444L44.3894,9.0673L44.1359,9.13168L43.883,9.19759L43.6307,9.26502L43.3791,9.33396L43.128,9.40441L42.8776,9.47636L42.6279,9.54982L42.3788,9.62477L42.1303,9.7012L41.8825,9.77912L41.6353,9.85852L41.3888,9.93939L41.143,10.0217L40.8979,10.1055L40.6534,10.1908L40.4096,10.2775L40.1665,10.3657L39.9241,10.4553L39.6824,10.5463L39.4414,10.6388L39.2011,10.7327L38.9616,10.828L38.7227,10.9247L38.4846,11.0229L38.2472,11.1224L38.0105,11.2234L37.7746,11.3257L37.5394,11.4295L37.305,11.5346L37.0713,11.6411L36.8384,11.749L36.6062,11.8583L36.3749,11.9689L36.1443,12.0809L35.9145,12.1942L35.6854,12.3089L35.4572,12.4249L35.2297,12.5423L35.0031,12.661L34.7773,12.781L34.5522,12.9024L34.328,13.025L34.1047,13.149L33.8821,13.2743L33.6604,13.4009L33.4395,13.5288L33.2195,13.658L33.0003,13.7885L32.782,13.9202L32.5645,14.0533L32.3479,14.1876L32.1321,14.3232L31.9173,14.46L31.7033,14.5981L31.4902,14.7375L31.278,14.8781L31.0667,15.0199L30.8563,15.163L30.6467,15.3073L30.4382,15.4528L30.2305,15.5995L30.0237,15.7475L29.8179,15.8967L29.613,16.0471L29.409,16.1986L29.206,16.3514L29.004,16.5054L28.8029,16.6605L28.6027,16.8169L28.4035,16.9744L28.2053,17.133L28.008,17.2929L27.8118,17.4538L27.6165,17.616L27.4222,17.7793L27.2289,17.9437L27.0366,18.1093L26.8453,18.276L26.6551,18.4438L26.4658,18.6128L26.2776,18.7828L26.0903,18.954L25.9042,19.1263L25.719,19.2997L25.5349,19.4741L25.3519,19.6497L25.1699,19.8264L24.9889,20.0041L24.8091,20.1829L24.6303,20.3628L24.4525,20.5437L24.2759,20.7257L24.1003,20.9087L23.9258,21.0928L23.7525,21.278L23.5802,21.4642L23.409,21.6514L23.2389,21.8396L23.07,22.0289L22.9022,22.2191L22.7355,22.4104L22.5699,22.6027L22.4055,22.796L22.2422,22.9903L22.08,23.1856L21.919,23.3819L21.7592,23.5791L21.6005,23.7773L21.443,23.9765L21.2867,24.1767L21.1316,24.3778L20.9776,24.5798L20.8248,24.7829L20.6733,24.9868L20.5229,25.1917L20.3737,25.3975L20.2257,25.6043L20.079,25.812L19.9335,26.0206L19.7891,26.2301L19.6461,26.4405L19.5042,26.6518L19.3636,26.864L19.2243,27.0771L19.0862,27.2911L18.9494,27.5059L18.8138,27.7217L18.6795,27.9383L18.5464,28.1558L18.4147,28.3741L18.2842,28.5933L18.155,28.8133L18.0271,29.0342L17.9005,29.2559L17.7752,29.4785L17.6512,29.7019L17.5285,29.9261L17.4072,30.1511L17.2872,30.3769L17.1685,30.6036L17.0511,30.831L16.9351,31.0592L16.8204,31.2883L16.707,31.5181L16.5951,31.7487L16.4844,31.9801L16.3752,32.2122L16.2673,32.4451L16.1608,32.6788L16.0557,32.9132L15.9519,33.1484L15.8496,33.3843L15.7486,33.621L15.6491,33.8584L15.5509,34.0965L15.4542,34.3354L15.3589,34.575L15.265,34.8152L15.1725,35.0562L15.0814,35.2979L14.9918,35.5403L14.9037,35.7834L14.817,36.0272L14.7317,36.2717L14.6479,36.5168L14.5656,36.7627L14.4847,37.0091L14.4053,37.2563L14.3274,37.5041L14.2509,37.7526L14.176,38.0017L14.1025,38.2515L14.0306,38.5019L13.9601,38.7529L13.8912,39.0045L13.8238,39.2568L13.7579,39.5097L13.6935,39.7632L13.6306,40.0174L13.5693,40.2721L13.5095,40.5274L13.4513,40.7833L13.3946,41.0398L13.3395,41.2969L13.2859,41.5546L13.2339,41.8128L13.1835,42.0717L13.1346,42.331L13.0874,42.591L13.0417,42.8514L12.9976,43.1125L12.9551,43.3741L12.9142,43.6362L12.8749,43.8988L12.8372,44.162L12.8012,44.4257L12.7667,44.69L12.7339,44.9547L12.7028,45.22L12.6732,45.4857L12.6453,45.752L12.6191,46.0187L12.5945,46.286L12.5716,46.5537L12.5503,46.8219L12.5308,47.0906L12.5128,47.3597L12.4966,47.6293L12.4821,47.8994L12.4692,48.17L12.458,48.441L12.4486,48.7124L12.4408,48.9843L12.4348,49.2566L12.4305,49.5293L12.4279,49.8025L12.427,50.0761L12.4279,50.3497L12.4305,50.6229L12.4348,50.8956L12.4408,51.168L12.4486,51.4398L12.458,51.7113L12.4692,51.9823L12.4821,52.2528L12.4966,52.5229L12.5128,52.7925L12.5308,53.0616L12.5503,53.3303L12.5716,53.5985L12.5945,53.8663L12.6191,54.1335L12.6453,54.4003L12.6732,54.6665L12.7028,54.9323L12.7339,55.1975L12.7667,55.4623L12.8012,55.7265L12.8372,55.9902L12.8749,56.2534L12.9142,56.516L12.9551,56.7782L12.9976,57.0397L13.0417,57.3008L13.0874,57.5613L13.1346,57.8212L13.1835,58.0806L13.2339,58.3394L13.2859,58.5976L13.3395,58.8553L13.3946,59.1124L13.4513,59.3689L13.5095,59.6248L13.5693,59.8801L13.6306,60.1349L13.6935,60.389L13.7579,60.6425L13.8238,60.8954L13.8912,61.1477L13.9601,61.3993L14.0306,61.6504L14.1025,61.9008L14.176,62.1505L14.2509,62.3996L14.3274,62.6481L14.4053,62.8959L14.4847,63.1431L14.5656,63.3896L14.6479,63.6354L14.7317,63.8805L14.817,64.125L14.9037,64.3688L14.9918,64.6119L15.0814,64.8543L15.1725,65.096L15.265,65.337L15.3589,65.5773L15.4542,65.8169L15.5509,66.0557L15.6491,66.2938L15.7486,66.5312L15.8496,66.7679L15.9519,67.0038L16.0557,67.239L16.1608,67.4734L16.2673,67.7071L16.3752,67.94L16.4844,68.1722L16.5951,68.4035L16.707,68.6341L16.8204,68.864L16.9351,69.093L17.0511,69.3212L17.1685,69.5487L17.2872,69.7753L17.4072,70.0011L17.5285,70.2262L17.6512,70.4504L17.7752,70.6737L17.9005,70.8963L18.0271,71.118L18.155,71.3389L18.2842,71.5589L18.4147,71.7781L18.5464,71.9965L18.6795,72.2139L18.8138,72.4305L18.9494,72.6463L19.0862,72.8611L19.2243,73.0751L19.3636,73.2882L19.5042,73.5004L19.6461,73.7117L19.7892,73.9222L19.9335,74.1317L20.079,74.3403L20.2257,74.5479L20.3737,74.7547L20.5229,74.9605L20.6733,75.1654L20.8248,75.3694L20.9776,75.5724L21.1316,75.7744L21.2867,75.9756L21.443,76.1757L21.6005,76.3749L21.7592,76.5731L21.919,76.7704L22.08,76.9666L22.2422,77.1619L22.4055,77.3562L22.5699,77.5495L22.7355,77.7418L22.9022,77.9331L23.07,78.1234L23.2389,78.3126L23.409,78.5008L23.5802,78.6881L23.7525,78.8742L23.9258,79.0594L24.1003,79.2435L24.2759,79.4265L24.4525,79.6085L24.6303,79.7895L24.8091,79.9693L24.989,80.1481L25.1699,80.3259L25.3519,80.5025L25.5349,80.6781L25.719,80.8526L25.9042,81.0259L26.0904,81.1982L26.2776,81.3694L26.4658,81.5395L26.6551,81.7084L26.8453,81.8762L27.0366,82.0429L27.2289,82.2085L27.4222,82.3729L27.6165,82.5362L27.8118,82.6984L28.008,82.8594L28.2053,83.0192L28.4035,83.1779L28.6027,83.3354L28.8028,83.4917L29.004,83.6468L29.206,83.8008L29.409,83.9536L29.613,84.1052L29.8179,84.2555L30.0237,84.4047L30.2305,84.5527L30.4382,84.6994L30.6467,84.845L30.8563,84.9893L31.0667,85.1323L31.278,85.2742L31.4902,85.4148L31.7033,85.5541L31.9173,85.6922L32.1321,85.829L32.3479,85.9646L32.5645,86.0989L32.782,86.232L33.0003,86.3637L33.2195,86.4942L33.4395,86.6234L33.6604,86.7513L33.8821,86.8779L34.1047,87.0032L34.328,87.1272L34.5522,87.2499L34.7773,87.3712L35.0031,87.4913L35.2297,87.61L35.4572,87.7273L35.6854,87.8434L35.9145,87.958L36.1443,88.0714L36.3749,88.1834L36.6062,88.294L36.8384,88.4032L37.0713,88.5111L37.305,88.6176L37.5394,88.7227L37.7746,88.8265L38.0105,88.9288L38.2472,89.0298L38.4846,89.1293L38.7227,89.2275L38.9616,89.3242L39.2011,89.4196L39.4414,89.5135L39.6824,89.6059L39.9241,89.697L40.1665,89.7866L40.4096,89.8747L40.6534,89.9614L40.8979,90.0467L41.143,90.1305L41.3888,90.2128L41.6353,90.2937L41.8825,90.3731L42.1303,90.451L42.3788,90.5275L42.6279,90.6024L42.8776,90.6759L43.128,90.7478L43.3791,90.8183L43.6307,90.8872L43.883,90.9546L44.1359,91.0205L44.3894,91.0849L44.6436,91.1478L44.8983,91.2091L45.1536,91.2689L45.4095,91.3271L45.666,91.3838L45.9231,91.4389L46.1808,91.4925L46.439,91.5445L46.6978,91.5949L46.9572,91.6438L47.2171,91.691L47.4776,91.7367L47.7387,91.7808L48.0003,91.8233L48.2624,91.8642L48.525,91.9035L48.7882,91.9412L49.0519,91.9772L49.3161,92.0117L49.5809,92.0445L49.8461,92.0756L50.1119,92.1052L50.3781,92.1331L50.6449,92.1593L50.9121,92.1839L51.1799,92.2068L51.4481,92.2281L51.7168,92.2477L51.9859,92.2656L52.2555,92.2818L52.5256,92.2964L52.7962,92.3092L53.0672,92.3204L53.3386,92.3298L53.6104,92.3376L53.8828,92.3436L54.1555,92.3479L54.4287,92.3505L54.7023,92.3514L54.9759,92.3505L55.2491,92.3479L55.5218,92.3436L55.7941,92.3376L56.066,92.3298L56.3374,92.3204L56.6084,92.3092L56.879,92.2964L57.149,92.2818L57.4187,92.2656L57.6878,92.2477L57.9565,92.2281L58.2247,92.2068L58.4924,92.1839L58.7597,92.1593L59.0265,92.1331L59.2927,92.1052L59.5585,92.0756L59.8237,92.0445L60.0885,92.0117L60.3527,91.9772L60.6164,91.9412L60.8796,91.9035L61.1422,91.8642L61.4043,91.8233L61.6659,91.7808L61.927,91.7367L62.1875,91.691L62.4474,91.6438L62.7068,91.5949L62.9656,91.5445L63.2238,91.4925L63.4815,91.4389L63.7386,91.3838L63.9951,91.3271L64.251,91.2689L64.5063,91.2091L64.761,91.1478L65.0152,91.0849L65.2687,91.0205L65.5216,90.9546L65.7739,90.8872L66.0255,90.8183L66.2766,90.7478L66.527,90.6759L66.7767,90.6024L67.0258,90.5275L67.2743,90.451L67.5221,90.3731L67.7692,90.2937L68.0157,90.2128L68.2616,90.1305L68.5067,90.0467L68.7512,89.9614L68.995,89.8747L69.2381,89.7866L69.4805,89.697L69.7222,89.6059L69.9632,89.5135L70.2035,89.4196L70.443,89.3242L70.6819,89.2275L70.92,89.1293L71.1574,89.0298L71.3941,88.9288L71.63,88.8265L71.8652,88.7227L72.0996,88.6176L72.3333,88.5111L72.5662,88.4032L72.7984,88.294L73.0297,88.1834L73.2603,88.0714L73.4901,87.958L73.7192,87.8434L73.9474,87.7273L74.1748,87.61L74.4015,87.4913L74.6273,87.3712L74.8523,87.2499L75.0766,87.1272L75.2999,87.0032L75.5225,86.8779L75.7442,86.7513L75.9651,86.6234L76.1851,86.4942L76.4043,86.3637L76.6226,86.232L76.8401,86.0989L77.0567,85.9646L77.2725,85.8291L77.4873,85.6922L77.7013,85.5541L77.9144,85.4148L78.1266,85.2742L78.3379,85.1323L78.5483,84.9893L78.7579,84.8449L78.9664,84.6994L79.1741,84.5527L79.3809,84.4047L79.5867,84.2555L79.7916,84.1052L79.9956,83.9536L80.1986,83.8008L80.4006,83.6468L80.6017,83.4917L80.8019,83.3354L81.0011,83.1779L81.1993,83.0192L81.3965,82.8594L81.5928,82.6984L81.7881,82.5362L81.9824,82.3729L82.1757,82.2085L82.368,82.043L82.5593,81.8763L82.7495,81.7084L82.9388,81.5395L83.127,81.3694L83.3142,81.1982L83.5004,81.0259L83.6856,80.8526L83.8697,80.6781L84.0527,80.5025L84.2347,80.3259L84.4156,80.1482L84.5955,79.9693L84.7743,79.7895L84.9521,79.6085L85.1287,79.4265L85.3043,79.2435L85.4787,79.0594L85.6521,78.8742L85.8244,78.6881L85.9956,78.5008L86.1657,78.3126L86.3346,78.1233L86.5024,77.9331L86.6691,77.7418L86.8347,77.5495L86.9991,77.3562L87.1624,77.1619L87.3246,76.9666L87.4855,76.7704L87.6454,76.5731L87.8041,76.3749L87.9615,76.1757L88.1179,75.9756L88.273,75.7745L88.427,75.5724L88.5798,75.3694L88.7313,75.1654L88.8817,74.9605L89.0309,74.7547L89.1789,74.5479L89.3256,74.3403L89.4711,74.1317L89.6154,73.9222L89.7585,73.7117L89.9003,73.5004L90.0409,73.2882L90.1803,73.0751L90.3184,72.8611L90.4552,72.6463L90.5908,72.4305L90.7251,72.2139L90.8582,71.9964L90.9899,71.7781L91.1204,71.5589L91.2496,71.3389L91.3775,71.118L91.5041,70.8963L91.6294,70.6737L91.7534,70.4504L91.876,70.2262L91.9974,70.0011L92.1174,69.7753L92.2361,69.5487L92.3535,69.3212L92.4695,69.093L92.5842,68.864L92.6976,68.6341L92.8095,68.4035L92.9202,68.1722L93.0294,67.94L93.1373,67.7071L93.2438,67.4734L93.3489,67.239L93.4527,67.0038L93.555,66.7679L93.656,66.5313L93.7555,66.2938L93.8537,66.0557L93.9504,65.8169L94.0457,65.5773L94.1396,65.337L94.2321,65.096L94.3231,64.8543L94.4128,64.6119L94.5009,64.3688L94.5876,64.125L94.6729,63.8805L94.7567,63.6354L94.839,63.3896L94.9199,63.1431L94.9993,62.8959L95.0772,62.6481L95.1536,62.3996L95.2286,62.1505L95.3021,61.9008L95.374,61.6504L95.4444,61.3993L95.5134,61.1477L95.5808,60.8954L95.6467,60.6425L95.7111,60.389L95.774,60.1349L95.8353,59.8801L95.8951,59.6248L95.9533,59.3689L96.01,59.1124L96.0651,58.8553L96.1187,58.5976L96.1707,58.3394L96.2211,58.0806L96.27,57.8212L96.3172,57.5613L96.3629,57.3008L96.407,57.0397L96.4495,56.7781L96.4904,56.516L96.5297,56.2534L96.5674,55.9902L96.6034,55.7265L96.6379,55.4623L96.6707,55.1975L96.7018,54.9323L96.7314,54.6665L96.7592,54.4003L96.7855,54.1335L96.8101,53.8663L96.833,53.5985L96.8543,53.3303L96.8738,53.0617L96.8918,52.7925L96.908,52.5229L96.9225,52.2528L96.9354,51.9823L96.9466,51.7113L96.956,51.4398L96.9638,51.168L96.9698,50.8956L96.9741,50.6229L96.9767,50.3497L96.9776,50.0755L96.9771,49.876L96.9757,49.6761L96.9734,49.4765L96.9702,49.277L96.966,49.0778L96.961,48.8789L96.955,48.6801L96.9481,48.4817L96.9403,48.2834L96.9315,48.0854L96.9219,47.8876L96.9114,47.6901L96.9,47.4928L96.8876,47.2958L96.8744,47.0991L96.8603,46.9025L96.8453,46.7063L96.8294,46.5102L96.8126,46.3145L96.7949,46.119L96.7763,45.9237L96.7569,45.7288L96.7365,45.5341L96.7153,45.3396L96.6932,45.1454L96.6702,44.9515L96.6464,44.7579L96.6217,44.5645L96.5961,44.3715L96.5697,44.1786L96.5424,43.9861L96.5142,43.7939L96.4851,43.6019L96.4552,43.4102L96.4245,43.2188L96.3929,43.0278L96.3604,42.8369L96.3271,42.6464L96.293,42.4562L96.258,42.2662L96.2221,42.0766L96.1854,41.8873L96.1479,41.6983L96.1095,41.5095L96.0703,41.3211L96.0303,41.133L95.9894,40.9452L95.9477,40.7577L95.9052,40.5705L95.8619,40.3837L95.8177,40.1971L95.7727,40.0109L95.7269,39.825L95.6802,39.6394L95.6328,39.4541L95.5845,39.2692L95.5355,39.0846L95.4856,38.9003L95.4349,38.7163L95.3834,38.5327L95.3311,38.3494L95.278,38.1665L95.2241,37.9839L95.1685,37.7985L97.8679,36.9885L97.9253,37.1799L97.9829,37.3747L98.0395,37.5699L98.0953,37.7655L98.1503,37.9614L98.2044,38.1577L98.2576,38.3543L98.3099,38.5513L98.3614,38.7487L98.4121,38.9463L98.4618,39.1443L98.5107,39.3427L98.5587,39.5414L98.6058,39.7405L98.6521,39.9399L98.6975,40.1396L98.742,40.3396L98.7856,40.54L98.8283,40.7407L98.8701,40.9418L98.911,41.1431L98.9511,41.3448L98.9902,41.5468L99.0285,41.7491L99.0658,41.9518L99.1023,42.1547L99.1378,42.3579L99.1724,42.5615L99.2061,42.7654L99.2389,42.9695L99.2708,43.174L99.3018,43.3788L99.3319,43.5839L99.361,43.7892L99.3892,43.9949L99.4165,44.2008L99.4428,44.407L99.4683,44.6136L99.4928,44.8204L99.5163,45.0275L99.5389,45.2348L99.5606,45.4424L99.5814,45.6504L99.6012,45.8586L99.62,46.067L99.6379,46.2757L99.6549,46.4847L99.6709,46.694L99.686,46.9035L99.7001,47.1133L99.7132,47.3233L99.7254,47.5336L99.7366,47.7442L99.7469,47.955L99.7562,48.166L99.7645,48.3773L99.7719,48.5888L99.7782,48.8006L99.7836,49.0126L99.788,49.2248L99.7915,49.4373L99.794,49.65L99.7954,49.8629L99.7959,50.0767L99.795,50.3676L99.7923,50.6586L99.7876,50.9492L99.7812,51.2393L99.773,51.529L99.7629,51.8183L99.751,52.1071L99.7373,52.3955L99.7218,52.6834L99.7045,52.9708L99.6854,53.2577L99.6645,53.5442L99.6418,53.8301L99.6174,54.1156L99.5912,54.4005L99.5632,54.685L99.5335,54.9689L99.502,55.2524L99.4687,55.5353L99.4337,55.8177L99.397,56.0995L99.3585,56.3808L99.3183,56.6615L99.2764,56.9417L99.2328,57.2214L99.1875,57.5004L99.1404,57.7789L99.0917,58.0568L99.0412,58.3342L98.9891,58.6109L98.9353,58.8871L98.8798,59.1626L98.8227,59.4376L98.7638,59.7119L98.7034,59.9856L98.6412,60.2587L98.5774,60.5312L98.512,60.803L98.4449,61.0742L98.3762,61.3447L98.3059,61.6146L98.2339,61.8839L98.1603,62.1524L98.0852,62.4203L98.0084,62.6876L97.93,62.9541L97.85,63.22L97.7684,63.4851L97.6853,63.7496L97.6005,64.0134L97.5142,64.2764L97.4263,64.5388L97.3369,64.8004L97.2459,65.0613L97.1534,65.3215L97.0593,65.5809L96.9637,65.8396L96.8665,66.0975L96.7678,66.3547L96.6676,66.6111L96.5659,66.8668L96.4627,67.1217L96.3579,67.3758L96.2517,67.6291L96.144,67.8817L96.0348,68.1334L95.9241,68.3844L95.8119,68.6345L95.6982,68.8839L95.5831,69.1324L95.4666,69.3801L95.3485,69.6269L95.229,69.873L95.1081,70.1182L94.9858,70.3625L94.862,70.6061L94.7368,70.8487L94.6101,71.0905L94.4821,71.3314L94.3526,71.5715L94.2217,71.8107L94.0895,72.049L93.9558,72.2864L93.8207,72.5229L93.6843,72.7585L93.5465,72.9932L93.4073,73.227L93.2668,73.46L93.1249,73.6919L92.9816,73.923L92.837,74.1531L92.691,74.3823L92.5437,74.6105L92.3951,74.8378L92.2452,75.0641L92.0939,75.2895L91.9413,75.5139L91.7874,75.7373L91.6322,75.9598L91.4757,76.1813L91.3179,76.4018L91.1588,76.6213L90.9984,76.8398L90.8368,77.0573L90.6739,77.2738L90.5097,77.4893L90.3442,77.7037L90.1775,77.9171L90.0096,78.1296L89.8404,78.3409L89.67,78.5512L89.4983,78.7605L89.3254,78.9688L89.1513,79.1759L88.9759,79.3821L88.7994,79.5871L88.6217,79.791L88.4427,79.9939L88.2626,80.1957L88.0812,80.3965L87.8987,80.5961L87.715,80.7946L87.5302,80.992L87.3441,81.1883L87.1569,81.3835L86.9686,81.5775L86.779,81.7704L86.5884,81.9622L86.3966,82.1529L86.2037,82.3424L86.0096,82.5307L85.8145,82.7179L85.6182,82.904L85.4208,83.0888L85.2223,83.2725L85.0226,83.455L84.8219,83.6364L84.6201,83.8165L84.4172,83.9955L84.2133,84.1732L84.0082,84.3498L83.8021,84.5251L83.595,84.6992L83.3867,84.8721L83.1774,85.0438L82.9671,85.2142L82.7557,85.3834L82.5433,85.5514L82.3299,85.718L82.1154,85.8835L81.9,86.0477L81.6835,86.2106L81.466,86.3722L81.2475,86.5326L81.028,86.6917L80.8075,86.8495L80.586,87.006L80.3635,87.1612L80.1401,87.3151L79.9157,87.4677L79.6903,87.619L79.4639,87.7689L79.2367,87.9175L79.0084,88.0648L78.7793,88.2108L78.5491,88.3554L78.3181,88.4987L78.0861,88.6406L77.8532,88.7811L77.6194,88.9203L77.3847,89.0581L77.1491,89.1946L76.9126,89.3296L76.6752,89.4633L76.4368,89.5955L76.1977,89.7264L75.9576,89.8559L75.7167,89.9839L75.4749,90.1106L75.2322,90.2358L74.9887,90.3596L74.7444,90.4819L74.4992,90.6029L74.2531,90.7223L74.0062,90.8404L73.7585,90.9569L73.51,91.0721L73.2607,91.1857L73.0105,91.2979L72.7596,91.4086L72.5079,91.5178L72.2553,91.6255L72.002,91.7318L71.7479,91.8365L71.493,91.9397L71.2373,92.0414L70.9809,92.1416L70.7237,92.2403L70.4658,92.3375L70.2071,92.4331L69.9477,92.5272L69.6875,92.6197L69.4266,92.7107L69.165,92.8001L68.9026,92.888L68.6396,92.9743L68.3758,93.0591L68.1113,93.1422L67.8462,93.2238L67.5803,93.3038L67.3137,93.3822L67.0465,93.459L66.7786,93.5341L66.5101,93.6077L66.2408,93.6797L65.9709,93.75L65.7004,93.8187L65.4292,93.8858L65.1574,93.9512L64.8849,94.015L64.6118,94.0772L64.3381,94.1377L64.0638,94.1965L63.7888,94.2536L63.5132,94.3091L63.2371,94.3629L62.9604,94.4151L62.683,94.4655L62.4051,94.5142L62.1266,94.5613L61.8476,94.6066L61.5679,94.6503L61.2877,94.6922L61.007,94.7323L60.7257,94.7708L60.4438,94.8075L60.1615,94.8425L59.8786,94.8758L59.5951,94.9073L59.3112,94.937L59.0267,94.965L58.7418,94.9912L58.4563,95.0156L58.1703,95.0383L57.8839,95.0592L57.597,95.0783L57.3096,95.0956L57.0216,95.1111L56.7333,95.1248L56.4445,95.1367L56.1552,95.1468L55.8655,95.155L55.5753,95.1615L55.2848,95.1661L54.9937,95.1688L54.7023,95.1698Z" style="fill:white;"/>
        </g>
        <g>
            <path d="M53.8752,69.3259L39.7834,56.6433L41.6688,54.5484L55.7605,67.231L53.8752,69.3259Z" style="fill:white;"/>
        </g>
        <g>
            <path d="M55.7605,69.3259L53.8752,67.231L67.967,54.5498L69.8522,56.6448L55.7605,69.3259Z" style="fill:white;"/>
        </g>
    </g>
</svg>
